<svg width="88" height="48" viewBox="0 0 88 48" fill="none" xmlns="http://www.w3.org/2000/svg">
<rect x="0.5" y="0.5" width="87.001" height="47" rx="11.5" stroke="white" stroke-opacity="0.1"/>
<path d="M35.5485 22.931L25.0688 12.4526C24.4658 11.8491 23.487 11.8491 22.8833 12.4526L20.7073 14.6288L23.4675 17.389C24.1092 17.1724 24.8446 17.3176 25.3559 17.829C25.8698 18.3435 26.014 19.0853 25.7919 19.7291L28.4522 22.3894C29.0959 22.1676 29.8384 22.3109 30.3524 22.8257C31.0709 23.544 31.0709 24.708 30.3524 25.4264C29.6338 26.1452 28.4698 26.1452 27.7508 25.4264C27.2106 24.8858 27.0769 24.092 27.3506 23.4263L24.8695 20.9453L24.8693 27.4741C25.0445 27.5608 25.2098 27.6765 25.3558 27.8219C26.0741 28.5401 26.0741 29.7038 25.3558 30.4232C24.6373 31.1414 23.4728 31.1414 22.7551 30.4232C22.0367 29.7039 22.0367 28.5402 22.7551 27.8219C22.9326 27.6447 23.1381 27.5105 23.3573 27.4206V20.8311C23.138 20.7416 22.9328 20.6084 22.755 20.4298C22.2108 19.8861 22.0797 19.0874 22.3588 18.4192L19.6378 15.6978L12.4528 22.8826C11.8491 23.4866 11.8491 24.4654 12.4528 25.0689L22.9318 35.5474C23.5351 36.1509 24.5136 36.1509 25.1177 35.5474L35.5483 25.1184C36.1518 24.5146 36.1518 23.5356 35.5483 22.9319" fill="#F05133"/>
<path d="M56.021 31.18C54.5543 31.18 53.301 30.8667 52.261 30.24C51.2343 29.6133 50.4476 28.76 49.901 27.68C49.3676 26.5867 49.101 25.34 49.101 23.94V23.78C49.101 22.74 49.2676 21.78 49.601 20.9C49.9343 20.0067 50.4076 19.2333 51.021 18.58C51.6343 17.9133 52.361 17.4 53.201 17.04C54.0543 16.6667 54.9943 16.48 56.021 16.48C56.9676 16.48 57.8543 16.6333 58.681 16.94C59.5076 17.2467 60.201 17.7333 60.761 18.4C61.3343 19.0667 61.6943 19.94 61.841 21.02H60.101C59.901 19.8733 59.4343 19.06 58.701 18.58C57.981 18.1 57.101 17.86 56.061 17.86C54.9676 17.86 54.0343 18.1133 53.261 18.62C52.501 19.1133 51.9143 19.8 51.501 20.68C51.101 21.56 50.901 22.5867 50.901 23.76V23.92C50.901 25.0933 51.0943 26.12 51.481 27C51.8676 27.88 52.441 28.5667 53.201 29.06C53.961 29.54 54.901 29.78 56.021 29.78C57.061 29.78 57.9076 29.58 58.561 29.18C59.2143 28.7667 59.701 28.2133 60.021 27.52C60.341 26.8267 60.5076 26.06 60.521 25.22H56.341V23.78H62.221V24.84C62.221 26.2133 61.9543 27.3733 61.421 28.32C60.901 29.2667 60.1743 29.98 59.241 30.46C58.321 30.94 57.2476 31.18 56.021 31.18ZM65.853 18.36C65.5597 18.36 65.2997 18.2533 65.073 18.04C64.8597 17.8133 64.753 17.5533 64.753 17.26C64.753 16.9533 64.8597 16.6933 65.073 16.48C65.2997 16.2667 65.5597 16.16 65.853 16.16C66.1597 16.16 66.4197 16.2667 66.633 16.48C66.8463 16.6933 66.953 16.9533 66.953 17.26C66.953 17.5533 66.8463 17.8133 66.633 18.04C66.4197 18.2533 66.1597 18.36 65.853 18.36ZM65.053 31V20.54H66.713V31H65.053ZM73.2907 31.14C72.344 31.14 71.6373 30.8867 71.1707 30.38C70.704 29.86 70.4707 29.1933 70.4707 28.38V21.94H68.9707V20.54H70.4707V18.16H72.1307V20.54H74.5707V21.94H72.1307V28.22C72.1307 29.2333 72.564 29.74 73.4307 29.74C73.6973 29.74 73.9307 29.72 74.1307 29.68C74.344 29.64 74.5373 29.5867 74.7107 29.52V30.92C74.5373 30.9733 74.344 31.02 74.1307 31.06C73.9173 31.1133 73.6373 31.14 73.2907 31.14Z" fill="white"/>
</svg>
