<svg width="109" height="48" viewBox="0 0 109 48" fill="none" xmlns="http://www.w3.org/2000/svg">
<rect x="0.5" y="0.5" width="108" height="47" rx="11.5" stroke="white" stroke-opacity="0.1"/>
<g clip-path="url(#clip0_3291_10458)">
<path d="M33.4903 19.8854C33.4263 20.1734 33.3257 20.3837 33.1886 20.5254L33.0926 20.4614C33.1977 20.1917 33.248 20.0363 33.2434 19.9951L33.216 19.954C33.1794 19.954 33.1337 20.05 33.0743 20.242H33.024C33.024 20.2146 33.0103 20.1826 32.9966 20.1551H32.9737L31.8766 23.0351C31.8034 23.2911 31.7303 23.4283 31.6709 23.4557C31.6709 23.4831 31.6892 23.4969 31.7212 23.4969C31.7303 23.6203 31.7029 23.7437 31.6343 23.8626C31.4332 24.4294 31.3052 24.7449 31.2412 24.7997L31.2823 25.0694C31.2823 25.0969 31.2732 25.1151 31.2412 25.1151H31.1954C31.1863 25.0466 31.1589 25.01 31.1132 25.0146H31.0903C31.0309 25.1106 30.9852 25.2203 30.9532 25.3483H30.9989C31.0629 25.3071 31.0903 25.2569 31.0857 25.202L31.1817 25.1929L31.232 25.2111C31.1909 25.2797 31.168 25.3346 31.1726 25.3711L31.1954 25.4123L31.136 25.554V25.5769C31.2046 25.5769 31.264 25.5906 31.3143 25.6271C31.3646 25.618 31.4149 25.5997 31.456 25.5723C31.6526 25.5631 31.8537 25.5631 32.0503 25.5631L32.224 25.5037L32.6492 25.4946L32.7223 25.4854L32.7634 25.458V25.4809C32.9554 25.4671 32.9692 25.4809 33.12 25.4946V25.5174L33.0194 25.5266V25.5677C33.0514 25.5677 33.0834 25.554 33.1063 25.5357C33.1337 25.5357 33.1474 25.5449 33.152 25.5769C33.1109 25.5769 33.0606 25.5906 33.0057 25.6089L32.96 25.5951C32.8869 25.6134 32.9006 25.618 32.8549 25.6226L32.7817 25.6089C32.7817 25.6089 32.7817 25.6271 32.768 25.6317C32.768 25.6591 32.7817 25.6729 32.8092 25.6729L32.9006 25.6637L32.8594 25.65C32.8594 25.65 32.8686 25.6683 32.8823 25.6683L33.2709 25.6317L33.4217 25.5997C33.4217 25.5997 33.4309 25.618 33.44 25.618L33.5086 25.5906L33.6412 25.5814C33.7463 25.5723 33.7417 25.5677 33.9657 25.5311C33.9657 25.522 33.9657 25.5129 33.9794 25.5129V25.5311L34.4594 25.4351L34.4412 25.3894C34.3177 25.4169 34.3223 25.3986 34.2629 25.4077L33.9383 25.4214V25.3986L34.1166 25.3757H34.1852L34.2217 25.3437V25.3666C34.4823 25.3437 34.5692 25.4077 35.7577 25.1609C35.8217 25.1609 35.8172 25.1014 35.8537 24.9917C35.8309 24.9917 35.808 24.9917 35.7897 24.978C35.6937 25.0191 35.6389 24.9963 35.4514 25.0283C35.4377 25.0283 35.424 25.0191 35.4149 24.9871V24.9689L35.5932 24.978C35.6252 24.978 35.6937 24.9689 35.7897 24.914C35.808 24.9231 35.776 24.9369 35.7897 24.9323H35.8217C35.8217 24.9323 35.8492 24.914 35.8492 24.882L35.8309 24.8409C35.7074 24.85 35.6526 24.8546 35.552 24.9094V24.8866L35.4012 24.9003C35.4012 24.8546 35.3874 24.8317 35.3646 24.8317L35.2914 24.8409C35.2 24.85 35.1589 24.8409 35.1132 24.882C35.1132 24.8683 35.104 24.8591 35.0994 24.8591L35.0126 24.8683L34.9623 24.8957C34.9623 24.8957 34.9532 24.8729 34.9486 24.8729L34.9166 24.9003V24.8774L34.7977 24.8683H34.7703V24.914L34.8343 24.9277H34.8892C34.8892 24.9277 34.9303 24.9414 34.9577 24.9414L35.008 24.9186V24.9369C34.7292 25.0054 34.7292 24.9917 34.5372 25.0283C34.5143 25.0146 34.496 25.01 34.4914 25.01C34.4732 25.0283 34.5143 25.01 34.5006 25.01C34.4686 25.01 34.4549 25.0009 34.4503 24.9689L34.5463 24.9597C34.5463 24.9597 34.5554 24.9689 34.6149 24.978C34.688 24.9369 34.6972 24.9231 34.7383 24.9186V24.8774C34.4594 24.9323 34.5692 24.8957 34.2263 24.9231H34.2126V24.882C34.6514 24.8271 34.5006 24.8591 34.6514 24.8134C34.6514 24.8271 34.6606 24.8363 34.6652 24.8363C34.6789 24.8226 34.7063 24.8089 34.7292 24.8089H34.7612C34.912 24.7951 34.9669 24.8226 35.2732 24.7403V24.7586L35.3234 24.7357H35.3692C35.3692 24.6854 35.4377 24.6809 35.456 24.6763V24.6306C34.9166 24.7403 34.7749 24.7037 34.624 24.754V24.7357C34.4823 24.7631 34.4777 24.7449 34.4457 24.7494C34.4366 24.7494 34.4183 24.7586 34.4046 24.7769C34.4046 24.7631 34.3954 24.754 34.3863 24.754C34.3634 24.754 34.3772 24.7631 34.3543 24.7814L34.3863 24.754L33.92 24.8271C33.92 24.8271 33.9109 24.8089 33.9017 24.8089C33.6686 24.8591 33.728 24.8683 33.4126 24.8957C33.3989 24.8957 33.376 24.9049 33.3532 24.9186C33.3532 24.9094 33.344 24.9003 33.3303 24.9003L33.1337 24.914L33.0057 24.946C33.0057 24.946 32.9966 24.9277 32.9829 24.9277C32.9097 24.946 32.8457 24.9597 32.7954 24.9643C32.7634 24.9643 32.8092 24.9551 32.7863 24.946L32.7452 24.9689C32.6857 24.9689 32.7177 24.9689 32.5212 24.9689L32.1783 25.0191L32.0503 25.01C32.0503 25.01 32.0503 25.0283 32.032 25.0329C31.8857 25.0146 31.8126 24.9917 31.808 24.9643C31.8263 24.8271 31.8583 24.7586 31.9086 24.7494H31.9314L31.9086 24.7906H31.9314C31.9772 24.7631 32 24.7403 32 24.7174V24.6717H31.9497V24.6306C31.9406 24.594 31.9497 24.5666 31.9589 24.5391L32.064 24.37V24.4111H32.1189V24.37L32.0869 24.3289C32.1234 24.2969 32.1554 24.2786 32.1783 24.2786V24.2557H32.1097V24.1871C32.2377 23.9037 32.3063 23.7391 32.3017 23.698L32.3474 23.7163C32.3794 23.7163 32.3932 23.698 32.3886 23.666H32.3429V23.6523C32.3429 23.6203 32.3429 23.5883 32.3566 23.5563C32.4297 23.4831 32.4617 23.4054 32.4526 23.3231C32.4663 23.3231 32.4754 23.3323 32.4754 23.346C32.5394 23.3094 32.5852 23.218 32.6217 23.058C32.7314 22.8569 32.8823 22.4591 33.0926 21.8649C33.4857 20.8134 33.4674 20.7037 33.5223 20.4523H33.4766C33.4766 20.4889 33.4766 20.5209 33.4583 20.5483C33.4354 20.5391 33.408 20.53 33.3852 20.53V20.5117C33.376 20.4203 33.4172 20.3106 33.504 20.1826H33.5223L33.5634 20.3334H33.6092C33.6183 20.2694 33.632 20.2054 33.6457 20.146C33.6457 20.1231 33.6274 20.1094 33.5909 20.1049L33.5497 20.1323C33.5497 20.1003 33.5497 20.018 33.5497 19.8809H33.504L33.4903 19.8854ZM32.9234 20.562H32.9463C32.9097 20.6214 32.8823 20.658 32.8549 20.658V20.5894C32.8549 20.5894 32.896 20.5803 32.9234 20.5574V20.562ZM32.7314 21.0329C32.7772 20.8409 32.8274 20.7311 32.8686 20.7037V20.7266C32.8503 20.9049 32.8092 20.9963 32.7543 21.0054L32.7634 21.1197C32.7223 21.1791 32.6994 21.2249 32.704 21.2614H32.6812L32.672 21.1106C32.6949 21.1106 32.7177 21.0831 32.736 21.0374L32.7314 21.0329ZM32.6537 21.2843C32.6537 21.3117 32.64 21.3757 32.6034 21.4717H32.5806V21.4077C32.608 21.3346 32.6354 21.2889 32.6537 21.2843ZM31.3692 24.1369L31.392 24.178C31.4286 24.178 31.4423 24.1597 31.4377 24.1323V24.1094H31.4103L31.3692 24.1323V24.1369ZM31.9863 24.6489V24.6671C32.0229 24.6671 32.0549 24.5986 32.0869 24.4797L32.0412 24.466C32 24.5711 31.9863 24.6306 31.9863 24.6534V24.6489ZM35.9497 24.786V24.8043L35.9086 24.85L35.9817 24.8226H35.9909V24.7814H35.9726L35.9452 24.8043C35.9452 24.8043 36.0274 24.7677 35.9634 24.7586C35.9543 24.7769 35.9817 24.7814 35.9497 24.786ZM36.1006 24.9277L36.2057 24.9186C36.2057 24.8911 36.1372 24.882 36.1097 24.882H36.0914L36.1006 24.9231V24.9277ZM34.2263 24.9643L34.2583 25.0054C34.2583 25.0054 34.2583 24.9871 34.272 24.9871L34.2949 25.0283L34.1989 25.0191C34.1897 24.9871 34.1989 24.9734 34.2263 24.9689V24.9643ZM33.9063 25.0009C33.9429 25.0009 33.9657 25.0191 33.9657 25.0511H33.856V25.0329C33.856 25.0329 33.888 25.0237 33.9063 25.0009ZM34.1532 24.9917V25.0146L34.0663 25.0237V25.0009L34.1532 24.9917ZM33.248 25.0831C33.248 25.0831 33.2572 25.1014 33.2709 25.1014L33.472 25.0603C33.4949 25.0603 33.5086 25.0694 33.5132 25.1014L33.1109 25.138L33.152 25.1563V25.1334L32.9966 25.1426V25.1197L33.1292 25.1106L33.2526 25.0831H33.248ZM33.664 25.0466V25.0649C33.664 25.0649 33.7052 25.0649 33.6777 25.0877C33.5909 25.0786 33.5863 25.074 33.5269 25.0786V25.0603L33.664 25.0466ZM33.7646 25.0374V25.0557L33.6914 25.0649V25.0466L33.7646 25.0374ZM31.2594 25.4351V25.5037C31.2594 25.5037 31.2183 25.4946 31.2137 25.4626V25.4443H31.2594V25.4351ZM34.6103 25.3757V25.4169L34.688 25.4077L34.656 25.3894V25.4123L34.7337 25.3803C35.2686 25.3209 35.3326 25.3437 35.3234 25.2843V25.266C34.784 25.3894 34.7109 25.362 34.6012 25.3757H34.6057H34.6103ZM35.4469 25.3026L35.52 25.3163V25.2751L35.4423 25.2614V25.3026H35.4469ZM33.1292 25.458C33.152 25.4671 33.1017 25.4809 33.1292 25.4763L33.4034 25.4534V25.4763C33.3303 25.4854 33.28 25.4946 33.2617 25.5129C33.2617 25.4991 33.2526 25.49 33.2389 25.49L33.12 25.4991V25.4763C33.1474 25.4763 33.1017 25.4763 33.12 25.458H33.1292ZM34.4 25.426L34.4229 25.4671C34.5143 25.4489 34.464 25.4534 34.4869 25.4306C34.4869 25.4443 34.496 25.4534 34.5006 25.4534H34.5646V25.4031H34.4V25.4214V25.426ZM32.8457 25.5951H32.832V25.554H32.8457V25.5951ZM31.6206 25.7414V25.7643L32.3429 25.7049V25.6637L31.7623 25.7094L31.6389 25.6957L31.616 25.7414H31.6206ZM32.4252 25.7003H32.4343V25.6591H32.4252V25.7003ZM21.4629 21.9151L20.6766 22.9209C20.4709 23.1357 20.3657 23.2637 20.3794 23.3094C20.3246 23.346 20.3063 23.378 20.3109 23.4191C20.2972 23.4191 20.2834 23.4191 20.2789 23.4009C20.1874 23.5471 20.0594 23.634 19.8857 23.6797L19.6983 23.7209C19.6754 23.7209 19.6617 23.7437 19.6617 23.7757V23.7986L19.7349 23.7849V23.8031L19.584 23.8626L19.3052 23.9266L19.1589 23.9357C19.1589 23.9357 19.2732 23.9357 19.2229 23.9449L19.0446 23.986C18.9349 24.0134 18.8709 23.9997 18.8663 23.9586H18.848C18.8572 24.0043 18.848 24.0317 18.816 24.0363L18.8526 24.0271L18.8389 23.9586L18.5097 24.0317L18.5463 24.0454C18.5463 24.0454 18.528 24.0271 18.496 24.0363L18.4549 24.0729L18.4046 24.0637C18.3589 24.0911 18.3314 24.1049 18.3177 24.1049L18.2674 24.0957C18.1303 24.1689 18.2309 24.1689 18.2263 24.1689L18.2354 24.21L18.3086 24.1917L18.432 24.1826L18.4229 24.2329C17.9749 24.3517 18.2994 24.2831 18.1806 24.306H18.1577L18.1669 24.3517L18.2354 24.338V24.3609C18.1486 24.3791 18.0983 24.402 18.0846 24.4203V24.3974C17.9657 24.4249 17.8469 24.5163 17.728 24.658C17.7463 24.7449 17.4949 24.85 18.6926 24.5711L18.8343 24.562C18.8343 24.562 18.8343 24.5391 18.8526 24.5346C18.9852 24.5209 18.9212 24.5437 19.0034 24.5254L19.264 24.466L19.2092 24.498C19.2092 24.498 19.2092 24.4797 19.2229 24.4751C19.2549 24.4843 19.2869 24.4751 19.3189 24.4751L19.3326 24.5437L18.3086 26.1666L18.08 26.45L17.9703 26.8203H17.9886L18.0983 26.77L18.0617 26.9163L18.0709 26.9574L18.1029 26.9986C18.1029 26.9986 18.0846 27.0077 18.0892 27.026V27.0489L18.1349 27.0397C18.2034 26.9803 18.2309 26.9254 18.2217 26.8797C18.2949 26.8889 18.3452 26.8934 18.368 26.8889V26.9117C18.3269 26.9209 18.304 26.9574 18.2994 27.0169V27.0397H18.3269C18.6972 26.6374 19.6023 25.2523 20.3337 24.3151C20.3109 24.2146 20.6903 24.0729 21.472 23.8946H21.4949C21.5223 24.0134 21.4629 24.3106 21.3166 24.7814L21.1794 25.2477L21.0012 25.8649L20.7223 26.7746C20.544 27.2409 20.4069 27.73 20.3109 28.2466C20.3246 28.2466 20.352 28.2466 20.384 28.2557L20.4252 28.2191C20.4252 28.2191 20.4343 28.2374 20.4572 28.2374L20.4434 28.1689H20.5669C20.6034 28.1597 20.6354 28.1094 20.6583 28.0271C20.6583 27.9037 20.6766 27.8397 20.7314 27.8214L20.8686 27.378C20.9372 27.09 20.992 26.93 21.024 26.8797C21.1292 26.5049 21.2023 26.3083 21.2572 26.2946L21.2663 26.3403L21.1932 26.5414C21.0606 27.1311 20.9234 27.602 20.7863 27.9449L20.8274 28.1186H20.8503C21.184 27.4009 21.6549 25.9929 22.2766 23.8854C22.2903 23.7071 22.3863 23.5471 22.5372 23.4557L22.5006 23.4191V23.4009C22.5692 23.3871 22.6194 23.3597 22.6469 23.3186C22.6469 23.3049 22.5783 23.2774 22.4594 23.25L22.8252 21.6774C22.9349 21.2066 23.0126 20.7951 23.0492 20.4386V20.4157C22.9714 20.37 22.8983 20.3014 22.8297 20.2146V20.1003H22.8069C22.5783 20.4431 22.1257 21.042 21.4583 21.9014H21.472L21.4629 21.9151ZM21.984 22.2717C22.0023 22.354 21.9749 22.5049 21.8926 22.7289C21.8697 23.0123 21.7692 23.1723 21.5909 23.2134V23.1906L21.4309 23.25L21.3623 23.2637C21.3257 23.2729 21.2937 23.2729 21.2663 23.2637L21.2526 23.1997C21.2526 23.1769 21.472 22.8614 21.9337 22.2626L21.9886 22.2717H21.984ZM21.6229 23.25L21.6732 23.2409L21.6823 23.282L21.2709 23.4054C21.248 23.4146 21.2252 23.4283 21.2023 23.4466C21.2023 23.4329 21.1657 23.4329 21.1063 23.4466C21.0972 23.4054 21.2663 23.3414 21.6183 23.2591L21.6229 23.25ZM19.1909 23.9083L19.2457 23.8991L19.2366 23.8534L19.1817 23.8626L19.1909 23.9083ZM19.904 23.7163L19.9132 23.7574L19.7943 23.7666V23.7437L19.8994 23.7163H19.904ZM18.5326 24.1689V24.1917L18.464 24.2054V24.1826L18.5326 24.1689ZM18.3954 24.4523V24.4706L18.3086 24.4889L18.2994 24.4477H18.3954V24.4523ZM18.6103 24.4066V24.4249L18.4503 24.466V24.4477L18.6103 24.4066ZM18.8983 24.3609V24.3837L18.4732 24.4797L18.464 24.4386C18.7154 24.3974 18.688 24.4111 18.9029 24.3654L18.8983 24.3609ZM21.056 23.858L21.0926 23.8991C21.0423 23.9083 21.0012 23.9266 20.9829 23.9449L20.9326 23.9357C20.8686 23.9631 20.8 23.986 20.7269 24.0043L20.6812 24.0134C20.6537 24.0226 20.6354 24.0134 20.6217 23.9814L20.9463 23.9083L21.056 23.858ZM21.2846 23.8077L21.5177 23.7529V23.7757C21.3943 23.8031 21.2983 23.8351 21.2297 23.8717V23.8489C21.2297 23.8489 21.2663 23.8306 21.2892 23.8077H21.2846ZM18.8572 24.466L18.9669 24.4431L18.976 24.4843C18.9303 24.4934 18.9669 24.4934 18.9074 24.5254C18.7932 24.5346 18.816 24.5254 18.6377 24.5666V24.5437L18.8572 24.4706V24.466ZM19.1543 24.4157C19.1863 24.4066 19.2046 24.4157 19.2092 24.4523L19.1406 24.466C19.1132 24.4751 19.0949 24.466 19.0812 24.4294L19.1497 24.4157H19.1543ZM17.9292 26.8889V26.9117C17.9657 26.9026 17.9749 26.8889 17.9703 26.8569V26.834C17.9383 26.8431 17.9292 26.8569 17.9292 26.8889ZM18.0252 27.282C18.0343 27.3094 18.048 27.3231 18.08 27.314C18.112 27.3049 18.1212 27.2911 18.1166 27.2591V27.2363L18.0663 27.2454L18.0252 27.282ZM20.5212 27.954C20.5532 27.9449 20.5669 27.954 20.576 27.986V28.0089L20.4892 28.0271C20.4983 27.9951 20.4983 27.9723 20.4892 27.9586H20.5166L20.5212 27.954Z" fill="white"/>
<path d="M24.1551 20.7097C23.9311 20.8697 23.7026 21.016 23.4603 21.1486V21.1897C23.4603 21.1897 23.5014 21.1806 23.5334 21.1577C23.5654 21.1577 23.5791 21.1669 23.5837 21.1989L23.6249 21.176H23.6431V21.1943C23.6431 21.2171 23.4831 21.3451 23.1631 21.5691L23.186 21.6149H23.1677L23.1174 21.5966C23.1174 21.5966 23.0991 21.624 23.0489 21.6286V21.6469L23.0991 21.7109C23.0717 21.7109 23.0489 21.7017 23.026 21.6926C22.9209 21.7017 22.8203 21.7794 22.7151 21.9211L22.738 21.9623C22.8294 21.88 22.8797 21.8389 22.8934 21.8389V21.9074C22.8934 21.9074 22.8569 21.9166 22.8249 21.9394L22.8843 22.0217C22.9849 21.9074 23.1037 21.8069 23.2317 21.7246C23.2957 21.7429 23.3277 21.7657 23.3277 21.784H23.3734C23.7254 21.5189 24.0683 21.336 24.4111 21.2263V21.2674C24.3471 21.3634 24.306 21.4091 24.2831 21.4137C24.2831 21.4457 24.2923 21.4731 24.3106 21.5006C24.3106 21.56 24.1597 21.9486 23.8489 22.6754C23.1357 24.3531 22.5323 25.6011 22.0477 26.4057C22.0477 26.4194 22.0569 26.4469 22.0797 26.4743C22.2031 26.4469 22.2763 26.4149 22.3083 26.3874H22.3266V26.4286H22.3814L22.4226 26.4057C22.4226 26.4057 22.4363 26.424 22.4683 26.4194V26.4651C22.4774 26.5063 22.45 26.5749 22.3997 26.6709C22.3494 26.7257 22.2946 26.8446 22.2397 27.0183V27.0411H22.29C22.4866 26.8217 22.6283 26.6114 22.7334 26.4011C23.3003 26.232 23.73 26.072 24.0317 25.912C24.338 25.8846 24.562 25.8069 24.722 25.6789V25.656L24.6031 25.6926H24.5803V25.6743C24.8043 25.6423 24.9551 25.592 25.0374 25.5234C25.4671 25.1897 25.7917 24.9566 26.0111 24.8194C26.6923 24.3166 27.0123 23.8457 26.9757 23.3794C26.9757 23.3337 26.8249 23.1463 26.5277 22.8171C26.5277 22.7531 26.6237 22.6663 26.834 22.5474L27.4283 22.0309C27.5609 21.8617 27.6386 21.5874 27.6614 21.208L27.6523 21.1211C27.6294 20.8606 27.4374 20.6457 27.0763 20.4811C26.8614 20.3349 26.4774 20.2571 25.9243 20.2434C25.4763 20.2754 24.8774 20.44 24.1369 20.728H24.146L24.1551 20.7097ZM27.3414 20.7417L27.3186 20.7874L26.6603 20.5086C27.1037 20.5269 27.3277 20.6046 27.3414 20.7417ZM24.6717 22.5749C24.7174 22.328 24.7677 22.1909 24.8226 22.1589L25.3209 21.048C25.3209 20.9794 25.4169 20.9246 25.6363 20.888L25.7049 20.8789V20.9474C25.9197 20.9109 26.0477 20.8926 26.1026 20.888C26.4957 20.8514 26.6969 20.9337 26.7151 21.1211H26.7609L26.7517 21.0114H26.7974C26.9117 21.0709 26.9711 21.144 26.9757 21.2354C26.9757 21.2994 26.9483 21.3771 26.8797 21.4686C26.8477 21.4686 26.834 21.4503 26.8294 21.4046H26.7837L26.77 21.5417C26.5689 21.8434 26.4317 21.9897 26.3403 22.0034C26.2671 22.1131 26.2123 22.168 26.1894 22.168C26.1254 22.2411 25.9563 22.3737 25.682 22.5474C25.586 22.5566 25.2477 22.6891 24.658 22.9451C24.626 22.9314 24.594 22.9314 24.562 22.936V22.8949C24.5529 22.8126 24.5894 22.7074 24.6717 22.5749ZM27.4054 21.2034V21.2491C27.4054 21.2491 27.3414 21.1806 27.2729 21.0389V20.9977C27.314 20.9977 27.3597 21.0663 27.4054 21.2034ZM23.0671 21.7383V21.7611C23.0671 21.7611 23.0306 21.7703 22.9986 21.7886H22.9803V21.7474L23.0671 21.7383ZM24.5026 21.7017V21.7703C24.5026 21.7703 24.4569 21.8069 24.4203 21.8663V21.8251C24.4569 21.7749 24.4751 21.7337 24.4751 21.7063H24.5026V21.7017ZM24.2786 22.1634L24.2877 22.2503H24.2649L24.2557 22.168H24.2786V22.1634ZM24.2237 22.3234C24.2237 22.3966 24.2009 22.4377 24.1643 22.4423H24.1414C24.1689 22.3966 24.1826 22.3554 24.178 22.328H24.2237V22.3234ZM24.1231 22.5566V22.5794L24.0866 22.648H24.0409V22.6297C24.0866 22.6297 24.1094 22.6023 24.1094 22.5566H24.1277H24.1231ZM24.0271 22.7623L24.0134 22.8766H23.9951L23.986 22.7623H24.0271ZM26.4363 22.8446L26.5323 22.904C26.5323 22.9314 26.5231 22.9497 26.4911 22.9497C26.45 22.9223 26.418 22.9086 26.3951 22.9131V22.8446H26.4363ZM24.5529 23.096V23.1371L24.4614 23.1463V23.1051L24.5529 23.096ZM26.0751 23.256C26.1437 23.288 26.1711 23.3154 26.1757 23.3383V23.3566C26.1117 23.3566 26.0523 23.3291 25.9974 23.2606H26.0706L26.0751 23.256ZM24.114 23.736C24.3746 23.7131 24.7997 23.5851 25.3757 23.3611L25.522 23.352C25.81 23.3291 26.0294 23.384 26.1711 23.5211L26.1803 23.608C26.0751 23.9143 25.9563 24.0926 25.8283 24.1474L25.2386 24.6274C24.7951 24.9154 24.5574 25.0617 24.5163 25.0663C23.8123 25.4549 23.3734 25.6514 23.1997 25.6697H23.1769C23.1906 25.592 23.506 24.9474 24.1186 23.7451L24.114 23.736ZM24.7494 23.4846V23.5074L24.658 23.5166V23.4937L24.7494 23.4846ZM26.8889 23.384L26.9026 23.5623C26.8797 23.6034 26.8614 23.6309 26.834 23.6309L26.8066 23.3246C26.8569 23.3383 26.8797 23.3611 26.8797 23.3794L26.8889 23.384ZM23.2729 24.92C23.2409 25.0709 23.2089 25.1486 23.1769 25.1486V25.1303C23.1677 25.0617 23.1951 24.9886 23.2729 24.9246V24.92ZM23.8671 25.7566C24.0409 25.7246 24.5117 25.4777 25.2934 25.0114V25.0526C25.2934 25.0526 25.234 25.1257 25.0969 25.2263C24.7037 25.4229 24.4706 25.5509 24.402 25.6194C23.9769 25.7703 23.762 25.8617 23.7666 25.8983C23.3871 26.0491 23.1403 26.1589 23.0169 26.2274C22.9894 26.2274 22.9483 26.2183 22.8934 26.1909C22.8843 26.1177 22.9209 26.0537 22.994 26.0034C23.058 25.9989 23.122 26.0034 23.1814 26.0309C23.25 25.9943 23.3734 25.9577 23.5471 25.9074V25.8663L23.4009 25.8754C23.4146 25.848 23.5517 25.784 23.8077 25.6834L23.8763 25.6743V25.6926C23.7529 25.7017 23.6889 25.7383 23.6706 25.8023C23.6706 25.8297 23.6889 25.8434 23.7209 25.8434C23.8169 25.7977 23.8626 25.7611 23.8626 25.7474L23.8671 25.7566ZM23.1311 25.2217V25.24C23.1311 25.272 23.122 25.2903 23.09 25.2903V25.2674C23.09 25.2674 23.1037 25.2263 23.1311 25.2217ZM24.2466 25.528C24.1917 25.528 24.0866 25.5783 23.9311 25.6651H23.9083V25.624C24.0226 25.6149 24.1231 25.5691 24.2009 25.4914C24.2329 25.4914 24.2466 25.5006 24.2511 25.528H24.2466ZM23.0946 25.848L23.1631 25.8389V25.8617C23.1631 25.8617 23.1266 25.8709 23.0946 25.8891H23.0489C23.0489 25.8891 23.058 25.8526 23.09 25.848H23.0946ZM22.6191 26.1086L22.6649 26.1269C22.6511 26.264 22.6054 26.3326 22.5414 26.3371C22.4866 26.3143 22.4409 26.3006 22.3951 26.3051V26.2366C22.386 26.2137 22.4043 26.1954 22.4363 26.1909C22.4683 26.1909 22.482 26.2091 22.4866 26.2549C22.5597 26.1589 22.61 26.104 22.6146 26.104L22.6191 26.1086ZM14.9437 20.5177C14.6831 20.7143 14.3723 20.9063 14.0294 21.0937V21.1531C14.0569 21.1531 14.0843 21.1394 14.1254 21.1166C14.1666 21.1166 14.1894 21.1257 14.1894 21.1669L14.2534 21.1303H14.2854V21.1531C14.2854 21.1806 14.0751 21.3497 13.6454 21.6514L13.682 21.7063H13.65L13.5814 21.688C13.5814 21.7063 13.554 21.72 13.49 21.7246V21.7566L13.5631 21.8297C13.5403 21.8297 13.5083 21.8297 13.4671 21.8114C13.33 21.8206 13.1929 21.9257 13.0603 22.1131L13.0969 22.168C13.2157 22.0629 13.2843 22.008 13.3026 22.008L13.3117 22.0949C13.3117 22.0949 13.2614 22.1086 13.2203 22.1314L13.2934 22.2411C13.4306 22.0903 13.586 21.9623 13.7597 21.8526C13.8466 21.8754 13.8877 21.8983 13.8877 21.9257H13.9517C14.4089 21.5829 14.866 21.3406 15.314 21.1851V21.2446C15.2363 21.368 15.1769 21.432 15.1449 21.4366C15.1449 21.4777 15.1631 21.5189 15.186 21.5509C15.1951 21.624 14.9894 22.1406 14.5734 23.096C13.6226 25.3086 12.8363 26.9451 12.1963 28.0103C12.1963 28.0286 12.21 28.0606 12.2329 28.0971C12.3883 28.056 12.4934 28.024 12.5346 27.9829H12.5711V28.0377H12.6306L12.6946 27.9966C12.6946 28.0149 12.7174 28.024 12.7586 28.0194V28.0789C12.7677 28.1383 12.7357 28.2297 12.6626 28.3486C12.594 28.4217 12.53 28.5771 12.4569 28.8057V28.8331H12.5163C12.7723 28.5451 12.9643 28.2617 13.1014 27.9874C13.8511 27.768 14.418 27.5531 14.8111 27.3429C15.2043 27.3063 15.5106 27.2057 15.7117 27.032V27L15.5609 27.0411H15.5243V27.0137C15.8123 26.9726 16.018 26.904 16.1277 26.8171C16.6946 26.3783 17.1197 26.0674 17.4123 25.8846C18.3129 25.2263 18.7334 24.5909 18.6786 23.992C18.6786 23.928 18.4729 23.6811 18.0889 23.2514C18.0797 23.1691 18.2169 23.0503 18.4911 22.8949L19.2683 22.2091C19.442 21.9851 19.5471 21.624 19.5837 21.1303L19.5746 21.0114C19.5426 20.664 19.2911 20.3806 18.8157 20.1657C18.5323 19.9737 18.0294 19.8731 17.3026 19.8594C16.7037 19.9143 15.9129 20.12 14.9437 20.4994L14.9529 20.5086L14.9437 20.5177ZM19.1449 20.568L19.122 20.6274L18.2534 20.2617C18.834 20.2846 19.1311 20.3851 19.1449 20.568ZM15.6294 22.9771C15.6889 22.6571 15.7529 22.4697 15.8306 22.4286L16.4797 20.9703C16.4706 20.8789 16.6077 20.8103 16.8957 20.7646L16.9917 20.7554L17.0009 20.8377L17.522 20.7646C18.0386 20.7234 18.3037 20.824 18.3266 21.08H18.386L18.3769 20.9291H18.4409C18.5917 21.0069 18.674 21.112 18.6831 21.2309C18.6923 21.3131 18.6466 21.4183 18.5506 21.5371C18.5094 21.5371 18.4866 21.5143 18.482 21.4549H18.418L18.4043 21.6331C18.1437 22.0263 17.9563 22.2229 17.8374 22.2366C17.7323 22.3829 17.6637 22.456 17.6363 22.4606C17.554 22.5566 17.33 22.7211 16.9643 22.9634C16.8409 22.9726 16.3929 23.1509 15.6157 23.4891C15.5746 23.4709 15.5334 23.4617 15.4923 23.4709V23.416C15.4831 23.3017 15.5289 23.16 15.6431 22.9909L15.6294 22.9771ZM19.2271 21.176V21.2309C19.1997 21.2309 19.1403 21.1394 19.0534 20.952V20.8971C19.1037 20.888 19.1631 20.984 19.2271 21.176ZM13.5083 21.8754V21.9029C13.5083 21.9029 13.4626 21.9166 13.4214 21.9394H13.3894V21.8891L13.5129 21.8754H13.5083ZM15.4009 21.8251L15.41 21.912C15.3826 21.912 15.3414 21.9531 15.2957 22.0354V21.976C15.346 21.9074 15.3734 21.8571 15.3734 21.8251H15.4009ZM15.1129 22.4377L15.122 22.5566H15.09L15.0809 22.4423H15.1129V22.4377ZM15.0351 22.648C15.026 22.744 15.0031 22.7989 14.9529 22.7989H14.9209C14.9574 22.7303 14.9757 22.6846 14.9711 22.648H15.0351ZM14.9071 22.9543V22.9817L14.8569 23.0777H14.7974V23.0549C14.8569 23.0549 14.8843 23.0183 14.8797 22.9589H14.9071V22.9543ZM14.7746 23.2286L14.7609 23.3749H14.7289L14.7197 23.2331H14.7791L14.7746 23.2286ZM17.9517 23.3337L18.0797 23.4069C18.0797 23.448 18.066 23.4709 18.0249 23.4754C17.97 23.4389 17.9289 23.4251 17.8969 23.4251L17.8877 23.3383H17.9517V23.3337ZM15.4649 23.6674V23.7223L15.346 23.7314V23.6766L15.4649 23.6674ZM17.4671 23.8686C17.554 23.9097 17.5951 23.9417 17.5997 23.9783V24.0057C17.522 24.0149 17.4489 23.9691 17.3757 23.8777L17.4671 23.8686ZM14.8797 24.5086C15.2317 24.4766 15.7894 24.312 16.5437 24.0149L16.7311 24.0011C17.1151 23.9691 17.3986 24.0423 17.5906 24.2206L17.5997 24.3394C17.458 24.7463 17.3026 24.9794 17.1334 25.0526L16.3517 25.6743C15.7666 26.0583 15.4511 26.2503 15.41 26.2549C14.482 26.7669 13.9014 27.032 13.6774 27.0503H13.6409C13.6729 26.9451 14.0843 26.0994 14.8797 24.5086ZM15.7254 24.1749V24.2023L15.602 24.2114V24.184L15.7254 24.1749ZM18.5369 24.0514L18.5551 24.2846C18.5277 24.3486 18.5003 24.3806 18.4683 24.3806L18.4317 23.9737C18.5003 24.0011 18.5277 24.0286 18.5323 24.056L18.5369 24.0514ZM13.7734 26.072C13.7323 26.2731 13.6911 26.3737 13.65 26.3783V26.3509C13.6409 26.2503 13.682 26.1589 13.7734 26.072ZM14.5551 27.1737C14.7837 27.1326 15.4054 26.8034 16.4294 26.2V26.2549C16.4386 26.2777 16.3471 26.3509 16.1689 26.4834C15.6477 26.7394 15.3414 26.9131 15.2546 27.0046C14.6923 27.2011 14.4134 27.32 14.418 27.3703C13.9151 27.5714 13.586 27.7131 13.4306 27.8046C13.394 27.8046 13.3391 27.7954 13.2706 27.7634C13.2614 27.6629 13.3071 27.576 13.4077 27.512C13.4946 27.5029 13.5814 27.512 13.6591 27.5531C13.7551 27.5074 13.9151 27.4526 14.1437 27.3977V27.3383L13.9517 27.352C13.9746 27.32 14.1529 27.2377 14.4866 27.1006L14.5826 27.0914V27.1189C14.4317 27.128 14.3403 27.1829 14.322 27.2651C14.322 27.3017 14.3449 27.32 14.386 27.3154C14.5003 27.2423 14.5597 27.192 14.5597 27.1829L14.5551 27.1737ZM13.5906 26.4606V26.488C13.5997 26.5291 13.5769 26.552 13.5403 26.5566V26.5291C13.5311 26.4926 13.554 26.4697 13.5906 26.4606ZM15.058 26.8629C14.9849 26.872 14.8477 26.9314 14.6374 27.0503H14.6054V26.9954C14.7517 26.9863 14.8889 26.9223 14.9894 26.8171C15.0306 26.808 15.058 26.8263 15.058 26.8629ZM13.5357 27.2834L13.6317 27.2743V27.3063C13.6089 27.3063 13.5814 27.32 13.5403 27.3429H13.4809C13.4809 27.32 13.49 27.2971 13.5311 27.2834H13.5357ZM12.914 27.6309L12.9826 27.6583C12.9597 27.8366 12.9094 27.9189 12.818 27.9326C12.7586 27.9051 12.69 27.8914 12.626 27.8914L12.6169 27.8046C12.6169 27.768 12.6306 27.7497 12.6763 27.736C12.7174 27.736 12.7403 27.7589 12.7449 27.8183C12.85 27.6903 12.9094 27.6263 12.9186 27.6263L12.914 27.6309ZM30.2809 19.9417L30.2306 19.9234L29.3986 20.0514C29.3666 20.0377 29.33 20.0286 29.2843 20.0331C29.2386 20.0331 29.1654 20.0514 29.0603 20.0789L28.658 20.248L28.69 20.2983C28.69 20.2983 28.7357 20.2891 28.7723 20.2663L28.914 20.2754L28.8957 20.408C28.7677 20.4674 28.69 20.5543 28.6671 20.6686C28.4706 20.7554 28.3746 20.8194 28.3746 20.856V20.8789H28.4111L28.466 20.8514L28.53 20.9246L28.5391 21.0251C28.5391 21.0571 28.21 21.7566 27.5471 23.1234C26.9711 24.44 26.6694 25.1577 26.6374 25.2903C26.4409 25.3451 26.322 25.4274 26.2946 25.5326C26.2946 25.5691 26.3586 25.5874 26.4729 25.6011V25.6514L26.4271 25.7383L26.4363 25.8389C26.4363 25.8937 26.5871 25.9349 26.866 25.9623C26.866 25.944 26.8751 25.9349 26.8934 25.9303C26.8934 25.9943 26.8843 26.1177 26.8386 26.3051H26.8706C26.9894 26.1406 27.0443 26.0309 27.0397 25.9669H27.0626C27.09 25.9577 27.122 25.9943 27.1586 26.0629C27.122 26.0766 26.9986 26.36 26.7883 26.9131L26.8203 26.9634H26.8523C27.1129 26.296 27.2774 25.9303 27.346 25.8617L29.1289 25.6834L29.1791 25.6514C29.1791 25.6514 29.1883 25.6789 29.2111 25.6743H29.266L29.3163 25.6377C29.3163 25.656 29.3254 25.6651 29.3483 25.6606L29.9883 25.6057C30.1574 25.592 30.2397 25.5371 30.2306 25.4549C30.2306 25.432 30.3266 25.4046 30.5323 25.3817C30.5597 25.3817 30.5917 25.3863 30.6191 25.3954C30.6191 25.3817 30.7151 25.3634 30.9209 25.3451C30.9209 25.24 30.962 25.1806 31.0214 25.176V25.1257C30.9666 25.1257 30.898 25.144 30.8249 25.1669C30.6923 25.1577 30.6054 25.1531 30.5689 25.1349C30.5323 25.1531 30.5049 25.1669 30.4866 25.1669L30.0386 25.1806L29.9837 25.208C29.9837 25.208 29.9746 25.1851 29.9517 25.1897H29.9289L29.8694 25.2217C29.8694 25.208 29.8237 25.1943 29.7277 25.1806L29.6729 25.2126L29.5631 25.2217V25.1943C30.13 25.1303 30.418 25.0526 30.4089 24.9611C30.4454 24.9611 30.4637 24.9749 30.4683 25.0114L30.6374 24.9703V24.92L29.2614 24.9611C29.2614 24.9794 29.2523 24.9886 29.234 24.9931L29.0649 24.9794C29.0283 24.9794 28.9917 24.9931 28.9597 25.0206L28.8957 24.9977C28.722 25.0114 28.594 25.0343 28.5071 25.0617C28.3746 25.0526 28.2466 25.0526 28.114 25.0617L27.8031 25.0891L27.6614 25.0754C27.6523 24.984 27.8306 24.5406 28.1917 23.736C28.2969 23.4663 28.3974 23.2971 28.4843 23.2331C28.5026 23.2331 28.53 23.2331 28.5711 23.2514L28.7906 23.1783L28.9049 23.1966C29.0923 23.1829 29.3117 23.128 29.5631 23.0366C29.6271 23.0366 29.6729 23.0366 29.7049 23.0457L29.874 23.0046L30.3723 22.9634C30.6054 22.9406 30.8386 22.8903 31.0626 22.8217V22.7714C30.9666 22.7806 30.9163 22.7623 30.9163 22.7303C30.9071 22.6617 30.8431 22.6343 30.7106 22.6434V22.5931L30.8431 22.552L31.2043 22.52V22.4697C31.2043 22.4697 31.1129 22.4697 30.9757 22.4697V22.4149L31.1129 22.4057C31.1494 22.4057 31.1677 22.3829 31.1631 22.3509C30.9757 22.3509 30.8797 22.3509 30.8797 22.3234C29.5769 22.3874 28.9277 22.3966 28.9231 22.36C28.9049 22.36 28.8774 22.3691 28.8409 22.3966L28.8043 22.3417C29.1471 21.6103 29.3529 21.2354 29.4123 21.2354C29.4123 21.2629 29.4031 21.3086 29.3711 21.3726V21.3954H29.4306C29.5677 21.0663 29.682 20.8971 29.778 20.888C30.1849 20.8514 29.7186 20.824 30.5963 20.6869C30.6329 20.7006 30.6603 20.7097 30.6694 20.7051C31.0123 20.6366 31.4923 20.5634 32.1049 20.4903V20.44L31.7711 20.472V20.4217C31.8031 20.4217 31.8397 20.408 31.8671 20.3806V20.408C31.89 20.408 31.9129 20.3989 31.9449 20.3714C31.9997 20.3714 32.0409 20.3714 32.0729 20.3851C32.1643 20.3577 32.2557 20.3394 32.3471 20.3303L32.5529 20.312C32.6031 20.28 32.626 20.2526 32.6214 20.2251V20.2023C32.562 20.2023 32.5026 20.2023 32.4431 20.1886C32.4431 20.1611 32.4523 20.1429 32.4889 20.1337L32.8683 20.0971L33.0466 20.056C33.0466 20.056 33.0557 20.0834 33.0694 20.0834C33.0877 20.0834 33.1106 20.0743 33.1426 20.0469C33.234 20.056 33.2889 20.0606 33.298 20.056C33.3666 19.9874 33.4489 19.9326 33.5403 19.9006C33.4991 19.8594 33.4809 19.832 33.4763 19.8046L33.2203 19.8274C33.2203 19.8274 33.2111 19.7863 33.1929 19.7543C33.1929 19.7314 33.2477 19.7086 33.3666 19.6857L33.4169 19.704L33.4626 19.6766C33.4626 19.6766 33.4717 19.6994 33.49 19.6949L33.5357 19.6674C33.5357 19.6674 33.5449 19.6903 33.5631 19.6857H33.586V19.6309C33.5494 19.6309 33.458 19.6309 33.3071 19.6309L33.2614 19.6629V19.6354L31.2271 19.8046C31.2089 19.8046 31.122 19.8046 30.9757 19.8046C30.9757 19.8229 30.962 19.8366 30.9254 19.8366L30.8751 19.8137L30.6969 19.8549C30.6557 19.8549 30.5871 19.8549 30.4911 19.8457C30.4637 19.8686 30.4271 19.8823 30.3951 19.8869C30.354 19.8869 31.3414 19.832 31.3094 19.8183L31.1586 19.8594H31.1357C31.0717 19.8686 30.994 19.8686 30.9026 19.8594C30.866 19.8823 30.8203 19.896 30.7791 19.9006C30.7426 19.9006 30.7106 19.9006 30.6786 19.8823C30.5551 19.9143 30.4271 19.9417 30.2991 19.9646V19.9509L30.2809 19.9417ZM30.3449 20.0971C30.3449 20.0971 30.3631 20.1246 30.3951 20.12V20.1703H30.3449C30.3083 20.1794 30.2763 20.1703 30.2443 20.1566C30.2169 20.1794 30.1803 20.1931 30.1483 20.1977H30.162L30.0203 20.184V20.1611C30.1894 20.152 30.2443 20.1291 30.3403 20.1017L30.3449 20.0971ZM30.4729 20.0834H30.5003V20.1291L30.4271 20.1383C30.4271 20.1109 30.4363 20.0926 30.4729 20.0834ZM30.7746 20.0514V20.0789C30.7197 20.0789 30.6466 20.0971 30.5551 20.1246H30.5277L30.5506 20.0743L30.7746 20.0514ZM28.5529 20.3074L28.6397 20.2983V20.248L28.5483 20.2571V20.3074H28.5529ZM29.1654 20.2526H29.1974L29.2569 20.2709C29.2569 20.3074 29.2431 20.3257 29.2066 20.3257L29.1197 20.3349V20.3074C29.1106 20.28 29.1334 20.2663 29.1654 20.2526ZM31.1357 20.3669V20.3897L30.9574 20.4034V20.3806L31.1357 20.3669ZM30.6283 20.44V20.4674L30.5323 20.4766V20.4491L30.6283 20.44ZM31.1174 20.4811L31.4694 20.4217L31.6477 20.4309V20.4583C31.5746 20.4629 31.5014 20.4811 31.4283 20.504C31.4283 20.4857 31.3917 20.4674 31.3231 20.4629L31.0443 20.536C30.9894 20.504 30.962 20.4811 30.962 20.4674L31.1129 20.4811H31.1174ZM30.7654 20.5543C30.802 20.5543 30.8157 20.5634 30.8203 20.6L30.6694 20.6137V20.5634L30.7654 20.5497V20.5543ZM30.4591 20.5406V20.568L31.378 20.5269V20.4994L30.4591 20.5406ZM30.514 20.6091V20.632L30.3129 20.6503V20.6274L30.514 20.6091ZM29.202 21.6469V21.6743H29.266C29.266 21.6469 29.2751 21.6194 29.2843 21.592V21.5417C29.2477 21.5417 29.2203 21.5829 29.2066 21.6514L29.202 21.6469ZM27.186 24.5771V24.6C27.1951 24.6366 27.1723 24.6549 27.1357 24.6594V24.6366C27.1266 24.6046 27.1494 24.5909 27.186 24.5771ZM27.1357 24.6869C27.1357 24.7371 27.1037 24.8651 27.0351 25.0663L26.9483 25.0754C26.9483 25.0389 26.9894 24.9154 27.0809 24.696L27.1357 24.6869ZM28.0774 25.5051C28.0774 25.5326 28.0363 25.5646 27.9449 25.5966L27.7711 25.5874H27.7163V25.5417L28.082 25.5097L28.0774 25.5051ZM28.2466 25.5189V25.5417L28.1094 25.5509V25.528L28.2466 25.5189Z" fill="white"/>
</g>
<path d="M45.8 31V16.7H50.1C50.9933 16.7 51.78 16.8133 52.46 17.04C53.1533 17.2667 53.7 17.6467 54.1 18.18C54.5 18.7133 54.7 19.4533 54.7 20.4V20.48C54.7 21.1333 54.5467 21.7333 54.24 22.28C53.9333 22.8133 53.3667 23.22 52.54 23.5C53.58 23.7533 54.3133 24.1533 54.74 24.7C55.18 25.2467 55.4 25.9867 55.4 26.92V27C55.4 28.3467 54.9733 29.3533 54.12 30.02C53.2667 30.6733 52.1267 31 50.7 31H45.8ZM47.5 22.94H50.1C51.1533 22.94 51.9 22.74 52.34 22.34C52.78 21.94 53 21.3 53 20.42V20.34C53 19.5267 52.76 18.9467 52.28 18.6C51.8 18.24 51.06 18.06 50.06 18.06H47.5V22.94ZM47.5 29.64H50.66C51.7 29.64 52.4667 29.4133 52.96 28.96C53.4533 28.5067 53.7 27.8467 53.7 26.98V26.9C53.7 26.02 53.44 25.3667 52.92 24.94C52.4 24.5133 51.5667 24.3 50.42 24.3H47.5V29.64ZM60.7414 31.18C60.1014 31.18 59.5147 31.0733 58.9814 30.86C58.4614 30.6467 58.0414 30.3133 57.7214 29.86C57.4147 29.3933 57.2614 28.8067 57.2614 28.1C57.2614 27.5 57.4081 26.9933 57.7014 26.58C57.9947 26.1533 58.3881 25.82 58.8814 25.58C59.3747 25.3267 59.9347 25.1467 60.5614 25.04C61.1881 24.92 61.8347 24.86 62.5014 24.86H64.0014V24.1C64.0014 23.2733 63.8281 22.6733 63.4814 22.3C63.1347 21.9267 62.5614 21.74 61.7614 21.74C60.3214 21.74 59.5214 22.3667 59.3614 23.62H57.7014C57.7814 22.82 58.0214 22.1867 58.4214 21.72C58.8214 21.24 59.3214 20.8933 59.9214 20.68C60.5347 20.4667 61.1747 20.36 61.8414 20.36C62.5081 20.36 63.1281 20.4733 63.7014 20.7C64.2881 20.9133 64.7614 21.2933 65.1214 21.84C65.4814 22.3733 65.6614 23.1267 65.6614 24.1V31H64.0014V29.68C63.6147 30.1733 63.1681 30.5467 62.6614 30.8C62.1547 31.0533 61.5147 31.18 60.7414 31.18ZM60.9014 29.86C61.7814 29.86 62.5147 29.6467 63.1014 29.22C63.7014 28.78 64.0014 28.1533 64.0014 27.34V26.04H62.5614C61.8681 26.04 61.2414 26.1067 60.6814 26.24C60.1347 26.36 59.7014 26.5733 59.3814 26.88C59.0747 27.1733 58.9214 27.58 58.9214 28.1C58.9214 28.6333 59.0681 29.06 59.3614 29.38C59.6547 29.7 60.1681 29.86 60.9014 29.86ZM74.1222 31.18C73.2689 31.18 72.5422 30.9933 71.9422 30.62C71.3422 30.2467 70.8889 29.8 70.5822 29.28V31H68.9222V15.54H70.5822V22.3C70.7822 21.9533 71.0622 21.6333 71.4222 21.34C71.7822 21.0467 72.1955 20.8133 72.6622 20.64C73.1289 20.4533 73.6155 20.36 74.1222 20.36C75.0422 20.36 75.8555 20.5733 76.5622 21C77.2822 21.4267 77.8489 22.0333 78.2622 22.82C78.6755 23.5933 78.8822 24.5267 78.8822 25.62V25.78C78.8822 26.8467 78.6822 27.7867 78.2822 28.6C77.8955 29.4133 77.3422 30.0467 76.6222 30.5C75.9155 30.9533 75.0822 31.18 74.1222 31.18ZM73.9622 29.8C75.0022 29.8 75.7955 29.46 76.3422 28.78C76.8889 28.1 77.1622 27.1267 77.1622 25.86V25.7C77.1622 24.82 77.0155 24.0867 76.7222 23.5C76.4289 22.9133 76.0355 22.4733 75.5422 22.18C75.0622 21.8867 74.5289 21.74 73.9422 21.74C72.9689 21.74 72.1555 22.0667 71.5022 22.72C70.8489 23.36 70.5222 24.3533 70.5222 25.7V25.86C70.5222 27.1933 70.8422 28.1867 71.4822 28.84C72.1222 29.48 72.9489 29.8 73.9622 29.8ZM85.7413 31.18C84.7546 31.18 83.8813 30.9667 83.1213 30.54C82.3613 30.1 81.7613 29.48 81.3213 28.68C80.8946 27.88 80.6813 26.9467 80.6813 25.88V25.72C80.6813 24.6667 80.8879 23.74 81.3013 22.94C81.7146 22.1267 82.2879 21.4933 83.0213 21.04C83.7679 20.5867 84.6213 20.36 85.5813 20.36C86.3946 20.36 87.1546 20.5333 87.8613 20.88C88.5813 21.2267 89.1613 21.78 89.6013 22.54C90.0546 23.3 90.2813 24.3067 90.2813 25.56V26.1H82.4013C82.4413 27.2867 82.7413 28.2 83.3013 28.84C83.8746 29.48 84.6946 29.8 85.7613 29.8C87.4013 29.8 88.3279 29.1933 88.5413 27.98H90.2013C90.0279 29.0333 89.5346 29.8333 88.7213 30.38C87.9213 30.9133 86.9279 31.18 85.7413 31.18ZM82.4613 24.76H88.5813C88.5013 23.68 88.1946 22.9067 87.6613 22.44C87.1413 21.9733 86.4479 21.74 85.5813 21.74C84.7279 21.74 84.0279 22.0133 83.4813 22.56C82.9479 23.0933 82.6079 23.8267 82.4613 24.76ZM92.8684 31V15.54H94.5484V31H92.8684Z" fill="white"/>
<defs>
<clipPath id="clip0_3291_10458">
<rect width="24" height="24" fill="white" transform="translate(12 12)"/>
</clipPath>
</defs>
</svg>
