<svg width="100" height="48" viewBox="0 0 100 48" fill="none" xmlns="http://www.w3.org/2000/svg">
<rect x="0.5" y="0.5" width="99" height="47" rx="11.5" stroke="white" stroke-opacity="0.1"/>
<g clip-path="url(#clip0_3291_10452)">
<path d="M15.255 33.5274L13.495 12.0234L34.5099 12.0646L32.6493 33.5274L24.0824 36.0097L15.255 33.5274Z" fill="#1B73BA"/>
<path d="M24.0781 33.9306V14.0723L32.7318 14.0997L31.1867 31.8688L24.0781 33.9306Z" fill="#1C88C7"/>
<path d="M30.5834 16.6074H17.2714L17.6325 19.204H23.9502L17.7331 21.8737L18.0942 24.3834H27.2508L26.9171 27.8897L23.8176 28.4977L21.0062 27.7754L20.7914 25.7869H18.2085L18.5559 29.924L24.0965 31.4691L29.4039 29.7823L30.0805 21.6909H24.4714L30.5879 19.1537V16.6166L30.5834 16.6074Z" fill="white"/>
</g>
<path d="M55.78 31.18C54.4067 31.18 53.22 30.8867 52.22 30.3C51.22 29.7 50.4467 28.86 49.9 27.78C49.3667 26.6867 49.1 25.4067 49.1 23.94V23.78C49.1 22.7133 49.2667 21.74 49.6 20.86C49.9333 19.9667 50.4 19.1933 51 18.54C51.6133 17.8867 52.3267 17.38 53.14 17.02C53.9533 16.66 54.8467 16.48 55.82 16.48C56.82 16.48 57.74 16.6533 58.58 17C59.42 17.3467 60.1133 17.8667 60.66 18.56C61.2067 19.2533 61.5267 20.12 61.62 21.16H59.9C59.7267 20.0667 59.3133 19.2467 58.66 18.7C58.0067 18.14 57.0667 17.86 55.84 17.86C54.8533 17.86 53.9867 18.1 53.24 18.58C52.5067 19.06 51.9333 19.7467 51.52 20.64C51.1067 21.52 50.9 22.56 50.9 23.76V23.92C50.9 25.7333 51.3333 27.16 52.2 28.2C53.08 29.24 54.2867 29.76 55.82 29.76C56.9933 29.76 57.96 29.4667 58.72 28.88C59.4933 28.2933 59.9667 27.42 60.14 26.26H61.76C61.5067 27.9133 60.8467 29.1467 59.78 29.96C58.7133 30.7733 57.38 31.18 55.78 31.18ZM69.0294 31.18C67.7494 31.18 66.7227 30.9733 65.9494 30.56C65.1894 30.1333 64.6227 29.58 64.2494 28.9C63.8894 28.2067 63.6627 27.4533 63.5694 26.64H65.2494C65.3294 27.2 65.476 27.72 65.6894 28.2C65.916 28.68 66.2894 29.0667 66.8094 29.36C67.3294 29.64 68.0694 29.78 69.0294 29.78C69.6427 29.78 70.196 29.6667 70.6894 29.44C71.1827 29.2133 71.5694 28.9 71.8494 28.5C72.1427 28.0867 72.2894 27.6133 72.2894 27.08C72.2894 26.5333 72.1894 26.0867 71.9894 25.74C71.7894 25.3933 71.436 25.1133 70.9294 24.9C70.436 24.6733 69.736 24.4867 68.8294 24.34C67.8294 24.18 66.9694 23.96 66.2494 23.68C65.5427 23.3867 64.996 22.98 64.6094 22.46C64.236 21.9267 64.0494 21.24 64.0494 20.4C64.0494 19.6667 64.2427 19.0067 64.6294 18.42C65.0294 17.8333 65.576 17.3733 66.2694 17.04C66.9627 16.6933 67.756 16.52 68.6494 16.52C70.076 16.52 71.216 16.86 72.0694 17.54C72.936 18.22 73.436 19.1933 73.5694 20.46H72.0094C71.836 19.5533 71.476 18.9067 70.9294 18.52C70.396 18.12 69.636 17.92 68.6494 17.92C67.676 17.92 66.936 18.14 66.4294 18.58C65.9227 19.02 65.6694 19.5733 65.6694 20.24C65.6694 20.7067 65.7494 21.1067 65.9094 21.44C66.0827 21.76 66.416 22.0333 66.9094 22.26C67.4027 22.4733 68.136 22.6533 69.1094 22.8C70.176 22.96 71.0694 23.1933 71.7894 23.5C72.5094 23.8067 73.0494 24.2333 73.4094 24.78C73.7827 25.3267 73.9694 26.0533 73.9694 26.96C73.9694 27.76 73.756 28.48 73.3294 29.12C72.9027 29.7467 72.316 30.2467 71.5694 30.62C70.8227 30.9933 69.976 31.18 69.0294 31.18ZM81.2755 31.18C79.9955 31.18 78.9688 30.9733 78.1955 30.56C77.4355 30.1333 76.8688 29.58 76.4955 28.9C76.1355 28.2067 75.9088 27.4533 75.8155 26.64H77.4955C77.5755 27.2 77.7221 27.72 77.9355 28.2C78.1621 28.68 78.5355 29.0667 79.0555 29.36C79.5755 29.64 80.3155 29.78 81.2755 29.78C81.8888 29.78 82.4421 29.6667 82.9355 29.44C83.4288 29.2133 83.8155 28.9 84.0955 28.5C84.3888 28.0867 84.5355 27.6133 84.5355 27.08C84.5355 26.5333 84.4355 26.0867 84.2355 25.74C84.0355 25.3933 83.6821 25.1133 83.1755 24.9C82.6821 24.6733 81.9821 24.4867 81.0755 24.34C80.0755 24.18 79.2155 23.96 78.4955 23.68C77.7888 23.3867 77.2421 22.98 76.8555 22.46C76.4821 21.9267 76.2955 21.24 76.2955 20.4C76.2955 19.6667 76.4888 19.0067 76.8755 18.42C77.2755 17.8333 77.8221 17.3733 78.5155 17.04C79.2088 16.6933 80.0021 16.52 80.8955 16.52C82.3221 16.52 83.4621 16.86 84.3155 17.54C85.1821 18.22 85.6821 19.1933 85.8155 20.46H84.2555C84.0821 19.5533 83.7221 18.9067 83.1755 18.52C82.6421 18.12 81.8821 17.92 80.8955 17.92C79.9221 17.92 79.1821 18.14 78.6755 18.58C78.1688 19.02 77.9155 19.5733 77.9155 20.24C77.9155 20.7067 77.9955 21.1067 78.1555 21.44C78.3288 21.76 78.6621 22.0333 79.1555 22.26C79.6488 22.4733 80.3821 22.6533 81.3555 22.8C82.4221 22.96 83.3155 23.1933 84.0355 23.5C84.7555 23.8067 85.2955 24.2333 85.6555 24.78C86.0288 25.3267 86.2155 26.0533 86.2155 26.96C86.2155 27.76 86.0021 28.48 85.5755 29.12C85.1488 29.7467 84.5621 30.2467 83.8155 30.62C83.0688 30.9933 82.2221 31.18 81.2755 31.18Z" fill="white"/>
<defs>
<clipPath id="clip0_3291_10452">
<rect width="24" height="24" fill="white" transform="translate(12 12)"/>
</clipPath>
</defs>
</svg>
