<svg width="148" height="48" viewBox="0 0 148 48" fill="none" xmlns="http://www.w3.org/2000/svg">
<rect x="0.5" y="0.5" width="147" height="47" rx="11.5" stroke="white" stroke-opacity="0.1"/>
<path fill-rule="evenodd" clip-rule="evenodd" d="M16.9829 14.4785C15.6114 14.4785 14.6011 15.6762 14.6469 16.9791C14.6926 18.2271 14.6331 19.8454 14.2263 21.1619C13.8194 22.4831 13.1291 23.3242 12 23.4294V24.6454C13.1291 24.7551 13.8194 25.5917 14.2263 26.9128C14.6331 28.2339 14.688 29.8477 14.6469 31.0957C14.6011 32.3939 15.616 33.5962 16.9829 33.5962H31.0126C32.384 33.5962 33.3943 32.3985 33.3486 31.0957C33.3029 29.8477 33.3623 28.2294 33.7691 26.9128C34.176 25.5917 34.8663 24.7505 35.9954 24.6454V23.4294C34.8663 23.3197 34.1806 22.4831 33.7691 21.1619C33.3623 19.8454 33.3074 18.2271 33.3486 16.9791C33.3943 15.6808 32.3794 14.4785 31.0126 14.4785H16.9829ZM28.2697 26.2454C28.2697 28.0374 26.9349 29.1208 24.7177 29.1208H20.9463C20.7223 29.1208 20.5394 28.9379 20.5394 28.7139V19.3562C20.5394 19.1322 20.7223 18.9494 20.9463 18.9494H24.6949C26.5417 18.9494 27.7531 19.9505 27.7531 21.4865C27.7531 22.5654 26.9394 23.5299 25.8971 23.6991V23.7539C27.3097 23.9094 28.2651 24.8877 28.2651 26.2408L28.2697 26.2454ZM24.3109 20.2431H22.1623V23.2785H23.9726C25.3714 23.2785 26.144 22.7162 26.144 21.7059C26.144 20.7597 25.4811 20.2385 24.3109 20.2385V20.2431ZM22.1577 24.4854V27.8317H24.3886C25.8469 27.8317 26.6194 27.2465 26.6194 26.1494C26.6194 25.0522 25.824 24.4854 24.2971 24.4854H22.1623H22.1577Z" fill="#7952B3"/>
<path d="M45.8 31V16.7H50.1C50.9933 16.7 51.78 16.8133 52.46 17.04C53.1533 17.2667 53.7 17.6467 54.1 18.18C54.5 18.7133 54.7 19.4533 54.7 20.4V20.48C54.7 21.1333 54.5467 21.7333 54.24 22.28C53.9333 22.8133 53.3667 23.22 52.54 23.5C53.58 23.7533 54.3133 24.1533 54.74 24.7C55.18 25.2467 55.4 25.9867 55.4 26.92V27C55.4 28.3467 54.9733 29.3533 54.12 30.02C53.2667 30.6733 52.1267 31 50.7 31H45.8ZM47.5 22.94H50.1C51.1533 22.94 51.9 22.74 52.34 22.34C52.78 21.94 53 21.3 53 20.42V20.34C53 19.5267 52.76 18.9467 52.28 18.6C51.8 18.24 51.06 18.06 50.06 18.06H47.5V22.94ZM47.5 29.64H50.66C51.7 29.64 52.4667 29.4133 52.96 28.96C53.4533 28.5067 53.7 27.8467 53.7 26.98V26.9C53.7 26.02 53.44 25.3667 52.92 24.94C52.4 24.5133 51.5667 24.3 50.42 24.3H47.5V29.64ZM62.4614 31.18C61.4747 31.18 60.5947 30.9533 59.8214 30.5C59.0481 30.0333 58.4414 29.4 58.0014 28.6C57.5614 27.7867 57.3414 26.8733 57.3414 25.86V25.7C57.3414 24.6467 57.5614 23.72 58.0014 22.92C58.4547 22.12 59.0681 21.4933 59.8414 21.04C60.6147 20.5867 61.4947 20.36 62.4814 20.36C63.4681 20.36 64.3481 20.5867 65.1214 21.04C65.8947 21.4933 66.5014 22.12 66.9414 22.92C67.3947 23.7067 67.6214 24.6267 67.6214 25.68V25.84C67.6214 26.8933 67.3947 27.82 66.9414 28.62C66.5014 29.42 65.8947 30.0467 65.1214 30.5C64.3481 30.9533 63.4614 31.18 62.4614 31.18ZM62.4814 29.8C63.5347 29.8 64.3681 29.44 64.9814 28.72C65.5947 27.9867 65.9014 27.0333 65.9014 25.86V25.72C65.9014 24.5067 65.5881 23.54 64.9614 22.82C64.3481 22.1 63.5214 21.74 62.4814 21.74C61.4281 21.74 60.5947 22.1 59.9814 22.82C59.3681 23.54 59.0614 24.5 59.0614 25.7V25.86C59.0614 27.0467 59.3681 28 59.9814 28.72C60.5947 29.44 61.4281 29.8 62.4814 29.8ZM74.5317 31.18C73.5451 31.18 72.6651 30.9533 71.8917 30.5C71.1184 30.0333 70.5117 29.4 70.0717 28.6C69.6317 27.7867 69.4117 26.8733 69.4117 25.86V25.7C69.4117 24.6467 69.6317 23.72 70.0717 22.92C70.5251 22.12 71.1384 21.4933 71.9117 21.04C72.6851 20.5867 73.5651 20.36 74.5517 20.36C75.5384 20.36 76.4184 20.5867 77.1917 21.04C77.9651 21.4933 78.5717 22.12 79.0117 22.92C79.4651 23.7067 79.6917 24.6267 79.6917 25.68V25.84C79.6917 26.8933 79.4651 27.82 79.0117 28.62C78.5717 29.42 77.9651 30.0467 77.1917 30.5C76.4184 30.9533 75.5317 31.18 74.5317 31.18ZM74.5517 29.8C75.6051 29.8 76.4384 29.44 77.0517 28.72C77.6651 27.9867 77.9717 27.0333 77.9717 25.86V25.72C77.9717 24.5067 77.6584 23.54 77.0317 22.82C76.4184 22.1 75.5917 21.74 74.5517 21.74C73.4984 21.74 72.6651 22.1 72.0517 22.82C71.4384 23.54 71.1317 24.5 71.1317 25.7V25.86C71.1317 27.0467 71.4384 28 72.0517 28.72C72.6651 29.44 73.4984 29.8 74.5517 29.8ZM85.442 31.14C84.4954 31.14 83.7887 30.8867 83.322 30.38C82.8554 29.86 82.622 29.1933 82.622 28.38V21.94H81.122V20.54H82.622V18.16H84.282V20.54H86.722V21.94H84.282V28.22C84.282 29.2333 84.7154 29.74 85.582 29.74C85.8487 29.74 86.082 29.72 86.282 29.68C86.4954 29.64 86.6887 29.5867 86.862 29.52V30.92C86.6887 30.9733 86.4954 31.02 86.282 31.06C86.0687 31.1133 85.7887 31.14 85.442 31.14ZM92.6114 31.18C91.3581 31.18 90.3714 30.88 89.6514 30.28C88.9447 29.68 88.5647 28.8467 88.5114 27.78H90.1314C90.1981 28.3933 90.4114 28.8867 90.7714 29.26C91.1447 29.62 91.7514 29.8 92.5914 29.8C93.3781 29.8 93.9514 29.6667 94.3114 29.4C94.6847 29.12 94.8714 28.7 94.8714 28.14C94.8714 27.5933 94.6647 27.2 94.2514 26.96C93.8514 26.72 93.2447 26.5267 92.4314 26.38C91.5247 26.2067 90.8047 26 90.2714 25.76C89.7381 25.5067 89.3581 25.1867 89.1314 24.8C88.9047 24.4 88.7914 23.9 88.7914 23.3C88.7914 22.6467 88.9714 22.1067 89.3314 21.68C89.6914 21.24 90.1447 20.9133 90.6914 20.7C91.2381 20.4733 91.7847 20.36 92.3314 20.36C92.9581 20.36 93.5381 20.4533 94.0714 20.64C94.6181 20.8267 95.0714 21.14 95.4314 21.58C95.7914 22.02 96.0181 22.62 96.1114 23.38H94.5114C94.3914 22.8067 94.1581 22.3933 93.8114 22.14C93.4781 21.8733 92.9781 21.74 92.3114 21.74C91.7114 21.74 91.2314 21.88 90.8714 22.16C90.5114 22.4267 90.3314 22.7867 90.3314 23.24C90.3314 23.7067 90.4981 24.06 90.8314 24.3C91.1647 24.5267 91.8114 24.7267 92.7714 24.9C93.4914 25.0333 94.1247 25.2 94.6714 25.4C95.2314 25.6 95.6647 25.9 95.9714 26.3C96.2914 26.6867 96.4514 27.2533 96.4514 28C96.4514 28.9467 96.1247 29.7133 95.4714 30.3C94.8314 30.8867 93.8781 31.18 92.6114 31.18ZM102.161 31.14C101.214 31.14 100.507 30.8867 100.041 30.38C99.5741 29.86 99.3408 29.1933 99.3408 28.38V21.94H97.8408V20.54H99.3408V18.16H101.001V20.54H103.441V21.94H101.001V28.22C101.001 29.2333 101.434 29.74 102.301 29.74C102.567 29.74 102.801 29.72 103.001 29.68C103.214 29.64 103.407 29.5867 103.581 29.52V30.92C103.407 30.9733 103.214 31.02 103.001 31.06C102.787 31.1133 102.507 31.14 102.161 31.14ZM106.09 31V20.54H107.75V22.42C108.083 21.8333 108.503 21.3533 109.01 20.98C109.53 20.5933 110.257 20.3867 111.19 20.36V21.92C110.497 21.9467 109.89 22.06 109.37 22.26C108.85 22.46 108.45 22.7933 108.17 23.26C107.89 23.7267 107.75 24.3933 107.75 25.26V31H106.09ZM116.132 31.18C115.492 31.18 114.905 31.0733 114.372 30.86C113.852 30.6467 113.432 30.3133 113.112 29.86C112.805 29.3933 112.652 28.8067 112.652 28.1C112.652 27.5 112.799 26.9933 113.092 26.58C113.385 26.1533 113.779 25.82 114.272 25.58C114.765 25.3267 115.325 25.1467 115.952 25.04C116.579 24.92 117.225 24.86 117.892 24.86H119.392V24.1C119.392 23.2733 119.219 22.6733 118.872 22.3C118.525 21.9267 117.952 21.74 117.152 21.74C115.712 21.74 114.912 22.3667 114.752 23.62H113.092C113.172 22.82 113.412 22.1867 113.812 21.72C114.212 21.24 114.712 20.8933 115.312 20.68C115.925 20.4667 116.565 20.36 117.232 20.36C117.899 20.36 118.519 20.4733 119.092 20.7C119.679 20.9133 120.152 21.2933 120.512 21.84C120.872 22.3733 121.052 23.1267 121.052 24.1V31H119.392V29.68C119.005 30.1733 118.559 30.5467 118.052 30.8C117.545 31.0533 116.905 31.18 116.132 31.18ZM116.292 29.86C117.172 29.86 117.905 29.6467 118.492 29.22C119.092 28.78 119.392 28.1533 119.392 27.34V26.04H117.952C117.259 26.04 116.632 26.1067 116.072 26.24C115.525 26.36 115.092 26.5733 114.772 26.88C114.465 27.1733 114.312 27.58 114.312 28.1C114.312 28.6333 114.459 29.06 114.752 29.38C115.045 29.7 115.559 29.86 116.292 29.86ZM124.313 34.64V20.54H125.973V22.3C126.173 21.9533 126.453 21.6333 126.813 21.34C127.173 21.0467 127.586 20.8133 128.053 20.64C128.519 20.4533 129.006 20.36 129.513 20.36C130.433 20.36 131.246 20.5733 131.953 21C132.673 21.4267 133.239 22.0333 133.653 22.82C134.066 23.5933 134.273 24.5267 134.273 25.62V25.78C134.273 26.8467 134.073 27.7867 133.673 28.6C133.286 29.4133 132.733 30.0467 132.013 30.5C131.306 30.9533 130.473 31.18 129.513 31.18C128.659 31.18 127.933 30.9933 127.333 30.62C126.733 30.2467 126.279 29.8 125.973 29.28V34.64H124.313ZM129.353 29.8C130.393 29.8 131.186 29.46 131.733 28.78C132.279 28.1 132.553 27.1267 132.553 25.86V25.7C132.553 24.82 132.406 24.0867 132.113 23.5C131.819 22.9133 131.426 22.4733 130.933 22.18C130.453 21.8867 129.919 21.74 129.333 21.74C128.359 21.74 127.546 22.0667 126.893 22.72C126.239 23.36 125.913 24.3533 125.913 25.7V25.86C125.913 27.1933 126.233 28.1867 126.873 28.84C127.513 29.48 128.339 29.8 129.353 29.8Z" fill="white"/>
</svg>
