<svg width="110" height="48" viewBox="0 0 110 48" fill="none" xmlns="http://www.w3.org/2000/svg">
<rect x="0.5" y="0.5" width="109" height="47" rx="11.5" stroke="white" stroke-opacity="0.1"/>
<g clip-path="url(#clip0_3291_10446)">
<path d="M15.2417 33.5171L13.4772 11.9766L34.524 12.0223L32.6589 33.5171L24.0783 35.9994L15.2372 33.5171H15.2417Z" fill="#E34F26"/>
<path d="M24.078 33.9215V14.0312L32.7454 14.0587L31.2003 31.8553L24.078 33.9215Z" fill="#EF652A"/>
<path d="M30.3638 18.9977L30.6106 16.3691H17.2758L18.0118 24.4286H27.214L26.8529 27.8663L23.9043 28.6617L20.9146 27.7931L20.7546 25.7406H18.1123L18.4735 29.928L23.9043 31.4457L29.3809 29.928L30.1169 21.7543H20.4529L20.1786 18.9931H30.3638V18.9977Z" fill="white"/>
</g>
<path d="M45.8 31V16.7H47.54V23.18H55.06V16.7H56.8V31H55.06V24.64H47.54V31H45.8ZM63.3494 31V18.12H59.1894V16.7H69.2494V18.12H65.0894V31H63.3494ZM71.6203 31V16.7H74.0403L78.4603 27.84L82.7403 16.7H85.1403V31H83.4003V18.96L78.6603 31H78.1203L73.2203 18.96V31H71.6203ZM88.7492 31V16.7H90.4892V29.58H97.0292V31H88.7492Z" fill="white"/>
<defs>
<clipPath id="clip0_3291_10446">
<rect width="24" height="24" fill="white" transform="translate(12 12)"/>
</clipPath>
</defs>
</svg>
