<svg width="124" height="48" viewBox="0 0 124 48" fill="none" xmlns="http://www.w3.org/2000/svg">
<rect x="0.5" y="0.5" width="122.5" height="47" rx="11.5" stroke="white" stroke-opacity="0.1"/>
<g clip-path="url(#clip0_3291_10503)">
<path fill-rule="evenodd" clip-rule="evenodd" d="M24.2129 12C17.4591 12 11.9994 17.5 11.9994 24.3042C11.9994 29.7432 15.4976 34.3472 20.3506 35.9767C20.9574 36.0992 21.1796 35.712 21.1796 35.3862C21.1796 35.101 21.1596 34.1232 21.1596 33.1045C17.7621 33.838 17.0546 31.6378 17.0546 31.6378C16.5086 30.2118 15.6996 29.8452 15.6996 29.8452C14.5876 29.0915 15.7806 29.0915 15.7806 29.0915C17.0141 29.173 17.6614 30.3545 17.6614 30.3545C18.7531 32.2285 20.5124 31.699 21.2201 31.373C21.3211 30.5785 21.6449 30.0285 21.9886 29.723C19.2789 29.4377 16.4279 28.3785 16.4279 23.6523C16.4279 22.3078 16.9129 21.2078 17.6814 20.3523C17.5601 20.0468 17.1354 18.7835 17.8029 17.0928C17.8029 17.0928 18.8341 16.7668 21.1594 18.3558C22.1549 18.0864 23.1816 17.9494 24.2129 17.9482C25.2441 17.9482 26.2954 18.091 27.2661 18.3558C29.5916 16.7668 30.6229 17.0928 30.6229 17.0928C31.2904 18.7835 30.8654 20.0468 30.7441 20.3523C31.5329 21.2078 31.9979 22.3078 31.9979 23.6523C31.9979 28.3785 29.1469 29.4172 26.4169 29.723C26.8619 30.11 27.2459 30.8433 27.2459 32.0045C27.2459 33.6545 27.2259 34.9788 27.2259 35.386C27.2259 35.712 27.4484 36.0992 28.0549 35.977C32.9079 34.347 36.4061 29.7432 36.4061 24.3042C36.4261 17.5 30.9464 12 24.2129 12Z" fill="white"/>
</g>
<path d="M52.52 31.18C51.0533 31.18 49.8 30.8667 48.76 30.24C47.7333 29.6133 46.9467 28.76 46.4 27.68C45.8667 26.5867 45.6 25.34 45.6 23.94V23.78C45.6 22.74 45.7667 21.78 46.1 20.9C46.4333 20.0067 46.9067 19.2333 47.52 18.58C48.1333 17.9133 48.86 17.4 49.7 17.04C50.5533 16.6667 51.4933 16.48 52.52 16.48C53.4667 16.48 54.3533 16.6333 55.18 16.94C56.0067 17.2467 56.7 17.7333 57.26 18.4C57.8333 19.0667 58.1933 19.94 58.34 21.02H56.6C56.4 19.8733 55.9333 19.06 55.2 18.58C54.48 18.1 53.6 17.86 52.56 17.86C51.4667 17.86 50.5333 18.1133 49.76 18.62C49 19.1133 48.4133 19.8 48 20.68C47.6 21.56 47.4 22.5867 47.4 23.76V23.92C47.4 25.0933 47.5933 26.12 47.98 27C48.3667 27.88 48.94 28.5667 49.7 29.06C50.46 29.54 51.4 29.78 52.52 29.78C53.56 29.78 54.4067 29.58 55.06 29.18C55.7133 28.7667 56.2 28.2133 56.52 27.52C56.84 26.8267 57.0067 26.06 57.02 25.22H52.84V23.78H58.72V24.84C58.72 26.2133 58.4533 27.3733 57.92 28.32C57.4 29.2667 56.6733 29.98 55.74 30.46C54.82 30.94 53.7467 31.18 52.52 31.18ZM62.352 18.36C62.0587 18.36 61.7987 18.2533 61.572 18.04C61.3587 17.8133 61.252 17.5533 61.252 17.26C61.252 16.9533 61.3587 16.6933 61.572 16.48C61.7987 16.2667 62.0587 16.16 62.352 16.16C62.6587 16.16 62.9187 16.2667 63.132 16.48C63.3454 16.6933 63.452 16.9533 63.452 17.26C63.452 17.5533 63.3454 17.8133 63.132 18.04C62.9187 18.2533 62.6587 18.36 62.352 18.36ZM61.552 31V20.54H63.212V31H61.552ZM69.7897 31.14C68.843 31.14 68.1364 30.8867 67.6697 30.38C67.203 29.86 66.9697 29.1933 66.9697 28.38V21.94H65.4697V20.54H66.9697V18.16H68.6297V20.54H71.0697V21.94H68.6297V28.22C68.6297 29.2333 69.063 29.74 69.9297 29.74C70.1964 29.74 70.4297 29.72 70.6297 29.68C70.843 29.64 71.0364 29.5867 71.2097 29.52V30.92C71.0364 30.9733 70.843 31.02 70.6297 31.06C70.4164 31.1133 70.1364 31.14 69.7897 31.14ZM73.8391 31V16.7H75.5791V23.18H83.0991V16.7H84.8391V31H83.0991V24.64H75.5791V31H73.8391ZM91.8684 31.18C91.1751 31.18 90.5551 31.0467 90.0084 30.78C89.4618 30.5 89.0284 30.0667 88.7084 29.48C88.3884 28.8933 88.2284 28.12 88.2284 27.16V20.54H89.8884V27.08C89.8884 28 90.0884 28.6733 90.4884 29.1C90.8884 29.5267 91.4951 29.74 92.3084 29.74C92.8018 29.74 93.2684 29.6333 93.7084 29.42C94.1484 29.2067 94.5018 28.8867 94.7684 28.46C95.0484 28.0333 95.1884 27.5067 95.1884 26.88V20.54H96.8484V31H95.1884V29.34C94.9484 29.8333 94.5418 30.2667 93.9684 30.64C93.4084 31 92.7084 31.18 91.8684 31.18ZM105.403 31.18C104.55 31.18 103.823 30.9933 103.223 30.62C102.623 30.2467 102.17 29.8 101.863 29.28V31H100.203V15.54H101.863V22.3C102.063 21.9533 102.343 21.6333 102.703 21.34C103.063 21.0467 103.477 20.8133 103.943 20.64C104.41 20.4533 104.897 20.36 105.403 20.36C106.323 20.36 107.137 20.5733 107.843 21C108.563 21.4267 109.13 22.0333 109.543 22.82C109.957 23.5933 110.163 24.5267 110.163 25.62V25.78C110.163 26.8467 109.963 27.7867 109.563 28.6C109.177 29.4133 108.623 30.0467 107.903 30.5C107.197 30.9533 106.363 31.18 105.403 31.18ZM105.243 29.8C106.283 29.8 107.077 29.46 107.623 28.78C108.17 28.1 108.443 27.1267 108.443 25.86V25.7C108.443 24.82 108.297 24.0867 108.003 23.5C107.71 22.9133 107.317 22.4733 106.823 22.18C106.343 21.8867 105.81 21.74 105.223 21.74C104.25 21.74 103.437 22.0667 102.783 22.72C102.13 23.36 101.803 24.3533 101.803 25.7V25.86C101.803 27.1933 102.123 28.1867 102.763 28.84C103.403 29.48 104.23 29.8 105.243 29.8Z" fill="white"/>
<defs>
<clipPath id="clip0_3291_10503">
<rect width="24.5" height="24" fill="white" transform="translate(12 12)"/>
</clipPath>
</defs>
</svg>
