<svg width="1088" height="48" viewBox="0 0 1088 48" fill="none" xmlns="http://www.w3.org/2000/svg">
<rect x="0.5" y="0.5" width="109" height="47" rx="11.5" stroke="white" stroke-opacity="0.1"/>
<g clip-path="url(#clip0_3291_10445)">
<path d="M15.2417 33.5171L13.4772 11.9766L34.524 12.0223L32.6589 33.5171L24.0783 35.9994L15.2372 33.5171H15.2417Z" fill="#E34F26"/>
<path d="M24.078 33.9215V14.0312L32.7454 14.0587L31.2003 31.8553L24.078 33.9215Z" fill="#EF652A"/>
<path d="M30.3638 18.9977L30.6106 16.3691H17.2758L18.0118 24.4286H27.214L26.8529 27.8663L23.9043 28.6617L20.9146 27.7931L20.7546 25.7406H18.1123L18.4735 29.928L23.9043 31.4457L29.3809 29.928L30.1169 21.7543H20.4529L20.1786 18.9931H30.3638V18.9977Z" fill="white"/>
</g>
<path d="M45.8 31V16.7H47.54V23.18H55.06V16.7H56.8V31H55.06V24.64H47.54V31H45.8ZM63.3494 31V18.12H59.1894V16.7H69.2494V18.12H65.0894V31H63.3494ZM71.6203 31V16.7H74.0403L78.4603 27.84L82.7403 16.7H85.1403V31H83.4003V18.96L78.6603 31H78.1203L73.2203 18.96V31H71.6203ZM88.7492 31V16.7H90.4892V29.58H97.0292V31H88.7492Z" fill="white"/>
<rect x="126.5" y="0.5" width="99" height="47" rx="11.5" stroke="white" stroke-opacity="0.1"/>
<g clip-path="url(#clip1_3291_10445)">
<path d="M141.255 33.5274L139.495 12.0234L160.51 12.0646L158.649 33.5274L150.082 36.0097L141.255 33.5274Z" fill="#1B73BA"/>
<path d="M150.078 33.9306V14.0723L158.732 14.0997L157.187 31.8688L150.078 33.9306Z" fill="#1C88C7"/>
<path d="M156.583 16.6074H143.271L143.633 19.204H149.95L143.733 21.8737L144.094 24.3834H153.251L152.917 27.8897L149.818 28.4977L147.006 27.7754L146.791 25.7869H144.209L144.556 29.924L150.097 31.4691L155.404 29.7823L156.081 21.6909H150.471L156.588 19.1537V16.6166L156.583 16.6074Z" fill="white"/>
</g>
<path d="M181.78 31.18C180.407 31.18 179.22 30.8867 178.22 30.3C177.22 29.7 176.447 28.86 175.9 27.78C175.367 26.6867 175.1 25.4067 175.1 23.94V23.78C175.1 22.7133 175.267 21.74 175.6 20.86C175.933 19.9667 176.4 19.1933 177 18.54C177.613 17.8867 178.327 17.38 179.14 17.02C179.953 16.66 180.847 16.48 181.82 16.48C182.82 16.48 183.74 16.6533 184.58 17C185.42 17.3467 186.113 17.8667 186.66 18.56C187.207 19.2533 187.527 20.12 187.62 21.16H185.9C185.727 20.0667 185.313 19.2467 184.66 18.7C184.007 18.14 183.067 17.86 181.84 17.86C180.853 17.86 179.987 18.1 179.24 18.58C178.507 19.06 177.933 19.7467 177.52 20.64C177.107 21.52 176.9 22.56 176.9 23.76V23.92C176.9 25.7333 177.333 27.16 178.2 28.2C179.08 29.24 180.287 29.76 181.82 29.76C182.993 29.76 183.96 29.4667 184.72 28.88C185.493 28.2933 185.967 27.42 186.14 26.26H187.76C187.507 27.9133 186.847 29.1467 185.78 29.96C184.713 30.7733 183.38 31.18 181.78 31.18ZM195.029 31.18C193.749 31.18 192.723 30.9733 191.949 30.56C191.189 30.1333 190.623 29.58 190.249 28.9C189.889 28.2067 189.663 27.4533 189.569 26.64H191.249C191.329 27.2 191.476 27.72 191.689 28.2C191.916 28.68 192.289 29.0667 192.809 29.36C193.329 29.64 194.069 29.78 195.029 29.78C195.643 29.78 196.196 29.6667 196.689 29.44C197.183 29.2133 197.569 28.9 197.849 28.5C198.143 28.0867 198.289 27.6133 198.289 27.08C198.289 26.5333 198.189 26.0867 197.989 25.74C197.789 25.3933 197.436 25.1133 196.929 24.9C196.436 24.6733 195.736 24.4867 194.829 24.34C193.829 24.18 192.969 23.96 192.249 23.68C191.543 23.3867 190.996 22.98 190.609 22.46C190.236 21.9267 190.049 21.24 190.049 20.4C190.049 19.6667 190.243 19.0067 190.629 18.42C191.029 17.8333 191.576 17.3733 192.269 17.04C192.963 16.6933 193.756 16.52 194.649 16.52C196.076 16.52 197.216 16.86 198.069 17.54C198.936 18.22 199.436 19.1933 199.569 20.46H198.009C197.836 19.5533 197.476 18.9067 196.929 18.52C196.396 18.12 195.636 17.92 194.649 17.92C193.676 17.92 192.936 18.14 192.429 18.58C191.923 19.02 191.669 19.5733 191.669 20.24C191.669 20.7067 191.749 21.1067 191.909 21.44C192.083 21.76 192.416 22.0333 192.909 22.26C193.403 22.4733 194.136 22.6533 195.109 22.8C196.176 22.96 197.069 23.1933 197.789 23.5C198.509 23.8067 199.049 24.2333 199.409 24.78C199.783 25.3267 199.969 26.0533 199.969 26.96C199.969 27.76 199.756 28.48 199.329 29.12C198.903 29.7467 198.316 30.2467 197.569 30.62C196.823 30.9933 195.976 31.18 195.029 31.18ZM207.275 31.18C205.995 31.18 204.969 30.9733 204.195 30.56C203.435 30.1333 202.869 29.58 202.495 28.9C202.135 28.2067 201.909 27.4533 201.815 26.64H203.495C203.575 27.2 203.722 27.72 203.935 28.2C204.162 28.68 204.535 29.0667 205.055 29.36C205.575 29.64 206.315 29.78 207.275 29.78C207.889 29.78 208.442 29.6667 208.935 29.44C209.429 29.2133 209.815 28.9 210.095 28.5C210.389 28.0867 210.535 27.6133 210.535 27.08C210.535 26.5333 210.435 26.0867 210.235 25.74C210.035 25.3933 209.682 25.1133 209.175 24.9C208.682 24.6733 207.982 24.4867 207.075 24.34C206.075 24.18 205.215 23.96 204.495 23.68C203.789 23.3867 203.242 22.98 202.855 22.46C202.482 21.9267 202.295 21.24 202.295 20.4C202.295 19.6667 202.489 19.0067 202.875 18.42C203.275 17.8333 203.822 17.3733 204.515 17.04C205.209 16.6933 206.002 16.52 206.895 16.52C208.322 16.52 209.462 16.86 210.315 17.54C211.182 18.22 211.682 19.1933 211.815 20.46H210.255C210.082 19.5533 209.722 18.9067 209.175 18.52C208.642 18.12 207.882 17.92 206.895 17.92C205.922 17.92 205.182 18.14 204.675 18.58C204.169 19.02 203.915 19.5733 203.915 20.24C203.915 20.7067 203.995 21.1067 204.155 21.44C204.329 21.76 204.662 22.0333 205.155 22.26C205.649 22.4733 206.382 22.6533 207.355 22.8C208.422 22.96 209.315 23.1933 210.035 23.5C210.755 23.8067 211.295 24.2333 211.655 24.78C212.029 25.3267 212.215 26.0533 212.215 26.96C212.215 27.76 212.002 28.48 211.575 29.12C211.149 29.7467 210.562 30.2467 209.815 30.62C209.069 30.9933 208.222 31.18 207.275 31.18Z" fill="white"/>
<rect x="242.5" y="0.5" width="108" height="47" rx="11.5" stroke="white" stroke-opacity="0.1"/>
<g clip-path="url(#clip2_3291_10445)">
<path d="M275.49 19.8854C275.426 20.1734 275.326 20.3837 275.189 20.5254L275.093 20.4614C275.198 20.1917 275.248 20.0363 275.243 19.9951L275.216 19.954C275.179 19.954 275.134 20.05 275.074 20.242H275.024C275.024 20.2146 275.01 20.1826 274.997 20.1551H274.974L273.877 23.0351C273.803 23.2911 273.73 23.4283 273.671 23.4557C273.671 23.4831 273.689 23.4969 273.721 23.4969C273.73 23.6203 273.703 23.7437 273.634 23.8626C273.433 24.4294 273.305 24.7449 273.241 24.7997L273.282 25.0694C273.282 25.0969 273.273 25.1151 273.241 25.1151H273.195C273.186 25.0466 273.159 25.01 273.113 25.0146H273.09C273.031 25.1106 272.985 25.2203 272.953 25.3483H272.999C273.063 25.3071 273.09 25.2569 273.086 25.202L273.182 25.1929L273.232 25.2111C273.191 25.2797 273.168 25.3346 273.173 25.3711L273.195 25.4123L273.136 25.554V25.5769C273.205 25.5769 273.264 25.5906 273.314 25.6271C273.365 25.618 273.415 25.5997 273.456 25.5723C273.653 25.5631 273.854 25.5631 274.05 25.5631L274.224 25.5037L274.649 25.4946L274.722 25.4854L274.763 25.458V25.4809C274.955 25.4671 274.969 25.4809 275.12 25.4946V25.5174L275.019 25.5266V25.5677C275.051 25.5677 275.083 25.554 275.106 25.5357C275.134 25.5357 275.147 25.5449 275.152 25.5769C275.111 25.5769 275.061 25.5906 275.006 25.6089L274.96 25.5951C274.887 25.6134 274.901 25.618 274.855 25.6226L274.782 25.6089C274.782 25.6089 274.782 25.6271 274.768 25.6317C274.768 25.6591 274.782 25.6729 274.809 25.6729L274.901 25.6637L274.859 25.65C274.859 25.65 274.869 25.6683 274.882 25.6683L275.271 25.6317L275.422 25.5997C275.422 25.5997 275.431 25.618 275.44 25.618L275.509 25.5906L275.641 25.5814C275.746 25.5723 275.742 25.5677 275.966 25.5311C275.966 25.522 275.966 25.5129 275.979 25.5129V25.5311L276.459 25.4351L276.441 25.3894C276.318 25.4169 276.322 25.3986 276.263 25.4077L275.938 25.4214V25.3986L276.117 25.3757H276.185L276.222 25.3437V25.3666C276.482 25.3437 276.569 25.4077 277.758 25.1609C277.822 25.1609 277.817 25.1014 277.854 24.9917C277.831 24.9917 277.808 24.9917 277.79 24.978C277.694 25.0191 277.639 24.9963 277.451 25.0283C277.438 25.0283 277.424 25.0191 277.415 24.9871V24.9689L277.593 24.978C277.625 24.978 277.694 24.9689 277.79 24.914C277.808 24.9231 277.776 24.9369 277.79 24.9323H277.822C277.822 24.9323 277.849 24.914 277.849 24.882L277.831 24.8409C277.707 24.85 277.653 24.8546 277.552 24.9094V24.8866L277.401 24.9003C277.401 24.8546 277.387 24.8317 277.365 24.8317L277.291 24.8409C277.2 24.85 277.159 24.8409 277.113 24.882C277.113 24.8683 277.104 24.8591 277.099 24.8591L277.013 24.8683L276.962 24.8957C276.962 24.8957 276.953 24.8729 276.949 24.8729L276.917 24.9003V24.8774L276.798 24.8683H276.77V24.914L276.834 24.9277H276.889C276.889 24.9277 276.93 24.9414 276.958 24.9414L277.008 24.9186V24.9369C276.729 25.0054 276.729 24.9917 276.537 25.0283C276.514 25.0146 276.496 25.01 276.491 25.01C276.473 25.0283 276.514 25.01 276.501 25.01C276.469 25.01 276.455 25.0009 276.45 24.9689L276.546 24.9597C276.546 24.9597 276.555 24.9689 276.615 24.978C276.688 24.9369 276.697 24.9231 276.738 24.9186V24.8774C276.459 24.9323 276.569 24.8957 276.226 24.9231H276.213V24.882C276.651 24.8271 276.501 24.8591 276.651 24.8134C276.651 24.8271 276.661 24.8363 276.665 24.8363C276.679 24.8226 276.706 24.8089 276.729 24.8089H276.761C276.912 24.7951 276.967 24.8226 277.273 24.7403V24.7586L277.323 24.7357H277.369C277.369 24.6854 277.438 24.6809 277.456 24.6763V24.6306C276.917 24.7403 276.775 24.7037 276.624 24.754V24.7357C276.482 24.7631 276.478 24.7449 276.446 24.7494C276.437 24.7494 276.418 24.7586 276.405 24.7769C276.405 24.7631 276.395 24.754 276.386 24.754C276.363 24.754 276.377 24.7631 276.354 24.7814L276.386 24.754L275.92 24.8271C275.92 24.8271 275.911 24.8089 275.902 24.8089C275.669 24.8591 275.728 24.8683 275.413 24.8957C275.399 24.8957 275.376 24.9049 275.353 24.9186C275.353 24.9094 275.344 24.9003 275.33 24.9003L275.134 24.914L275.006 24.946C275.006 24.946 274.997 24.9277 274.983 24.9277C274.91 24.946 274.846 24.9597 274.795 24.9643C274.763 24.9643 274.809 24.9551 274.786 24.946L274.745 24.9689C274.686 24.9689 274.718 24.9689 274.521 24.9689L274.178 25.0191L274.05 25.01C274.05 25.01 274.05 25.0283 274.032 25.0329C273.886 25.0146 273.813 24.9917 273.808 24.9643C273.826 24.8271 273.858 24.7586 273.909 24.7494H273.931L273.909 24.7906H273.931C273.977 24.7631 274 24.7403 274 24.7174V24.6717H273.95V24.6306C273.941 24.594 273.95 24.5666 273.959 24.5391L274.064 24.37V24.4111H274.119V24.37L274.087 24.3289C274.123 24.2969 274.155 24.2786 274.178 24.2786V24.2557H274.11V24.1871C274.238 23.9037 274.306 23.7391 274.302 23.698L274.347 23.7163C274.379 23.7163 274.393 23.698 274.389 23.666H274.343V23.6523C274.343 23.6203 274.343 23.5883 274.357 23.5563C274.43 23.4831 274.462 23.4054 274.453 23.3231C274.466 23.3231 274.475 23.3323 274.475 23.346C274.539 23.3094 274.585 23.218 274.622 23.058C274.731 22.8569 274.882 22.4591 275.093 21.8649C275.486 20.8134 275.467 20.7037 275.522 20.4523H275.477C275.477 20.4889 275.477 20.5209 275.458 20.5483C275.435 20.5391 275.408 20.53 275.385 20.53V20.5117C275.376 20.4203 275.417 20.3106 275.504 20.1826H275.522L275.563 20.3334H275.609C275.618 20.2694 275.632 20.2054 275.646 20.146C275.646 20.1231 275.627 20.1094 275.591 20.1049L275.55 20.1323C275.55 20.1003 275.55 20.018 275.55 19.8809H275.504L275.49 19.8854ZM274.923 20.562H274.946C274.91 20.6214 274.882 20.658 274.855 20.658V20.5894C274.855 20.5894 274.896 20.5803 274.923 20.5574V20.562ZM274.731 21.0329C274.777 20.8409 274.827 20.7311 274.869 20.7037V20.7266C274.85 20.9049 274.809 20.9963 274.754 21.0054L274.763 21.1197C274.722 21.1791 274.699 21.2249 274.704 21.2614H274.681L274.672 21.1106C274.695 21.1106 274.718 21.0831 274.736 21.0374L274.731 21.0329ZM274.654 21.2843C274.654 21.3117 274.64 21.3757 274.603 21.4717H274.581V21.4077C274.608 21.3346 274.635 21.2889 274.654 21.2843ZM273.369 24.1369L273.392 24.178C273.429 24.178 273.442 24.1597 273.438 24.1323V24.1094H273.41L273.369 24.1323V24.1369ZM273.986 24.6489V24.6671C274.023 24.6671 274.055 24.5986 274.087 24.4797L274.041 24.466C274 24.5711 273.986 24.6306 273.986 24.6534V24.6489ZM277.95 24.786V24.8043L277.909 24.85L277.982 24.8226H277.991V24.7814H277.973L277.945 24.8043C277.945 24.8043 278.027 24.7677 277.963 24.7586C277.954 24.7769 277.982 24.7814 277.95 24.786ZM278.101 24.9277L278.206 24.9186C278.206 24.8911 278.137 24.882 278.11 24.882H278.091L278.101 24.9231V24.9277ZM276.226 24.9643L276.258 25.0054C276.258 25.0054 276.258 24.9871 276.272 24.9871L276.295 25.0283L276.199 25.0191C276.19 24.9871 276.199 24.9734 276.226 24.9689V24.9643ZM275.906 25.0009C275.943 25.0009 275.966 25.0191 275.966 25.0511H275.856V25.0329C275.856 25.0329 275.888 25.0237 275.906 25.0009ZM276.153 24.9917V25.0146L276.066 25.0237V25.0009L276.153 24.9917ZM275.248 25.0831C275.248 25.0831 275.257 25.1014 275.271 25.1014L275.472 25.0603C275.495 25.0603 275.509 25.0694 275.513 25.1014L275.111 25.138L275.152 25.1563V25.1334L274.997 25.1426V25.1197L275.129 25.1106L275.253 25.0831H275.248ZM275.664 25.0466V25.0649C275.664 25.0649 275.705 25.0649 275.678 25.0877C275.591 25.0786 275.586 25.074 275.527 25.0786V25.0603L275.664 25.0466ZM275.765 25.0374V25.0557L275.691 25.0649V25.0466L275.765 25.0374ZM273.259 25.4351V25.5037C273.259 25.5037 273.218 25.4946 273.214 25.4626V25.4443H273.259V25.4351ZM276.61 25.3757V25.4169L276.688 25.4077L276.656 25.3894V25.4123L276.734 25.3803C277.269 25.3209 277.333 25.3437 277.323 25.2843V25.266C276.784 25.3894 276.711 25.362 276.601 25.3757H276.606H276.61ZM277.447 25.3026L277.52 25.3163V25.2751L277.442 25.2614V25.3026H277.447ZM275.129 25.458C275.152 25.4671 275.102 25.4809 275.129 25.4763L275.403 25.4534V25.4763C275.33 25.4854 275.28 25.4946 275.262 25.5129C275.262 25.4991 275.253 25.49 275.239 25.49L275.12 25.4991V25.4763C275.147 25.4763 275.102 25.4763 275.12 25.458H275.129ZM276.4 25.426L276.423 25.4671C276.514 25.4489 276.464 25.4534 276.487 25.4306C276.487 25.4443 276.496 25.4534 276.501 25.4534H276.565V25.4031H276.4V25.4214V25.426ZM274.846 25.5951H274.832V25.554H274.846V25.5951ZM273.621 25.7414V25.7643L274.343 25.7049V25.6637L273.762 25.7094L273.639 25.6957L273.616 25.7414H273.621ZM274.425 25.7003H274.434V25.6591H274.425V25.7003ZM263.463 21.9151L262.677 22.9209C262.471 23.1357 262.366 23.2637 262.379 23.3094C262.325 23.346 262.306 23.378 262.311 23.4191C262.297 23.4191 262.283 23.4191 262.279 23.4009C262.187 23.5471 262.059 23.634 261.886 23.6797L261.698 23.7209C261.675 23.7209 261.662 23.7437 261.662 23.7757V23.7986L261.735 23.7849V23.8031L261.584 23.8626L261.305 23.9266L261.159 23.9357C261.159 23.9357 261.273 23.9357 261.223 23.9449L261.045 23.986C260.935 24.0134 260.871 23.9997 260.866 23.9586H260.848C260.857 24.0043 260.848 24.0317 260.816 24.0363L260.853 24.0271L260.839 23.9586L260.51 24.0317L260.546 24.0454C260.546 24.0454 260.528 24.0271 260.496 24.0363L260.455 24.0729L260.405 24.0637C260.359 24.0911 260.331 24.1049 260.318 24.1049L260.267 24.0957C260.13 24.1689 260.231 24.1689 260.226 24.1689L260.235 24.21L260.309 24.1917L260.432 24.1826L260.423 24.2329C259.975 24.3517 260.299 24.2831 260.181 24.306H260.158L260.167 24.3517L260.235 24.338V24.3609C260.149 24.3791 260.098 24.402 260.085 24.4203V24.3974C259.966 24.4249 259.847 24.5163 259.728 24.658C259.746 24.7449 259.495 24.85 260.693 24.5711L260.834 24.562C260.834 24.562 260.834 24.5391 260.853 24.5346C260.985 24.5209 260.921 24.5437 261.003 24.5254L261.264 24.466L261.209 24.498C261.209 24.498 261.209 24.4797 261.223 24.4751C261.255 24.4843 261.287 24.4751 261.319 24.4751L261.333 24.5437L260.309 26.1666L260.08 26.45L259.97 26.8203H259.989L260.098 26.77L260.062 26.9163L260.071 26.9574L260.103 26.9986C260.103 26.9986 260.085 27.0077 260.089 27.026V27.0489L260.135 27.0397C260.203 26.9803 260.231 26.9254 260.222 26.8797C260.295 26.8889 260.345 26.8934 260.368 26.8889V26.9117C260.327 26.9209 260.304 26.9574 260.299 27.0169V27.0397H260.327C260.697 26.6374 261.602 25.2523 262.334 24.3151C262.311 24.2146 262.69 24.0729 263.472 23.8946H263.495C263.522 24.0134 263.463 24.3106 263.317 24.7814L263.179 25.2477L263.001 25.8649L262.722 26.7746C262.544 27.2409 262.407 27.73 262.311 28.2466C262.325 28.2466 262.352 28.2466 262.384 28.2557L262.425 28.2191C262.425 28.2191 262.434 28.2374 262.457 28.2374L262.443 28.1689H262.567C262.603 28.1597 262.635 28.1094 262.658 28.0271C262.658 27.9037 262.677 27.8397 262.731 27.8214L262.869 27.378C262.937 27.09 262.992 26.93 263.024 26.8797C263.129 26.5049 263.202 26.3083 263.257 26.2946L263.266 26.3403L263.193 26.5414C263.061 27.1311 262.923 27.602 262.786 27.9449L262.827 28.1186H262.85C263.184 27.4009 263.655 25.9929 264.277 23.8854C264.29 23.7071 264.386 23.5471 264.537 23.4557L264.501 23.4191V23.4009C264.569 23.3871 264.619 23.3597 264.647 23.3186C264.647 23.3049 264.578 23.2774 264.459 23.25L264.825 21.6774C264.935 21.2066 265.013 20.7951 265.049 20.4386V20.4157C264.971 20.37 264.898 20.3014 264.83 20.2146V20.1003H264.807C264.578 20.4431 264.126 21.042 263.458 21.9014H263.472L263.463 21.9151ZM263.984 22.2717C264.002 22.354 263.975 22.5049 263.893 22.7289C263.87 23.0123 263.769 23.1723 263.591 23.2134V23.1906L263.431 23.25L263.362 23.2637C263.326 23.2729 263.294 23.2729 263.266 23.2637L263.253 23.1997C263.253 23.1769 263.472 22.8614 263.934 22.2626L263.989 22.2717H263.984ZM263.623 23.25L263.673 23.2409L263.682 23.282L263.271 23.4054C263.248 23.4146 263.225 23.4283 263.202 23.4466C263.202 23.4329 263.166 23.4329 263.106 23.4466C263.097 23.4054 263.266 23.3414 263.618 23.2591L263.623 23.25ZM261.191 23.9083L261.246 23.8991L261.237 23.8534L261.182 23.8626L261.191 23.9083ZM261.904 23.7163L261.913 23.7574L261.794 23.7666V23.7437L261.899 23.7163H261.904ZM260.533 24.1689V24.1917L260.464 24.2054V24.1826L260.533 24.1689ZM260.395 24.4523V24.4706L260.309 24.4889L260.299 24.4477H260.395V24.4523ZM260.61 24.4066V24.4249L260.45 24.466V24.4477L260.61 24.4066ZM260.898 24.3609V24.3837L260.473 24.4797L260.464 24.4386C260.715 24.3974 260.688 24.4111 260.903 24.3654L260.898 24.3609ZM263.056 23.858L263.093 23.8991C263.042 23.9083 263.001 23.9266 262.983 23.9449L262.933 23.9357C262.869 23.9631 262.8 23.986 262.727 24.0043L262.681 24.0134C262.654 24.0226 262.635 24.0134 262.622 23.9814L262.946 23.9083L263.056 23.858ZM263.285 23.8077L263.518 23.7529V23.7757C263.394 23.8031 263.298 23.8351 263.23 23.8717V23.8489C263.23 23.8489 263.266 23.8306 263.289 23.8077H263.285ZM260.857 24.466L260.967 24.4431L260.976 24.4843C260.93 24.4934 260.967 24.4934 260.907 24.5254C260.793 24.5346 260.816 24.5254 260.638 24.5666V24.5437L260.857 24.4706V24.466ZM261.154 24.4157C261.186 24.4066 261.205 24.4157 261.209 24.4523L261.141 24.466C261.113 24.4751 261.095 24.466 261.081 24.4294L261.15 24.4157H261.154ZM259.929 26.8889V26.9117C259.966 26.9026 259.975 26.8889 259.97 26.8569V26.834C259.938 26.8431 259.929 26.8569 259.929 26.8889ZM260.025 27.282C260.034 27.3094 260.048 27.3231 260.08 27.314C260.112 27.3049 260.121 27.2911 260.117 27.2591V27.2363L260.066 27.2454L260.025 27.282ZM262.521 27.954C262.553 27.9449 262.567 27.954 262.576 27.986V28.0089L262.489 28.0271C262.498 27.9951 262.498 27.9723 262.489 27.9586H262.517L262.521 27.954Z" fill="white"/>
<path d="M266.155 20.7097C265.931 20.8697 265.703 21.016 265.46 21.1486V21.1897C265.46 21.1897 265.501 21.1806 265.533 21.1577C265.565 21.1577 265.579 21.1669 265.584 21.1989L265.625 21.176H265.643V21.1943C265.643 21.2171 265.483 21.3451 265.163 21.5691L265.186 21.6149H265.168L265.117 21.5966C265.117 21.5966 265.099 21.624 265.049 21.6286V21.6469L265.099 21.7109C265.072 21.7109 265.049 21.7017 265.026 21.6926C264.921 21.7017 264.82 21.7794 264.715 21.9211L264.738 21.9623C264.829 21.88 264.88 21.8389 264.893 21.8389V21.9074C264.893 21.9074 264.857 21.9166 264.825 21.9394L264.884 22.0217C264.985 21.9074 265.104 21.8069 265.232 21.7246C265.296 21.7429 265.328 21.7657 265.328 21.784H265.373C265.725 21.5189 266.068 21.336 266.411 21.2263V21.2674C266.347 21.3634 266.306 21.4091 266.283 21.4137C266.283 21.4457 266.292 21.4731 266.311 21.5006C266.311 21.56 266.16 21.9486 265.849 22.6754C265.136 24.3531 264.532 25.6011 264.048 26.4057C264.048 26.4194 264.057 26.4469 264.08 26.4743C264.203 26.4469 264.276 26.4149 264.308 26.3874H264.327V26.4286H264.381L264.423 26.4057C264.423 26.4057 264.436 26.424 264.468 26.4194V26.4651C264.477 26.5063 264.45 26.5749 264.4 26.6709C264.349 26.7257 264.295 26.8446 264.24 27.0183V27.0411H264.29C264.487 26.8217 264.628 26.6114 264.733 26.4011C265.3 26.232 265.73 26.072 266.032 25.912C266.338 25.8846 266.562 25.8069 266.722 25.6789V25.656L266.603 25.6926H266.58V25.6743C266.804 25.6423 266.955 25.592 267.037 25.5234C267.467 25.1897 267.792 24.9566 268.011 24.8194C268.692 24.3166 269.012 23.8457 268.976 23.3794C268.976 23.3337 268.825 23.1463 268.528 22.8171C268.528 22.7531 268.624 22.6663 268.834 22.5474L269.428 22.0309C269.561 21.8617 269.639 21.5874 269.661 21.208L269.652 21.1211C269.629 20.8606 269.437 20.6457 269.076 20.4811C268.861 20.3349 268.477 20.2571 267.924 20.2434C267.476 20.2754 266.877 20.44 266.137 20.728H266.146L266.155 20.7097ZM269.341 20.7417L269.319 20.7874L268.66 20.5086C269.104 20.5269 269.328 20.6046 269.341 20.7417ZM266.672 22.5749C266.717 22.328 266.768 22.1909 266.823 22.1589L267.321 21.048C267.321 20.9794 267.417 20.9246 267.636 20.888L267.705 20.8789V20.9474C267.92 20.9109 268.048 20.8926 268.103 20.888C268.496 20.8514 268.697 20.9337 268.715 21.1211H268.761L268.752 21.0114H268.797C268.912 21.0709 268.971 21.144 268.976 21.2354C268.976 21.2994 268.948 21.3771 268.88 21.4686C268.848 21.4686 268.834 21.4503 268.829 21.4046H268.784L268.77 21.5417C268.569 21.8434 268.432 21.9897 268.34 22.0034C268.267 22.1131 268.212 22.168 268.189 22.168C268.125 22.2411 267.956 22.3737 267.682 22.5474C267.586 22.5566 267.248 22.6891 266.658 22.9451C266.626 22.9314 266.594 22.9314 266.562 22.936V22.8949C266.553 22.8126 266.589 22.7074 266.672 22.5749ZM269.405 21.2034V21.2491C269.405 21.2491 269.341 21.1806 269.273 21.0389V20.9977C269.314 20.9977 269.36 21.0663 269.405 21.2034ZM265.067 21.7383V21.7611C265.067 21.7611 265.031 21.7703 264.999 21.7886H264.98V21.7474L265.067 21.7383ZM266.503 21.7017V21.7703C266.503 21.7703 266.457 21.8069 266.42 21.8663V21.8251C266.457 21.7749 266.475 21.7337 266.475 21.7063H266.503V21.7017ZM266.279 22.1634L266.288 22.2503H266.265L266.256 22.168H266.279V22.1634ZM266.224 22.3234C266.224 22.3966 266.201 22.4377 266.164 22.4423H266.141C266.169 22.3966 266.183 22.3554 266.178 22.328H266.224V22.3234ZM266.123 22.5566V22.5794L266.087 22.648H266.041V22.6297C266.087 22.6297 266.109 22.6023 266.109 22.5566H266.128H266.123ZM266.027 22.7623L266.013 22.8766H265.995L265.986 22.7623H266.027ZM268.436 22.8446L268.532 22.904C268.532 22.9314 268.523 22.9497 268.491 22.9497C268.45 22.9223 268.418 22.9086 268.395 22.9131V22.8446H268.436ZM266.553 23.096V23.1371L266.461 23.1463V23.1051L266.553 23.096ZM268.075 23.256C268.144 23.288 268.171 23.3154 268.176 23.3383V23.3566C268.112 23.3566 268.052 23.3291 267.997 23.2606H268.071L268.075 23.256ZM266.114 23.736C266.375 23.7131 266.8 23.5851 267.376 23.3611L267.522 23.352C267.81 23.3291 268.029 23.384 268.171 23.5211L268.18 23.608C268.075 23.9143 267.956 24.0926 267.828 24.1474L267.239 24.6274C266.795 24.9154 266.557 25.0617 266.516 25.0663C265.812 25.4549 265.373 25.6514 265.2 25.6697H265.177C265.191 25.592 265.506 24.9474 266.119 23.7451L266.114 23.736ZM266.749 23.4846V23.5074L266.658 23.5166V23.4937L266.749 23.4846ZM268.889 23.384L268.903 23.5623C268.88 23.6034 268.861 23.6309 268.834 23.6309L268.807 23.3246C268.857 23.3383 268.88 23.3611 268.88 23.3794L268.889 23.384ZM265.273 24.92C265.241 25.0709 265.209 25.1486 265.177 25.1486V25.1303C265.168 25.0617 265.195 24.9886 265.273 24.9246V24.92ZM265.867 25.7566C266.041 25.7246 266.512 25.4777 267.293 25.0114V25.0526C267.293 25.0526 267.234 25.1257 267.097 25.2263C266.704 25.4229 266.471 25.5509 266.402 25.6194C265.977 25.7703 265.762 25.8617 265.767 25.8983C265.387 26.0491 265.14 26.1589 265.017 26.2274C264.989 26.2274 264.948 26.2183 264.893 26.1909C264.884 26.1177 264.921 26.0537 264.994 26.0034C265.058 25.9989 265.122 26.0034 265.181 26.0309C265.25 25.9943 265.373 25.9577 265.547 25.9074V25.8663L265.401 25.8754C265.415 25.848 265.552 25.784 265.808 25.6834L265.876 25.6743V25.6926C265.753 25.7017 265.689 25.7383 265.671 25.8023C265.671 25.8297 265.689 25.8434 265.721 25.8434C265.817 25.7977 265.863 25.7611 265.863 25.7474L265.867 25.7566ZM265.131 25.2217V25.24C265.131 25.272 265.122 25.2903 265.09 25.2903V25.2674C265.09 25.2674 265.104 25.2263 265.131 25.2217ZM266.247 25.528C266.192 25.528 266.087 25.5783 265.931 25.6651H265.908V25.624C266.023 25.6149 266.123 25.5691 266.201 25.4914C266.233 25.4914 266.247 25.5006 266.251 25.528H266.247ZM265.095 25.848L265.163 25.8389V25.8617C265.163 25.8617 265.127 25.8709 265.095 25.8891H265.049C265.049 25.8891 265.058 25.8526 265.09 25.848H265.095ZM264.619 26.1086L264.665 26.1269C264.651 26.264 264.605 26.3326 264.541 26.3371C264.487 26.3143 264.441 26.3006 264.395 26.3051V26.2366C264.386 26.2137 264.404 26.1954 264.436 26.1909C264.468 26.1909 264.482 26.2091 264.487 26.2549C264.56 26.1589 264.61 26.104 264.615 26.104L264.619 26.1086ZM256.944 20.5177C256.683 20.7143 256.372 20.9063 256.029 21.0937V21.1531C256.057 21.1531 256.084 21.1394 256.125 21.1166C256.167 21.1166 256.189 21.1257 256.189 21.1669L256.253 21.1303H256.285V21.1531C256.285 21.1806 256.075 21.3497 255.645 21.6514L255.682 21.7063H255.65L255.581 21.688C255.581 21.7063 255.554 21.72 255.49 21.7246V21.7566L255.563 21.8297C255.54 21.8297 255.508 21.8297 255.467 21.8114C255.33 21.8206 255.193 21.9257 255.06 22.1131L255.097 22.168C255.216 22.0629 255.284 22.008 255.303 22.008L255.312 22.0949C255.312 22.0949 255.261 22.1086 255.22 22.1314L255.293 22.2411C255.431 22.0903 255.586 21.9623 255.76 21.8526C255.847 21.8754 255.888 21.8983 255.888 21.9257H255.952C256.409 21.5829 256.866 21.3406 257.314 21.1851V21.2446C257.236 21.368 257.177 21.432 257.145 21.4366C257.145 21.4777 257.163 21.5189 257.186 21.5509C257.195 21.624 256.989 22.1406 256.573 23.096C255.623 25.3086 254.836 26.9451 254.196 28.0103C254.196 28.0286 254.21 28.0606 254.233 28.0971C254.388 28.056 254.493 28.024 254.535 27.9829H254.571V28.0377H254.631L254.695 27.9966C254.695 28.0149 254.717 28.024 254.759 28.0194V28.0789C254.768 28.1383 254.736 28.2297 254.663 28.3486C254.594 28.4217 254.53 28.5771 254.457 28.8057V28.8331H254.516C254.772 28.5451 254.964 28.2617 255.101 27.9874C255.851 27.768 256.418 27.5531 256.811 27.3429C257.204 27.3063 257.511 27.2057 257.712 27.032V27L257.561 27.0411H257.524V27.0137C257.812 26.9726 258.018 26.904 258.128 26.8171C258.695 26.3783 259.12 26.0674 259.412 25.8846C260.313 25.2263 260.733 24.5909 260.679 23.992C260.679 23.928 260.473 23.6811 260.089 23.2514C260.08 23.1691 260.217 23.0503 260.491 22.8949L261.268 22.2091C261.442 21.9851 261.547 21.624 261.584 21.1303L261.575 21.0114C261.543 20.664 261.291 20.3806 260.816 20.1657C260.532 19.9737 260.029 19.8731 259.303 19.8594C258.704 19.9143 257.913 20.12 256.944 20.4994L256.953 20.5086L256.944 20.5177ZM261.145 20.568L261.122 20.6274L260.253 20.2617C260.834 20.2846 261.131 20.3851 261.145 20.568ZM257.629 22.9771C257.689 22.6571 257.753 22.4697 257.831 22.4286L258.48 20.9703C258.471 20.8789 258.608 20.8103 258.896 20.7646L258.992 20.7554L259.001 20.8377L259.522 20.7646C260.039 20.7234 260.304 20.824 260.327 21.08H260.386L260.377 20.9291H260.441C260.592 21.0069 260.674 21.112 260.683 21.2309C260.692 21.3131 260.647 21.4183 260.551 21.5371C260.509 21.5371 260.487 21.5143 260.482 21.4549H260.418L260.404 21.6331C260.144 22.0263 259.956 22.2229 259.837 22.2366C259.732 22.3829 259.664 22.456 259.636 22.4606C259.554 22.5566 259.33 22.7211 258.964 22.9634C258.841 22.9726 258.393 23.1509 257.616 23.4891C257.575 23.4709 257.533 23.4617 257.492 23.4709V23.416C257.483 23.3017 257.529 23.16 257.643 22.9909L257.629 22.9771ZM261.227 21.176V21.2309C261.2 21.2309 261.14 21.1394 261.053 20.952V20.8971C261.104 20.888 261.163 20.984 261.227 21.176ZM255.508 21.8754V21.9029C255.508 21.9029 255.463 21.9166 255.421 21.9394H255.389V21.8891L255.513 21.8754H255.508ZM257.401 21.8251L257.41 21.912C257.383 21.912 257.341 21.9531 257.296 22.0354V21.976C257.346 21.9074 257.373 21.8571 257.373 21.8251H257.401ZM257.113 22.4377L257.122 22.5566H257.09L257.081 22.4423H257.113V22.4377ZM257.035 22.648C257.026 22.744 257.003 22.7989 256.953 22.7989H256.921C256.957 22.7303 256.976 22.6846 256.971 22.648H257.035ZM256.907 22.9543V22.9817L256.857 23.0777H256.797V23.0549C256.857 23.0549 256.884 23.0183 256.88 22.9589H256.907V22.9543ZM256.775 23.2286L256.761 23.3749H256.729L256.72 23.2331H256.779L256.775 23.2286ZM259.952 23.3337L260.08 23.4069C260.08 23.448 260.066 23.4709 260.025 23.4754C259.97 23.4389 259.929 23.4251 259.897 23.4251L259.888 23.3383H259.952V23.3337ZM257.465 23.6674V23.7223L257.346 23.7314V23.6766L257.465 23.6674ZM259.467 23.8686C259.554 23.9097 259.595 23.9417 259.6 23.9783V24.0057C259.522 24.0149 259.449 23.9691 259.376 23.8777L259.467 23.8686ZM256.88 24.5086C257.232 24.4766 257.789 24.312 258.544 24.0149L258.731 24.0011C259.115 23.9691 259.399 24.0423 259.591 24.2206L259.6 24.3394C259.458 24.7463 259.303 24.9794 259.133 25.0526L258.352 25.6743C257.767 26.0583 257.451 26.2503 257.41 26.2549C256.482 26.7669 255.901 27.032 255.677 27.0503H255.641C255.673 26.9451 256.084 26.0994 256.88 24.5086ZM257.725 24.1749V24.2023L257.602 24.2114V24.184L257.725 24.1749ZM260.537 24.0514L260.555 24.2846C260.528 24.3486 260.5 24.3806 260.468 24.3806L260.432 23.9737C260.5 24.0011 260.528 24.0286 260.532 24.056L260.537 24.0514ZM255.773 26.072C255.732 26.2731 255.691 26.3737 255.65 26.3783V26.3509C255.641 26.2503 255.682 26.1589 255.773 26.072ZM256.555 27.1737C256.784 27.1326 257.405 26.8034 258.429 26.2V26.2549C258.439 26.2777 258.347 26.3509 258.169 26.4834C257.648 26.7394 257.341 26.9131 257.255 27.0046C256.692 27.2011 256.413 27.32 256.418 27.3703C255.915 27.5714 255.586 27.7131 255.431 27.8046C255.394 27.8046 255.339 27.7954 255.271 27.7634C255.261 27.6629 255.307 27.576 255.408 27.512C255.495 27.5029 255.581 27.512 255.659 27.5531C255.755 27.5074 255.915 27.4526 256.144 27.3977V27.3383L255.952 27.352C255.975 27.32 256.153 27.2377 256.487 27.1006L256.583 27.0914V27.1189C256.432 27.128 256.34 27.1829 256.322 27.2651C256.322 27.3017 256.345 27.32 256.386 27.3154C256.5 27.2423 256.56 27.192 256.56 27.1829L256.555 27.1737ZM255.591 26.4606V26.488C255.6 26.5291 255.577 26.552 255.54 26.5566V26.5291C255.531 26.4926 255.554 26.4697 255.591 26.4606ZM257.058 26.8629C256.985 26.872 256.848 26.9314 256.637 27.0503H256.605V26.9954C256.752 26.9863 256.889 26.9223 256.989 26.8171C257.031 26.808 257.058 26.8263 257.058 26.8629ZM255.536 27.2834L255.632 27.2743V27.3063C255.609 27.3063 255.581 27.32 255.54 27.3429H255.481C255.481 27.32 255.49 27.2971 255.531 27.2834H255.536ZM254.914 27.6309L254.983 27.6583C254.96 27.8366 254.909 27.9189 254.818 27.9326C254.759 27.9051 254.69 27.8914 254.626 27.8914L254.617 27.8046C254.617 27.768 254.631 27.7497 254.676 27.736C254.717 27.736 254.74 27.7589 254.745 27.8183C254.85 27.6903 254.909 27.6263 254.919 27.6263L254.914 27.6309ZM272.281 19.9417L272.231 19.9234L271.399 20.0514C271.367 20.0377 271.33 20.0286 271.284 20.0331C271.239 20.0331 271.165 20.0514 271.06 20.0789L270.658 20.248L270.69 20.2983C270.69 20.2983 270.736 20.2891 270.772 20.2663L270.914 20.2754L270.896 20.408C270.768 20.4674 270.69 20.5543 270.667 20.6686C270.471 20.7554 270.375 20.8194 270.375 20.856V20.8789H270.411L270.466 20.8514L270.53 20.9246L270.539 21.0251C270.539 21.0571 270.21 21.7566 269.547 23.1234C268.971 24.44 268.669 25.1577 268.637 25.2903C268.441 25.3451 268.322 25.4274 268.295 25.5326C268.295 25.5691 268.359 25.5874 268.473 25.6011V25.6514L268.427 25.7383L268.436 25.8389C268.436 25.8937 268.587 25.9349 268.866 25.9623C268.866 25.944 268.875 25.9349 268.893 25.9303C268.893 25.9943 268.884 26.1177 268.839 26.3051H268.871C268.989 26.1406 269.044 26.0309 269.04 25.9669H269.063C269.09 25.9577 269.122 25.9943 269.159 26.0629C269.122 26.0766 268.999 26.36 268.788 26.9131L268.82 26.9634H268.852C269.113 26.296 269.277 25.9303 269.346 25.8617L271.129 25.6834L271.179 25.6514C271.179 25.6514 271.188 25.6789 271.211 25.6743H271.266L271.316 25.6377C271.316 25.656 271.325 25.6651 271.348 25.6606L271.988 25.6057C272.157 25.592 272.24 25.5371 272.231 25.4549C272.231 25.432 272.327 25.4046 272.532 25.3817C272.56 25.3817 272.592 25.3863 272.619 25.3954C272.619 25.3817 272.715 25.3634 272.921 25.3451C272.921 25.24 272.962 25.1806 273.021 25.176V25.1257C272.967 25.1257 272.898 25.144 272.825 25.1669C272.692 25.1577 272.605 25.1531 272.569 25.1349C272.532 25.1531 272.505 25.1669 272.487 25.1669L272.039 25.1806L271.984 25.208C271.984 25.208 271.975 25.1851 271.952 25.1897H271.929L271.869 25.2217C271.869 25.208 271.824 25.1943 271.728 25.1806L271.673 25.2126L271.563 25.2217V25.1943C272.13 25.1303 272.418 25.0526 272.409 24.9611C272.445 24.9611 272.464 24.9749 272.468 25.0114L272.637 24.9703V24.92L271.261 24.9611C271.261 24.9794 271.252 24.9886 271.234 24.9931L271.065 24.9794C271.028 24.9794 270.992 24.9931 270.96 25.0206L270.896 24.9977C270.722 25.0114 270.594 25.0343 270.507 25.0617C270.375 25.0526 270.247 25.0526 270.114 25.0617L269.803 25.0891L269.661 25.0754C269.652 24.984 269.831 24.5406 270.192 23.736C270.297 23.4663 270.397 23.2971 270.484 23.2331C270.503 23.2331 270.53 23.2331 270.571 23.2514L270.791 23.1783L270.905 23.1966C271.092 23.1829 271.312 23.128 271.563 23.0366C271.627 23.0366 271.673 23.0366 271.705 23.0457L271.874 23.0046L272.372 22.9634C272.605 22.9406 272.839 22.8903 273.063 22.8217V22.7714C272.967 22.7806 272.916 22.7623 272.916 22.7303C272.907 22.6617 272.843 22.6343 272.711 22.6434V22.5931L272.843 22.552L273.204 22.52V22.4697C273.204 22.4697 273.113 22.4697 272.976 22.4697V22.4149L273.113 22.4057C273.149 22.4057 273.168 22.3829 273.163 22.3509C272.976 22.3509 272.88 22.3509 272.88 22.3234C271.577 22.3874 270.928 22.3966 270.923 22.36C270.905 22.36 270.877 22.3691 270.841 22.3966L270.804 22.3417C271.147 21.6103 271.353 21.2354 271.412 21.2354C271.412 21.2629 271.403 21.3086 271.371 21.3726V21.3954H271.431C271.568 21.0663 271.682 20.8971 271.778 20.888C272.185 20.8514 271.719 20.824 272.596 20.6869C272.633 20.7006 272.66 20.7097 272.669 20.7051C273.012 20.6366 273.492 20.5634 274.105 20.4903V20.44L273.771 20.472V20.4217C273.803 20.4217 273.84 20.408 273.867 20.3806V20.408C273.89 20.408 273.913 20.3989 273.945 20.3714C274 20.3714 274.041 20.3714 274.073 20.3851C274.164 20.3577 274.256 20.3394 274.347 20.3303L274.553 20.312C274.603 20.28 274.626 20.2526 274.621 20.2251V20.2023C274.562 20.2023 274.503 20.2023 274.443 20.1886C274.443 20.1611 274.452 20.1429 274.489 20.1337L274.868 20.0971L275.047 20.056C275.047 20.056 275.056 20.0834 275.069 20.0834C275.088 20.0834 275.111 20.0743 275.143 20.0469C275.234 20.056 275.289 20.0606 275.298 20.056C275.367 19.9874 275.449 19.9326 275.54 19.9006C275.499 19.8594 275.481 19.832 275.476 19.8046L275.22 19.8274C275.22 19.8274 275.211 19.7863 275.193 19.7543C275.193 19.7314 275.248 19.7086 275.367 19.6857L275.417 19.704L275.463 19.6766C275.463 19.6766 275.472 19.6994 275.49 19.6949L275.536 19.6674C275.536 19.6674 275.545 19.6903 275.563 19.6857H275.586V19.6309C275.549 19.6309 275.458 19.6309 275.307 19.6309L275.261 19.6629V19.6354L273.227 19.8046C273.209 19.8046 273.122 19.8046 272.976 19.8046C272.976 19.8229 272.962 19.8366 272.925 19.8366L272.875 19.8137L272.697 19.8549C272.656 19.8549 272.587 19.8549 272.491 19.8457C272.464 19.8686 272.427 19.8823 272.395 19.8869C272.354 19.8869 273.341 19.832 273.309 19.8183L273.159 19.8594H273.136C273.072 19.8686 272.994 19.8686 272.903 19.8594C272.866 19.8823 272.82 19.896 272.779 19.9006C272.743 19.9006 272.711 19.9006 272.679 19.8823C272.555 19.9143 272.427 19.9417 272.299 19.9646V19.9509L272.281 19.9417ZM272.345 20.0971C272.345 20.0971 272.363 20.1246 272.395 20.12V20.1703H272.345C272.308 20.1794 272.276 20.1703 272.244 20.1566C272.217 20.1794 272.18 20.1931 272.148 20.1977H272.162L272.02 20.184V20.1611C272.189 20.152 272.244 20.1291 272.34 20.1017L272.345 20.0971ZM272.473 20.0834H272.5V20.1291L272.427 20.1383C272.427 20.1109 272.436 20.0926 272.473 20.0834ZM272.775 20.0514V20.0789C272.72 20.0789 272.647 20.0971 272.555 20.1246H272.528L272.551 20.0743L272.775 20.0514ZM270.553 20.3074L270.64 20.2983V20.248L270.548 20.2571V20.3074H270.553ZM271.165 20.2526H271.197L271.257 20.2709C271.257 20.3074 271.243 20.3257 271.207 20.3257L271.12 20.3349V20.3074C271.111 20.28 271.133 20.2663 271.165 20.2526ZM273.136 20.3669V20.3897L272.957 20.4034V20.3806L273.136 20.3669ZM272.628 20.44V20.4674L272.532 20.4766V20.4491L272.628 20.44ZM273.117 20.4811L273.469 20.4217L273.648 20.4309V20.4583C273.575 20.4629 273.501 20.4811 273.428 20.504C273.428 20.4857 273.392 20.4674 273.323 20.4629L273.044 20.536C272.989 20.504 272.962 20.4811 272.962 20.4674L273.113 20.4811H273.117ZM272.765 20.5543C272.802 20.5543 272.816 20.5634 272.82 20.6L272.669 20.6137V20.5634L272.765 20.5497V20.5543ZM272.459 20.5406V20.568L273.378 20.5269V20.4994L272.459 20.5406ZM272.514 20.6091V20.632L272.313 20.6503V20.6274L272.514 20.6091ZM271.202 21.6469V21.6743H271.266C271.266 21.6469 271.275 21.6194 271.284 21.592V21.5417C271.248 21.5417 271.22 21.5829 271.207 21.6514L271.202 21.6469ZM269.186 24.5771V24.6C269.195 24.6366 269.172 24.6549 269.136 24.6594V24.6366C269.127 24.6046 269.149 24.5909 269.186 24.5771ZM269.136 24.6869C269.136 24.7371 269.104 24.8651 269.035 25.0663L268.948 25.0754C268.948 25.0389 268.989 24.9154 269.081 24.696L269.136 24.6869ZM270.077 25.5051C270.077 25.5326 270.036 25.5646 269.945 25.5966L269.771 25.5874H269.716V25.5417L270.082 25.5097L270.077 25.5051ZM270.247 25.5189V25.5417L270.109 25.5509V25.528L270.247 25.5189Z" fill="white"/>
</g>
<path d="M287.8 31V16.7H292.1C292.993 16.7 293.78 16.8133 294.46 17.04C295.153 17.2667 295.7 17.6467 296.1 18.18C296.5 18.7133 296.7 19.4533 296.7 20.4V20.48C296.7 21.1333 296.547 21.7333 296.24 22.28C295.933 22.8133 295.367 23.22 294.54 23.5C295.58 23.7533 296.313 24.1533 296.74 24.7C297.18 25.2467 297.4 25.9867 297.4 26.92V27C297.4 28.3467 296.973 29.3533 296.12 30.02C295.267 30.6733 294.127 31 292.7 31H287.8ZM289.5 22.94H292.1C293.153 22.94 293.9 22.74 294.34 22.34C294.78 21.94 295 21.3 295 20.42V20.34C295 19.5267 294.76 18.9467 294.28 18.6C293.8 18.24 293.06 18.06 292.06 18.06H289.5V22.94ZM289.5 29.64H292.66C293.7 29.64 294.467 29.4133 294.96 28.96C295.453 28.5067 295.7 27.8467 295.7 26.98V26.9C295.7 26.02 295.44 25.3667 294.92 24.94C294.4 24.5133 293.567 24.3 292.42 24.3H289.5V29.64ZM302.741 31.18C302.101 31.18 301.515 31.0733 300.981 30.86C300.461 30.6467 300.041 30.3133 299.721 29.86C299.415 29.3933 299.261 28.8067 299.261 28.1C299.261 27.5 299.408 26.9933 299.701 26.58C299.995 26.1533 300.388 25.82 300.881 25.58C301.375 25.3267 301.935 25.1467 302.561 25.04C303.188 24.92 303.835 24.86 304.501 24.86H306.001V24.1C306.001 23.2733 305.828 22.6733 305.481 22.3C305.135 21.9267 304.561 21.74 303.761 21.74C302.321 21.74 301.521 22.3667 301.361 23.62H299.701C299.781 22.82 300.021 22.1867 300.421 21.72C300.821 21.24 301.321 20.8933 301.921 20.68C302.535 20.4667 303.175 20.36 303.841 20.36C304.508 20.36 305.128 20.4733 305.701 20.7C306.288 20.9133 306.761 21.2933 307.121 21.84C307.481 22.3733 307.661 23.1267 307.661 24.1V31H306.001V29.68C305.615 30.1733 305.168 30.5467 304.661 30.8C304.155 31.0533 303.515 31.18 302.741 31.18ZM302.901 29.86C303.781 29.86 304.515 29.6467 305.101 29.22C305.701 28.78 306.001 28.1533 306.001 27.34V26.04H304.561C303.868 26.04 303.241 26.1067 302.681 26.24C302.135 26.36 301.701 26.5733 301.381 26.88C301.075 27.1733 300.921 27.58 300.921 28.1C300.921 28.6333 301.068 29.06 301.361 29.38C301.655 29.7 302.168 29.86 302.901 29.86ZM316.122 31.18C315.269 31.18 314.542 30.9933 313.942 30.62C313.342 30.2467 312.889 29.8 312.582 29.28V31H310.922V15.54H312.582V22.3C312.782 21.9533 313.062 21.6333 313.422 21.34C313.782 21.0467 314.196 20.8133 314.662 20.64C315.129 20.4533 315.616 20.36 316.122 20.36C317.042 20.36 317.856 20.5733 318.562 21C319.282 21.4267 319.849 22.0333 320.262 22.82C320.676 23.5933 320.882 24.5267 320.882 25.62V25.78C320.882 26.8467 320.682 27.7867 320.282 28.6C319.896 29.4133 319.342 30.0467 318.622 30.5C317.916 30.9533 317.082 31.18 316.122 31.18ZM315.962 29.8C317.002 29.8 317.796 29.46 318.342 28.78C318.889 28.1 319.162 27.1267 319.162 25.86V25.7C319.162 24.82 319.016 24.0867 318.722 23.5C318.429 22.9133 318.036 22.4733 317.542 22.18C317.062 21.8867 316.529 21.74 315.942 21.74C314.969 21.74 314.156 22.0667 313.502 22.72C312.849 23.36 312.522 24.3533 312.522 25.7V25.86C312.522 27.1933 312.842 28.1867 313.482 28.84C314.122 29.48 314.949 29.8 315.962 29.8ZM327.741 31.18C326.755 31.18 325.881 30.9667 325.121 30.54C324.361 30.1 323.761 29.48 323.321 28.68C322.895 27.88 322.681 26.9467 322.681 25.88V25.72C322.681 24.6667 322.888 23.74 323.301 22.94C323.715 22.1267 324.288 21.4933 325.021 21.04C325.768 20.5867 326.621 20.36 327.581 20.36C328.395 20.36 329.155 20.5333 329.861 20.88C330.581 21.2267 331.161 21.78 331.601 22.54C332.055 23.3 332.281 24.3067 332.281 25.56V26.1H324.401C324.441 27.2867 324.741 28.2 325.301 28.84C325.875 29.48 326.695 29.8 327.761 29.8C329.401 29.8 330.328 29.1933 330.541 27.98H332.201C332.028 29.0333 331.535 29.8333 330.721 30.38C329.921 30.9133 328.928 31.18 327.741 31.18ZM324.461 24.76H330.581C330.501 23.68 330.195 22.9067 329.661 22.44C329.141 21.9733 328.448 21.74 327.581 21.74C326.728 21.74 326.028 22.0133 325.481 22.56C324.948 23.0933 324.608 23.8267 324.461 24.76ZM334.868 31V15.54H336.548V31H334.868Z" fill="white"/>
<rect x="367.5" y="0.5" width="147" height="47" rx="11.5" stroke="white" stroke-opacity="0.1"/>
<path fill-rule="evenodd" clip-rule="evenodd" d="M383.983 14.4785C382.611 14.4785 381.601 15.6762 381.647 16.9791C381.693 18.2271 381.633 19.8454 381.226 21.1619C380.819 22.4831 380.129 23.3242 379 23.4294V24.6454C380.129 24.7551 380.819 25.5917 381.226 26.9128C381.633 28.2339 381.688 29.8477 381.647 31.0957C381.601 32.3939 382.616 33.5962 383.983 33.5962H398.013C399.384 33.5962 400.394 32.3985 400.349 31.0957C400.303 29.8477 400.362 28.2294 400.769 26.9128C401.176 25.5917 401.866 24.7505 402.995 24.6454V23.4294C401.866 23.3197 401.181 22.4831 400.769 21.1619C400.362 19.8454 400.307 18.2271 400.349 16.9791C400.394 15.6808 399.379 14.4785 398.013 14.4785H383.983ZM395.27 26.2454C395.27 28.0374 393.935 29.1208 391.718 29.1208H387.946C387.722 29.1208 387.539 28.9379 387.539 28.7139V19.3562C387.539 19.1322 387.722 18.9494 387.946 18.9494H391.695C393.542 18.9494 394.753 19.9505 394.753 21.4865C394.753 22.5654 393.939 23.5299 392.897 23.6991V23.7539C394.31 23.9094 395.265 24.8877 395.265 26.2408L395.27 26.2454ZM391.311 20.2431H389.162V23.2785H390.973C392.371 23.2785 393.144 22.7162 393.144 21.7059C393.144 20.7597 392.481 20.2385 391.311 20.2385V20.2431ZM389.158 24.4854V27.8317H391.389C392.847 27.8317 393.619 27.2465 393.619 26.1494C393.619 25.0522 392.824 24.4854 391.297 24.4854H389.162H389.158Z" fill="#7952B3"/>
<path d="M412.8 31V16.7H417.1C417.993 16.7 418.78 16.8133 419.46 17.04C420.153 17.2667 420.7 17.6467 421.1 18.18C421.5 18.7133 421.7 19.4533 421.7 20.4V20.48C421.7 21.1333 421.547 21.7333 421.24 22.28C420.933 22.8133 420.367 23.22 419.54 23.5C420.58 23.7533 421.313 24.1533 421.74 24.7C422.18 25.2467 422.4 25.9867 422.4 26.92V27C422.4 28.3467 421.973 29.3533 421.12 30.02C420.267 30.6733 419.127 31 417.7 31H412.8ZM414.5 22.94H417.1C418.153 22.94 418.9 22.74 419.34 22.34C419.78 21.94 420 21.3 420 20.42V20.34C420 19.5267 419.76 18.9467 419.28 18.6C418.8 18.24 418.06 18.06 417.06 18.06H414.5V22.94ZM414.5 29.64H417.66C418.7 29.64 419.467 29.4133 419.96 28.96C420.453 28.5067 420.7 27.8467 420.7 26.98V26.9C420.7 26.02 420.44 25.3667 419.92 24.94C419.4 24.5133 418.567 24.3 417.42 24.3H414.5V29.64ZM429.461 31.18C428.475 31.18 427.595 30.9533 426.821 30.5C426.048 30.0333 425.441 29.4 425.001 28.6C424.561 27.7867 424.341 26.8733 424.341 25.86V25.7C424.341 24.6467 424.561 23.72 425.001 22.92C425.455 22.12 426.068 21.4933 426.841 21.04C427.615 20.5867 428.495 20.36 429.481 20.36C430.468 20.36 431.348 20.5867 432.121 21.04C432.895 21.4933 433.501 22.12 433.941 22.92C434.395 23.7067 434.621 24.6267 434.621 25.68V25.84C434.621 26.8933 434.395 27.82 433.941 28.62C433.501 29.42 432.895 30.0467 432.121 30.5C431.348 30.9533 430.461 31.18 429.461 31.18ZM429.481 29.8C430.535 29.8 431.368 29.44 431.981 28.72C432.595 27.9867 432.901 27.0333 432.901 25.86V25.72C432.901 24.5067 432.588 23.54 431.961 22.82C431.348 22.1 430.521 21.74 429.481 21.74C428.428 21.74 427.595 22.1 426.981 22.82C426.368 23.54 426.061 24.5 426.061 25.7V25.86C426.061 27.0467 426.368 28 426.981 28.72C427.595 29.44 428.428 29.8 429.481 29.8ZM441.532 31.18C440.545 31.18 439.665 30.9533 438.892 30.5C438.118 30.0333 437.512 29.4 437.072 28.6C436.632 27.7867 436.412 26.8733 436.412 25.86V25.7C436.412 24.6467 436.632 23.72 437.072 22.92C437.525 22.12 438.138 21.4933 438.912 21.04C439.685 20.5867 440.565 20.36 441.552 20.36C442.538 20.36 443.418 20.5867 444.192 21.04C444.965 21.4933 445.572 22.12 446.012 22.92C446.465 23.7067 446.692 24.6267 446.692 25.68V25.84C446.692 26.8933 446.465 27.82 446.012 28.62C445.572 29.42 444.965 30.0467 444.192 30.5C443.418 30.9533 442.532 31.18 441.532 31.18ZM441.552 29.8C442.605 29.8 443.438 29.44 444.052 28.72C444.665 27.9867 444.972 27.0333 444.972 25.86V25.72C444.972 24.5067 444.658 23.54 444.032 22.82C443.418 22.1 442.592 21.74 441.552 21.74C440.498 21.74 439.665 22.1 439.052 22.82C438.438 23.54 438.132 24.5 438.132 25.7V25.86C438.132 27.0467 438.438 28 439.052 28.72C439.665 29.44 440.498 29.8 441.552 29.8ZM452.442 31.14C451.495 31.14 450.789 30.8867 450.322 30.38C449.855 29.86 449.622 29.1933 449.622 28.38V21.94H448.122V20.54H449.622V18.16H451.282V20.54H453.722V21.94H451.282V28.22C451.282 29.2333 451.715 29.74 452.582 29.74C452.849 29.74 453.082 29.72 453.282 29.68C453.495 29.64 453.689 29.5867 453.862 29.52V30.92C453.689 30.9733 453.495 31.02 453.282 31.06C453.069 31.1133 452.789 31.14 452.442 31.14ZM459.611 31.18C458.358 31.18 457.371 30.88 456.651 30.28C455.945 29.68 455.565 28.8467 455.511 27.78H457.131C457.198 28.3933 457.411 28.8867 457.771 29.26C458.145 29.62 458.751 29.8 459.591 29.8C460.378 29.8 460.951 29.6667 461.311 29.4C461.685 29.12 461.871 28.7 461.871 28.14C461.871 27.5933 461.665 27.2 461.251 26.96C460.851 26.72 460.245 26.5267 459.431 26.38C458.525 26.2067 457.805 26 457.271 25.76C456.738 25.5067 456.358 25.1867 456.131 24.8C455.905 24.4 455.791 23.9 455.791 23.3C455.791 22.6467 455.971 22.1067 456.331 21.68C456.691 21.24 457.145 20.9133 457.691 20.7C458.238 20.4733 458.785 20.36 459.331 20.36C459.958 20.36 460.538 20.4533 461.071 20.64C461.618 20.8267 462.071 21.14 462.431 21.58C462.791 22.02 463.018 22.62 463.111 23.38H461.511C461.391 22.8067 461.158 22.3933 460.811 22.14C460.478 21.8733 459.978 21.74 459.311 21.74C458.711 21.74 458.231 21.88 457.871 22.16C457.511 22.4267 457.331 22.7867 457.331 23.24C457.331 23.7067 457.498 24.06 457.831 24.3C458.165 24.5267 458.811 24.7267 459.771 24.9C460.491 25.0333 461.125 25.2 461.671 25.4C462.231 25.6 462.665 25.9 462.971 26.3C463.291 26.6867 463.451 27.2533 463.451 28C463.451 28.9467 463.125 29.7133 462.471 30.3C461.831 30.8867 460.878 31.18 459.611 31.18ZM469.161 31.14C468.214 31.14 467.507 30.8867 467.041 30.38C466.574 29.86 466.341 29.1933 466.341 28.38V21.94H464.841V20.54H466.341V18.16H468.001V20.54H470.441V21.94H468.001V28.22C468.001 29.2333 468.434 29.74 469.301 29.74C469.567 29.74 469.801 29.72 470.001 29.68C470.214 29.64 470.407 29.5867 470.581 29.52V30.92C470.407 30.9733 470.214 31.02 470.001 31.06C469.787 31.1133 469.507 31.14 469.161 31.14ZM473.09 31V20.54H474.75V22.42C475.083 21.8333 475.503 21.3533 476.01 20.98C476.53 20.5933 477.257 20.3867 478.19 20.36V21.92C477.497 21.9467 476.89 22.06 476.37 22.26C475.85 22.46 475.45 22.7933 475.17 23.26C474.89 23.7267 474.75 24.3933 474.75 25.26V31H473.09ZM483.132 31.18C482.492 31.18 481.905 31.0733 481.372 30.86C480.852 30.6467 480.432 30.3133 480.112 29.86C479.805 29.3933 479.652 28.8067 479.652 28.1C479.652 27.5 479.799 26.9933 480.092 26.58C480.385 26.1533 480.779 25.82 481.272 25.58C481.765 25.3267 482.325 25.1467 482.952 25.04C483.579 24.92 484.225 24.86 484.892 24.86H486.392V24.1C486.392 23.2733 486.219 22.6733 485.872 22.3C485.525 21.9267 484.952 21.74 484.152 21.74C482.712 21.74 481.912 22.3667 481.752 23.62H480.092C480.172 22.82 480.412 22.1867 480.812 21.72C481.212 21.24 481.712 20.8933 482.312 20.68C482.925 20.4667 483.565 20.36 484.232 20.36C484.899 20.36 485.519 20.4733 486.092 20.7C486.679 20.9133 487.152 21.2933 487.512 21.84C487.872 22.3733 488.052 23.1267 488.052 24.1V31H486.392V29.68C486.005 30.1733 485.559 30.5467 485.052 30.8C484.545 31.0533 483.905 31.18 483.132 31.18ZM483.292 29.86C484.172 29.86 484.905 29.6467 485.492 29.22C486.092 28.78 486.392 28.1533 486.392 27.34V26.04H484.952C484.259 26.04 483.632 26.1067 483.072 26.24C482.525 26.36 482.092 26.5733 481.772 26.88C481.465 27.1733 481.312 27.58 481.312 28.1C481.312 28.6333 481.459 29.06 481.752 29.38C482.045 29.7 482.559 29.86 483.292 29.86ZM491.313 34.64V20.54H492.973V22.3C493.173 21.9533 493.453 21.6333 493.813 21.34C494.173 21.0467 494.586 20.8133 495.053 20.64C495.519 20.4533 496.006 20.36 496.513 20.36C497.433 20.36 498.246 20.5733 498.953 21C499.673 21.4267 500.239 22.0333 500.653 22.82C501.066 23.5933 501.273 24.5267 501.273 25.62V25.78C501.273 26.8467 501.073 27.7867 500.673 28.6C500.286 29.4133 499.733 30.0467 499.013 30.5C498.306 30.9533 497.473 31.18 496.513 31.18C495.659 31.18 494.933 30.9933 494.333 30.62C493.733 30.2467 493.279 29.8 492.973 29.28V34.64H491.313ZM496.353 29.8C497.393 29.8 498.186 29.46 498.733 28.78C499.279 28.1 499.553 27.1267 499.553 25.86V25.7C499.553 24.82 499.406 24.0867 499.113 23.5C498.819 22.9133 498.426 22.4733 497.933 22.18C497.453 21.8867 496.919 21.74 496.333 21.74C495.359 21.74 494.546 22.0667 493.893 22.72C493.239 23.36 492.913 24.3533 492.913 25.7V25.86C492.913 27.1933 493.233 28.1867 493.873 28.84C494.513 29.48 495.339 29.8 496.353 29.8Z" fill="white"/>
<rect x="531.5" y="0.5" width="96" height="47" rx="11.5" stroke="white" stroke-opacity="0.1"/>
<g clip-path="url(#clip3_3291_10445)">
<path fill-rule="evenodd" clip-rule="evenodd" d="M552.175 24.7315C552.175 24.7315 551.544 25.0972 552.623 25.2206C553.931 25.3715 554.594 25.3486 556.034 25.0744C556.034 25.0744 556.413 25.3121 556.939 25.5178C553.716 26.8984 549.643 25.4401 552.175 24.7315ZM551.782 22.9258C551.782 22.9258 551.078 23.4469 552.152 23.5612C553.547 23.7075 554.648 23.7166 556.555 23.3509C556.555 23.3509 556.82 23.6161 557.231 23.7624C553.332 24.9006 548.989 23.8538 551.782 22.9258Z" fill="#3174B9"/>
<path fill-rule="evenodd" clip-rule="evenodd" d="M555.101 19.8675C555.896 20.7818 554.89 21.6046 554.89 21.6046C554.89 21.6046 556.906 20.5623 555.983 19.2595C555.119 18.0435 554.456 17.44 558.045 15.3555C558.045 15.3555 552.404 16.7635 555.101 19.8675Z" fill="#CA3132"/>
<path fill-rule="evenodd" clip-rule="evenodd" d="M559.366 26.0657C559.366 26.0657 559.832 26.4497 558.854 26.7469C556.993 27.3092 551.105 27.4783 549.473 26.7697C548.888 26.5137 549.99 26.1572 550.333 26.084C550.694 26.0063 550.9 26.02 550.9 26.02C550.246 25.5583 546.676 26.9252 549.085 27.3137C555.659 28.3789 561.067 26.8337 559.361 26.0657H559.366ZM552.477 21.06C552.477 21.06 549.483 21.7732 551.416 22.0292C552.235 22.1389 553.862 22.1115 555.375 21.988C556.614 21.8829 557.857 21.6635 557.857 21.6635C557.857 21.6635 557.423 21.8509 557.103 22.0657C554.063 22.8657 548.189 22.4909 549.88 21.6772C551.311 20.9869 552.472 21.0646 552.472 21.0646L552.477 21.06ZM557.848 24.0589C560.939 22.4543 559.508 20.9092 558.511 21.1195C558.269 21.1697 558.159 21.2155 558.159 21.2155C558.159 21.2155 558.251 21.0737 558.424 21.0097C560.399 20.3149 561.917 23.0577 557.789 24.1412C557.789 24.1412 557.835 24.1 557.848 24.0589Z" fill="#3174B9"/>
<path fill-rule="evenodd" clip-rule="evenodd" d="M555.983 11.9941C555.983 11.9941 557.693 13.7084 554.36 16.337C551.686 18.449 553.752 19.6513 554.36 21.0273C552.797 19.6193 551.654 18.3804 552.422 17.2239C553.551 15.5324 556.673 14.7096 555.983 11.9941Z" fill="#CA3132"/>
<path fill-rule="evenodd" clip-rule="evenodd" d="M552.783 28.4129C555.75 28.6003 560.303 28.3077 560.413 26.9043C560.413 26.9043 560.207 27.4346 557.962 27.8597C555.43 28.3352 552.307 28.2803 550.456 27.974C550.456 27.974 550.835 28.2894 552.783 28.4129Z" fill="#3174B9"/>
<path fill-rule="evenodd" clip-rule="evenodd" d="M560.271 30.9301H560.18V30.8798H560.422V30.9301H560.331V31.1815H560.267V30.9301H560.271ZM560.76 30.9438L560.669 31.1815H560.628L560.541 30.9438V31.1815H560.482V30.8798H560.568L560.651 31.0947L560.733 30.8798H560.82V31.1815H560.76V30.9438ZM552.294 33.7735C552.015 34.0158 551.718 34.153 551.453 34.153C551.074 34.153 550.868 33.9244 550.868 33.5633C550.868 33.1701 551.087 32.8821 551.965 32.8821H552.29V33.7781L552.294 33.7735ZM553.067 34.6467V31.9495C553.067 31.2593 552.674 30.8067 551.727 30.8067C551.174 30.8067 550.69 30.9438 550.296 31.1175L550.411 31.593C550.722 31.4787 551.124 31.3735 551.517 31.3735C552.061 31.3735 552.299 31.593 552.299 32.0455V32.3884H552.024C550.699 32.3884 550.1 32.905 550.1 33.6775C550.1 34.345 550.493 34.7244 551.238 34.7244C551.714 34.7244 552.07 34.5278 552.404 34.2398L552.463 34.6467H553.071H553.067ZM555.645 34.6467H554.68L553.519 30.8753H554.36L555.078 33.193L555.238 33.8878C555.599 32.8821 555.86 31.8581 555.988 30.8753H556.806C556.587 32.1187 556.194 33.481 555.64 34.6467H555.645ZM559.339 33.7735C559.06 34.0158 558.763 34.153 558.498 34.153C558.118 34.153 557.912 33.9244 557.912 33.5633C557.912 33.1701 558.132 32.8821 559.01 32.8821H559.334V33.7781L559.339 33.7735ZM560.111 34.6467V31.9495C560.111 31.2593 559.718 30.8067 558.772 30.8067C558.219 30.8067 557.734 30.9438 557.341 31.1175L557.455 31.593C557.766 31.4787 558.168 31.3735 558.562 31.3735C559.106 31.3735 559.343 31.593 559.343 32.0455V32.3884H559.069C557.743 32.3884 557.144 32.905 557.144 33.6775C557.144 34.345 557.538 34.7244 558.278 34.7244C558.754 34.7244 559.11 34.5278 559.444 34.2398L559.503 34.6467H560.107H560.111ZM549.254 35.2867C549.035 35.6067 548.678 35.8627 548.29 36.0044L547.91 35.5564C548.207 35.4055 548.459 35.1587 548.578 34.9301C548.678 34.7244 548.724 34.4638 548.724 33.8375V29.5312H549.542V33.7781C549.542 34.6147 549.474 34.953 549.254 35.2867Z" fill="#CA3132"/>
</g>
<path d="M577.76 31.18C577.227 31.18 576.807 31.14 576.5 31.06C576.193 30.98 575.947 30.8933 575.76 30.8V29.36C576.027 29.4667 576.3 29.56 576.58 29.64C576.873 29.72 577.233 29.76 577.66 29.76C578.367 29.76 578.927 29.5467 579.34 29.12C579.767 28.6933 579.98 28 579.98 27.04V16.7H581.72V27.12C581.72 28.0667 581.54 28.84 581.18 29.44C580.82 30.04 580.34 30.48 579.74 30.76C579.153 31.04 578.493 31.18 577.76 31.18ZM587.698 31.18C587.058 31.18 586.472 31.0733 585.938 30.86C585.418 30.6467 584.998 30.3133 584.678 29.86C584.372 29.3933 584.218 28.8067 584.218 28.1C584.218 27.5 584.365 26.9933 584.658 26.58C584.952 26.1533 585.345 25.82 585.838 25.58C586.332 25.3267 586.892 25.1467 587.518 25.04C588.145 24.92 588.792 24.86 589.458 24.86H590.958V24.1C590.958 23.2733 590.785 22.6733 590.438 22.3C590.092 21.9267 589.518 21.74 588.718 21.74C587.278 21.74 586.478 22.3667 586.318 23.62H584.658C584.738 22.82 584.978 22.1867 585.378 21.72C585.778 21.24 586.278 20.8933 586.878 20.68C587.492 20.4667 588.132 20.36 588.798 20.36C589.465 20.36 590.085 20.4733 590.658 20.7C591.245 20.9133 591.718 21.2933 592.078 21.84C592.438 22.3733 592.618 23.1267 592.618 24.1V31H590.958V29.68C590.572 30.1733 590.125 30.5467 589.618 30.8C589.112 31.0533 588.472 31.18 587.698 31.18ZM587.858 29.86C588.738 29.86 589.472 29.6467 590.058 29.22C590.658 28.78 590.958 28.1533 590.958 27.34V26.04H589.518C588.825 26.04 588.198 26.1067 587.638 26.24C587.092 26.36 586.658 26.5733 586.338 26.88C586.032 27.1733 585.878 27.58 585.878 28.1C585.878 28.6333 586.025 29.06 586.318 29.38C586.612 29.7 587.125 29.86 587.858 29.86ZM598.206 31L594.406 20.54H596.206L599.306 29.32L602.366 20.54H604.086L600.326 31H598.206ZM608.792 31.18C608.152 31.18 607.566 31.0733 607.032 30.86C606.512 30.6467 606.092 30.3133 605.772 29.86C605.466 29.3933 605.312 28.8067 605.312 28.1C605.312 27.5 605.459 26.9933 605.752 26.58C606.046 26.1533 606.439 25.82 606.932 25.58C607.426 25.3267 607.986 25.1467 608.612 25.04C609.239 24.92 609.886 24.86 610.552 24.86H612.052V24.1C612.052 23.2733 611.879 22.6733 611.532 22.3C611.186 21.9267 610.612 21.74 609.812 21.74C608.372 21.74 607.572 22.3667 607.412 23.62H605.752C605.832 22.82 606.072 22.1867 606.472 21.72C606.872 21.24 607.372 20.8933 607.972 20.68C608.586 20.4667 609.226 20.36 609.892 20.36C610.559 20.36 611.179 20.4733 611.752 20.7C612.339 20.9133 612.812 21.2933 613.172 21.84C613.532 22.3733 613.712 23.1267 613.712 24.1V31H612.052V29.68C611.666 30.1733 611.219 30.5467 610.712 30.8C610.206 31.0533 609.566 31.18 608.792 31.18ZM608.952 29.86C609.832 29.86 610.566 29.6467 611.152 29.22C611.752 28.78 612.052 28.1533 612.052 27.34V26.04H610.612C609.919 26.04 609.292 26.1067 608.732 26.24C608.186 26.36 607.752 26.5733 607.432 26.88C607.126 27.1733 606.972 27.58 606.972 28.1C606.972 28.6333 607.119 29.06 607.412 29.38C607.706 29.7 608.219 29.86 608.952 29.86Z" fill="white"/>
<rect x="644.5" y="0.5" width="132" height="47" rx="11.5" stroke="white" stroke-opacity="0.1"/>
<g clip-path="url(#clip4_3291_10445)">
<path d="M678.066 21.6562C678.007 21.6562 677.952 21.67 677.901 21.6974L676.311 22.6162C676.205 22.6757 676.146 22.7854 676.146 22.9088V24.742C676.146 24.8608 676.21 24.9751 676.311 25.0345L676.727 25.2722C676.928 25.3728 677.001 25.3682 677.097 25.3682C677.394 25.3682 677.568 25.1854 677.568 24.87V23.0597C677.568 23.0322 677.545 23.014 677.522 23.014H677.321C677.293 23.014 677.275 23.0322 677.275 23.0597V24.87C677.275 25.0117 677.129 25.1488 676.891 25.03L676.457 24.7785C676.457 24.7785 676.429 24.7557 676.429 24.7374V22.9042C676.429 22.9042 676.443 22.8677 676.457 22.8585L678.043 21.9442C678.043 21.9442 678.075 21.9351 678.089 21.9442L679.675 22.8585C679.675 22.8585 679.703 22.886 679.703 22.9042V24.7374C679.703 24.7374 679.693 24.774 679.68 24.7831L678.089 25.6974C678.089 25.6974 678.057 25.7065 678.043 25.6974L677.636 25.4551C677.636 25.4551 677.609 25.4505 677.595 25.4551C677.481 25.5191 677.463 25.5282 677.357 25.5648C677.33 25.574 677.293 25.5877 677.371 25.6334L677.906 25.9488C677.956 25.9762 678.016 25.9945 678.071 25.9945C678.13 25.9945 678.185 25.9808 678.235 25.9488L679.826 25.0345C679.931 24.9751 679.991 24.8654 679.991 24.742V22.9088C679.991 22.79 679.927 22.6757 679.826 22.6162L678.235 21.6974C678.185 21.67 678.13 21.6562 678.071 21.6562H678.066Z" fill="#83CD29"/>
<path d="M678.491 22.9681C678.039 22.9681 677.769 23.1601 677.769 23.4801C677.769 23.8276 678.039 23.9236 678.473 23.9647C678.994 24.015 679.035 24.0927 679.035 24.1933C679.035 24.3716 678.894 24.4447 678.56 24.4447C678.139 24.4447 678.048 24.3396 678.016 24.1293C678.016 24.1064 677.993 24.0881 677.97 24.0881H677.764C677.737 24.0881 677.719 24.111 677.719 24.1338C677.719 24.4036 677.865 24.719 678.56 24.719C679.063 24.719 679.355 24.5224 679.355 24.175C679.355 23.8276 679.122 23.7407 678.633 23.6767C678.139 23.6127 678.094 23.5807 678.094 23.4618C678.094 23.3658 678.135 23.2378 678.5 23.2378C678.825 23.2378 678.948 23.3064 678.999 23.5304C678.999 23.5533 679.022 23.567 679.044 23.567H679.25C679.25 23.567 679.273 23.5578 679.282 23.5487C679.291 23.5396 679.296 23.5258 679.296 23.5167C679.264 23.1373 679.012 22.959 678.5 22.959L678.491 22.9681Z" fill="#83CD29"/>
<path d="M668.708 19.2461C668.708 19.2461 668.672 19.2507 668.658 19.2598C668.626 19.2781 668.608 19.3101 668.608 19.3467V21.9295C668.608 21.957 668.594 21.9798 668.576 21.989C668.553 22.0027 668.525 22.0027 668.502 21.989L668.082 21.7467C668.018 21.7101 667.94 21.7101 667.881 21.7467L666.194 22.7204C666.13 22.757 666.093 22.8255 666.093 22.8987V24.8461C666.093 24.9192 666.13 24.9832 666.194 25.0198L667.881 25.9935C667.945 26.0301 668.022 26.0301 668.082 25.9935L669.769 25.0198C669.833 24.9832 669.869 24.9147 669.869 24.8461V19.9958C669.869 19.9227 669.828 19.8541 669.764 19.8175L668.758 19.2552C668.758 19.2552 668.726 19.2461 668.708 19.2461ZM657.86 21.6781C657.828 21.6781 657.796 21.6872 657.769 21.701L656.086 22.6747C656.022 22.7112 655.986 22.7798 655.986 22.8484V25.4587C655.986 25.4952 656.009 25.5272 656.041 25.5455C656.073 25.5638 656.109 25.5638 656.141 25.5455L657.142 24.9695C657.206 24.933 657.248 24.8644 657.248 24.7958V23.5752C657.248 23.5021 657.284 23.4335 657.348 23.4015L657.773 23.1547C657.805 23.1364 657.837 23.1272 657.874 23.1272C657.91 23.1272 657.942 23.1364 657.974 23.1547L658.4 23.4015C658.464 23.4381 658.5 23.5067 658.5 23.5752V24.7958C658.5 24.869 658.541 24.933 658.605 24.9695L659.606 25.5455C659.638 25.5638 659.675 25.5638 659.707 25.5455C659.739 25.5272 659.757 25.4952 659.757 25.4587V22.8484C659.757 22.7752 659.721 22.7067 659.661 22.6747L657.974 21.701C657.947 21.6827 657.915 21.6781 657.883 21.6781H657.865H657.86ZM673.014 21.701C672.978 21.701 672.946 21.7101 672.914 21.7284L671.227 22.7021C671.163 22.7387 671.126 22.8072 671.126 22.8758V24.8232C671.126 24.8964 671.168 24.965 671.232 24.997L672.905 25.9478C672.969 25.9844 673.042 25.9844 673.106 25.9478L674.121 25.3855C674.153 25.3672 674.176 25.3352 674.176 25.2987C674.176 25.2621 674.157 25.2301 674.125 25.2118L672.429 24.2381C672.397 24.2198 672.374 24.1832 672.374 24.1467V23.5387C672.374 23.5021 672.397 23.4701 672.429 23.4518L672.955 23.1455C672.987 23.1272 673.024 23.1272 673.056 23.1455L673.581 23.4518C673.613 23.4701 673.632 23.5021 673.632 23.5387V24.0187C673.632 24.0552 673.65 24.0872 673.682 24.1055C673.714 24.1238 673.75 24.1238 673.782 24.1055L674.793 23.5158C674.857 23.4792 674.893 23.4107 674.893 23.3421V22.8712C674.893 22.7981 674.857 22.7341 674.793 22.6975L673.115 21.7238C673.083 21.7055 673.051 21.6964 673.014 21.6964V21.701ZM667.972 23.1547C667.972 23.1547 667.99 23.1547 668 23.1592L668.576 23.493C668.576 23.493 668.603 23.5204 668.603 23.5387V24.2061C668.603 24.2061 668.594 24.2427 668.576 24.2518L668 24.5855C668 24.5855 667.963 24.5947 667.949 24.5855L667.373 24.2518C667.373 24.2518 667.346 24.2244 667.346 24.2061V23.5387C667.346 23.5387 667.355 23.5021 667.373 23.493L667.949 23.1592C667.949 23.1592 667.963 23.1547 667.972 23.1547Z" fill="#404137"/>
<path d="M662.925 21.6914C662.889 21.6914 662.857 21.7005 662.825 21.7188L661.138 22.688C661.074 22.7245 661.037 22.7931 661.037 22.8663V24.8137C661.037 24.8868 661.074 24.9508 661.138 24.9874L662.825 25.9611C662.889 25.9977 662.966 25.9977 663.026 25.9611L664.713 24.9874C664.777 24.9508 664.813 24.8823 664.813 24.8137V22.8663C664.813 22.7931 664.777 22.7245 664.713 22.688L663.026 21.7188C662.994 21.7005 662.962 21.6914 662.925 21.6914ZM673.01 23.4285C673.01 23.4285 672.996 23.4285 672.992 23.4285L672.667 23.616C672.667 23.616 672.649 23.6343 672.649 23.648V24.0183C672.649 24.0183 672.658 24.0457 672.667 24.0503L672.992 24.2377C672.992 24.2377 673.014 24.2468 673.028 24.2377L673.353 24.0503C673.353 24.0503 673.371 24.032 673.371 24.0183V23.648C673.371 23.648 673.362 23.6205 673.353 23.616L673.028 23.4285C673.028 23.4285 673.019 23.4285 673.01 23.4285Z" fill="#83CD29"/>
</g>
<path d="M689.8 31V16.7H692.06L699.02 28.52V16.7H700.68V31H698.68L691.46 18.74V31H689.8ZM708.493 31.18C707.506 31.18 706.626 30.9533 705.853 30.5C705.079 30.0333 704.473 29.4 704.033 28.6C703.593 27.7867 703.373 26.8733 703.373 25.86V25.7C703.373 24.6467 703.593 23.72 704.033 22.92C704.486 22.12 705.099 21.4933 705.873 21.04C706.646 20.5867 707.526 20.36 708.513 20.36C709.499 20.36 710.379 20.5867 711.153 21.04C711.926 21.4933 712.533 22.12 712.973 22.92C713.426 23.7067 713.653 24.6267 713.653 25.68V25.84C713.653 26.8933 713.426 27.82 712.973 28.62C712.533 29.42 711.926 30.0467 711.153 30.5C710.379 30.9533 709.493 31.18 708.493 31.18ZM708.513 29.8C709.566 29.8 710.399 29.44 711.013 28.72C711.626 27.9867 711.933 27.0333 711.933 25.86V25.72C711.933 24.5067 711.619 23.54 710.993 22.82C710.379 22.1 709.553 21.74 708.513 21.74C707.459 21.74 706.626 22.1 706.013 22.82C705.399 23.54 705.093 24.5 705.093 25.7V25.86C705.093 27.0467 705.399 28 706.013 28.72C706.626 29.44 707.459 29.8 708.513 29.8ZM720.163 31.18C719.256 31.18 718.443 30.9733 717.723 30.56C717.016 30.1467 716.456 29.5533 716.043 28.78C715.643 27.9933 715.443 27.06 715.443 25.98V25.82C715.443 24.7533 715.65 23.8133 716.063 23C716.476 22.1733 717.05 21.5267 717.783 21.06C718.516 20.5933 719.363 20.36 720.323 20.36C721.19 20.36 721.903 20.5467 722.463 20.92C723.023 21.28 723.45 21.7133 723.743 22.22V15.54H725.403V31H723.743V29.2C723.543 29.5333 723.256 29.8533 722.883 30.16C722.523 30.4667 722.103 30.7133 721.623 30.9C721.156 31.0867 720.67 31.18 720.163 31.18ZM720.343 29.8C720.996 29.8 721.583 29.66 722.103 29.38C722.623 29.0867 723.036 28.6467 723.343 28.06C723.65 27.4733 723.803 26.7333 723.803 25.84V25.68C723.803 24.3333 723.503 23.34 722.903 22.7C722.316 22.06 721.51 21.74 720.483 21.74C719.443 21.74 718.63 22.0933 718.043 22.8C717.456 23.4933 717.163 24.4733 717.163 25.74V25.9C717.163 26.78 717.303 27.5067 717.583 28.08C717.876 28.6533 718.263 29.0867 718.743 29.38C719.223 29.66 719.756 29.8 720.343 29.8ZM733.042 31.18C732.055 31.18 731.182 30.9667 730.422 30.54C729.662 30.1 729.062 29.48 728.622 28.68C728.195 27.88 727.982 26.9467 727.982 25.88V25.72C727.982 24.6667 728.189 23.74 728.602 22.94C729.015 22.1267 729.589 21.4933 730.322 21.04C731.069 20.5867 731.922 20.36 732.882 20.36C733.695 20.36 734.455 20.5333 735.162 20.88C735.882 21.2267 736.462 21.78 736.902 22.54C737.355 23.3 737.582 24.3067 737.582 25.56V26.1H729.702C729.742 27.2867 730.042 28.2 730.602 28.84C731.175 29.48 731.995 29.8 733.062 29.8C734.702 29.8 735.629 29.1933 735.842 27.98H737.502C737.329 29.0333 736.835 29.8333 736.022 30.38C735.222 30.9133 734.229 31.18 733.042 31.18ZM729.762 24.76H735.882C735.802 23.68 735.495 22.9067 734.962 22.44C734.442 21.9733 733.749 21.74 732.882 21.74C732.029 21.74 731.329 22.0133 730.782 22.56C730.249 23.0933 729.909 23.8267 729.762 24.76ZM746.502 31.18C745.969 31.18 745.549 31.14 745.242 31.06C744.936 30.98 744.689 30.8933 744.502 30.8V29.36C744.769 29.4667 745.042 29.56 745.322 29.64C745.616 29.72 745.976 29.76 746.402 29.76C747.109 29.76 747.669 29.5467 748.082 29.12C748.509 28.6933 748.722 28 748.722 27.04V16.7H750.462V27.12C750.462 28.0667 750.282 28.84 749.922 29.44C749.562 30.04 749.082 30.48 748.482 30.76C747.896 31.04 747.236 31.18 746.502 31.18ZM758.561 31.18C757.281 31.18 756.254 30.9733 755.481 30.56C754.721 30.1333 754.154 29.58 753.781 28.9C753.421 28.2067 753.194 27.4533 753.101 26.64H754.781C754.861 27.2 755.007 27.72 755.221 28.2C755.447 28.68 755.821 29.0667 756.341 29.36C756.861 29.64 757.601 29.78 758.561 29.78C759.174 29.78 759.727 29.6667 760.221 29.44C760.714 29.2133 761.101 28.9 761.381 28.5C761.674 28.0867 761.821 27.6133 761.821 27.08C761.821 26.5333 761.721 26.0867 761.521 25.74C761.321 25.3933 760.967 25.1133 760.461 24.9C759.967 24.6733 759.267 24.4867 758.361 24.34C757.361 24.18 756.501 23.96 755.781 23.68C755.074 23.3867 754.527 22.98 754.141 22.46C753.767 21.9267 753.581 21.24 753.581 20.4C753.581 19.6667 753.774 19.0067 754.161 18.42C754.561 17.8333 755.107 17.3733 755.801 17.04C756.494 16.6933 757.287 16.52 758.181 16.52C759.607 16.52 760.747 16.86 761.601 17.54C762.467 18.22 762.967 19.1933 763.101 20.46H761.541C761.367 19.5533 761.007 18.9067 760.461 18.52C759.927 18.12 759.167 17.92 758.181 17.92C757.207 17.92 756.467 18.14 755.961 18.58C755.454 19.02 755.201 19.5733 755.201 20.24C755.201 20.7067 755.281 21.1067 755.441 21.44C755.614 21.76 755.947 22.0333 756.441 22.26C756.934 22.4733 757.667 22.6533 758.641 22.8C759.707 22.96 760.601 23.1933 761.321 23.5C762.041 23.8067 762.581 24.2333 762.941 24.78C763.314 25.3267 763.501 26.0533 763.501 26.96C763.501 27.76 763.287 28.48 762.861 29.12C762.434 29.7467 761.847 30.2467 761.101 30.62C760.354 30.9933 759.507 31.18 758.561 31.18Z" fill="white"/>
<rect x="793.5" y="0.5" width="135" height="47" rx="11.5" stroke="white" stroke-opacity="0.1"/>
<path d="M829 23.9693C829 22.3784 827.007 20.8744 823.958 19.9373C824.662 16.8241 824.351 14.351 822.97 13.5601C822.65 13.3727 822.28 13.2858 821.873 13.2858V14.3784C822.097 14.3784 822.28 14.4241 822.431 14.5064C823.098 14.8858 823.386 16.3395 823.158 18.2093C823.103 18.671 823.016 19.1555 822.906 19.6493C821.946 19.4161 820.899 19.2333 819.798 19.1144C819.139 18.2093 818.454 17.3864 817.763 16.6687C819.359 15.1875 820.854 14.3738 821.873 14.3738V13.2812C820.529 13.2812 818.765 14.2412 816.986 15.9053C815.203 14.2504 813.443 13.3041 812.099 13.3041V14.3967C813.114 14.3967 814.614 15.2058 816.209 16.6778C815.523 17.3955 814.838 18.2138 814.189 19.119C813.082 19.2378 812.035 19.4161 811.075 19.6584C810.961 19.1693 810.879 18.6938 810.819 18.2413C810.591 16.3715 810.874 14.9178 811.533 14.5338C811.679 14.447 811.871 14.4058 812.095 14.4058V13.3132C811.683 13.3132 811.313 13.4001 810.989 13.5875C809.613 14.3784 809.306 16.8515 810.015 19.951C806.979 20.8835 805 22.383 805 23.9693C805 25.5555 806.993 27.0641 810.042 28.0013C809.338 31.1144 809.649 33.5875 811.03 34.3784C811.35 34.5658 811.72 34.6527 812.131 34.6527C813.475 34.6527 815.24 33.6927 817.018 32.0287C818.801 33.6835 820.561 34.6298 821.905 34.6298C822.317 34.6298 822.687 34.543 823.011 34.3555C824.387 33.5647 824.694 31.0915 823.985 27.9921C827.016 27.0595 829 25.551 829 23.9647V23.9693ZM822.632 20.7053C822.449 21.3361 822.225 21.9853 821.974 22.639C821.773 22.2458 821.562 21.8573 821.334 21.4641C821.11 21.071 820.867 20.6915 820.63 20.3213C821.325 20.4218 821.997 20.5498 822.637 20.7098L822.632 20.7053ZM820.392 25.9167C820.013 26.575 819.619 27.2013 819.213 27.7864C818.486 27.8504 817.745 27.8824 817 27.8824C816.255 27.8824 815.523 27.8504 814.797 27.791C814.39 27.2104 813.997 26.5887 813.613 25.9304C813.242 25.2904 812.904 24.6367 812.593 23.983C812.895 23.3293 813.238 22.671 813.608 22.031C813.987 21.3727 814.381 20.7464 814.787 20.1613C815.514 20.0973 816.255 20.0652 817 20.0652C817.745 20.0652 818.477 20.0973 819.203 20.1567C819.61 20.7373 820.003 21.359 820.387 22.0173C820.758 22.6573 821.096 23.311 821.407 23.9647C821.101 24.6184 820.762 25.2767 820.392 25.9167ZM821.969 25.2813C822.234 25.935 822.458 26.5933 822.646 27.2287C822.006 27.3841 821.329 27.5167 820.63 27.6218C820.867 27.247 821.11 26.8584 821.334 26.4607C821.558 26.0675 821.768 25.6744 821.969 25.2813ZM817.009 30.5018C816.552 30.031 816.099 29.5098 815.651 28.9384C816.09 28.9567 816.543 28.9704 816.995 28.9704C817.448 28.9704 817.91 28.9613 818.353 28.9384C817.914 29.5098 817.457 30.0355 817.009 30.5018ZM813.37 27.6173C812.675 27.5167 812.003 27.3887 811.363 27.2287C811.546 26.5978 811.77 25.9487 812.022 25.295C812.223 25.6881 812.433 26.0767 812.662 26.4698C812.89 26.863 813.128 27.2424 813.366 27.6127L813.37 27.6173ZM816.986 17.4367C817.443 17.9075 817.896 18.4287 818.344 19.0001C817.905 18.9818 817.453 18.9681 817 18.9681C816.547 18.9681 816.086 18.9773 815.642 19.0001C816.081 18.4287 816.538 17.903 816.986 17.4367ZM813.366 20.3213C813.128 20.6961 812.886 21.0847 812.662 21.4824C812.438 21.8755 812.227 22.2641 812.026 22.6573C811.761 22.0035 811.537 21.3453 811.35 20.7098C811.99 20.559 812.666 20.4264 813.366 20.3213ZM808.936 26.4424C807.203 25.7018 806.083 24.7373 806.083 23.9693C806.083 23.2013 807.203 22.2275 808.936 21.4961C809.357 21.3133 809.818 21.1533 810.289 21.0024C810.568 21.9624 810.934 22.959 811.391 23.983C810.943 25.0024 810.577 25.9944 810.303 26.9453C809.818 26.7944 809.357 26.6253 808.931 26.447L808.936 26.4424ZM811.569 33.4367C810.902 33.0573 810.614 31.6035 810.842 29.7338C810.897 29.2721 810.984 28.7875 811.094 28.2938C812.054 28.527 813.101 28.7098 814.202 28.8287C814.861 29.7338 815.546 30.5567 816.237 31.2744C814.641 32.7555 813.146 33.5693 812.127 33.5693C811.907 33.5647 811.72 33.519 811.574 33.4367H811.569ZM823.171 29.7064C823.4 31.5761 823.117 33.0298 822.458 33.4138C822.312 33.5007 822.12 33.5418 821.896 33.5418C820.881 33.5418 819.382 32.7327 817.786 31.2607C818.472 30.543 819.158 29.7247 819.807 28.8195C820.913 28.7007 821.96 28.5224 822.92 28.2801C823.034 28.7738 823.121 29.2493 823.176 29.7018L823.171 29.7064ZM825.055 26.4424C824.634 26.6253 824.173 26.7853 823.702 26.9361C823.423 25.9761 823.057 24.9795 822.6 23.9555C823.048 22.9361 823.414 21.9441 823.688 20.9933C824.173 21.1441 824.634 21.3133 825.064 21.4915C826.797 22.2321 827.917 23.1967 827.917 23.9647C827.912 24.7327 826.792 25.7064 825.059 26.4378L825.055 26.4424Z" fill="#61DAFB"/>
<path d="M816.995 26.2033C818.23 26.2033 819.231 25.2024 819.231 23.9679C819.231 22.7333 818.23 21.7324 816.995 21.7324C815.761 21.7324 814.76 22.7333 814.76 23.9679C814.76 25.2024 815.761 26.2033 816.995 26.2033Z" fill="#61DAFB"/>
<path d="M838.8 31V16.7H843.1C844.02 16.7 844.853 16.8333 845.6 17.1C846.36 17.3667 846.967 17.7933 847.42 18.38C847.873 18.9533 848.1 19.72 848.1 20.68V20.76C848.1 21.5467 847.94 22.2067 847.62 22.74C847.3 23.2733 846.873 23.6933 846.34 24C845.807 24.3067 845.213 24.5267 844.56 24.66L848.94 31H847L842.74 24.78H840.54V31H838.8ZM840.54 23.4H843.22C844.247 23.4 845.027 23.18 845.56 22.74C846.093 22.3 846.36 21.64 846.36 20.76V20.68C846.36 19.7067 846.08 19.0333 845.52 18.66C844.96 18.2867 844.193 18.1 843.22 18.1H840.54V23.4ZM855.226 31.18C854.239 31.18 853.366 30.9667 852.606 30.54C851.846 30.1 851.246 29.48 850.806 28.68C850.379 27.88 850.166 26.9467 850.166 25.88V25.72C850.166 24.6667 850.372 23.74 850.786 22.94C851.199 22.1267 851.772 21.4933 852.506 21.04C853.252 20.5867 854.106 20.36 855.066 20.36C855.879 20.36 856.639 20.5333 857.346 20.88C858.066 21.2267 858.646 21.78 859.086 22.54C859.539 23.3 859.766 24.3067 859.766 25.56V26.1H851.886C851.926 27.2867 852.226 28.2 852.786 28.84C853.359 29.48 854.179 29.8 855.246 29.8C856.886 29.8 857.812 29.1933 858.026 27.98H859.686C859.512 29.0333 859.019 29.8333 858.206 30.38C857.406 30.9133 856.412 31.18 855.226 31.18ZM851.946 24.76H858.066C857.986 23.68 857.679 22.9067 857.146 22.44C856.626 21.9733 855.932 21.74 855.066 21.74C854.212 21.74 853.512 22.0133 852.966 22.56C852.432 23.0933 852.092 23.8267 851.946 24.76ZM865.03 31.18C864.39 31.18 863.804 31.0733 863.27 30.86C862.75 30.6467 862.33 30.3133 862.01 29.86C861.704 29.3933 861.55 28.8067 861.55 28.1C861.55 27.5 861.697 26.9933 861.99 26.58C862.284 26.1533 862.677 25.82 863.17 25.58C863.664 25.3267 864.224 25.1467 864.85 25.04C865.477 24.92 866.124 24.86 866.79 24.86H868.29V24.1C868.29 23.2733 868.117 22.6733 867.77 22.3C867.424 21.9267 866.85 21.74 866.05 21.74C864.61 21.74 863.81 22.3667 863.65 23.62H861.99C862.07 22.82 862.31 22.1867 862.71 21.72C863.11 21.24 863.61 20.8933 864.21 20.68C864.824 20.4667 865.464 20.36 866.13 20.36C866.797 20.36 867.417 20.4733 867.99 20.7C868.577 20.9133 869.05 21.2933 869.41 21.84C869.77 22.3733 869.95 23.1267 869.95 24.1V31H868.29V29.68C867.904 30.1733 867.457 30.5467 866.95 30.8C866.444 31.0533 865.804 31.18 865.03 31.18ZM865.19 29.86C866.07 29.86 866.804 29.6467 867.39 29.22C867.99 28.78 868.29 28.1533 868.29 27.34V26.04H866.85C866.157 26.04 865.53 26.1067 864.97 26.24C864.424 26.36 863.99 26.5733 863.67 26.88C863.364 27.1733 863.21 27.58 863.21 28.1C863.21 28.6333 863.357 29.06 863.65 29.38C863.944 29.7 864.457 29.86 865.19 29.86ZM877.551 31.18C876.578 31.18 875.705 30.9667 874.931 30.54C874.158 30.1 873.545 29.4867 873.091 28.7C872.651 27.9 872.431 26.96 872.431 25.88V25.72C872.431 24.6533 872.658 23.72 873.111 22.92C873.578 22.1067 874.191 21.48 874.951 21.04C875.725 20.5867 876.578 20.36 877.511 20.36C878.245 20.36 878.931 20.48 879.571 20.72C880.225 20.96 880.771 21.3467 881.211 21.88C881.665 22.4133 881.945 23.1267 882.051 24.02H880.411C880.278 23.1933 879.938 22.6067 879.391 22.26C878.858 21.9133 878.231 21.74 877.511 21.74C876.871 21.74 876.298 21.9 875.791 22.22C875.285 22.54 874.885 23 874.591 23.6C874.298 24.1867 874.151 24.8933 874.151 25.72V25.88C874.151 27.16 874.465 28.1333 875.091 28.8C875.731 29.4667 876.558 29.8 877.571 29.8C878.318 29.8 878.978 29.5867 879.551 29.16C880.138 28.7333 880.478 28.0933 880.571 27.24H882.111C882.045 27.9867 881.805 28.66 881.391 29.26C880.991 29.86 880.458 30.3333 879.791 30.68C879.138 31.0133 878.391 31.18 877.551 31.18ZM887.798 31.14C886.851 31.14 886.144 30.8867 885.678 30.38C885.211 29.86 884.978 29.1933 884.978 28.38V21.94H883.478V20.54H884.978V18.16H886.638V20.54H889.078V21.94H886.638V28.22C886.638 29.2333 887.071 29.74 887.938 29.74C888.204 29.74 888.438 29.72 888.638 29.68C888.851 29.64 889.044 29.5867 889.218 29.52V30.92C889.044 30.9733 888.851 31.02 888.638 31.06C888.424 31.1133 888.144 31.14 887.798 31.14ZM898.1 31.18C897.567 31.18 897.147 31.14 896.84 31.06C896.533 30.98 896.287 30.8933 896.1 30.8V29.36C896.367 29.4667 896.64 29.56 896.92 29.64C897.213 29.72 897.573 29.76 898 29.76C898.707 29.76 899.267 29.5467 899.68 29.12C900.107 28.6933 900.32 28 900.32 27.04V16.7H902.06V27.12C902.06 28.0667 901.88 28.84 901.52 29.44C901.16 30.04 900.68 30.48 900.08 30.76C899.493 31.04 898.833 31.18 898.1 31.18ZM910.158 31.18C908.878 31.18 907.852 30.9733 907.078 30.56C906.318 30.1333 905.752 29.58 905.378 28.9C905.018 28.2067 904.792 27.4533 904.698 26.64H906.378C906.458 27.2 906.605 27.72 906.818 28.2C907.045 28.68 907.418 29.0667 907.938 29.36C908.458 29.64 909.198 29.78 910.158 29.78C910.772 29.78 911.325 29.6667 911.818 29.44C912.312 29.2133 912.698 28.9 912.978 28.5C913.272 28.0867 913.418 27.6133 913.418 27.08C913.418 26.5333 913.318 26.0867 913.118 25.74C912.918 25.3933 912.565 25.1133 912.058 24.9C911.565 24.6733 910.865 24.4867 909.958 24.34C908.958 24.18 908.098 23.96 907.378 23.68C906.672 23.3867 906.125 22.98 905.738 22.46C905.365 21.9267 905.178 21.24 905.178 20.4C905.178 19.6667 905.372 19.0067 905.758 18.42C906.158 17.8333 906.705 17.3733 907.398 17.04C908.092 16.6933 908.885 16.52 909.778 16.52C911.205 16.52 912.345 16.86 913.198 17.54C914.065 18.22 914.565 19.1933 914.698 20.46H913.138C912.965 19.5533 912.605 18.9067 912.058 18.52C911.525 18.12 910.765 17.92 909.778 17.92C908.805 17.92 908.065 18.14 907.558 18.58C907.052 19.02 906.798 19.5733 906.798 20.24C906.798 20.7067 906.878 21.1067 907.038 21.44C907.212 21.76 907.545 22.0333 908.038 22.26C908.532 22.4733 909.265 22.6533 910.238 22.8C911.305 22.96 912.198 23.1933 912.918 23.5C913.638 23.8067 914.178 24.2333 914.538 24.78C914.912 25.3267 915.098 26.0533 915.098 26.96C915.098 27.76 914.885 28.48 914.458 29.12C914.032 29.7467 913.445 30.2467 912.698 30.62C911.952 30.9933 911.105 31.18 910.158 31.18Z" fill="white"/>
<rect x="945.5" y="0.5" width="142" height="47" rx="11.5" stroke="white" stroke-opacity="0.1"/>
<path d="M969 12L979.606 17.9977V29.9977L969 35.9954L958.394 30.0023V17.9977L969 12Z" fill="white"/>
<path d="M977.713 29.5869L969.352 34.3184V30.6338L974.564 27.7675L977.713 29.5869ZM978.285 29.0704V19.1778L975.226 20.9469V27.3058L978.285 29.0704ZM960.255 29.5869L968.616 34.3184V30.6338L963.405 27.7675L960.255 29.5869ZM959.684 29.0704V19.1778L962.742 20.9469V27.3058L959.684 29.0704ZM960.04 18.5378L968.616 13.6875V17.2486L963.121 20.2704L963.076 20.2932L960.04 18.5378ZM977.928 18.5378L969.352 13.6875V17.2486L974.847 20.2704L974.893 20.2932L977.928 18.5378Z" fill="#8ED6FB"/>
<path d="M968.616 29.7979L963.473 26.9682V21.3682L968.616 24.3351V29.7933V29.7979ZM969.352 29.7979L974.495 26.9728V21.3728L969.352 24.3396V29.7979ZM963.825 20.7236L968.986 17.8848L974.147 20.7236L968.986 23.7042L963.825 20.7236Z" fill="#1C78C0"/>
<path d="M993.4 31L989.68 16.7H991.46L994.36 28.24L997.72 16.7H998.96L1002.32 28.28L1005.26 16.7H1006.88L1003.16 31H1001.56L998.32 19.7L994.98 31H993.4ZM1012.71 31.18C1011.73 31.18 1010.85 30.9667 1010.09 30.54C1009.33 30.1 1008.73 29.48 1008.29 28.68C1007.87 27.88 1007.65 26.9467 1007.65 25.88V25.72C1007.65 24.6667 1007.86 23.74 1008.27 22.94C1008.69 22.1267 1009.26 21.4933 1009.99 21.04C1010.74 20.5867 1011.59 20.36 1012.55 20.36C1013.37 20.36 1014.13 20.5333 1014.83 20.88C1015.55 21.2267 1016.13 21.78 1016.57 22.54C1017.03 23.3 1017.25 24.3067 1017.25 25.56V26.1H1009.37C1009.41 27.2867 1009.71 28.2 1010.27 28.84C1010.85 29.48 1011.67 29.8 1012.73 29.8C1014.37 29.8 1015.3 29.1933 1015.51 27.98H1017.17C1017 29.0333 1016.51 29.8333 1015.69 30.38C1014.89 30.9133 1013.9 31.18 1012.71 31.18ZM1009.43 24.76H1015.55C1015.47 23.68 1015.17 22.9067 1014.63 22.44C1014.11 21.9733 1013.42 21.74 1012.55 21.74C1011.7 21.74 1011 22.0133 1010.45 22.56C1009.92 23.0933 1009.58 23.8267 1009.43 24.76ZM1025 31.18C1024.15 31.18 1023.42 30.9933 1022.82 30.62C1022.22 30.2467 1021.77 29.8 1021.46 29.28V31H1019.8V15.54H1021.46V22.3C1021.66 21.9533 1021.94 21.6333 1022.3 21.34C1022.66 21.0467 1023.07 20.8133 1023.54 20.64C1024.01 20.4533 1024.49 20.36 1025 20.36C1025.92 20.36 1026.73 20.5733 1027.44 21C1028.16 21.4267 1028.73 22.0333 1029.14 22.82C1029.55 23.5933 1029.76 24.5267 1029.76 25.62V25.78C1029.76 26.8467 1029.56 27.7867 1029.16 28.6C1028.77 29.4133 1028.22 30.0467 1027.5 30.5C1026.79 30.9533 1025.96 31.18 1025 31.18ZM1024.84 29.8C1025.88 29.8 1026.67 29.46 1027.22 28.78C1027.77 28.1 1028.04 27.1267 1028.04 25.86V25.7C1028.04 24.82 1027.89 24.0867 1027.6 23.5C1027.31 22.9133 1026.91 22.4733 1026.42 22.18C1025.94 21.8867 1025.41 21.74 1024.82 21.74C1023.85 21.74 1023.03 22.0667 1022.38 22.72C1021.73 23.36 1021.4 24.3533 1021.4 25.7V25.86C1021.4 27.1933 1021.72 28.1867 1022.36 28.84C1023 29.48 1023.83 29.8 1024.84 29.8ZM1032.34 34.64V20.54H1034V22.3C1034.2 21.9533 1034.48 21.6333 1034.84 21.34C1035.2 21.0467 1035.61 20.8133 1036.08 20.64C1036.55 20.4533 1037.03 20.36 1037.54 20.36C1038.46 20.36 1039.27 20.5733 1039.98 21C1040.7 21.4267 1041.27 22.0333 1041.68 22.82C1042.09 23.5933 1042.3 24.5267 1042.3 25.62V25.78C1042.3 26.8467 1042.1 27.7867 1041.7 28.6C1041.31 29.4133 1040.76 30.0467 1040.04 30.5C1039.33 30.9533 1038.5 31.18 1037.54 31.18C1036.69 31.18 1035.96 30.9933 1035.36 30.62C1034.76 30.2467 1034.31 29.8 1034 29.28V34.64H1032.34ZM1037.38 29.8C1038.42 29.8 1039.21 29.46 1039.76 28.78C1040.31 28.1 1040.58 27.1267 1040.58 25.86V25.7C1040.58 24.82 1040.43 24.0867 1040.14 23.5C1039.85 22.9133 1039.45 22.4733 1038.96 22.18C1038.48 21.8867 1037.95 21.74 1037.36 21.74C1036.39 21.74 1035.57 22.0667 1034.92 22.72C1034.27 23.36 1033.94 24.3533 1033.94 25.7V25.86C1033.94 27.1933 1034.26 28.1867 1034.9 28.84C1035.54 29.48 1036.37 29.8 1037.38 29.8ZM1047.5 31.18C1046.86 31.18 1046.27 31.0733 1045.74 30.86C1045.22 30.6467 1044.8 30.3133 1044.48 29.86C1044.17 29.3933 1044.02 28.8067 1044.02 28.1C1044.02 27.5 1044.17 26.9933 1044.46 26.58C1044.75 26.1533 1045.15 25.82 1045.64 25.58C1046.13 25.3267 1046.69 25.1467 1047.32 25.04C1047.95 24.92 1048.59 24.86 1049.26 24.86H1050.76V24.1C1050.76 23.2733 1050.59 22.6733 1050.24 22.3C1049.89 21.9267 1049.32 21.74 1048.52 21.74C1047.08 21.74 1046.28 22.3667 1046.12 23.62H1044.46C1044.54 22.82 1044.78 22.1867 1045.18 21.72C1045.58 21.24 1046.08 20.8933 1046.68 20.68C1047.29 20.4667 1047.93 20.36 1048.6 20.36C1049.27 20.36 1049.89 20.4733 1050.46 20.7C1051.05 20.9133 1051.52 21.2933 1051.88 21.84C1052.24 22.3733 1052.42 23.1267 1052.42 24.1V31H1050.76V29.68C1050.37 30.1733 1049.93 30.5467 1049.42 30.8C1048.91 31.0533 1048.27 31.18 1047.5 31.18ZM1047.66 29.86C1048.54 29.86 1049.27 29.6467 1049.86 29.22C1050.46 28.78 1050.76 28.1533 1050.76 27.34V26.04H1049.32C1048.63 26.04 1048 26.1067 1047.44 26.24C1046.89 26.36 1046.46 26.5733 1046.14 26.88C1045.83 27.1733 1045.68 27.58 1045.68 28.1C1045.68 28.6333 1045.83 29.06 1046.12 29.38C1046.41 29.7 1046.93 29.86 1047.66 29.86ZM1060.02 31.18C1059.05 31.18 1058.17 30.9667 1057.4 30.54C1056.63 30.1 1056.01 29.4867 1055.56 28.7C1055.12 27.9 1054.9 26.96 1054.9 25.88V25.72C1054.9 24.6533 1055.13 23.72 1055.58 22.92C1056.05 22.1067 1056.66 21.48 1057.42 21.04C1058.19 20.5867 1059.05 20.36 1059.98 20.36C1060.71 20.36 1061.4 20.48 1062.04 20.72C1062.69 20.96 1063.24 21.3467 1063.68 21.88C1064.13 22.4133 1064.41 23.1267 1064.52 24.02H1062.88C1062.75 23.1933 1062.41 22.6067 1061.86 22.26C1061.33 21.9133 1060.7 21.74 1059.98 21.74C1059.34 21.74 1058.77 21.9 1058.26 22.22C1057.75 22.54 1057.35 23 1057.06 23.6C1056.77 24.1867 1056.62 24.8933 1056.62 25.72V25.88C1056.62 27.16 1056.93 28.1333 1057.56 28.8C1058.2 29.4667 1059.03 29.8 1060.04 29.8C1060.79 29.8 1061.45 29.5867 1062.02 29.16C1062.61 28.7333 1062.95 28.0933 1063.04 27.24H1064.58C1064.51 27.9867 1064.27 28.66 1063.86 29.26C1063.46 29.86 1062.93 30.3333 1062.26 30.68C1061.61 31.0133 1060.86 31.18 1060.02 31.18ZM1068.75 15.54V25.34L1073.09 20.54H1075.03L1070.55 25.4L1075.41 31H1073.39L1068.75 25.58V31H1067.09V15.54H1068.75Z" fill="white"/>
<defs>
<clipPath id="clip0_3291_10445">
<rect width="24" height="24" fill="white" transform="translate(12 12)"/>
</clipPath>
<clipPath id="clip1_3291_10445">
<rect width="24" height="24" fill="white" transform="translate(138 12)"/>
</clipPath>
<clipPath id="clip2_3291_10445">
<rect width="24" height="24" fill="white" transform="translate(254 12)"/>
</clipPath>
<clipPath id="clip3_3291_10445">
<rect width="24" height="24" fill="white" transform="translate(543 12)"/>
</clipPath>
<clipPath id="clip4_3291_10445">
<rect width="24" height="24" fill="white" transform="translate(656 12)"/>
</clipPath>
</defs>
</svg>
