<svg width="501" height="48" viewBox="0 0 501 48" fill="none" xmlns="http://www.w3.org/2000/svg">
<rect x="0.5" y="0.5" width="109" height="47" rx="11.5" stroke="white" stroke-opacity="0.1"/>
<g clip-path="url(#clip0_3291_10545)">
<path d="M14.5696 18.2658C14.5696 18.2658 14.6199 18.2566 14.6519 18.2658C14.6748 18.2749 14.7022 18.2795 14.7251 18.2795C16.0736 18.2658 17.4222 18.2795 18.7662 18.3298C18.7845 18.3298 18.8028 18.3481 18.8028 18.3664V18.9606C18.8028 18.9835 18.7845 19.0018 18.7616 19.0018C18.3731 18.9972 17.7514 18.9149 17.7468 19.5184C17.7468 21.5709 17.7468 23.6281 17.7468 25.6806C17.7468 26.4989 17.6599 27.2944 17.1616 28.0029C16.5811 28.8258 15.7125 29.1778 14.7068 29.1458C12.9194 29.0909 11.7216 27.5595 12.0508 25.7812C12.1925 25.0269 12.9605 24.2132 13.7925 24.6475C14.8896 25.2144 14.6382 27.5504 13.2485 27.0109C13.1662 26.9789 13.0748 27.0109 13.0291 27.0841C12.8325 27.3904 12.9879 27.7606 13.2394 27.9984C13.7376 28.4646 14.5879 28.6064 15.1502 28.2178C15.7216 27.8246 15.8999 26.9972 15.8999 26.3115C15.9045 24.0852 15.9091 21.8544 15.8999 19.6281C15.8999 19.3081 15.7902 19.0109 15.4154 19.0064C15.1319 19.0064 14.8485 19.0064 14.5651 19.0064C14.5422 19.0064 14.5331 18.9972 14.5331 18.9744L14.5194 18.3389C14.5194 18.3069 14.5331 18.2795 14.5605 18.2658H14.5696Z" fill="#4E9A06"/>
<path d="M21.637 27.7272C22.2222 28.2895 23.2462 28.2712 23.8953 27.8415C24.6907 27.3112 24.773 26.2598 24.7776 25.405C24.7867 24.2575 24.7913 23.1055 24.7913 21.9581C24.7913 21.3592 24.7593 20.6187 24.2199 20.2484C24.069 20.1432 23.8679 20.1295 23.6804 20.0884C23.6576 20.0884 23.6439 20.0655 23.6439 20.0427L23.6576 19.549C23.6576 19.5215 23.6713 19.5078 23.6987 19.5078L26.5284 19.517C26.5284 19.517 26.5696 19.5352 26.5696 19.5581L26.5924 20.0381C26.5924 20.0701 26.5696 20.0975 26.5376 20.0975C25.7833 20.0884 25.4542 20.8015 25.4542 21.4461C25.4542 22.973 25.445 24.4952 25.4359 26.0221C25.4267 27.357 24.741 28.6461 23.3833 29.0255C21.8839 29.4415 19.8587 28.8472 19.4884 27.1512C19.397 26.7307 19.365 26.2827 19.365 25.7981C19.365 24.0655 19.3559 22.3284 19.3467 20.5958C19.3467 19.9878 18.7067 20.0975 18.3044 20.0838C18.277 20.0838 18.2633 20.0701 18.2633 20.0427L18.2816 19.5444C18.2816 19.5444 18.2907 19.517 18.3136 19.517H22.117C22.117 19.517 22.149 19.5307 22.149 19.549L22.1627 20.0472C22.1627 20.0792 22.1353 20.1067 22.1033 20.1112C21.6919 20.1021 21.0199 19.9741 21.0199 20.6187C21.0153 22.397 21.0153 24.1798 21.0153 25.9581C21.0153 26.5844 21.2027 27.3112 21.6462 27.7364L21.637 27.7272Z" fill="#CC0000"/>
<path d="M31.7974 22.836C32.0246 22.8308 32.2036 22.6016 32.1973 22.3239C32.191 22.0463 32.0018 21.8254 31.7746 21.8305C31.5474 21.8357 31.3684 22.0649 31.3747 22.3426C31.381 22.6202 31.5703 22.8411 31.7974 22.836Z" fill="#CC0000"/>
<path d="M34.6333 24.4788L35.7259 24.4606C35.7259 24.4606 35.7579 24.4697 35.7579 24.4926V24.8766C35.7579 24.904 35.7442 24.9177 35.7168 24.9177L34.6516 24.904C34.6151 24.904 34.5831 24.936 34.5831 24.9725C34.5693 25.9508 34.5739 26.9291 34.5922 27.912C34.6013 28.2914 34.9259 28.7531 35.3419 28.4697C35.6711 28.2457 35.7488 27.6788 35.7533 27.2994C35.7533 27.272 35.7671 27.2537 35.7991 27.2491L35.9408 27.2354C35.9728 27.2354 35.9865 27.2445 35.9911 27.2765C36.0322 27.7428 35.9362 28.1634 35.7168 28.5337C35.4425 29 34.8619 29.1508 34.4048 28.8857C34.0665 28.6891 33.9385 28.2457 33.9339 27.8617C33.9339 26.8971 33.9339 25.9371 33.9339 24.9771C33.9339 24.9406 33.9065 24.9131 33.8699 24.9131L33.3671 24.9223C33.3396 24.9223 33.3213 24.9131 33.3076 24.8857C33.2299 24.7074 33.2939 24.6068 33.4631 24.5246C34.1808 24.1726 34.2448 23.4228 34.3316 22.7234C34.3408 22.6594 34.4002 22.6091 34.4642 22.6183C34.5145 22.6228 34.5556 22.664 34.5648 22.7143C34.5831 22.8103 34.5922 22.9337 34.5785 23.08C34.5648 23.2766 34.5648 23.7291 34.5785 24.4377C34.5785 24.4697 34.5968 24.488 34.6288 24.488L34.6333 24.4788ZM27.2322 25.3246C27.2322 25.3246 27.2413 25.3428 27.2551 25.3428C27.2642 25.3428 27.2688 25.3428 27.2733 25.3337C27.3876 25.1417 27.5248 24.9634 27.6802 24.808C28.3842 24.0994 29.3945 24.296 29.6642 25.2971C29.7236 25.5166 29.7511 25.6994 29.7511 25.8503C29.7511 26.5771 29.7511 27.304 29.7556 28.0308C29.7556 28.4468 29.9568 28.6388 30.3545 28.6023C30.3865 28.6023 30.4093 28.6206 30.4139 28.6526V28.8765C30.4139 28.9223 30.3773 28.9588 30.3316 28.9588L28.5305 28.9497C28.5305 28.9497 28.4893 28.9314 28.4893 28.9086V28.6388C28.4848 28.6114 28.5076 28.584 28.5351 28.584C28.5351 28.584 28.5351 28.584 28.5396 28.584C29.0425 28.6388 29.1202 28.3417 29.1248 27.912C29.1248 27.5326 29.1202 26.9291 29.1065 26.1017C29.0973 25.5348 28.8413 24.7577 28.0916 24.9588C27.0676 25.2377 27.2368 27.24 27.2688 28.0674C27.2825 28.4606 27.4836 28.6343 27.8676 28.5931C27.8996 28.5931 27.9133 28.6023 27.9133 28.6343V28.8994C27.9133 28.9314 27.8905 28.9543 27.8585 28.9543H26.0528C26.0162 28.9543 25.9888 28.9223 25.9888 28.8857V28.6526C25.9888 28.6251 26.0025 28.6114 26.0299 28.6068C26.4322 28.5611 26.6288 28.5428 26.6288 28.072C26.6333 27.176 26.6333 26.2846 26.6288 25.3886C26.6288 24.9634 26.4276 24.7577 26.0299 24.7668C25.9659 24.7668 25.9339 24.7394 25.9293 24.6754C25.9202 24.5337 25.9613 24.456 26.0573 24.4514C26.4093 24.4286 26.7659 24.3965 27.1179 24.3645C27.1453 24.3645 27.1591 24.3737 27.1636 24.4011L27.2276 25.32L27.2322 25.3246ZM32.2059 24.4514C32.2242 25.7177 32.2288 26.9748 32.2196 28.2228C32.2196 28.6434 32.5579 28.6114 32.8733 28.6023C32.9053 28.6023 32.9191 28.616 32.9191 28.648L32.9282 28.9177C32.9282 28.9177 32.9099 28.9588 32.8871 28.9588H30.8985C30.8985 28.9588 30.8619 28.9406 30.8619 28.9223V28.6251C30.8619 28.6251 30.8711 28.5931 30.8939 28.5931C31.1499 28.5794 31.5522 28.6388 31.5613 28.2594C31.5796 27.4548 31.5842 26.6503 31.5796 25.8503C31.5796 25.576 31.5568 25.3474 31.5202 25.1737C31.4379 24.7851 31.0996 24.872 30.8116 24.8308C30.7842 24.8308 30.7705 24.8126 30.7705 24.7851L30.7842 24.488C30.7842 24.488 30.7979 24.456 30.8162 24.456L32.1648 24.424C32.1648 24.424 32.2013 24.4377 32.2013 24.456L32.2059 24.4514Z" fill="#CC0000"/>
</g>
<path d="M46.76 31.18C46.2267 31.18 45.8067 31.14 45.5 31.06C45.1933 30.98 44.9467 30.8933 44.76 30.8V29.36C45.0267 29.4667 45.3 29.56 45.58 29.64C45.8733 29.72 46.2333 29.76 46.66 29.76C47.3667 29.76 47.9267 29.5467 48.34 29.12C48.7667 28.6933 48.98 28 48.98 27.04V16.7H50.72V27.12C50.72 28.0667 50.54 28.84 50.18 29.44C49.82 30.04 49.34 30.48 48.74 30.76C48.1533 31.04 47.4933 31.18 46.76 31.18ZM53.5984 26.28V24.72H57.8784V26.28H53.5984ZM65.8981 31.18C64.2581 31.18 62.9915 30.7133 62.0981 29.78C61.2048 28.8467 60.7581 27.5133 60.7581 25.78V16.7H62.4981V25.58C62.4981 27.0733 62.7715 28.14 63.3181 28.78C63.8781 29.42 64.7515 29.74 65.9381 29.74C66.6981 29.74 67.3448 29.6133 67.8781 29.36C68.4248 29.1067 68.8448 28.66 69.1381 28.02C69.4315 27.38 69.5781 26.48 69.5781 25.32V16.7H71.3181V25.56C71.3181 27.2933 70.8715 28.6667 69.9781 29.68C69.0981 30.68 67.7381 31.18 65.8981 31.18ZM74.5863 31V20.54H76.2463V22.2C76.4863 21.7067 76.8929 21.28 77.4663 20.92C78.0396 20.5467 78.7529 20.36 79.6063 20.36C80.3263 20.36 80.9596 20.5 81.5063 20.78C82.0663 21.06 82.4996 21.5133 82.8063 22.14C83.1263 22.7533 83.2863 23.5667 83.2863 24.58V31H81.6263V24.46C81.6263 23.54 81.4263 22.8667 81.0263 22.44C80.6263 22.0133 80.0063 21.8 79.1663 21.8C78.6596 21.8 78.1796 21.9067 77.7263 22.12C77.2863 22.3333 76.9263 22.6533 76.6463 23.08C76.3796 23.5067 76.2463 24.0333 76.2463 24.66V31H74.5863ZM87.3794 18.36C87.086 18.36 86.826 18.2533 86.5994 18.04C86.386 17.8133 86.2794 17.5533 86.2794 17.26C86.2794 16.9533 86.386 16.6933 86.5994 16.48C86.826 16.2667 87.086 16.16 87.3794 16.16C87.686 16.16 87.946 16.2667 88.1594 16.48C88.3727 16.6933 88.4794 16.9533 88.4794 17.26C88.4794 17.5533 88.3727 17.8133 88.1594 18.04C87.946 18.2533 87.686 18.36 87.3794 18.36ZM86.5794 31V20.54H88.2394V31H86.5794ZM94.817 31.14C93.8704 31.14 93.1637 30.8867 92.697 30.38C92.2304 29.86 91.997 29.1933 91.997 28.38V21.94H90.497V20.54H91.997V18.16H93.657V20.54H96.097V21.94H93.657V28.22C93.657 29.2333 94.0904 29.74 94.957 29.74C95.2237 29.74 95.457 29.72 95.657 29.68C95.8704 29.64 96.0637 29.5867 96.237 29.52V30.92C96.0637 30.9733 95.8704 31.02 95.657 31.06C95.4437 31.1133 95.1637 31.14 94.817 31.14Z" fill="white"/>
<rect x="126.5" y="0.5" width="96" height="47" rx="11.5" stroke="white" stroke-opacity="0.1"/>
<g clip-path="url(#clip1_3291_10545)">
<path fill-rule="evenodd" clip-rule="evenodd" d="M147.175 24.7315C147.175 24.7315 146.544 25.0972 147.623 25.2206C148.931 25.3715 149.594 25.3486 151.034 25.0744C151.034 25.0744 151.413 25.3121 151.939 25.5178C148.716 26.8984 144.643 25.4401 147.175 24.7315ZM146.782 22.9258C146.782 22.9258 146.078 23.4469 147.152 23.5612C148.547 23.7075 149.648 23.7166 151.555 23.3509C151.555 23.3509 151.82 23.6161 152.231 23.7624C148.332 24.9006 143.989 23.8538 146.782 22.9258Z" fill="#3174B9"/>
<path fill-rule="evenodd" clip-rule="evenodd" d="M150.101 19.8675C150.896 20.7818 149.89 21.6046 149.89 21.6046C149.89 21.6046 151.906 20.5623 150.983 19.2595C150.119 18.0435 149.456 17.44 153.045 15.3555C153.045 15.3555 147.404 16.7635 150.101 19.8675Z" fill="#CA3132"/>
<path fill-rule="evenodd" clip-rule="evenodd" d="M154.366 26.0657C154.366 26.0657 154.832 26.4497 153.854 26.7469C151.994 27.3092 146.106 27.4783 144.474 26.7697C143.888 26.5137 144.99 26.1572 145.333 26.084C145.694 26.0063 145.9 26.02 145.9 26.02C145.246 25.5583 141.676 26.9252 144.085 27.3137C150.659 28.3789 156.067 26.8337 154.362 26.0657H154.366ZM147.477 21.06C147.477 21.06 144.483 21.7732 146.416 22.0292C147.235 22.1389 148.862 22.1115 150.375 21.988C151.614 21.8829 152.858 21.6635 152.858 21.6635C152.858 21.6635 152.423 21.8509 152.103 22.0657C149.063 22.8657 143.189 22.4909 144.88 21.6772C146.311 20.9869 147.472 21.0646 147.472 21.0646L147.477 21.06ZM152.848 24.0589C155.939 22.4543 154.508 20.9092 153.511 21.1195C153.269 21.1697 153.159 21.2155 153.159 21.2155C153.159 21.2155 153.251 21.0737 153.424 21.0097C155.399 20.3149 156.917 23.0577 152.789 24.1412C152.789 24.1412 152.835 24.1 152.848 24.0589Z" fill="#3174B9"/>
<path fill-rule="evenodd" clip-rule="evenodd" d="M150.983 11.9941C150.983 11.9941 152.693 13.7084 149.36 16.337C146.686 18.449 148.752 19.6513 149.36 21.0273C147.797 19.6193 146.654 18.3804 147.422 17.2239C148.551 15.5324 151.673 14.7096 150.983 11.9941Z" fill="#CA3132"/>
<path fill-rule="evenodd" clip-rule="evenodd" d="M147.783 28.4129C150.75 28.6003 155.303 28.3077 155.413 26.9043C155.413 26.9043 155.207 27.4346 152.962 27.8597C150.43 28.3352 147.307 28.2803 145.456 27.974C145.456 27.974 145.835 28.2894 147.783 28.4129Z" fill="#3174B9"/>
<path fill-rule="evenodd" clip-rule="evenodd" d="M155.271 30.9301H155.18V30.8798H155.422V30.9301H155.331V31.1815H155.267V30.9301H155.271ZM155.76 30.9438L155.669 31.1815H155.628L155.541 30.9438V31.1815H155.482V30.8798H155.568L155.651 31.0947L155.733 30.8798H155.82V31.1815H155.76V30.9438ZM147.294 33.7735C147.015 34.0158 146.718 34.153 146.453 34.153C146.074 34.153 145.868 33.9244 145.868 33.5633C145.868 33.1701 146.087 32.8821 146.965 32.8821H147.29V33.7781L147.294 33.7735ZM148.067 34.6467V31.9495C148.067 31.2593 147.674 30.8067 146.727 30.8067C146.174 30.8067 145.69 30.9438 145.296 31.1175L145.411 31.593C145.722 31.4787 146.124 31.3735 146.517 31.3735C147.061 31.3735 147.299 31.593 147.299 32.0455V32.3884H147.024C145.699 32.3884 145.1 32.905 145.1 33.6775C145.1 34.345 145.493 34.7244 146.238 34.7244C146.714 34.7244 147.07 34.5278 147.404 34.2398L147.463 34.6467H148.071H148.067ZM150.645 34.6467H149.68L148.519 30.8753H149.36L150.078 33.193L150.238 33.8878C150.599 32.8821 150.86 31.8581 150.988 30.8753H151.806C151.587 32.1187 151.194 33.481 150.64 34.6467H150.645ZM154.339 33.7735C154.06 34.0158 153.763 34.153 153.498 34.153C153.118 34.153 152.912 33.9244 152.912 33.5633C152.912 33.1701 153.132 32.8821 154.01 32.8821H154.334V33.7781L154.339 33.7735ZM155.111 34.6467V31.9495C155.111 31.2593 154.718 30.8067 153.772 30.8067C153.219 30.8067 152.734 30.9438 152.341 31.1175L152.455 31.593C152.766 31.4787 153.168 31.3735 153.562 31.3735C154.106 31.3735 154.343 31.593 154.343 32.0455V32.3884H154.069C152.743 32.3884 152.144 32.905 152.144 33.6775C152.144 34.345 152.538 34.7244 153.278 34.7244C153.754 34.7244 154.11 34.5278 154.444 34.2398L154.503 34.6467H155.107H155.111ZM144.254 35.2867C144.035 35.6067 143.678 35.8627 143.29 36.0044L142.91 35.5564C143.207 35.4055 143.459 35.1587 143.578 34.9301C143.678 34.7244 143.724 34.4638 143.724 33.8375V29.5312H144.542V33.7781C144.542 34.6147 144.474 34.953 144.254 35.2867Z" fill="#CA3132"/>
</g>
<path d="M172.76 31.18C172.227 31.18 171.807 31.14 171.5 31.06C171.193 30.98 170.947 30.8933 170.76 30.8V29.36C171.027 29.4667 171.3 29.56 171.58 29.64C171.873 29.72 172.233 29.76 172.66 29.76C173.367 29.76 173.927 29.5467 174.34 29.12C174.767 28.6933 174.98 28 174.98 27.04V16.7H176.72V27.12C176.72 28.0667 176.54 28.84 176.18 29.44C175.82 30.04 175.34 30.48 174.74 30.76C174.153 31.04 173.493 31.18 172.76 31.18ZM182.698 31.18C182.058 31.18 181.472 31.0733 180.938 30.86C180.418 30.6467 179.998 30.3133 179.678 29.86C179.372 29.3933 179.218 28.8067 179.218 28.1C179.218 27.5 179.365 26.9933 179.658 26.58C179.952 26.1533 180.345 25.82 180.838 25.58C181.332 25.3267 181.892 25.1467 182.518 25.04C183.145 24.92 183.792 24.86 184.458 24.86H185.958V24.1C185.958 23.2733 185.785 22.6733 185.438 22.3C185.092 21.9267 184.518 21.74 183.718 21.74C182.278 21.74 181.478 22.3667 181.318 23.62H179.658C179.738 22.82 179.978 22.1867 180.378 21.72C180.778 21.24 181.278 20.8933 181.878 20.68C182.492 20.4667 183.132 20.36 183.798 20.36C184.465 20.36 185.085 20.4733 185.658 20.7C186.245 20.9133 186.718 21.2933 187.078 21.84C187.438 22.3733 187.618 23.1267 187.618 24.1V31H185.958V29.68C185.572 30.1733 185.125 30.5467 184.618 30.8C184.112 31.0533 183.472 31.18 182.698 31.18ZM182.858 29.86C183.738 29.86 184.472 29.6467 185.058 29.22C185.658 28.78 185.958 28.1533 185.958 27.34V26.04H184.518C183.825 26.04 183.198 26.1067 182.638 26.24C182.092 26.36 181.658 26.5733 181.338 26.88C181.032 27.1733 180.878 27.58 180.878 28.1C180.878 28.6333 181.025 29.06 181.318 29.38C181.612 29.7 182.125 29.86 182.858 29.86ZM193.206 31L189.406 20.54H191.206L194.306 29.32L197.366 20.54H199.086L195.326 31H193.206ZM203.792 31.18C203.152 31.18 202.566 31.0733 202.032 30.86C201.512 30.6467 201.092 30.3133 200.772 29.86C200.466 29.3933 200.312 28.8067 200.312 28.1C200.312 27.5 200.459 26.9933 200.752 26.58C201.046 26.1533 201.439 25.82 201.932 25.58C202.426 25.3267 202.986 25.1467 203.612 25.04C204.239 24.92 204.886 24.86 205.552 24.86H207.052V24.1C207.052 23.2733 206.879 22.6733 206.532 22.3C206.186 21.9267 205.612 21.74 204.812 21.74C203.372 21.74 202.572 22.3667 202.412 23.62H200.752C200.832 22.82 201.072 22.1867 201.472 21.72C201.872 21.24 202.372 20.8933 202.972 20.68C203.586 20.4667 204.226 20.36 204.892 20.36C205.559 20.36 206.179 20.4733 206.752 20.7C207.339 20.9133 207.812 21.2933 208.172 21.84C208.532 22.3733 208.712 23.1267 208.712 24.1V31H207.052V29.68C206.666 30.1733 206.219 30.5467 205.712 30.8C205.206 31.0533 204.566 31.18 203.792 31.18ZM203.952 29.86C204.832 29.86 205.566 29.6467 206.152 29.22C206.752 28.78 207.052 28.1533 207.052 27.34V26.04H205.612C204.919 26.04 204.292 26.1067 203.732 26.24C203.186 26.36 202.752 26.5733 202.432 26.88C202.126 27.1733 201.972 27.58 201.972 28.1C201.972 28.6333 202.119 29.06 202.412 29.38C202.706 29.7 203.219 29.86 203.952 29.86Z" fill="white"/>
<rect x="239.5" y="0.5" width="129" height="47" rx="11.5" stroke="white" stroke-opacity="0.1"/>
<g clip-path="url(#clip2_3291_10545)">
<path d="M270.246 16.7207C271.567 18.115 272.12 20.0212 272.358 22.691C272.979 22.691 273.56 22.8281 273.948 23.363L274.68 24.355C274.89 24.6384 275.004 24.9812 275.004 25.3333V28.0212C275.004 28.3687 274.831 28.707 274.552 28.9127C271.242 31.3355 267.164 33.283 263.004 33.283C258.406 33.283 253.798 30.6315 251.457 28.9127C251.178 28.707 251.004 28.3687 251.004 28.0212V25.3333C251.004 24.9812 251.119 24.6384 251.324 24.3504L252.056 23.363C252.449 22.8327 253.03 22.691 253.647 22.691C253.88 20.0212 254.433 18.115 255.759 16.7207C258.255 14.0784 261.555 13.7858 262.963 13.7812H263.004C264.385 13.7812 267.731 14.051 270.25 16.7207H270.246ZM263 21.1595C262.716 21.1595 262.387 21.1778 262.035 21.2098C261.912 21.667 261.729 22.083 261.464 22.3481C260.412 23.3995 259.146 23.5595 258.47 23.5595C257.834 23.5595 257.162 23.427 256.618 23.0841C256.102 23.2533 255.608 23.5001 255.576 24.1081C255.521 25.2601 255.516 26.4075 255.512 27.5595C255.512 28.1355 255.507 28.7161 255.498 29.2921C255.498 29.6258 255.704 29.9412 256.01 30.0784C258.492 31.2075 260.842 31.779 263 31.779C265.158 31.779 267.503 31.2075 269.985 30.0784C270.291 29.9412 270.492 29.6258 270.497 29.2921C270.529 27.5641 270.502 25.8315 270.419 24.1081C270.387 23.4955 269.889 23.2533 269.372 23.0841C268.828 23.427 268.161 23.5595 267.521 23.5595C266.844 23.5595 265.578 23.3995 264.527 22.3481C264.262 22.083 264.079 21.6715 263.955 21.2098C263.635 21.1778 263.315 21.1595 262.995 21.1595H263ZM260.476 25.2784C261.016 25.2784 261.45 25.7173 261.45 26.2521V28.0487C261.45 28.5881 261.011 29.0224 260.476 29.0224C259.942 29.0224 259.503 28.5835 259.503 28.0487V26.2521C259.503 25.7127 259.942 25.2784 260.476 25.2784ZM265.478 25.2784C266.017 25.2784 266.451 25.7173 266.451 26.2521V28.0487C266.451 28.5881 266.012 29.0224 265.478 29.0224C264.943 29.0224 264.504 28.5835 264.504 28.0487V26.2521C264.504 25.7127 264.943 25.2784 265.478 25.2784ZM258.634 16.4327C257.583 16.5378 256.7 16.8807 256.248 17.3607C255.274 18.4258 255.484 21.1275 256.038 21.6944C256.444 22.1012 257.208 22.371 258.031 22.371C258.662 22.371 259.859 22.2338 260.851 21.2327C261.286 20.8121 261.555 19.7607 261.528 18.6955C261.496 17.8407 261.258 17.1367 260.897 16.835C260.508 16.4921 259.622 16.3412 258.634 16.4281V16.4327ZM265.098 16.8395C264.737 17.1413 264.499 17.8453 264.467 18.7001C264.435 19.7653 264.71 20.8167 265.144 21.2372C266.136 22.243 267.334 22.3755 267.964 22.3755C268.787 22.3755 269.555 22.1058 269.958 21.699C270.511 21.1275 270.721 18.4304 269.747 17.3652C269.299 16.8852 268.412 16.5424 267.361 16.4372C266.369 16.3458 265.487 16.4967 265.098 16.8441V16.8395ZM263 19.0292C262.762 19.0292 262.474 19.043 262.159 19.075C262.191 19.2395 262.204 19.4178 262.218 19.6144C262.218 19.7515 262.218 19.8841 262.204 20.035C262.506 20.003 262.758 20.003 263 20.003C263.242 20.003 263.494 20.003 263.795 20.035C263.782 19.8841 263.782 19.7515 263.782 19.6144C263.795 19.4178 263.814 19.2395 263.841 19.075C263.526 19.043 263.242 19.0292 263 19.0292Z" fill="white"/>
</g>
<path d="M291.02 31.18C289.553 31.18 288.3 30.8667 287.26 30.24C286.233 29.6133 285.447 28.76 284.9 27.68C284.367 26.5867 284.1 25.34 284.1 23.94V23.78C284.1 22.74 284.267 21.78 284.6 20.9C284.933 20.0067 285.407 19.2333 286.02 18.58C286.633 17.9133 287.36 17.4 288.2 17.04C289.053 16.6667 289.993 16.48 291.02 16.48C291.967 16.48 292.853 16.6333 293.68 16.94C294.507 17.2467 295.2 17.7333 295.76 18.4C296.333 19.0667 296.693 19.94 296.84 21.02H295.1C294.9 19.8733 294.433 19.06 293.7 18.58C292.98 18.1 292.1 17.86 291.06 17.86C289.967 17.86 289.033 18.1133 288.26 18.62C287.5 19.1133 286.913 19.8 286.5 20.68C286.1 21.56 285.9 22.5867 285.9 23.76V23.92C285.9 25.0933 286.093 26.12 286.48 27C286.867 27.88 287.44 28.5667 288.2 29.06C288.96 29.54 289.9 29.78 291.02 29.78C292.06 29.78 292.907 29.58 293.56 29.18C294.213 28.7667 294.7 28.2133 295.02 27.52C295.34 26.8267 295.507 26.06 295.52 25.22H291.34V23.78H297.22V24.84C297.22 26.2133 296.953 27.3733 296.42 28.32C295.9 29.2667 295.173 29.98 294.24 30.46C293.32 30.94 292.247 31.18 291.02 31.18ZM300.232 31V16.7H301.972V31H300.232ZM308.619 31V18.12H304.459V16.7H314.519V18.12H310.359V31H308.619ZM316.89 31V16.7H318.63V23.18H326.15V16.7H327.89V31H326.15V24.64H318.63V31H316.89ZM336.519 31.18C334.879 31.18 333.613 30.7133 332.719 29.78C331.826 28.8467 331.379 27.5133 331.379 25.78V16.7H333.119V25.58C333.119 27.0733 333.393 28.14 333.939 28.78C334.499 29.42 335.373 29.74 336.559 29.74C337.319 29.74 337.966 29.6133 338.499 29.36C339.046 29.1067 339.466 28.66 339.759 28.02C340.053 27.38 340.199 26.48 340.199 25.32V16.7H341.939V25.56C341.939 27.2933 341.493 28.6667 340.599 29.68C339.719 30.68 338.359 31.18 336.519 31.18ZM345.425 31V16.7H349.725C350.618 16.7 351.405 16.8133 352.085 17.04C352.778 17.2667 353.325 17.6467 353.725 18.18C354.125 18.7133 354.325 19.4533 354.325 20.4V20.48C354.325 21.1333 354.172 21.7333 353.865 22.28C353.558 22.8133 352.992 23.22 352.165 23.5C353.205 23.7533 353.938 24.1533 354.365 24.7C354.805 25.2467 355.025 25.9867 355.025 26.92V27C355.025 28.3467 354.598 29.3533 353.745 30.02C352.892 30.6733 351.752 31 350.325 31H345.425ZM347.125 22.94H349.725C350.778 22.94 351.525 22.74 351.965 22.34C352.405 21.94 352.625 21.3 352.625 20.42V20.34C352.625 19.5267 352.385 18.9467 351.905 18.6C351.425 18.24 350.685 18.06 349.685 18.06H347.125V22.94ZM347.125 29.64H350.285C351.325 29.64 352.092 29.4133 352.585 28.96C353.078 28.5067 353.325 27.8467 353.325 26.98V26.9C353.325 26.02 353.065 25.3667 352.545 24.94C352.025 24.5133 351.192 24.3 350.045 24.3H347.125V29.64Z" fill="white"/>
<rect x="385.5" y="0.5" width="115" height="47" rx="11.5" stroke="white" stroke-opacity="0.1"/>
<g clip-path="url(#clip3_3291_10545)">
<path d="M403.071 30.7202L397.274 26.1259L400.154 20.7773L408.415 24.0002L403.071 30.7202Z" fill="url(#paint0_linear_3291_10545)"/>
<path d="M421 18.4132L420.552 32.2966L411.332 35.9995L405.777 32.4338L413.901 23.9995L410.34 16.2189L413.526 12.3789L421 18.4132Z" fill="url(#paint1_linear_3291_10545)"/>
<path d="M421 18.4132L413.7 27.0532L410.34 16.2189L413.526 12.3789L421 18.4132Z" fill="url(#paint2_linear_3291_10545)"/>
<path d="M408.557 31.9177L398.92 35.4194L400.465 30.0023L402.486 23.3463L397 21.4994L400.465 12L408.003 12.928L415.414 21.3943L408.557 31.9177Z" fill="url(#paint3_linear_3291_10545)"/>
<path d="M416.506 16.6289H401.694V31.4403H416.506V16.6289Z" fill="black"/>
<path d="M408.625 28.6641H403.07V29.5921H408.625V28.6641Z" fill="white"/>
<path d="M407.08 19.6838V18.5547H403.994V19.6838H404.885V23.5604H403.994V24.6895H407.08V23.5604H406.22V19.6838H407.08Z" fill="white"/>
<path d="M410.028 24.7888C409.548 24.7888 409.137 24.6883 408.83 24.5145C408.524 24.3408 408.245 24.1031 408.044 23.8608L408.903 22.9008C409.077 23.1065 409.246 23.2437 409.415 23.3443C409.585 23.4448 409.79 23.518 410.001 23.518C410.243 23.518 410.444 23.4494 410.618 23.2757C410.755 23.102 410.823 22.8643 410.823 22.4894V18.5488H412.195V22.558C412.195 22.9374 412.163 23.2437 412.058 23.518C411.957 23.7923 411.815 23.998 411.614 24.2037C411.441 24.3774 411.203 24.5465 410.929 24.6151C410.654 24.7157 410.38 24.7888 410.037 24.7888" fill="white"/>
</g>
<path d="M430.9 31V16.7H432.64V31H430.9ZM436.227 31V20.54H437.887V22.2C438.127 21.7067 438.534 21.28 439.107 20.92C439.68 20.5467 440.394 20.36 441.247 20.36C441.967 20.36 442.6 20.5 443.147 20.78C443.707 21.06 444.14 21.5133 444.447 22.14C444.767 22.7533 444.927 23.5667 444.927 24.58V31H443.267V24.46C443.267 23.54 443.067 22.8667 442.667 22.44C442.267 22.0133 441.647 21.8 440.807 21.8C440.3 21.8 439.82 21.9067 439.367 22.12C438.927 22.3333 438.567 22.6533 438.287 23.08C438.02 23.5067 437.887 24.0333 437.887 24.66V31H436.227ZM451.36 31.14C450.413 31.14 449.707 30.8867 449.24 30.38C448.773 29.86 448.54 29.1933 448.54 28.38V21.94H447.04V20.54H448.54V18.16H450.2V20.54H452.64V21.94H450.2V28.22C450.2 29.2333 450.633 29.74 451.5 29.74C451.767 29.74 452 29.72 452.2 29.68C452.413 29.64 452.607 29.5867 452.78 29.52V30.92C452.607 30.9733 452.413 31.02 452.2 31.06C451.987 31.1133 451.707 31.14 451.36 31.14ZM459.569 31.18C458.583 31.18 457.709 30.9667 456.949 30.54C456.189 30.1 455.589 29.48 455.149 28.68C454.723 27.88 454.509 26.9467 454.509 25.88V25.72C454.509 24.6667 454.716 23.74 455.129 22.94C455.543 22.1267 456.116 21.4933 456.849 21.04C457.596 20.5867 458.449 20.36 459.409 20.36C460.223 20.36 460.983 20.5333 461.689 20.88C462.409 21.2267 462.989 21.78 463.429 22.54C463.883 23.3 464.109 24.3067 464.109 25.56V26.1H456.229C456.269 27.2867 456.569 28.2 457.129 28.84C457.703 29.48 458.523 29.8 459.589 29.8C461.229 29.8 462.156 29.1933 462.369 27.98H464.029C463.856 29.0333 463.363 29.8333 462.549 30.38C461.749 30.9133 460.756 31.18 459.569 31.18ZM456.289 24.76H462.409C462.329 23.68 462.023 22.9067 461.489 22.44C460.969 21.9733 460.276 21.74 459.409 21.74C458.556 21.74 457.856 22.0133 457.309 22.56C456.776 23.0933 456.436 23.8267 456.289 24.76ZM466.697 31V15.54H468.377V31H466.697ZM471.814 31V15.54H473.494V31H471.814ZM477.731 18.36C477.438 18.36 477.178 18.2533 476.951 18.04C476.738 17.8133 476.631 17.5533 476.631 17.26C476.631 16.9533 476.738 16.6933 476.951 16.48C477.178 16.2667 477.438 16.16 477.731 16.16C478.038 16.16 478.298 16.2667 478.511 16.48C478.724 16.6933 478.831 16.9533 478.831 17.26C478.831 17.5533 478.724 17.8133 478.511 18.04C478.298 18.2533 478.038 18.36 477.731 18.36ZM476.931 31V20.54H478.591V31H476.931ZM483.069 31.18C482.535 31.18 482.115 31.14 481.809 31.06C481.502 30.98 481.255 30.8933 481.069 30.8V29.36C481.335 29.4667 481.609 29.56 481.889 29.64C482.182 29.72 482.542 29.76 482.969 29.76C483.675 29.76 484.235 29.5467 484.649 29.12C485.075 28.6933 485.289 28 485.289 27.04V16.7H487.029V27.12C487.029 28.0667 486.849 28.84 486.489 29.44C486.129 30.04 485.649 30.48 485.049 30.76C484.462 31.04 483.802 31.18 483.069 31.18Z" fill="white"/>
<defs>
<linearGradient id="paint0_linear_3291_10545" x1="397.274" y1="25.7465" x2="408.415" y2="25.7465" gradientUnits="userSpaceOnUse">
<stop offset="0.26" stop-color="#F97A12"/>
<stop offset="0.46" stop-color="#B07B58"/>
<stop offset="0.72" stop-color="#577BAE"/>
<stop offset="0.91" stop-color="#1E7CE5"/>
<stop offset="1" stop-color="#087CFA"/>
</linearGradient>
<linearGradient id="paint1_linear_3291_10545" x1="405.832" y1="20.5389" x2="424.228" y2="30.7149" gradientUnits="userSpaceOnUse">
<stop stop-color="#F97A12"/>
<stop offset="0.07" stop-color="#CB7A3E"/>
<stop offset="0.15" stop-color="#9E7B6A"/>
<stop offset="0.24" stop-color="#757B91"/>
<stop offset="0.33" stop-color="#537BB1"/>
<stop offset="0.43" stop-color="#387CCC"/>
<stop offset="0.54" stop-color="#237CE0"/>
<stop offset="0.66" stop-color="#147CEF"/>
<stop offset="0.79" stop-color="#0B7CF7"/>
<stop offset="1" stop-color="#087CFA"/>
</linearGradient>
<linearGradient id="paint2_linear_3291_10545" x1="418.682" y1="26.7103" x2="413.558" y2="11.4098" gradientUnits="userSpaceOnUse">
<stop stop-color="#FE315D"/>
<stop offset="0.08" stop-color="#CB417E"/>
<stop offset="0.16" stop-color="#9E4E9B"/>
<stop offset="0.25" stop-color="#755BB4"/>
<stop offset="0.34" stop-color="#5365CA"/>
<stop offset="0.44" stop-color="#386DDB"/>
<stop offset="0.54" stop-color="#2374E9"/>
<stop offset="0.66" stop-color="#1478F3"/>
<stop offset="0.79" stop-color="#0B7BF8"/>
<stop offset="1" stop-color="#087CFA"/>
</linearGradient>
<linearGradient id="paint3_linear_3291_10545" x1="400.666" y1="17.6549" x2="416.026" y2="43.0629" gradientUnits="userSpaceOnUse">
<stop stop-color="#FE315D"/>
<stop offset="0.04" stop-color="#F63462"/>
<stop offset="0.1" stop-color="#DF3A71"/>
<stop offset="0.17" stop-color="#C24383"/>
<stop offset="0.29" stop-color="#AD4A91"/>
<stop offset="0.55" stop-color="#755BB4"/>
<stop offset="0.92" stop-color="#1D76ED"/>
<stop offset="1" stop-color="#087CFA"/>
</linearGradient>
<clipPath id="clip0_3291_10545">
<rect width="24" height="24" fill="white" transform="translate(12 12)"/>
</clipPath>
<clipPath id="clip1_3291_10545">
<rect width="24" height="24" fill="white" transform="translate(138 12)"/>
</clipPath>
<clipPath id="clip2_3291_10545">
<rect width="24" height="24" fill="white" transform="translate(251 12)"/>
</clipPath>
<clipPath id="clip3_3291_10545">
<rect width="24" height="24" fill="white" transform="translate(397 12)"/>
</clipPath>
</defs>
</svg>
