<svg width="1080" height="48" viewBox="0 0 1080 48" fill="none" xmlns="http://www.w3.org/2000/svg">
<rect x="0.5" y="0.5" width="109" height="47" rx="11.5" stroke="white" stroke-opacity="0.1"/>
<g clip-path="url(#clip0_3291_10579)">
<path d="M34.5964 21.9091C34.6558 21.9091 34.7061 21.9548 34.7061 22.0096V22.6633H35.8901C35.9495 22.6633 35.9998 22.7091 35.9998 22.7639V23.1022C35.9998 23.1571 35.9541 23.2028 35.8901 23.2073H34.7061V24.2039C34.7061 24.6199 34.8569 24.7891 35.2775 24.7891H35.8078C35.8672 24.7891 35.9175 24.8348 35.9175 24.8896V25.2279C35.9175 25.2828 35.8718 25.3285 35.8078 25.3285H35.1724C34.3952 25.3285 34.0341 24.9719 34.0341 24.2039V23.2028H33.3347C33.2752 23.2028 33.2249 23.1571 33.2249 23.1022V22.7639C33.2249 22.7091 33.2707 22.6633 33.3347 22.6633H34.0341V22.0096C34.0341 21.9548 34.0798 21.9091 34.1438 21.9091H34.5918H34.5964ZM32.4158 22.6633C32.4752 22.6633 32.5255 22.7091 32.5255 22.7639V24.7891H33.3621C33.4215 24.7891 33.4718 24.8348 33.4718 24.8896V25.2279C33.4718 25.2828 33.4261 25.3285 33.3621 25.3285H31.0444C30.9849 25.3285 30.9347 25.2828 30.9347 25.2279V24.8896C30.9347 24.8348 30.9804 24.7891 31.0444 24.7891H31.8581V23.2073H31.0444C30.9849 23.2073 30.9347 23.1616 30.9347 23.1068V22.7685C30.9347 22.7136 30.9804 22.6679 31.0444 22.6679H32.4204L32.4158 22.6633ZM32.4432 21.6348C32.5027 21.6348 32.5484 21.6805 32.5529 21.7353V22.1696C32.5529 22.2245 32.5072 22.2702 32.4432 22.2702H31.8307C31.7712 22.2702 31.7209 22.2245 31.7209 22.1696V21.7353C31.7209 21.6805 31.7667 21.6348 31.8307 21.6348H32.4432ZM30.4135 24.7891H29.7187V21.7353C29.7187 21.6759 29.6729 21.6348 29.6089 21.6348H28.2421C28.1827 21.6348 28.1324 21.6805 28.1324 21.7353V22.0736C28.1324 22.1331 28.1781 22.1742 28.2421 22.1742H29.0467V24.7891H28.1415C28.0821 24.7891 28.0318 24.8348 28.0318 24.8896V25.2279C28.0318 25.2873 28.0775 25.3285 28.1415 25.3285H30.4089C30.4684 25.3285 30.5187 25.2828 30.5187 25.2279V24.8896C30.5187 24.8302 30.4729 24.7891 30.4089 24.7891H30.4135ZM26.7107 22.6131C26.4775 22.6131 26.3129 22.6633 26.1804 22.7868L26.0204 22.9422H25.8741L25.8192 22.7456C25.8055 22.6999 25.7644 22.6679 25.7141 22.6679H25.4078C25.3484 22.6679 25.2981 22.7136 25.2981 22.7685V26.2611C25.2981 26.3205 25.3438 26.3616 25.4078 26.3616H25.8604C25.9198 26.3616 25.9701 26.3159 25.9701 26.2611V25.5022L25.9107 25.0953L26.0615 25.0633L26.2215 25.2188C26.3495 25.3331 26.5004 25.3925 26.7289 25.3925C27.3918 25.3925 27.7895 24.9353 27.7895 24.0028C27.7895 23.0702 27.3918 22.6131 26.7107 22.6131ZM26.4867 24.8302C26.1484 24.8302 25.9609 24.6565 25.9609 24.3273V23.6736C25.9609 23.3445 26.1438 23.1708 26.4867 23.1708C26.8981 23.1708 27.0855 23.4313 27.0855 23.9982C27.0855 24.5742 26.8981 24.8348 26.4867 24.8348V24.8302ZM23.3918 22.6131C22.5324 22.6131 22.0707 23.0702 22.0707 23.9982C22.0707 24.9262 22.5278 25.3879 23.3735 25.3879C24.0272 25.3879 24.4524 25.1136 24.5621 24.6473C24.5804 24.5833 24.5255 24.5193 24.4569 24.5193H24.0455C23.9998 24.5193 23.9587 24.5468 23.9449 24.5879C23.8718 24.7891 23.6707 24.8851 23.3918 24.8851C22.9621 24.8851 22.7564 24.6519 22.7289 24.0988H24.5941C24.6947 23.0702 24.2695 22.6131 23.3872 22.6131H23.3918ZM22.7518 23.6828C22.8158 23.2805 23.0169 23.0931 23.3872 23.0931C23.7804 23.0931 23.9632 23.3033 23.9724 23.6828H22.7518ZM20.7404 22.7822L20.5849 22.9376H20.4295L20.3838 22.7411C20.3747 22.6953 20.3289 22.6633 20.2787 22.6633H19.2958C19.2364 22.6633 19.1861 22.7091 19.1861 22.7639V23.1022C19.1861 23.1616 19.2318 23.2028 19.2958 23.2028H19.8764V24.7845H19.1998C19.1404 24.7845 19.0901 24.8302 19.0901 24.8851V25.2233C19.0901 25.2828 19.1358 25.3239 19.1998 25.3239H21.3255C21.3849 25.3239 21.4352 25.2782 21.4352 25.2233V24.8851C21.4352 24.8256 21.3895 24.7845 21.3255 24.7845H20.5438V23.6645C20.5438 23.3491 20.7267 23.1891 21.0878 23.1891H21.6729C21.7324 23.1891 21.7827 23.1433 21.7827 23.0885V22.7182C21.7827 22.6588 21.7369 22.6176 21.6729 22.6176H21.3255C21.0695 22.6176 20.8684 22.6633 20.7358 22.7868L20.7404 22.7822Z" fill="white"/>
<path d="M11.9999 21.5167C11.9999 21.3202 12.1599 21.1602 12.3564 21.1602H14.0113C14.2079 21.1602 14.3679 21.3202 14.3679 21.5167V23.0527H12.3564C12.1599 23.0527 11.9999 22.8927 11.9999 22.6962V21.5122V21.5167ZM14.3633 23.0527H16.3747C16.5713 23.0527 16.7313 23.2127 16.7313 23.4093V24.5933C16.7313 24.7899 16.5713 24.9499 16.3747 24.9499H14.3633V23.0573V23.0527ZM11.9999 25.2973C11.9999 25.1007 12.1599 24.9407 12.3564 24.9407H14.3679V26.4767C14.3679 26.6733 14.2079 26.8333 14.0113 26.8333H12.3564C12.1599 26.8333 11.9999 26.6733 11.9999 26.4767V25.2927V25.2973Z" fill="#F26207"/>
</g>
<path d="M45.8 31V16.7H50.1C51.02 16.7 51.8533 16.8333 52.6 17.1C53.36 17.3667 53.9667 17.7933 54.42 18.38C54.8733 18.9533 55.1 19.72 55.1 20.68V20.76C55.1 21.5467 54.94 22.2067 54.62 22.74C54.3 23.2733 53.8733 23.6933 53.34 24C52.8067 24.3067 52.2133 24.5267 51.56 24.66L55.94 31H54L49.74 24.78H47.54V31H45.8ZM47.54 23.4H50.22C51.2467 23.4 52.0267 23.18 52.56 22.74C53.0933 22.3 53.36 21.64 53.36 20.76V20.68C53.36 19.7067 53.08 19.0333 52.52 18.66C51.96 18.2867 51.1933 18.1 50.22 18.1H47.54V23.4ZM62.2256 31.18C61.239 31.18 60.3656 30.9667 59.6056 30.54C58.8456 30.1 58.2456 29.48 57.8056 28.68C57.379 27.88 57.1656 26.9467 57.1656 25.88V25.72C57.1656 24.6667 57.3723 23.74 57.7856 22.94C58.199 22.1267 58.7723 21.4933 59.5056 21.04C60.2523 20.5867 61.1056 20.36 62.0656 20.36C62.879 20.36 63.639 20.5333 64.3456 20.88C65.0656 21.2267 65.6456 21.78 66.0856 22.54C66.539 23.3 66.7656 24.3067 66.7656 25.56V26.1H58.8856C58.9256 27.2867 59.2256 28.2 59.7856 28.84C60.359 29.48 61.179 29.8 62.2456 29.8C63.8856 29.8 64.8123 29.1933 65.0256 27.98H66.6856C66.5123 29.0333 66.019 29.8333 65.2056 30.38C64.4056 30.9133 63.4123 31.18 62.2256 31.18ZM58.9456 24.76H65.0656C64.9856 23.68 64.679 22.9067 64.1456 22.44C63.6256 21.9733 62.9323 21.74 62.0656 21.74C61.2123 21.74 60.5123 22.0133 59.9656 22.56C59.4323 23.0933 59.0923 23.8267 58.9456 24.76ZM69.3128 34.64V20.54H70.9728V22.3C71.1728 21.9533 71.4528 21.6333 71.8128 21.34C72.1728 21.0467 72.5861 20.8133 73.0528 20.64C73.5195 20.4533 74.0061 20.36 74.5128 20.36C75.4328 20.36 76.2461 20.5733 76.9528 21C77.6728 21.4267 78.2395 22.0333 78.6528 22.82C79.0661 23.5933 79.2728 24.5267 79.2728 25.62V25.78C79.2728 26.8467 79.0728 27.7867 78.6728 28.6C78.2861 29.4133 77.7328 30.0467 77.0128 30.5C76.3061 30.9533 75.4728 31.18 74.5128 31.18C73.6595 31.18 72.9328 30.9933 72.3328 30.62C71.7328 30.2467 71.2795 29.8 70.9728 29.28V34.64H69.3128ZM74.3528 29.8C75.3928 29.8 76.1861 29.46 76.7328 28.78C77.2795 28.1 77.5528 27.1267 77.5528 25.86V25.7C77.5528 24.82 77.4061 24.0867 77.1128 23.5C76.8195 22.9133 76.4261 22.4733 75.9328 22.18C75.4528 21.8867 74.9195 21.74 74.3328 21.74C73.3595 21.74 72.5461 22.0667 71.8928 22.72C71.2395 23.36 70.9128 24.3533 70.9128 25.7V25.86C70.9128 27.1933 71.2328 28.1867 71.8728 28.84C72.5128 29.48 73.3395 29.8 74.3528 29.8ZM81.8919 31V15.54H83.5719V31H81.8919ZM87.8091 18.36C87.5157 18.36 87.2557 18.2533 87.0291 18.04C86.8157 17.8133 86.7091 17.5533 86.7091 17.26C86.7091 16.9533 86.8157 16.6933 87.0291 16.48C87.2557 16.2667 87.5157 16.16 87.8091 16.16C88.1157 16.16 88.3757 16.2667 88.5891 16.48C88.8024 16.6933 88.9091 16.9533 88.9091 17.26C88.9091 17.5533 88.8024 17.8133 88.5891 18.04C88.3757 18.2533 88.1157 18.36 87.8091 18.36ZM87.0091 31V20.54H88.6691V31H87.0091ZM95.2467 31.14C94.3001 31.14 93.5934 30.8867 93.1267 30.38C92.6601 29.86 92.4267 29.1933 92.4267 28.38V21.94H90.9267V20.54H92.4267V18.16H94.0867V20.54H96.5267V21.94H94.0867V28.22C94.0867 29.2333 94.5201 29.74 95.3867 29.74C95.6534 29.74 95.8867 29.72 96.0867 29.68C96.3001 29.64 96.4934 29.5867 96.6667 29.52V30.92C96.4934 30.9733 96.3001 31.02 96.0867 31.06C95.8734 31.1133 95.5934 31.14 95.2467 31.14Z" fill="white"/>
<rect x="126.5" y="0.5" width="96" height="47" rx="11.5" stroke="white" stroke-opacity="0.1"/>
<g clip-path="url(#clip1_3291_10579)">
<path fill-rule="evenodd" clip-rule="evenodd" d="M147.175 24.7315C147.175 24.7315 146.544 25.0972 147.623 25.2206C148.931 25.3715 149.594 25.3486 151.034 25.0744C151.034 25.0744 151.413 25.3121 151.939 25.5178C148.716 26.8984 144.643 25.4401 147.175 24.7315ZM146.782 22.9258C146.782 22.9258 146.078 23.4469 147.152 23.5612C148.547 23.7075 149.648 23.7166 151.555 23.3509C151.555 23.3509 151.82 23.6161 152.231 23.7624C148.332 24.9006 143.989 23.8538 146.782 22.9258Z" fill="#3174B9"/>
<path fill-rule="evenodd" clip-rule="evenodd" d="M150.101 19.8675C150.896 20.7818 149.89 21.6046 149.89 21.6046C149.89 21.6046 151.906 20.5623 150.983 19.2595C150.119 18.0435 149.456 17.44 153.045 15.3555C153.045 15.3555 147.404 16.7635 150.101 19.8675Z" fill="#CA3132"/>
<path fill-rule="evenodd" clip-rule="evenodd" d="M154.366 26.0657C154.366 26.0657 154.832 26.4497 153.854 26.7469C151.994 27.3092 146.106 27.4783 144.474 26.7697C143.888 26.5137 144.99 26.1572 145.333 26.084C145.694 26.0063 145.9 26.02 145.9 26.02C145.246 25.5583 141.676 26.9252 144.085 27.3137C150.659 28.3789 156.067 26.8337 154.362 26.0657H154.366ZM147.477 21.06C147.477 21.06 144.483 21.7732 146.416 22.0292C147.235 22.1389 148.862 22.1115 150.375 21.988C151.614 21.8829 152.858 21.6635 152.858 21.6635C152.858 21.6635 152.423 21.8509 152.103 22.0657C149.063 22.8657 143.189 22.4909 144.88 21.6772C146.311 20.9869 147.472 21.0646 147.472 21.0646L147.477 21.06ZM152.848 24.0589C155.939 22.4543 154.508 20.9092 153.511 21.1195C153.269 21.1697 153.159 21.2155 153.159 21.2155C153.159 21.2155 153.251 21.0737 153.424 21.0097C155.399 20.3149 156.917 23.0577 152.789 24.1412C152.789 24.1412 152.835 24.1 152.848 24.0589Z" fill="#3174B9"/>
<path fill-rule="evenodd" clip-rule="evenodd" d="M150.983 11.9941C150.983 11.9941 152.693 13.7084 149.36 16.337C146.686 18.449 148.752 19.6513 149.36 21.0273C147.797 19.6193 146.654 18.3804 147.422 17.2239C148.551 15.5324 151.673 14.7096 150.983 11.9941Z" fill="#CA3132"/>
<path fill-rule="evenodd" clip-rule="evenodd" d="M147.783 28.4129C150.75 28.6003 155.303 28.3077 155.413 26.9043C155.413 26.9043 155.207 27.4346 152.962 27.8597C150.43 28.3352 147.307 28.2803 145.456 27.974C145.456 27.974 145.835 28.2894 147.783 28.4129Z" fill="#3174B9"/>
<path fill-rule="evenodd" clip-rule="evenodd" d="M155.271 30.9301H155.18V30.8798H155.422V30.9301H155.331V31.1815H155.267V30.9301H155.271ZM155.76 30.9438L155.669 31.1815H155.628L155.541 30.9438V31.1815H155.482V30.8798H155.568L155.651 31.0947L155.733 30.8798H155.82V31.1815H155.76V30.9438ZM147.294 33.7735C147.015 34.0158 146.718 34.153 146.453 34.153C146.074 34.153 145.868 33.9244 145.868 33.5633C145.868 33.1701 146.087 32.8821 146.965 32.8821H147.29V33.7781L147.294 33.7735ZM148.067 34.6467V31.9495C148.067 31.2593 147.674 30.8067 146.727 30.8067C146.174 30.8067 145.69 30.9438 145.296 31.1175L145.411 31.593C145.722 31.4787 146.124 31.3735 146.517 31.3735C147.061 31.3735 147.299 31.593 147.299 32.0455V32.3884H147.024C145.699 32.3884 145.1 32.905 145.1 33.6775C145.1 34.345 145.493 34.7244 146.238 34.7244C146.714 34.7244 147.07 34.5278 147.404 34.2398L147.463 34.6467H148.071H148.067ZM150.645 34.6467H149.68L148.519 30.8753H149.36L150.078 33.193L150.238 33.8878C150.599 32.8821 150.86 31.8581 150.988 30.8753H151.806C151.587 32.1187 151.194 33.481 150.64 34.6467H150.645ZM154.339 33.7735C154.06 34.0158 153.763 34.153 153.498 34.153C153.118 34.153 152.912 33.9244 152.912 33.5633C152.912 33.1701 153.132 32.8821 154.01 32.8821H154.334V33.7781L154.339 33.7735ZM155.111 34.6467V31.9495C155.111 31.2593 154.718 30.8067 153.772 30.8067C153.219 30.8067 152.734 30.9438 152.341 31.1175L152.455 31.593C152.766 31.4787 153.168 31.3735 153.562 31.3735C154.106 31.3735 154.343 31.593 154.343 32.0455V32.3884H154.069C152.743 32.3884 152.144 32.905 152.144 33.6775C152.144 34.345 152.538 34.7244 153.278 34.7244C153.754 34.7244 154.11 34.5278 154.444 34.2398L154.503 34.6467H155.107H155.111ZM144.254 35.2867C144.035 35.6067 143.678 35.8627 143.29 36.0044L142.91 35.5564C143.207 35.4055 143.459 35.1587 143.578 34.9301C143.678 34.7244 143.724 34.4638 143.724 33.8375V29.5312H144.542V33.7781C144.542 34.6147 144.474 34.953 144.254 35.2867Z" fill="#CA3132"/>
</g>
<path d="M172.76 31.18C172.227 31.18 171.807 31.14 171.5 31.06C171.193 30.98 170.947 30.8933 170.76 30.8V29.36C171.027 29.4667 171.3 29.56 171.58 29.64C171.873 29.72 172.233 29.76 172.66 29.76C173.367 29.76 173.927 29.5467 174.34 29.12C174.767 28.6933 174.98 28 174.98 27.04V16.7H176.72V27.12C176.72 28.0667 176.54 28.84 176.18 29.44C175.82 30.04 175.34 30.48 174.74 30.76C174.153 31.04 173.493 31.18 172.76 31.18ZM182.698 31.18C182.058 31.18 181.472 31.0733 180.938 30.86C180.418 30.6467 179.998 30.3133 179.678 29.86C179.372 29.3933 179.218 28.8067 179.218 28.1C179.218 27.5 179.365 26.9933 179.658 26.58C179.952 26.1533 180.345 25.82 180.838 25.58C181.332 25.3267 181.892 25.1467 182.518 25.04C183.145 24.92 183.792 24.86 184.458 24.86H185.958V24.1C185.958 23.2733 185.785 22.6733 185.438 22.3C185.092 21.9267 184.518 21.74 183.718 21.74C182.278 21.74 181.478 22.3667 181.318 23.62H179.658C179.738 22.82 179.978 22.1867 180.378 21.72C180.778 21.24 181.278 20.8933 181.878 20.68C182.492 20.4667 183.132 20.36 183.798 20.36C184.465 20.36 185.085 20.4733 185.658 20.7C186.245 20.9133 186.718 21.2933 187.078 21.84C187.438 22.3733 187.618 23.1267 187.618 24.1V31H185.958V29.68C185.572 30.1733 185.125 30.5467 184.618 30.8C184.112 31.0533 183.472 31.18 182.698 31.18ZM182.858 29.86C183.738 29.86 184.472 29.6467 185.058 29.22C185.658 28.78 185.958 28.1533 185.958 27.34V26.04H184.518C183.825 26.04 183.198 26.1067 182.638 26.24C182.092 26.36 181.658 26.5733 181.338 26.88C181.032 27.1733 180.878 27.58 180.878 28.1C180.878 28.6333 181.025 29.06 181.318 29.38C181.612 29.7 182.125 29.86 182.858 29.86ZM193.206 31L189.406 20.54H191.206L194.306 29.32L197.366 20.54H199.086L195.326 31H193.206ZM203.792 31.18C203.152 31.18 202.566 31.0733 202.032 30.86C201.512 30.6467 201.092 30.3133 200.772 29.86C200.466 29.3933 200.312 28.8067 200.312 28.1C200.312 27.5 200.459 26.9933 200.752 26.58C201.046 26.1533 201.439 25.82 201.932 25.58C202.426 25.3267 202.986 25.1467 203.612 25.04C204.239 24.92 204.886 24.86 205.552 24.86H207.052V24.1C207.052 23.2733 206.879 22.6733 206.532 22.3C206.186 21.9267 205.612 21.74 204.812 21.74C203.372 21.74 202.572 22.3667 202.412 23.62H200.752C200.832 22.82 201.072 22.1867 201.472 21.72C201.872 21.24 202.372 20.8933 202.972 20.68C203.586 20.4667 204.226 20.36 204.892 20.36C205.559 20.36 206.179 20.4733 206.752 20.7C207.339 20.9133 207.812 21.2933 208.172 21.84C208.532 22.3733 208.712 23.1267 208.712 24.1V31H207.052V29.68C206.666 30.1733 206.219 30.5467 205.712 30.8C205.206 31.0533 204.566 31.18 203.792 31.18ZM203.952 29.86C204.832 29.86 205.566 29.6467 206.152 29.22C206.752 28.78 207.052 28.1533 207.052 27.34V26.04H205.612C204.919 26.04 204.292 26.1067 203.732 26.24C203.186 26.36 202.752 26.5733 202.432 26.88C202.126 27.1733 201.972 27.58 201.972 28.1C201.972 28.6333 202.119 29.06 202.412 29.38C202.706 29.7 203.219 29.86 203.952 29.86Z" fill="white"/>
<rect x="239.5" y="0.5" width="115" height="47" rx="11.5" stroke="white" stroke-opacity="0.1"/>
<g clip-path="url(#clip2_3291_10579)">
<path d="M257.071 30.7202L251.274 26.1259L254.154 20.7773L262.415 24.0002L257.071 30.7202Z" fill="url(#paint0_linear_3291_10579)"/>
<path d="M275 18.4132L274.552 32.2966L265.332 35.9995L259.777 32.4338L267.901 23.9995L264.34 16.2189L267.526 12.3789L275 18.4132Z" fill="url(#paint1_linear_3291_10579)"/>
<path d="M275 18.4132L267.699 27.0532L264.339 16.2189L267.526 12.3789L275 18.4132Z" fill="url(#paint2_linear_3291_10579)"/>
<path d="M262.557 31.9177L252.92 35.4194L254.465 30.0023L256.486 23.3463L251 21.4994L254.465 12L262.003 12.928L269.414 21.3943L262.557 31.9177Z" fill="url(#paint3_linear_3291_10579)"/>
<path d="M270.506 16.6289H255.694V31.4403H270.506V16.6289Z" fill="black"/>
<path d="M262.625 28.6641H257.07V29.5921H262.625V28.6641Z" fill="white"/>
<path d="M261.08 19.6838V18.5547H257.994V19.6838H258.885V23.5604H257.994V24.6895H261.08V23.5604H260.22V19.6838H261.08Z" fill="white"/>
<path d="M264.028 24.7888C263.548 24.7888 263.137 24.6883 262.83 24.5145C262.524 24.3408 262.245 24.1031 262.044 23.8608L262.903 22.9008C263.077 23.1065 263.246 23.2437 263.415 23.3443C263.585 23.4448 263.79 23.518 264.001 23.518C264.243 23.518 264.444 23.4494 264.618 23.2757C264.755 23.102 264.823 22.8643 264.823 22.4894V18.5488H266.195V22.558C266.195 22.9374 266.163 23.2437 266.058 23.518C265.957 23.7923 265.815 23.998 265.614 24.2037C265.441 24.3774 265.203 24.5465 264.929 24.6151C264.654 24.7157 264.38 24.7888 264.037 24.7888" fill="white"/>
</g>
<path d="M284.9 31V16.7H286.64V31H284.9ZM290.227 31V20.54H291.887V22.2C292.127 21.7067 292.534 21.28 293.107 20.92C293.68 20.5467 294.394 20.36 295.247 20.36C295.967 20.36 296.6 20.5 297.147 20.78C297.707 21.06 298.14 21.5133 298.447 22.14C298.767 22.7533 298.927 23.5667 298.927 24.58V31H297.267V24.46C297.267 23.54 297.067 22.8667 296.667 22.44C296.267 22.0133 295.647 21.8 294.807 21.8C294.3 21.8 293.82 21.9067 293.367 22.12C292.927 22.3333 292.567 22.6533 292.287 23.08C292.02 23.5067 291.887 24.0333 291.887 24.66V31H290.227ZM305.36 31.14C304.413 31.14 303.707 30.8867 303.24 30.38C302.773 29.86 302.54 29.1933 302.54 28.38V21.94H301.04V20.54H302.54V18.16H304.2V20.54H306.64V21.94H304.2V28.22C304.2 29.2333 304.633 29.74 305.5 29.74C305.767 29.74 306 29.72 306.2 29.68C306.413 29.64 306.607 29.5867 306.78 29.52V30.92C306.607 30.9733 306.413 31.02 306.2 31.06C305.987 31.1133 305.707 31.14 305.36 31.14ZM313.569 31.18C312.583 31.18 311.709 30.9667 310.949 30.54C310.189 30.1 309.589 29.48 309.149 28.68C308.723 27.88 308.509 26.9467 308.509 25.88V25.72C308.509 24.6667 308.716 23.74 309.129 22.94C309.543 22.1267 310.116 21.4933 310.849 21.04C311.596 20.5867 312.449 20.36 313.409 20.36C314.223 20.36 314.983 20.5333 315.689 20.88C316.409 21.2267 316.989 21.78 317.429 22.54C317.883 23.3 318.109 24.3067 318.109 25.56V26.1H310.229C310.269 27.2867 310.569 28.2 311.129 28.84C311.703 29.48 312.523 29.8 313.589 29.8C315.229 29.8 316.156 29.1933 316.369 27.98H318.029C317.856 29.0333 317.363 29.8333 316.549 30.38C315.749 30.9133 314.756 31.18 313.569 31.18ZM310.289 24.76H316.409C316.329 23.68 316.023 22.9067 315.489 22.44C314.969 21.9733 314.276 21.74 313.409 21.74C312.556 21.74 311.856 22.0133 311.309 22.56C310.776 23.0933 310.436 23.8267 310.289 24.76ZM320.697 31V15.54H322.377V31H320.697ZM325.814 31V15.54H327.494V31H325.814ZM331.731 18.36C331.438 18.36 331.178 18.2533 330.951 18.04C330.738 17.8133 330.631 17.5533 330.631 17.26C330.631 16.9533 330.738 16.6933 330.951 16.48C331.178 16.2667 331.438 16.16 331.731 16.16C332.038 16.16 332.298 16.2667 332.511 16.48C332.724 16.6933 332.831 16.9533 332.831 17.26C332.831 17.5533 332.724 17.8133 332.511 18.04C332.298 18.2533 332.038 18.36 331.731 18.36ZM330.931 31V20.54H332.591V31H330.931ZM337.069 31.18C336.535 31.18 336.115 31.14 335.809 31.06C335.502 30.98 335.255 30.8933 335.069 30.8V29.36C335.335 29.4667 335.609 29.56 335.889 29.64C336.182 29.72 336.542 29.76 336.969 29.76C337.675 29.76 338.235 29.5467 338.649 29.12C339.075 28.6933 339.289 28 339.289 27.04V16.7H341.029V27.12C341.029 28.0667 340.849 28.84 340.489 29.44C340.129 30.04 339.649 30.48 339.049 30.76C338.462 31.04 337.802 31.18 337.069 31.18Z" fill="white"/>
<rect x="371.5" y="0.5" width="109" height="47" rx="11.5" stroke="white" stroke-opacity="0.1"/>
<g clip-path="url(#clip3_3291_10579)">
<path d="M385.57 18.2658C385.57 18.2658 385.62 18.2566 385.652 18.2658C385.675 18.2749 385.702 18.2795 385.725 18.2795C387.074 18.2658 388.422 18.2795 389.766 18.3298C389.785 18.3298 389.803 18.3481 389.803 18.3664V18.9606C389.803 18.9835 389.785 19.0018 389.762 19.0018C389.373 18.9972 388.751 18.9149 388.747 19.5184C388.747 21.5709 388.747 23.6281 388.747 25.6806C388.747 26.4989 388.66 27.2944 388.162 28.0029C387.581 28.8258 386.713 29.1778 385.707 29.1458C383.919 29.0909 382.722 27.5595 383.051 25.7812C383.193 25.0269 383.961 24.2132 384.793 24.6475C385.89 25.2144 385.638 27.5504 384.249 27.0109C384.166 26.9789 384.075 27.0109 384.029 27.0841C383.833 27.3904 383.988 27.7606 384.239 27.9984C384.738 28.4646 385.588 28.6064 386.15 28.2178C386.722 27.8246 386.9 26.9972 386.9 26.3115C386.905 24.0852 386.909 21.8544 386.9 19.6281C386.9 19.3081 386.79 19.0109 386.415 19.0064C386.132 19.0064 385.849 19.0064 385.565 19.0064C385.542 19.0064 385.533 18.9972 385.533 18.9744L385.519 18.3389C385.519 18.3069 385.533 18.2795 385.561 18.2658H385.57Z" fill="#4E9A06"/>
<path d="M392.637 27.7272C393.222 28.2895 394.246 28.2712 394.895 27.8415C395.691 27.3112 395.773 26.2598 395.778 25.405C395.787 24.2575 395.791 23.1055 395.791 21.9581C395.791 21.3592 395.759 20.6187 395.22 20.2484C395.069 20.1432 394.868 20.1295 394.681 20.0884C394.658 20.0884 394.644 20.0655 394.644 20.0427L394.658 19.549C394.658 19.5215 394.671 19.5078 394.699 19.5078L397.529 19.517C397.529 19.517 397.57 19.5352 397.57 19.5581L397.593 20.0381C397.593 20.0701 397.57 20.0975 397.538 20.0975C396.783 20.0884 396.454 20.8015 396.454 21.4461C396.454 22.973 396.445 24.4952 396.436 26.0221C396.427 27.357 395.741 28.6461 394.383 29.0255C392.884 29.4415 390.859 28.8472 390.489 27.1512C390.397 26.7307 390.365 26.2827 390.365 25.7981C390.365 24.0655 390.356 22.3284 390.347 20.5958C390.347 19.9878 389.707 20.0975 389.305 20.0838C389.277 20.0838 389.263 20.0701 389.263 20.0427L389.282 19.5444C389.282 19.5444 389.291 19.517 389.314 19.517H393.117C393.117 19.517 393.149 19.5307 393.149 19.549L393.163 20.0472C393.163 20.0792 393.135 20.1067 393.103 20.1112C392.692 20.1021 392.02 19.9741 392.02 20.6187C392.015 22.397 392.015 24.1798 392.015 25.9581C392.015 26.5844 392.203 27.3112 392.646 27.7364L392.637 27.7272Z" fill="#CC0000"/>
<path d="M402.797 22.836C403.025 22.8308 403.204 22.6016 403.197 22.3239C403.191 22.0463 403.002 21.8254 402.775 21.8305C402.547 21.8357 402.368 22.0649 402.375 22.3426C402.381 22.6202 402.57 22.8411 402.797 22.836Z" fill="#CC0000"/>
<path d="M405.633 24.4788L406.726 24.4606C406.726 24.4606 406.758 24.4697 406.758 24.4926V24.8766C406.758 24.904 406.744 24.9177 406.717 24.9177L405.652 24.904C405.615 24.904 405.583 24.936 405.583 24.9725C405.569 25.9508 405.574 26.9291 405.592 27.912C405.601 28.2914 405.926 28.7531 406.342 28.4697C406.671 28.2457 406.749 27.6788 406.753 27.2994C406.753 27.272 406.767 27.2537 406.799 27.2491L406.941 27.2354C406.973 27.2354 406.986 27.2445 406.991 27.2765C407.032 27.7428 406.936 28.1634 406.717 28.5337C406.442 29 405.862 29.1508 405.405 28.8857C405.066 28.6891 404.938 28.2457 404.934 27.8617C404.934 26.8971 404.934 25.9371 404.934 24.9771C404.934 24.9406 404.906 24.9131 404.87 24.9131L404.367 24.9223C404.34 24.9223 404.321 24.9131 404.308 24.8857C404.23 24.7074 404.294 24.6068 404.463 24.5246C405.181 24.1726 405.245 23.4228 405.332 22.7234C405.341 22.6594 405.4 22.6091 405.464 22.6183C405.514 22.6228 405.556 22.664 405.565 22.7143C405.583 22.8103 405.592 22.9337 405.578 23.08C405.565 23.2766 405.565 23.7291 405.578 24.4377C405.578 24.4697 405.597 24.488 405.629 24.488L405.633 24.4788ZM398.232 25.3246C398.232 25.3246 398.241 25.3428 398.255 25.3428C398.264 25.3428 398.269 25.3428 398.273 25.3337C398.388 25.1417 398.525 24.9634 398.68 24.808C399.384 24.0994 400.394 24.296 400.664 25.2971C400.724 25.5166 400.751 25.6994 400.751 25.8503C400.751 26.5771 400.751 27.304 400.756 28.0308C400.756 28.4468 400.957 28.6388 401.354 28.6023C401.386 28.6023 401.409 28.6206 401.414 28.6526V28.8765C401.414 28.9223 401.377 28.9588 401.332 28.9588L399.53 28.9497C399.53 28.9497 399.489 28.9314 399.489 28.9086V28.6388C399.485 28.6114 399.508 28.584 399.535 28.584C399.535 28.584 399.535 28.584 399.54 28.584C400.042 28.6388 400.12 28.3417 400.125 27.912C400.125 27.5326 400.12 26.9291 400.106 26.1017C400.097 25.5348 399.841 24.7577 399.092 24.9588C398.068 25.2377 398.237 27.24 398.269 28.0674C398.282 28.4606 398.484 28.6343 398.868 28.5931C398.9 28.5931 398.913 28.6023 398.913 28.6343V28.8994C398.913 28.9314 398.89 28.9543 398.858 28.9543H397.053C397.016 28.9543 396.989 28.9223 396.989 28.8857V28.6526C396.989 28.6251 397.002 28.6114 397.03 28.6068C397.432 28.5611 397.629 28.5428 397.629 28.072C397.633 27.176 397.633 26.2846 397.629 25.3886C397.629 24.9634 397.428 24.7577 397.03 24.7668C396.966 24.7668 396.934 24.7394 396.929 24.6754C396.92 24.5337 396.961 24.456 397.057 24.4514C397.409 24.4286 397.766 24.3965 398.118 24.3645C398.145 24.3645 398.159 24.3737 398.164 24.4011L398.228 25.32L398.232 25.3246ZM403.206 24.4514C403.224 25.7177 403.229 26.9748 403.22 28.2228C403.22 28.6434 403.558 28.6114 403.873 28.6023C403.905 28.6023 403.919 28.616 403.919 28.648L403.928 28.9177C403.928 28.9177 403.91 28.9588 403.887 28.9588H401.898C401.898 28.9588 401.862 28.9406 401.862 28.9223V28.6251C401.862 28.6251 401.871 28.5931 401.894 28.5931C402.15 28.5794 402.552 28.6388 402.561 28.2594C402.58 27.4548 402.584 26.6503 402.58 25.8503C402.58 25.576 402.557 25.3474 402.52 25.1737C402.438 24.7851 402.1 24.872 401.812 24.8308C401.784 24.8308 401.77 24.8126 401.77 24.7851L401.784 24.488C401.784 24.488 401.798 24.456 401.816 24.456L403.165 24.424C403.165 24.424 403.201 24.4377 403.201 24.456L403.206 24.4514Z" fill="#CC0000"/>
</g>
<path d="M417.76 31.18C417.227 31.18 416.807 31.14 416.5 31.06C416.193 30.98 415.947 30.8933 415.76 30.8V29.36C416.027 29.4667 416.3 29.56 416.58 29.64C416.873 29.72 417.233 29.76 417.66 29.76C418.367 29.76 418.927 29.5467 419.34 29.12C419.767 28.6933 419.98 28 419.98 27.04V16.7H421.72V27.12C421.72 28.0667 421.54 28.84 421.18 29.44C420.82 30.04 420.34 30.48 419.74 30.76C419.153 31.04 418.493 31.18 417.76 31.18ZM424.598 26.28V24.72H428.878V26.28H424.598ZM436.898 31.18C435.258 31.18 433.991 30.7133 433.098 29.78C432.205 28.8467 431.758 27.5133 431.758 25.78V16.7H433.498V25.58C433.498 27.0733 433.771 28.14 434.318 28.78C434.878 29.42 435.751 29.74 436.938 29.74C437.698 29.74 438.345 29.6133 438.878 29.36C439.425 29.1067 439.845 28.66 440.138 28.02C440.431 27.38 440.578 26.48 440.578 25.32V16.7H442.318V25.56C442.318 27.2933 441.871 28.6667 440.978 29.68C440.098 30.68 438.738 31.18 436.898 31.18ZM445.586 31V20.54H447.246V22.2C447.486 21.7067 447.893 21.28 448.466 20.92C449.04 20.5467 449.753 20.36 450.606 20.36C451.326 20.36 451.96 20.5 452.506 20.78C453.066 21.06 453.5 21.5133 453.806 22.14C454.126 22.7533 454.286 23.5667 454.286 24.58V31H452.626V24.46C452.626 23.54 452.426 22.8667 452.026 22.44C451.626 22.0133 451.006 21.8 450.166 21.8C449.66 21.8 449.18 21.9067 448.726 22.12C448.286 22.3333 447.926 22.6533 447.646 23.08C447.38 23.5067 447.246 24.0333 447.246 24.66V31H445.586ZM458.379 18.36C458.086 18.36 457.826 18.2533 457.599 18.04C457.386 17.8133 457.279 17.5533 457.279 17.26C457.279 16.9533 457.386 16.6933 457.599 16.48C457.826 16.2667 458.086 16.16 458.379 16.16C458.686 16.16 458.946 16.2667 459.159 16.48C459.373 16.6933 459.479 16.9533 459.479 17.26C459.479 17.5533 459.373 17.8133 459.159 18.04C458.946 18.2533 458.686 18.36 458.379 18.36ZM457.579 31V20.54H459.239V31H457.579ZM465.817 31.14C464.87 31.14 464.164 30.8867 463.697 30.38C463.23 29.86 462.997 29.1933 462.997 28.38V21.94H461.497V20.54H462.997V18.16H464.657V20.54H467.097V21.94H464.657V28.22C464.657 29.2333 465.09 29.74 465.957 29.74C466.224 29.74 466.457 29.72 466.657 29.68C466.87 29.64 467.064 29.5867 467.237 29.52V30.92C467.064 30.9733 466.87 31.02 466.657 31.06C466.444 31.1133 466.164 31.14 465.817 31.14Z" fill="white"/>
<rect x="497.5" y="0.5" width="129" height="47" rx="11.5" stroke="white" stroke-opacity="0.1"/>
<g clip-path="url(#clip4_3291_10579)">
<path d="M528.246 16.7207C529.567 18.115 530.12 20.0212 530.358 22.691C530.979 22.691 531.56 22.8281 531.948 23.363L532.68 24.355C532.89 24.6384 533.004 24.9812 533.004 25.3333V28.0212C533.004 28.3687 532.831 28.707 532.552 28.9127C529.242 31.3355 525.164 33.283 521.004 33.283C516.406 33.283 511.798 30.6315 509.457 28.9127C509.178 28.707 509.004 28.3687 509.004 28.0212V25.3333C509.004 24.9812 509.119 24.6384 509.324 24.3504L510.056 23.363C510.449 22.8327 511.03 22.691 511.647 22.691C511.88 20.0212 512.433 18.115 513.759 16.7207C516.255 14.0784 519.555 13.7858 520.963 13.7812H521.004C522.385 13.7812 525.731 14.051 528.25 16.7207H528.246ZM521 21.1595C520.716 21.1595 520.387 21.1778 520.035 21.2098C519.912 21.667 519.729 22.083 519.464 22.3481C518.412 23.3995 517.146 23.5595 516.47 23.5595C515.834 23.5595 515.162 23.427 514.618 23.0841C514.102 23.2533 513.608 23.5001 513.576 24.1081C513.521 25.2601 513.516 26.4075 513.512 27.5595C513.512 28.1355 513.507 28.7161 513.498 29.2921C513.498 29.6258 513.704 29.9412 514.01 30.0784C516.492 31.2075 518.842 31.779 521 31.779C523.158 31.779 525.503 31.2075 527.985 30.0784C528.291 29.9412 528.492 29.6258 528.497 29.2921C528.529 27.5641 528.502 25.8315 528.419 24.1081C528.387 23.4955 527.889 23.2533 527.372 23.0841C526.828 23.427 526.161 23.5595 525.521 23.5595C524.844 23.5595 523.578 23.3995 522.527 22.3481C522.262 22.083 522.079 21.6715 521.955 21.2098C521.635 21.1778 521.315 21.1595 520.995 21.1595H521ZM518.476 25.2784C519.016 25.2784 519.45 25.7173 519.45 26.2521V28.0487C519.45 28.5881 519.011 29.0224 518.476 29.0224C517.942 29.0224 517.503 28.5835 517.503 28.0487V26.2521C517.503 25.7127 517.942 25.2784 518.476 25.2784ZM523.478 25.2784C524.017 25.2784 524.451 25.7173 524.451 26.2521V28.0487C524.451 28.5881 524.012 29.0224 523.478 29.0224C522.943 29.0224 522.504 28.5835 522.504 28.0487V26.2521C522.504 25.7127 522.943 25.2784 523.478 25.2784ZM516.634 16.4327C515.583 16.5378 514.7 16.8807 514.248 17.3607C513.274 18.4258 513.484 21.1275 514.038 21.6944C514.444 22.1012 515.208 22.371 516.031 22.371C516.662 22.371 517.859 22.2338 518.851 21.2327C519.286 20.8121 519.555 19.7607 519.528 18.6955C519.496 17.8407 519.258 17.1367 518.897 16.835C518.508 16.4921 517.622 16.3412 516.634 16.4281V16.4327ZM523.098 16.8395C522.737 17.1413 522.499 17.8453 522.467 18.7001C522.435 19.7653 522.71 20.8167 523.144 21.2372C524.136 22.243 525.334 22.3755 525.964 22.3755C526.787 22.3755 527.555 22.1058 527.958 21.699C528.511 21.1275 528.721 18.4304 527.747 17.3652C527.299 16.8852 526.412 16.5424 525.361 16.4372C524.369 16.3458 523.487 16.4967 523.098 16.8441V16.8395ZM521 19.0292C520.762 19.0292 520.474 19.043 520.159 19.075C520.191 19.2395 520.204 19.4178 520.218 19.6144C520.218 19.7515 520.218 19.8841 520.204 20.035C520.506 20.003 520.758 20.003 521 20.003C521.242 20.003 521.494 20.003 521.795 20.035C521.782 19.8841 521.782 19.7515 521.782 19.6144C521.795 19.4178 521.814 19.2395 521.841 19.075C521.526 19.043 521.242 19.0292 521 19.0292Z" fill="white"/>
</g>
<path d="M549.02 31.18C547.553 31.18 546.3 30.8667 545.26 30.24C544.233 29.6133 543.447 28.76 542.9 27.68C542.367 26.5867 542.1 25.34 542.1 23.94V23.78C542.1 22.74 542.267 21.78 542.6 20.9C542.933 20.0067 543.407 19.2333 544.02 18.58C544.633 17.9133 545.36 17.4 546.2 17.04C547.053 16.6667 547.993 16.48 549.02 16.48C549.967 16.48 550.853 16.6333 551.68 16.94C552.507 17.2467 553.2 17.7333 553.76 18.4C554.333 19.0667 554.693 19.94 554.84 21.02H553.1C552.9 19.8733 552.433 19.06 551.7 18.58C550.98 18.1 550.1 17.86 549.06 17.86C547.967 17.86 547.033 18.1133 546.26 18.62C545.5 19.1133 544.913 19.8 544.5 20.68C544.1 21.56 543.9 22.5867 543.9 23.76V23.92C543.9 25.0933 544.093 26.12 544.48 27C544.867 27.88 545.44 28.5667 546.2 29.06C546.96 29.54 547.9 29.78 549.02 29.78C550.06 29.78 550.907 29.58 551.56 29.18C552.213 28.7667 552.7 28.2133 553.02 27.52C553.34 26.8267 553.507 26.06 553.52 25.22H549.34V23.78H555.22V24.84C555.22 26.2133 554.953 27.3733 554.42 28.32C553.9 29.2667 553.173 29.98 552.24 30.46C551.32 30.94 550.247 31.18 549.02 31.18ZM558.232 31V16.7H559.972V31H558.232ZM566.619 31V18.12H562.459V16.7H572.519V18.12H568.359V31H566.619ZM574.89 31V16.7H576.63V23.18H584.15V16.7H585.89V31H584.15V24.64H576.63V31H574.89ZM594.519 31.18C592.879 31.18 591.613 30.7133 590.719 29.78C589.826 28.8467 589.379 27.5133 589.379 25.78V16.7H591.119V25.58C591.119 27.0733 591.393 28.14 591.939 28.78C592.499 29.42 593.373 29.74 594.559 29.74C595.319 29.74 595.966 29.6133 596.499 29.36C597.046 29.1067 597.466 28.66 597.759 28.02C598.053 27.38 598.199 26.48 598.199 25.32V16.7H599.939V25.56C599.939 27.2933 599.493 28.6667 598.599 29.68C597.719 30.68 596.359 31.18 594.519 31.18ZM603.425 31V16.7H607.725C608.618 16.7 609.405 16.8133 610.085 17.04C610.778 17.2667 611.325 17.6467 611.725 18.18C612.125 18.7133 612.325 19.4533 612.325 20.4V20.48C612.325 21.1333 612.172 21.7333 611.865 22.28C611.558 22.8133 610.992 23.22 610.165 23.5C611.205 23.7533 611.938 24.1533 612.365 24.7C612.805 25.2467 613.025 25.9867 613.025 26.92V27C613.025 28.3467 612.598 29.3533 611.745 30.02C610.892 30.6733 609.752 31 608.325 31H603.425ZM605.125 22.94H607.725C608.778 22.94 609.525 22.74 609.965 22.34C610.405 21.94 610.625 21.3 610.625 20.42V20.34C610.625 19.5267 610.385 18.9467 609.905 18.6C609.425 18.24 608.685 18.06 607.685 18.06H605.125V22.94ZM605.125 29.64H608.285C609.325 29.64 610.092 29.4133 610.585 28.96C611.078 28.5067 611.325 27.8467 611.325 26.98V26.9C611.325 26.02 611.065 25.3667 610.545 24.94C610.025 24.5133 609.192 24.3 608.045 24.3H605.125V29.64Z" fill="white"/>
<rect x="643.5" y="0.5" width="132" height="47" rx="11.5" stroke="white" stroke-opacity="0.1"/>
<g clip-path="url(#clip5_3291_10579)">
<path d="M677.066 21.6562C677.007 21.6562 676.952 21.67 676.901 21.6974L675.311 22.6162C675.205 22.6757 675.146 22.7854 675.146 22.9088V24.742C675.146 24.8608 675.21 24.9751 675.311 25.0345L675.727 25.2722C675.928 25.3728 676.001 25.3682 676.097 25.3682C676.394 25.3682 676.568 25.1854 676.568 24.87V23.0597C676.568 23.0322 676.545 23.014 676.522 23.014H676.321C676.293 23.014 676.275 23.0322 676.275 23.0597V24.87C676.275 25.0117 676.129 25.1488 675.891 25.03L675.457 24.7785C675.457 24.7785 675.429 24.7557 675.429 24.7374V22.9042C675.429 22.9042 675.443 22.8677 675.457 22.8585L677.043 21.9442C677.043 21.9442 677.075 21.9351 677.089 21.9442L678.675 22.8585C678.675 22.8585 678.703 22.886 678.703 22.9042V24.7374C678.703 24.7374 678.693 24.774 678.68 24.7831L677.089 25.6974C677.089 25.6974 677.057 25.7065 677.043 25.6974L676.636 25.4551C676.636 25.4551 676.609 25.4505 676.595 25.4551C676.481 25.5191 676.463 25.5282 676.357 25.5648C676.33 25.574 676.293 25.5877 676.371 25.6334L676.906 25.9488C676.956 25.9762 677.016 25.9945 677.071 25.9945C677.13 25.9945 677.185 25.9808 677.235 25.9488L678.826 25.0345C678.931 24.9751 678.991 24.8654 678.991 24.742V22.9088C678.991 22.79 678.927 22.6757 678.826 22.6162L677.235 21.6974C677.185 21.67 677.13 21.6562 677.071 21.6562H677.066Z" fill="#83CD29"/>
<path d="M677.491 22.9681C677.039 22.9681 676.769 23.1601 676.769 23.4801C676.769 23.8276 677.039 23.9236 677.473 23.9647C677.994 24.015 678.035 24.0927 678.035 24.1933C678.035 24.3716 677.894 24.4447 677.56 24.4447C677.139 24.4447 677.048 24.3396 677.016 24.1293C677.016 24.1064 676.993 24.0881 676.97 24.0881H676.764C676.737 24.0881 676.719 24.111 676.719 24.1338C676.719 24.4036 676.865 24.719 677.56 24.719C678.063 24.719 678.355 24.5224 678.355 24.175C678.355 23.8276 678.122 23.7407 677.633 23.6767C677.139 23.6127 677.094 23.5807 677.094 23.4618C677.094 23.3658 677.135 23.2378 677.5 23.2378C677.825 23.2378 677.948 23.3064 677.999 23.5304C677.999 23.5533 678.022 23.567 678.044 23.567H678.25C678.25 23.567 678.273 23.5578 678.282 23.5487C678.291 23.5396 678.296 23.5258 678.296 23.5167C678.264 23.1373 678.012 22.959 677.5 22.959L677.491 22.9681Z" fill="#83CD29"/>
<path d="M667.708 19.2461C667.708 19.2461 667.672 19.2507 667.658 19.2598C667.626 19.2781 667.608 19.3101 667.608 19.3467V21.9295C667.608 21.957 667.594 21.9798 667.576 21.989C667.553 22.0027 667.525 22.0027 667.502 21.989L667.082 21.7467C667.018 21.7101 666.94 21.7101 666.881 21.7467L665.194 22.7204C665.13 22.757 665.093 22.8255 665.093 22.8987V24.8461C665.093 24.9192 665.13 24.9832 665.194 25.0198L666.881 25.9935C666.945 26.0301 667.022 26.0301 667.082 25.9935L668.769 25.0198C668.833 24.9832 668.869 24.9147 668.869 24.8461V19.9958C668.869 19.9227 668.828 19.8541 668.764 19.8175L667.758 19.2552C667.758 19.2552 667.726 19.2461 667.708 19.2461ZM656.86 21.6781C656.828 21.6781 656.796 21.6872 656.769 21.701L655.086 22.6747C655.022 22.7112 654.986 22.7798 654.986 22.8484V25.4587C654.986 25.4952 655.009 25.5272 655.041 25.5455C655.073 25.5638 655.109 25.5638 655.141 25.5455L656.142 24.9695C656.206 24.933 656.248 24.8644 656.248 24.7958V23.5752C656.248 23.5021 656.284 23.4335 656.348 23.4015L656.773 23.1547C656.805 23.1364 656.837 23.1272 656.874 23.1272C656.91 23.1272 656.942 23.1364 656.974 23.1547L657.4 23.4015C657.464 23.4381 657.5 23.5067 657.5 23.5752V24.7958C657.5 24.869 657.541 24.933 657.605 24.9695L658.606 25.5455C658.638 25.5638 658.675 25.5638 658.707 25.5455C658.739 25.5272 658.757 25.4952 658.757 25.4587V22.8484C658.757 22.7752 658.721 22.7067 658.661 22.6747L656.974 21.701C656.947 21.6827 656.915 21.6781 656.883 21.6781H656.865H656.86ZM672.014 21.701C671.978 21.701 671.946 21.7101 671.914 21.7284L670.227 22.7021C670.163 22.7387 670.126 22.8072 670.126 22.8758V24.8232C670.126 24.8964 670.168 24.965 670.232 24.997L671.905 25.9478C671.969 25.9844 672.042 25.9844 672.106 25.9478L673.121 25.3855C673.153 25.3672 673.176 25.3352 673.176 25.2987C673.176 25.2621 673.157 25.2301 673.125 25.2118L671.429 24.2381C671.397 24.2198 671.374 24.1832 671.374 24.1467V23.5387C671.374 23.5021 671.397 23.4701 671.429 23.4518L671.955 23.1455C671.987 23.1272 672.024 23.1272 672.056 23.1455L672.581 23.4518C672.613 23.4701 672.632 23.5021 672.632 23.5387V24.0187C672.632 24.0552 672.65 24.0872 672.682 24.1055C672.714 24.1238 672.75 24.1238 672.782 24.1055L673.793 23.5158C673.857 23.4792 673.893 23.4107 673.893 23.3421V22.8712C673.893 22.7981 673.857 22.7341 673.793 22.6975L672.115 21.7238C672.083 21.7055 672.051 21.6964 672.014 21.6964V21.701ZM666.972 23.1547C666.972 23.1547 666.99 23.1547 667 23.1592L667.576 23.493C667.576 23.493 667.603 23.5204 667.603 23.5387V24.2061C667.603 24.2061 667.594 24.2427 667.576 24.2518L667 24.5855C667 24.5855 666.963 24.5947 666.949 24.5855L666.373 24.2518C666.373 24.2518 666.346 24.2244 666.346 24.2061V23.5387C666.346 23.5387 666.355 23.5021 666.373 23.493L666.949 23.1592C666.949 23.1592 666.963 23.1547 666.972 23.1547Z" fill="#404137"/>
<path d="M661.925 21.6914C661.889 21.6914 661.857 21.7005 661.825 21.7188L660.138 22.688C660.074 22.7245 660.037 22.7931 660.037 22.8663V24.8137C660.037 24.8868 660.074 24.9508 660.138 24.9874L661.825 25.9611C661.889 25.9977 661.966 25.9977 662.026 25.9611L663.713 24.9874C663.777 24.9508 663.813 24.8823 663.813 24.8137V22.8663C663.813 22.7931 663.777 22.7245 663.713 22.688L662.026 21.7188C661.994 21.7005 661.962 21.6914 661.925 21.6914ZM672.01 23.4285C672.01 23.4285 671.996 23.4285 671.992 23.4285L671.667 23.616C671.667 23.616 671.649 23.6343 671.649 23.648V24.0183C671.649 24.0183 671.658 24.0457 671.667 24.0503L671.992 24.2377C671.992 24.2377 672.014 24.2468 672.028 24.2377L672.353 24.0503C672.353 24.0503 672.371 24.032 672.371 24.0183V23.648C672.371 23.648 672.362 23.6205 672.353 23.616L672.028 23.4285C672.028 23.4285 672.019 23.4285 672.01 23.4285Z" fill="#83CD29"/>
</g>
<path d="M688.8 31V16.7H691.06L698.02 28.52V16.7H699.68V31H697.68L690.46 18.74V31H688.8ZM707.493 31.18C706.506 31.18 705.626 30.9533 704.853 30.5C704.079 30.0333 703.473 29.4 703.033 28.6C702.593 27.7867 702.373 26.8733 702.373 25.86V25.7C702.373 24.6467 702.593 23.72 703.033 22.92C703.486 22.12 704.099 21.4933 704.873 21.04C705.646 20.5867 706.526 20.36 707.513 20.36C708.499 20.36 709.379 20.5867 710.153 21.04C710.926 21.4933 711.533 22.12 711.973 22.92C712.426 23.7067 712.653 24.6267 712.653 25.68V25.84C712.653 26.8933 712.426 27.82 711.973 28.62C711.533 29.42 710.926 30.0467 710.153 30.5C709.379 30.9533 708.493 31.18 707.493 31.18ZM707.513 29.8C708.566 29.8 709.399 29.44 710.013 28.72C710.626 27.9867 710.933 27.0333 710.933 25.86V25.72C710.933 24.5067 710.619 23.54 709.993 22.82C709.379 22.1 708.553 21.74 707.513 21.74C706.459 21.74 705.626 22.1 705.013 22.82C704.399 23.54 704.093 24.5 704.093 25.7V25.86C704.093 27.0467 704.399 28 705.013 28.72C705.626 29.44 706.459 29.8 707.513 29.8ZM719.163 31.18C718.256 31.18 717.443 30.9733 716.723 30.56C716.016 30.1467 715.456 29.5533 715.043 28.78C714.643 27.9933 714.443 27.06 714.443 25.98V25.82C714.443 24.7533 714.65 23.8133 715.063 23C715.476 22.1733 716.05 21.5267 716.783 21.06C717.516 20.5933 718.363 20.36 719.323 20.36C720.19 20.36 720.903 20.5467 721.463 20.92C722.023 21.28 722.45 21.7133 722.743 22.22V15.54H724.403V31H722.743V29.2C722.543 29.5333 722.256 29.8533 721.883 30.16C721.523 30.4667 721.103 30.7133 720.623 30.9C720.156 31.0867 719.67 31.18 719.163 31.18ZM719.343 29.8C719.996 29.8 720.583 29.66 721.103 29.38C721.623 29.0867 722.036 28.6467 722.343 28.06C722.65 27.4733 722.803 26.7333 722.803 25.84V25.68C722.803 24.3333 722.503 23.34 721.903 22.7C721.316 22.06 720.51 21.74 719.483 21.74C718.443 21.74 717.63 22.0933 717.043 22.8C716.456 23.4933 716.163 24.4733 716.163 25.74V25.9C716.163 26.78 716.303 27.5067 716.583 28.08C716.876 28.6533 717.263 29.0867 717.743 29.38C718.223 29.66 718.756 29.8 719.343 29.8ZM732.042 31.18C731.055 31.18 730.182 30.9667 729.422 30.54C728.662 30.1 728.062 29.48 727.622 28.68C727.195 27.88 726.982 26.9467 726.982 25.88V25.72C726.982 24.6667 727.189 23.74 727.602 22.94C728.015 22.1267 728.589 21.4933 729.322 21.04C730.069 20.5867 730.922 20.36 731.882 20.36C732.695 20.36 733.455 20.5333 734.162 20.88C734.882 21.2267 735.462 21.78 735.902 22.54C736.355 23.3 736.582 24.3067 736.582 25.56V26.1H728.702C728.742 27.2867 729.042 28.2 729.602 28.84C730.175 29.48 730.995 29.8 732.062 29.8C733.702 29.8 734.629 29.1933 734.842 27.98H736.502C736.329 29.0333 735.835 29.8333 735.022 30.38C734.222 30.9133 733.229 31.18 732.042 31.18ZM728.762 24.76H734.882C734.802 23.68 734.495 22.9067 733.962 22.44C733.442 21.9733 732.749 21.74 731.882 21.74C731.029 21.74 730.329 22.0133 729.782 22.56C729.249 23.0933 728.909 23.8267 728.762 24.76ZM745.502 31.18C744.969 31.18 744.549 31.14 744.242 31.06C743.936 30.98 743.689 30.8933 743.502 30.8V29.36C743.769 29.4667 744.042 29.56 744.322 29.64C744.616 29.72 744.976 29.76 745.402 29.76C746.109 29.76 746.669 29.5467 747.082 29.12C747.509 28.6933 747.722 28 747.722 27.04V16.7H749.462V27.12C749.462 28.0667 749.282 28.84 748.922 29.44C748.562 30.04 748.082 30.48 747.482 30.76C746.896 31.04 746.236 31.18 745.502 31.18ZM757.561 31.18C756.281 31.18 755.254 30.9733 754.481 30.56C753.721 30.1333 753.154 29.58 752.781 28.9C752.421 28.2067 752.194 27.4533 752.101 26.64H753.781C753.861 27.2 754.007 27.72 754.221 28.2C754.447 28.68 754.821 29.0667 755.341 29.36C755.861 29.64 756.601 29.78 757.561 29.78C758.174 29.78 758.727 29.6667 759.221 29.44C759.714 29.2133 760.101 28.9 760.381 28.5C760.674 28.0867 760.821 27.6133 760.821 27.08C760.821 26.5333 760.721 26.0867 760.521 25.74C760.321 25.3933 759.967 25.1133 759.461 24.9C758.967 24.6733 758.267 24.4867 757.361 24.34C756.361 24.18 755.501 23.96 754.781 23.68C754.074 23.3867 753.527 22.98 753.141 22.46C752.767 21.9267 752.581 21.24 752.581 20.4C752.581 19.6667 752.774 19.0067 753.161 18.42C753.561 17.8333 754.107 17.3733 754.801 17.04C755.494 16.6933 756.287 16.52 757.181 16.52C758.607 16.52 759.747 16.86 760.601 17.54C761.467 18.22 761.967 19.1933 762.101 20.46H760.541C760.367 19.5533 760.007 18.9067 759.461 18.52C758.927 18.12 758.167 17.92 757.181 17.92C756.207 17.92 755.467 18.14 754.961 18.58C754.454 19.02 754.201 19.5733 754.201 20.24C754.201 20.7067 754.281 21.1067 754.441 21.44C754.614 21.76 754.947 22.0333 755.441 22.26C755.934 22.4733 756.667 22.6533 757.641 22.8C758.707 22.96 759.601 23.1933 760.321 23.5C761.041 23.8067 761.581 24.2333 761.941 24.78C762.314 25.3267 762.501 26.0533 762.501 26.96C762.501 27.76 762.287 28.48 761.861 29.12C761.434 29.7467 760.847 30.2467 760.101 30.62C759.354 30.9933 758.507 31.18 757.561 31.18Z" fill="white"/>
<rect x="792.5" y="0.5" width="132" height="47" rx="11.5" stroke="white" stroke-opacity="0.1"/>
<g clip-path="url(#clip6_3291_10579)">
<path fill-rule="evenodd" clip-rule="evenodd" d="M824.182 15.291L824.69 15.9584C824.822 16.1321 824.79 16.3881 824.612 16.5207L824.077 16.9276C824.173 17.1881 824.237 17.4624 824.265 17.7459L824.877 17.8281C825.097 17.8556 825.248 18.0613 825.22 18.2807L825.106 19.1127C825.078 19.3321 824.873 19.4876 824.653 19.4556L823.986 19.3641C823.867 19.6247 823.716 19.8624 823.533 20.0773L823.908 20.571C824.041 20.7447 824.004 21.0007 823.83 21.1333L823.163 21.6407C822.989 21.7733 822.733 21.7367 822.601 21.563L822.194 21.0281C821.933 21.1241 821.659 21.1881 821.371 21.2156L821.289 21.8281C821.261 22.0476 821.056 22.1984 820.836 22.171L820.004 22.0567C819.785 22.0293 819.634 21.8236 819.661 21.6041L819.753 20.9367C819.497 20.8179 819.254 20.667 819.04 20.4887L818.546 20.8636C818.372 20.9961 818.116 20.9641 817.984 20.7859L817.476 20.1184C817.344 19.9447 817.376 19.6887 817.554 19.5561L818.089 19.1493C817.993 18.8887 817.929 18.6144 817.901 18.331L817.289 18.2487C817.069 18.2213 816.914 18.0156 816.946 17.7961L817.06 16.9641C817.092 16.7447 817.293 16.5939 817.513 16.6213L818.18 16.7127C818.299 16.4567 818.45 16.2144 818.628 15.9996L818.253 15.5059C818.121 15.3321 818.153 15.0807 818.331 14.9481L818.998 14.4407C819.172 14.3081 819.428 14.3401 819.561 14.5184L819.968 15.0533C820.228 14.9573 820.502 14.8933 820.786 14.8659L820.868 14.2533C820.896 14.0339 821.101 13.8784 821.321 13.9104L822.153 14.0247C822.372 14.0521 822.528 14.2579 822.496 14.4773L822.404 15.1447C822.665 15.2636 822.902 15.4144 823.117 15.5973L823.611 15.2224C823.785 15.0899 824.041 15.1219 824.173 15.2956L824.182 15.291ZM809.901 27.0121V23.7893H811.561C811.872 23.7893 812.105 23.8167 812.265 23.8716C812.425 23.9264 812.562 24.0224 812.658 24.1641C812.758 24.3104 812.809 24.4841 812.809 24.6899C812.809 24.8681 812.768 25.0236 812.694 25.1516C812.617 25.2841 812.512 25.3893 812.379 25.467C812.297 25.5173 812.178 25.563 812.032 25.595C812.15 25.6361 812.237 25.6727 812.288 25.7139C812.324 25.7413 812.379 25.7961 812.448 25.883C812.516 25.9699 812.562 26.0384 812.585 26.0841L813.069 27.0167H811.945L811.414 26.0339C811.346 25.9059 811.286 25.8236 811.236 25.787C811.163 25.7367 811.081 25.7139 810.994 25.7139H810.907V27.0167H809.906L809.901 27.0121ZM813.412 32.6213H811.552L811.282 33.4944H809.604L811.602 28.1824H813.398L815.387 33.4944H813.668L813.403 32.6213H813.412ZM813.065 31.4739L812.484 29.563L811.904 31.4739H813.065ZM815.785 28.187H818.514C819.108 28.187 819.556 28.3287 819.849 28.6121C820.146 28.8956 820.292 29.2979 820.292 29.819C820.292 30.3401 820.132 30.7744 819.808 31.0807C819.488 31.3824 818.989 31.5333 818.331 31.5333H817.43V33.499H815.785V28.187ZM817.43 30.4544H817.833C818.153 30.4544 818.377 30.3996 818.505 30.2899C818.633 30.1801 818.697 30.0384 818.697 29.8693C818.697 29.7001 818.642 29.5584 818.528 29.4441C818.413 29.3299 818.208 29.2704 817.897 29.2704H817.426V30.4544H817.43ZM820.955 28.187H822.601V33.499H820.955V28.187ZM810.902 25.0967H811.323C811.369 25.0967 811.456 25.083 811.588 25.051C811.657 25.0373 811.707 25.0053 811.748 24.9504C811.789 24.8956 811.812 24.8316 811.812 24.763C811.812 24.6579 811.78 24.5756 811.712 24.5207C811.643 24.4659 811.524 24.4384 811.341 24.4384H810.902V25.0967ZM813.261 23.7893H815.926V24.475H814.262V24.987H815.808V25.6453H814.262V26.2807H815.977V27.0076H813.261V23.7847V23.7893ZM816.214 25.9424L817.161 25.883C817.179 26.0384 817.225 26.1527 817.284 26.2304C817.389 26.3584 817.536 26.427 817.723 26.427C817.865 26.427 817.974 26.395 818.052 26.3264C818.13 26.2579 818.166 26.1801 818.166 26.0933C818.166 26.0064 818.13 25.9333 818.057 25.8693C817.984 25.8007 817.814 25.7413 817.545 25.6819C817.11 25.5859 816.8 25.4533 816.612 25.2933C816.425 25.1333 816.329 24.923 816.329 24.6716C816.329 24.507 816.379 24.3516 816.475 24.2007C816.571 24.0499 816.717 23.9356 816.909 23.8533C817.101 23.771 817.366 23.7299 817.7 23.7299C818.112 23.7299 818.427 23.8076 818.642 23.9584C818.857 24.1139 818.985 24.3561 819.026 24.6899L818.089 24.7447C818.061 24.5984 818.011 24.4887 817.933 24.4247C817.851 24.3561 817.741 24.3241 817.604 24.3241C817.49 24.3241 817.403 24.3516 817.344 24.3973C817.284 24.4476 817.257 24.507 817.257 24.5756C817.257 24.6259 817.284 24.6716 817.33 24.7127C817.376 24.7539 817.485 24.795 817.664 24.8316C818.098 24.9276 818.413 25.019 818.601 25.115C818.788 25.211 818.925 25.3299 819.012 25.4716C819.099 25.6133 819.14 25.7733 819.14 25.947C819.14 26.1527 819.085 26.3447 818.966 26.5184C818.852 26.6921 818.692 26.8247 818.486 26.9161C818.281 27.0076 818.025 27.0487 817.709 27.0487C817.161 27.0487 816.781 26.9436 816.571 26.7333C816.361 26.5184 816.242 26.2487 816.21 25.9287L816.214 25.9424ZM819.282 23.7893H822.313V24.5847H821.298V27.0121H820.301V24.5847H819.282V23.7893ZM815.931 16.1413C815.574 16.1139 815.213 16.1184 814.857 16.155C813.755 16.2601 812.69 16.6624 811.808 17.3481C810.788 18.139 810.011 19.323 809.714 20.891L809.618 21.3801L809.129 21.467C808.649 21.5493 808.224 21.6681 807.849 21.8144C807.488 21.9561 807.163 22.1299 806.88 22.3356C806.651 22.5001 806.459 22.683 806.29 22.8841C805.778 23.5013 805.54 24.2693 805.545 25.051C805.549 25.8419 805.81 26.6464 806.285 27.3047C806.464 27.547 806.669 27.7756 806.902 27.9676C807.14 28.1641 807.41 28.3287 807.707 28.4521C807.876 28.5207 808.059 28.5801 808.246 28.6259V30.0887C807.858 30.0201 807.497 29.915 807.158 29.7733C806.715 29.5904 806.322 29.3527 805.979 29.0647C805.65 28.7904 805.362 28.4796 805.12 28.1413C804.47 27.2407 804.118 26.1436 804.109 25.051C804.1 23.9447 804.443 22.8476 805.188 21.9561C805.43 21.6681 805.714 21.403 806.034 21.1653C806.409 20.891 806.843 20.6624 807.332 20.4704C807.666 20.3379 808.027 20.2281 808.406 20.1413C808.836 18.4361 809.75 17.1196 810.93 16.2053C812.032 15.3504 813.357 14.8521 814.724 14.7241C815.442 14.6556 816.169 14.6876 816.877 14.8201C816.864 14.8841 816.85 14.9481 816.841 15.0167V15.0304C816.827 15.1401 816.818 15.2544 816.827 15.3641C816.676 15.4236 816.534 15.5013 816.411 15.6019H816.406C816.219 15.7481 816.059 15.931 815.936 16.1413H815.931ZM826.262 19.8899C826.372 19.9904 826.477 20.091 826.582 20.2053C826.793 20.4293 826.989 20.6853 827.172 20.9687C827.798 21.9287 828.118 23.2133 828.105 24.4704C828.091 25.7047 827.757 26.9299 827.081 27.8304C826.637 28.4201 826.07 28.9001 825.389 29.2796C824.923 29.5401 824.397 29.7596 823.826 29.9333V28.4201C824.137 28.3059 824.42 28.1779 824.685 28.0316C825.197 27.7436 825.618 27.3961 825.933 26.9756C826.422 26.3264 826.66 25.403 826.674 24.4613C826.688 23.4693 826.445 22.4773 825.974 21.755C825.842 21.5447 825.691 21.3573 825.536 21.1927C825.476 21.1287 825.417 21.0693 825.353 21.0099C825.362 20.9139 825.366 20.8133 825.362 20.7127C825.513 20.6533 825.654 20.5756 825.778 20.475H825.782C825.984 20.315 826.153 20.123 826.272 19.899L826.262 19.8899ZM821.312 16.4019C822.212 16.5253 822.843 17.3573 822.72 18.2533C822.596 19.1539 821.764 19.7847 820.868 19.6613C819.968 19.5379 819.337 18.7059 819.46 17.8099C819.584 16.9093 820.416 16.2784 821.312 16.4019Z" fill="white"/>
</g>
<path d="M837.8 31V16.7H842.1C843.02 16.7 843.853 16.8333 844.6 17.1C845.36 17.3667 845.967 17.7933 846.42 18.38C846.873 18.9533 847.1 19.72 847.1 20.68V20.76C847.1 21.5467 846.94 22.2067 846.62 22.74C846.3 23.2733 845.873 23.6933 845.34 24C844.807 24.3067 844.213 24.5267 843.56 24.66L847.94 31H846L841.74 24.78H839.54V31H837.8ZM839.54 23.4H842.22C843.247 23.4 844.027 23.18 844.56 22.74C845.093 22.3 845.36 21.64 845.36 20.76V20.68C845.36 19.7067 845.08 19.0333 844.52 18.66C843.96 18.2867 843.193 18.1 842.22 18.1H839.54V23.4ZM854.226 31.18C853.239 31.18 852.366 30.9667 851.606 30.54C850.846 30.1 850.246 29.48 849.806 28.68C849.379 27.88 849.166 26.9467 849.166 25.88V25.72C849.166 24.6667 849.372 23.74 849.786 22.94C850.199 22.1267 850.772 21.4933 851.506 21.04C852.252 20.5867 853.106 20.36 854.066 20.36C854.879 20.36 855.639 20.5333 856.346 20.88C857.066 21.2267 857.646 21.78 858.086 22.54C858.539 23.3 858.766 24.3067 858.766 25.56V26.1H850.886C850.926 27.2867 851.226 28.2 851.786 28.84C852.359 29.48 853.179 29.8 854.246 29.8C855.886 29.8 856.812 29.1933 857.026 27.98H858.686C858.512 29.0333 858.019 29.8333 857.206 30.38C856.406 30.9133 855.412 31.18 854.226 31.18ZM850.946 24.76H857.066C856.986 23.68 856.679 22.9067 856.146 22.44C855.626 21.9733 854.932 21.74 854.066 21.74C853.212 21.74 852.512 22.0133 851.966 22.56C851.432 23.0933 851.092 23.8267 850.946 24.76ZM864.65 31.18C863.397 31.18 862.41 30.88 861.69 30.28C860.984 29.68 860.604 28.8467 860.55 27.78H862.17C862.237 28.3933 862.45 28.8867 862.81 29.26C863.184 29.62 863.79 29.8 864.63 29.8C865.417 29.8 865.99 29.6667 866.35 29.4C866.724 29.12 866.91 28.7 866.91 28.14C866.91 27.5933 866.704 27.2 866.29 26.96C865.89 26.72 865.284 26.5267 864.47 26.38C863.564 26.2067 862.844 26 862.31 25.76C861.777 25.5067 861.397 25.1867 861.17 24.8C860.944 24.4 860.83 23.9 860.83 23.3C860.83 22.6467 861.01 22.1067 861.37 21.68C861.73 21.24 862.184 20.9133 862.73 20.7C863.277 20.4733 863.824 20.36 864.37 20.36C864.997 20.36 865.577 20.4533 866.11 20.64C866.657 20.8267 867.11 21.14 867.47 21.58C867.83 22.02 868.057 22.62 868.15 23.38H866.55C866.43 22.8067 866.197 22.3933 865.85 22.14C865.517 21.8733 865.017 21.74 864.35 21.74C863.75 21.74 863.27 21.88 862.91 22.16C862.55 22.4267 862.37 22.7867 862.37 23.24C862.37 23.7067 862.537 24.06 862.87 24.3C863.204 24.5267 863.85 24.7267 864.81 24.9C865.53 25.0333 866.164 25.2 866.71 25.4C867.27 25.6 867.704 25.9 868.01 26.3C868.33 26.6867 868.49 27.2533 868.49 28C868.49 28.9467 868.164 29.7133 867.51 30.3C866.87 30.8867 865.917 31.18 864.65 31.18ZM874.2 31.14C873.253 31.14 872.547 30.8867 872.08 30.38C871.613 29.86 871.38 29.1933 871.38 28.38V21.94H869.88V20.54H871.38V18.16H873.04V20.54H875.48V21.94H873.04V28.22C873.04 29.2333 873.473 29.74 874.34 29.74C874.607 29.74 874.84 29.72 875.04 29.68C875.253 29.64 875.447 29.5867 875.62 29.52V30.92C875.447 30.9733 875.253 31.02 875.04 31.06C874.827 31.1133 874.547 31.14 874.2 31.14ZM882.462 31L887.382 16.7H889.662L894.502 31H892.782L891.382 26.88H885.482L884.102 31H882.462ZM888.442 18.14L885.962 25.5H890.922L888.442 18.14ZM897.019 31V16.7H901.079C901.999 16.7 902.832 16.84 903.579 17.12C904.339 17.4 904.945 17.8467 905.399 18.46C905.852 19.0733 906.079 19.88 906.079 20.88V20.96C906.079 21.9733 905.852 22.7933 905.399 23.42C904.945 24.0333 904.339 24.48 903.579 24.76C902.819 25.04 901.985 25.18 901.079 25.18H898.759V31H897.019ZM898.759 23.8H901.199C902.225 23.8 903.005 23.56 903.539 23.08C904.072 22.5867 904.339 21.88 904.339 20.96V20.88C904.339 19.8667 904.059 19.1533 903.499 18.74C902.939 18.3133 902.172 18.1 901.199 18.1H898.759V23.8ZM908.74 31V16.7H910.48V31H908.74Z" fill="white"/>
<rect x="941.5" y="0.5" width="138" height="47" rx="11.5" stroke="white" stroke-opacity="0.1"/>
<g clip-path="url(#clip7_3291_10579)">
<path d="M958.815 11.9824H971.167C974.344 11.9916 976.853 14.387 976.986 17.5596V18.643L976.995 35.0864L977.004 35.9916H958.522C955.464 35.8041 953.269 33.5641 953 30.5333V17.4407C953.205 14.323 955.679 11.9779 958.815 11.9824ZM967.34 16.3847C966.787 15.7676 966.097 15.347 965.26 15.123C962.879 14.483 960.552 15.7447 959.701 18.0487C959.692 18.0761 959.669 18.0944 959.637 18.1036C957.877 18.5424 956.588 19.7996 956.191 21.555C955.875 22.9401 956.191 24.2567 957.146 25.5047C957.201 25.5733 957.219 25.6693 957.196 25.7561C956.767 27.1779 957.091 28.6499 958.001 29.8201C959.075 31.2007 960.579 31.763 962.508 31.5116C962.54 31.5116 962.568 31.5161 962.591 31.539C964.867 33.9481 969.1 33.2579 970.216 30.003C970.248 29.9161 970.316 29.8521 970.403 29.8247C973.74 28.851 974.993 25.1893 972.789 22.4236C972.744 22.3687 972.73 22.2956 972.753 22.2316C973.237 20.4761 972.762 18.7527 971.436 17.5459C970.394 16.5996 969.082 16.2293 967.5 16.4396C967.441 16.4487 967.386 16.4259 967.345 16.3801L967.34 16.3847Z" fill="#74AA9C"/>
<path d="M967.34 16.3846C967.377 16.4258 967.436 16.4486 967.491 16.4395C969.073 16.2292 970.389 16.5995 971.427 17.5458C972.753 18.7526 973.233 20.4761 972.744 22.2315C972.725 22.2955 972.739 22.3686 972.78 22.4235C974.984 25.1892 973.736 28.8463 970.394 29.8246C970.312 29.8475 970.238 29.9115 970.211 29.9983C969.096 33.2578 964.862 33.9481 962.586 31.5389C962.568 31.5161 962.536 31.5069 962.504 31.5115C960.574 31.7629 959.07 31.2006 957.996 29.8201C957.086 28.6543 956.766 27.1778 957.192 25.7606C957.219 25.6692 957.201 25.5732 957.141 25.5001C956.19 24.2566 955.87 22.9401 956.186 21.5549C956.584 19.7995 957.873 18.5469 959.628 18.1035C959.66 18.0943 959.683 18.0761 959.692 18.0486C960.542 15.7446 962.869 14.4829 965.251 15.1229C966.088 15.3469 966.778 15.7675 967.331 16.3846H967.34ZM962.581 19.0041C963.765 18.3046 964.949 17.6189 966.124 16.9469C966.124 16.9469 966.129 16.9469 966.133 16.9378C966.156 16.9149 966.161 16.8829 966.138 16.8601C966.138 16.8601 966.133 16.8555 966.129 16.8509C964.163 15.4703 961.498 16.1926 960.803 18.5286C960.707 18.8486 960.657 19.3378 960.648 20.0052C960.629 21.1572 960.675 22.3092 960.643 23.4521C960.643 23.4886 960.661 23.5252 960.693 23.5435L962.133 24.3709C962.133 24.3709 962.133 24.3709 962.138 24.3709C962.152 24.3709 962.17 24.3709 962.174 24.3526C962.174 24.3526 962.174 24.3481 962.174 24.3435C962.234 21.8018 962.243 20.2978 962.202 19.8315C962.17 19.4292 962.216 19.2143 962.581 18.9949V19.0041ZM971.72 21.4223C972.072 18.4372 969.064 16.6041 966.494 18.0989C965.429 18.7161 964.35 19.3469 963.258 19.9823C963.23 20.0006 963.212 20.0281 963.212 20.0646V21.7195C963.212 21.7652 963.23 21.7743 963.272 21.7515C964.611 20.9743 965.941 20.2063 967.262 19.4475C967.564 19.2738 967.784 19.2143 968.085 19.3926C969.274 20.0875 970.467 20.7732 971.669 21.4452C971.669 21.4452 971.669 21.4452 971.674 21.4452C971.692 21.4498 971.71 21.4452 971.715 21.4223C971.715 21.4223 971.715 21.4223 971.715 21.4178L971.72 21.4223ZM963.912 26.5743C962.595 25.8018 961.278 25.0429 959.962 24.2886C959.555 24.0601 959.432 23.8818 959.464 23.4201C959.496 22.9949 959.486 21.6692 959.441 19.4521C959.441 19.4521 959.441 19.4521 959.441 19.4475C959.441 19.4292 959.418 19.4201 959.4 19.4246C959.4 19.4246 959.4 19.4246 959.395 19.4246C957.018 20.4578 956.46 23.5343 958.522 25.1983C958.632 25.2898 959.18 25.6189 960.168 26.1903C960.885 26.6063 961.617 27.0269 962.366 27.4521C962.403 27.4703 962.444 27.4703 962.476 27.4521L963.912 26.6201C963.912 26.6201 963.916 26.6201 963.916 26.6155C963.925 26.6018 963.925 26.5835 963.916 26.5743C963.916 26.5743 963.916 26.5743 963.912 26.5698V26.5743ZM971.509 22.8166C971.299 22.6429 970.993 22.4372 970.586 22.2041C969.608 21.6418 968.616 21.0703 967.601 20.4806C967.564 20.4578 967.518 20.4578 967.477 20.4806L966.074 21.2852C966.019 21.3172 966.019 21.3492 966.074 21.3812C967.464 22.1858 968.84 22.9858 970.202 23.7903C970.394 23.9046 970.49 24.0372 970.49 24.1926C970.513 25.6326 970.513 27.0726 970.49 28.5081C970.49 28.5081 970.49 28.5081 970.49 28.5126C970.49 28.5309 970.508 28.5401 970.526 28.5401C970.526 28.5401 970.526 28.5401 970.531 28.5401C972.84 27.5938 973.534 24.4989 971.505 22.8166H971.509ZM966.7 22.9263L965.009 21.9572C964.986 21.9435 964.949 21.9435 964.926 21.9572L963.276 22.9081C963.24 22.9309 963.212 22.9721 963.212 23.0178V24.9332C963.212 24.9652 963.226 24.9926 963.253 25.0063L964.94 25.9846C964.968 25.9983 965 25.9983 965.027 25.9846L966.7 25.0246C966.728 25.0109 966.741 24.9835 966.741 24.9561V23.0041C966.746 22.9721 966.732 22.9446 966.705 22.9263H966.7ZM969.274 24.4075L967.82 23.5663C967.793 23.5481 967.779 23.5572 967.779 23.5892C967.788 25.1983 967.779 26.7892 967.756 28.3526C967.756 28.6086 967.674 28.7961 967.459 28.9195C966.238 29.6235 965.027 30.3138 963.829 31.0041C963.829 31.0041 963.825 31.0041 963.82 31.0086C963.797 31.0269 963.797 31.0635 963.82 31.0863C963.82 31.0863 963.825 31.0909 963.829 31.0955C965.795 32.5355 968.542 31.7126 969.187 29.3172C969.278 28.9835 969.324 28.4761 969.324 27.7995V24.4806C969.324 24.4486 969.306 24.4212 969.283 24.4075H969.274ZM962.147 28.6589C962.074 28.6452 962.001 28.6178 961.937 28.5812L958.298 26.4875C958.298 26.4875 958.298 26.4875 958.293 26.4875C958.275 26.4829 958.257 26.4875 958.252 26.5103C958.252 26.5103 958.252 26.5103 958.252 26.5149C957.923 29.2623 960.689 31.3561 963.221 29.9846C963.683 29.7332 964.849 29.0612 966.728 27.9595C966.75 27.9458 966.769 27.9183 966.769 27.8863L966.755 26.2223C966.755 26.2223 966.755 26.2178 966.755 26.2132C966.755 26.1995 966.737 26.1903 966.723 26.1949C966.723 26.1949 966.718 26.1949 966.714 26.1949C965.329 26.9995 963.948 27.7949 962.568 28.5766C962.43 28.6543 962.293 28.6818 962.156 28.6589H962.147Z" fill="white"/>
<path d="M962.581 19.0027C962.211 19.2221 962.17 19.437 962.202 19.8393C962.238 20.3056 962.229 21.8096 962.174 24.3513C962.174 24.3513 962.174 24.3559 962.174 24.3604C962.174 24.3741 962.156 24.3833 962.138 24.3787H962.133L960.698 23.5513C960.666 23.533 960.643 23.4964 960.648 23.4599C960.68 22.3124 960.634 21.165 960.652 20.013C960.661 19.3501 960.716 18.8564 960.808 18.5364C961.502 16.1959 964.163 15.4781 966.133 16.8541C966.133 16.8541 966.142 16.8587 966.142 16.8633C966.165 16.8861 966.161 16.9227 966.138 16.941C966.138 16.941 966.133 16.9456 966.129 16.9501C964.954 17.6176 963.774 18.3033 962.586 19.0027H962.581Z" fill="#74AA9C"/>
<path d="M966.494 18.0998C969.063 16.6096 972.071 18.4381 971.719 21.4233C971.719 21.4233 971.719 21.4233 971.719 21.4278C971.715 21.4461 971.697 21.4553 971.678 21.4507C971.678 21.4507 971.678 21.4507 971.674 21.4507C970.471 20.7787 969.278 20.093 968.09 19.3981C967.793 19.2244 967.573 19.2793 967.267 19.453C965.941 20.2118 964.611 20.9798 963.276 21.757C963.239 21.7798 963.217 21.7707 963.217 21.725V20.0656C963.217 20.0336 963.235 20.0016 963.262 19.9878C964.355 19.3478 965.434 18.7216 966.499 18.1044L966.494 18.0998Z" fill="#74AA9C"/>
<path d="M976.986 17.5586H977.004V18.6466H976.986V17.5586ZM976.986 18.642H977.004L976.995 35.0855L976.986 18.642Z" fill="#040609" fill-opacity="0.08"/>
<path d="M963.912 26.5755C963.912 26.5755 963.912 26.5755 963.916 26.5755C963.93 26.5892 963.93 26.6075 963.916 26.6166C963.916 26.6166 963.916 26.6166 963.912 26.6212L962.472 27.4532C962.44 27.4715 962.399 27.4715 962.367 27.4532C961.617 27.0281 960.886 26.6075 960.168 26.1915C959.185 25.6201 958.636 25.2909 958.522 25.1995C956.46 23.5355 957.014 20.4589 959.391 19.4258C959.391 19.4258 959.391 19.4258 959.395 19.4258C959.414 19.4258 959.432 19.4349 959.436 19.4486C959.436 19.4486 959.436 19.4486 959.436 19.4532C959.482 21.6704 959.491 22.9915 959.459 23.4166C959.427 23.8784 959.555 24.0566 959.958 24.2852C961.27 25.0349 962.586 25.7984 963.907 26.5709L963.912 26.5755ZM971.51 22.8178C973.539 24.5001 972.849 27.5949 970.536 28.5412C970.536 28.5412 970.531 28.5412 970.527 28.5412C970.508 28.5412 970.495 28.5321 970.49 28.5138C970.49 28.5138 970.49 28.5138 970.49 28.5092C970.513 27.0738 970.513 25.6338 970.49 24.1938C970.49 24.0384 970.39 23.9058 970.202 23.7915C968.84 22.9869 967.464 22.1869 966.074 21.3824C966.019 21.3504 966.019 21.3184 966.074 21.2864L967.478 20.4818C967.514 20.4589 967.564 20.4589 967.601 20.4818C968.616 21.0715 969.608 21.6429 970.586 22.2052C970.993 22.4384 971.299 22.6441 971.51 22.8178ZM966.7 22.9275C966.728 22.9412 966.742 22.9732 966.742 23.0052V24.9572C966.737 24.9846 966.719 25.0121 966.696 25.0304L965.023 25.9904C964.995 26.0041 964.963 26.0041 964.94 25.9904L963.254 25.0121C963.226 24.9984 963.212 24.9709 963.212 24.9389V23.0235C963.212 22.9778 963.235 22.9366 963.276 22.9138L964.927 21.9629C964.954 21.9492 964.986 21.9492 965.014 21.9629L966.705 22.9321L966.7 22.9275Z" fill="#74AA9C"/>
<path d="M969.274 24.4071C969.302 24.4208 969.315 24.4528 969.315 24.4802C969.315 25.5865 969.315 26.6928 969.315 27.7991C969.315 28.4757 969.27 28.9785 969.178 29.3168C968.534 31.7122 965.786 32.5351 963.82 31.0951C963.82 31.0951 963.816 31.0905 963.811 31.086C963.793 31.0631 963.793 31.0311 963.811 31.0082C963.811 31.0082 963.816 31.0037 963.82 31.0037C965.018 30.318 966.23 29.6231 967.45 28.9191C967.665 28.7957 967.743 28.6082 967.747 28.3522C967.77 26.7888 967.779 25.2025 967.77 23.5888C967.77 23.5568 967.784 23.5477 967.811 23.566L969.265 24.4071H969.274Z" fill="#74AA9C"/>
<path d="M962.147 28.6593C962.284 28.6822 962.422 28.6593 962.559 28.577C963.939 27.7907 965.324 26.9953 966.705 26.1953C966.705 26.1953 966.705 26.1953 966.71 26.1953C966.723 26.1953 966.737 26.1999 966.742 26.2136C966.742 26.2136 966.742 26.2182 966.742 26.2227L966.755 27.8867C966.755 27.9187 966.742 27.9416 966.714 27.9599C964.835 29.0616 963.665 29.7336 963.208 29.985C960.68 31.3565 957.91 29.2627 958.239 26.5153C958.239 26.5153 958.239 26.5153 958.239 26.5107C958.243 26.4925 958.262 26.4833 958.28 26.4879C958.28 26.4879 958.28 26.4879 958.284 26.4879L961.923 28.5816C961.992 28.6182 962.06 28.6456 962.134 28.6593H962.147Z" fill="#74AA9C"/>
</g>
<path d="M992.78 31.18C991.407 31.18 990.22 30.8867 989.22 30.3C988.22 29.7 987.447 28.86 986.9 27.78C986.367 26.6867 986.1 25.4067 986.1 23.94V23.78C986.1 22.7133 986.267 21.74 986.6 20.86C986.933 19.9667 987.4 19.1933 988 18.54C988.613 17.8867 989.327 17.38 990.14 17.02C990.953 16.66 991.847 16.48 992.82 16.48C993.82 16.48 994.74 16.6533 995.58 17C996.42 17.3467 997.113 17.8667 997.66 18.56C998.207 19.2533 998.527 20.12 998.62 21.16H996.9C996.727 20.0667 996.313 19.2467 995.66 18.7C995.007 18.14 994.067 17.86 992.84 17.86C991.853 17.86 990.987 18.1 990.24 18.58C989.507 19.06 988.933 19.7467 988.52 20.64C988.107 21.52 987.9 22.56 987.9 23.76V23.92C987.9 25.7333 988.333 27.16 989.2 28.2C990.08 29.24 991.287 29.76 992.82 29.76C993.993 29.76 994.96 29.4667 995.72 28.88C996.493 28.2933 996.967 27.42 997.14 26.26H998.76C998.507 27.9133 997.847 29.1467 996.78 29.96C995.713 30.7733 994.38 31.18 992.78 31.18ZM1001.29 31V15.54H1002.95V22.2C1003.19 21.7067 1003.6 21.28 1004.17 20.92C1004.74 20.5467 1005.46 20.36 1006.31 20.36C1007.03 20.36 1007.66 20.5 1008.21 20.78C1008.77 21.06 1009.2 21.5133 1009.51 22.14C1009.83 22.7533 1009.99 23.5667 1009.99 24.58V31H1008.33V24.46C1008.33 23.54 1008.13 22.8667 1007.73 22.44C1007.33 22.0133 1006.71 21.8 1005.87 21.8C1005.36 21.8 1004.88 21.9067 1004.43 22.12C1003.99 22.3333 1003.63 22.6533 1003.35 23.08C1003.08 23.5067 1002.95 24.0333 1002.95 24.66V31H1001.29ZM1015.86 31.18C1015.22 31.18 1014.64 31.0733 1014.1 30.86C1013.58 30.6467 1013.16 30.3133 1012.84 29.86C1012.54 29.3933 1012.38 28.8067 1012.38 28.1C1012.38 27.5 1012.53 26.9933 1012.82 26.58C1013.12 26.1533 1013.51 25.82 1014 25.58C1014.5 25.3267 1015.06 25.1467 1015.68 25.04C1016.31 24.92 1016.96 24.86 1017.62 24.86H1019.12V24.1C1019.12 23.2733 1018.95 22.6733 1018.6 22.3C1018.26 21.9267 1017.68 21.74 1016.88 21.74C1015.44 21.74 1014.64 22.3667 1014.48 23.62H1012.82C1012.9 22.82 1013.14 22.1867 1013.54 21.72C1013.94 21.24 1014.44 20.8933 1015.04 20.68C1015.66 20.4667 1016.3 20.36 1016.96 20.36C1017.63 20.36 1018.25 20.4733 1018.82 20.7C1019.41 20.9133 1019.88 21.2933 1020.24 21.84C1020.6 22.3733 1020.78 23.1267 1020.78 24.1V31H1019.12V29.68C1018.74 30.1733 1018.29 30.5467 1017.78 30.8C1017.28 31.0533 1016.64 31.18 1015.86 31.18ZM1016.02 29.86C1016.9 29.86 1017.64 29.6467 1018.22 29.22C1018.82 28.78 1019.12 28.1533 1019.12 27.34V26.04H1017.68C1016.99 26.04 1016.36 26.1067 1015.8 26.24C1015.26 26.36 1014.82 26.5733 1014.5 26.88C1014.2 27.1733 1014.04 27.58 1014.04 28.1C1014.04 28.6333 1014.19 29.06 1014.48 29.38C1014.78 29.7 1015.29 29.86 1016.02 29.86ZM1027.22 31.14C1026.28 31.14 1025.57 30.8867 1025.1 30.38C1024.64 29.86 1024.4 29.1933 1024.4 28.38V21.94H1022.9V20.54H1024.4V18.16H1026.06V20.54H1028.5V21.94H1026.06V28.22C1026.06 29.2333 1026.5 29.74 1027.36 29.74C1027.63 29.74 1027.86 29.72 1028.06 29.68C1028.28 29.64 1028.47 29.5867 1028.64 29.52V30.92C1028.47 30.9733 1028.28 31.02 1028.06 31.06C1027.85 31.1133 1027.57 31.14 1027.22 31.14ZM1037.49 31.18C1036.03 31.18 1034.77 30.8667 1033.73 30.24C1032.71 29.6133 1031.92 28.76 1031.37 27.68C1030.84 26.5867 1030.57 25.34 1030.57 23.94V23.78C1030.57 22.74 1030.74 21.78 1031.07 20.9C1031.41 20.0067 1031.88 19.2333 1032.49 18.58C1033.11 17.9133 1033.83 17.4 1034.67 17.04C1035.53 16.6667 1036.47 16.48 1037.49 16.48C1038.44 16.48 1039.33 16.6333 1040.15 16.94C1040.98 17.2467 1041.67 17.7333 1042.23 18.4C1042.81 19.0667 1043.17 19.94 1043.31 21.02H1041.57C1041.37 19.8733 1040.91 19.06 1040.17 18.58C1039.45 18.1 1038.57 17.86 1037.53 17.86C1036.44 17.86 1035.51 18.1133 1034.73 18.62C1033.97 19.1133 1033.39 19.8 1032.97 20.68C1032.57 21.56 1032.37 22.5867 1032.37 23.76V23.92C1032.37 25.0933 1032.57 26.12 1032.95 27C1033.34 27.88 1033.91 28.5667 1034.67 29.06C1035.43 29.54 1036.37 29.78 1037.49 29.78C1038.53 29.78 1039.38 29.58 1040.03 29.18C1040.69 28.7667 1041.17 28.2133 1041.49 27.52C1041.81 26.8267 1041.98 26.06 1041.99 25.22H1037.81V23.78H1043.69V24.84C1043.69 26.2133 1043.43 27.3733 1042.89 28.32C1042.37 29.2667 1041.65 29.98 1040.71 30.46C1039.79 30.94 1038.72 31.18 1037.49 31.18ZM1046.6 31V16.7H1050.66C1051.58 16.7 1052.42 16.84 1053.16 17.12C1053.92 17.4 1054.53 17.8467 1054.98 18.46C1055.44 19.0733 1055.66 19.88 1055.66 20.88V20.96C1055.66 21.9733 1055.44 22.7933 1054.98 23.42C1054.53 24.0333 1053.92 24.48 1053.16 24.76C1052.4 25.04 1051.57 25.18 1050.66 25.18H1048.34V31H1046.6ZM1048.34 23.8H1050.78C1051.81 23.8 1052.59 23.56 1053.12 23.08C1053.66 22.5867 1053.92 21.88 1053.92 20.96V20.88C1053.92 19.8667 1053.64 19.1533 1053.08 18.74C1052.52 18.3133 1051.76 18.1 1050.78 18.1H1048.34V23.8ZM1061.17 31V18.12H1057.01V16.7H1067.07V18.12H1062.91V31H1061.17Z" fill="white"/>
<defs>
<linearGradient id="paint0_linear_3291_10579" x1="251.274" y1="25.7465" x2="262.415" y2="25.7465" gradientUnits="userSpaceOnUse">
<stop offset="0.26" stop-color="#F97A12"/>
<stop offset="0.46" stop-color="#B07B58"/>
<stop offset="0.72" stop-color="#577BAE"/>
<stop offset="0.91" stop-color="#1E7CE5"/>
<stop offset="1" stop-color="#087CFA"/>
</linearGradient>
<linearGradient id="paint1_linear_3291_10579" x1="259.832" y1="20.5389" x2="278.228" y2="30.7149" gradientUnits="userSpaceOnUse">
<stop stop-color="#F97A12"/>
<stop offset="0.07" stop-color="#CB7A3E"/>
<stop offset="0.15" stop-color="#9E7B6A"/>
<stop offset="0.24" stop-color="#757B91"/>
<stop offset="0.33" stop-color="#537BB1"/>
<stop offset="0.43" stop-color="#387CCC"/>
<stop offset="0.54" stop-color="#237CE0"/>
<stop offset="0.66" stop-color="#147CEF"/>
<stop offset="0.79" stop-color="#0B7CF7"/>
<stop offset="1" stop-color="#087CFA"/>
</linearGradient>
<linearGradient id="paint2_linear_3291_10579" x1="272.682" y1="26.7103" x2="267.558" y2="11.4098" gradientUnits="userSpaceOnUse">
<stop stop-color="#FE315D"/>
<stop offset="0.08" stop-color="#CB417E"/>
<stop offset="0.16" stop-color="#9E4E9B"/>
<stop offset="0.25" stop-color="#755BB4"/>
<stop offset="0.34" stop-color="#5365CA"/>
<stop offset="0.44" stop-color="#386DDB"/>
<stop offset="0.54" stop-color="#2374E9"/>
<stop offset="0.66" stop-color="#1478F3"/>
<stop offset="0.79" stop-color="#0B7BF8"/>
<stop offset="1" stop-color="#087CFA"/>
</linearGradient>
<linearGradient id="paint3_linear_3291_10579" x1="254.666" y1="17.6549" x2="270.026" y2="43.0629" gradientUnits="userSpaceOnUse">
<stop stop-color="#FE315D"/>
<stop offset="0.04" stop-color="#F63462"/>
<stop offset="0.1" stop-color="#DF3A71"/>
<stop offset="0.17" stop-color="#C24383"/>
<stop offset="0.29" stop-color="#AD4A91"/>
<stop offset="0.55" stop-color="#755BB4"/>
<stop offset="0.92" stop-color="#1D76ED"/>
<stop offset="1" stop-color="#087CFA"/>
</linearGradient>
<clipPath id="clip0_3291_10579">
<rect width="24" height="24" fill="white" transform="translate(12 12)"/>
</clipPath>
<clipPath id="clip1_3291_10579">
<rect width="24" height="24" fill="white" transform="translate(138 12)"/>
</clipPath>
<clipPath id="clip2_3291_10579">
<rect width="24" height="24" fill="white" transform="translate(251 12)"/>
</clipPath>
<clipPath id="clip3_3291_10579">
<rect width="24" height="24" fill="white" transform="translate(383 12)"/>
</clipPath>
<clipPath id="clip4_3291_10579">
<rect width="24" height="24" fill="white" transform="translate(509 12)"/>
</clipPath>
<clipPath id="clip5_3291_10579">
<rect width="24" height="24" fill="white" transform="translate(655 12)"/>
</clipPath>
<clipPath id="clip6_3291_10579">
<rect width="24" height="24" fill="white" transform="translate(804 12)"/>
</clipPath>
<clipPath id="clip7_3291_10579">
<rect width="24" height="24" fill="white" transform="translate(953 12)"/>
</clipPath>
</defs>
</svg>
