<svg width="897" height="48" viewBox="0 0 897 48" fill="none" xmlns="http://www.w3.org/2000/svg">
<rect x="0.5" y="0.5" width="132" height="47" rx="11.5" stroke="white" stroke-opacity="0.1"/>
<g clip-path="url(#clip0_3291_10510)">
<path d="M34.0658 21.6562C34.0063 21.6562 33.9515 21.67 33.9012 21.6974L32.3103 22.6162C32.2052 22.6757 32.1458 22.7854 32.1458 22.9088V24.742C32.1458 24.8608 32.2098 24.9751 32.3103 25.0345L32.7263 25.2722C32.9275 25.3728 33.0006 25.3682 33.0966 25.3682C33.3938 25.3682 33.5675 25.1854 33.5675 24.87V23.0597C33.5675 23.0322 33.5446 23.014 33.5218 23.014H33.3206C33.2932 23.014 33.2749 23.0322 33.2749 23.0597V24.87C33.2749 25.0117 33.1286 25.1488 32.8909 25.03L32.4566 24.7785C32.4566 24.7785 32.4292 24.7557 32.4292 24.7374V22.9042C32.4292 22.9042 32.4429 22.8677 32.4566 22.8585L34.0429 21.9442C34.0429 21.9442 34.0749 21.9351 34.0886 21.9442L35.6749 22.8585C35.6749 22.8585 35.7023 22.886 35.7023 22.9042V24.7374C35.7023 24.7374 35.6932 24.774 35.6795 24.7831L34.0886 25.6974C34.0886 25.6974 34.0566 25.7065 34.0429 25.6974L33.636 25.4551C33.636 25.4551 33.6086 25.4505 33.5949 25.4551C33.4806 25.5191 33.4623 25.5282 33.3572 25.5648C33.3298 25.574 33.2932 25.5877 33.3709 25.6334L33.9058 25.9488C33.956 25.9762 34.0155 25.9945 34.0703 25.9945C34.1298 25.9945 34.1846 25.9808 34.2349 25.9488L35.8258 25.0345C35.9309 24.9751 35.9903 24.8654 35.9903 24.742V22.9088C35.9903 22.79 35.9263 22.6757 35.8258 22.6162L34.2349 21.6974C34.1846 21.67 34.1298 21.6562 34.0703 21.6562H34.0658Z" fill="#83CD29"/>
<path d="M34.4912 22.9681C34.0386 22.9681 33.7689 23.1601 33.7689 23.4801C33.7689 23.8276 34.0386 23.9236 34.4729 23.9647C34.9941 24.015 35.0352 24.0927 35.0352 24.1933C35.0352 24.3716 34.8935 24.4447 34.5598 24.4447C34.1392 24.4447 34.0478 24.3396 34.0158 24.1293C34.0158 24.1064 33.9929 24.0881 33.9701 24.0881H33.7643C33.7369 24.0881 33.7186 24.111 33.7186 24.1338C33.7186 24.4036 33.8649 24.719 34.5598 24.719C35.0626 24.719 35.3552 24.5224 35.3552 24.175C35.3552 23.8276 35.1221 23.7407 34.6329 23.6767C34.1392 23.6127 34.0935 23.5807 34.0935 23.4618C34.0935 23.3658 34.1346 23.2378 34.5003 23.2378C34.8249 23.2378 34.9483 23.3064 34.9986 23.5304C34.9986 23.5533 35.0215 23.567 35.0443 23.567H35.2501C35.2501 23.567 35.2729 23.5578 35.2821 23.5487C35.2912 23.5396 35.2958 23.5258 35.2958 23.5167C35.2638 23.1373 35.0123 22.959 34.5003 22.959L34.4912 22.9681Z" fill="#83CD29"/>
<path d="M24.7082 19.2461C24.7082 19.2461 24.6717 19.2507 24.658 19.2598C24.626 19.2781 24.6077 19.3101 24.6077 19.3467V21.9295C24.6077 21.957 24.594 21.9798 24.5757 21.989C24.5528 22.0027 24.5254 22.0027 24.5025 21.989L24.082 21.7467C24.018 21.7101 23.9402 21.7101 23.8808 21.7467L22.194 22.7204C22.13 22.757 22.0934 22.8255 22.0934 22.8987V24.8461C22.0934 24.9192 22.13 24.9832 22.194 25.0198L23.8808 25.9935C23.9448 26.0301 24.0225 26.0301 24.082 25.9935L25.7688 25.0198C25.8328 24.9832 25.8694 24.9147 25.8694 24.8461V19.9958C25.8694 19.9227 25.8282 19.8541 25.7642 19.8175L24.7585 19.2552C24.7585 19.2552 24.7265 19.2461 24.7082 19.2461ZM13.8602 21.6781C13.8282 21.6781 13.7962 21.6872 13.7688 21.701L12.0865 22.6747C12.0225 22.7112 11.986 22.7798 11.986 22.8484V25.4587C11.986 25.4952 12.0088 25.5272 12.0408 25.5455C12.0728 25.5638 12.1094 25.5638 12.1414 25.5455L13.1425 24.9695C13.2065 24.933 13.2477 24.8644 13.2477 24.7958V23.5752C13.2477 23.5021 13.2842 23.4335 13.3482 23.4015L13.7734 23.1547C13.8054 23.1364 13.8374 23.1272 13.874 23.1272C13.9105 23.1272 13.9425 23.1364 13.9745 23.1547L14.3997 23.4015C14.4637 23.4381 14.5002 23.5067 14.5002 23.5752V24.7958C14.5002 24.869 14.5414 24.933 14.6054 24.9695L15.6065 25.5455C15.6385 25.5638 15.6751 25.5638 15.7071 25.5455C15.7391 25.5272 15.7574 25.4952 15.7574 25.4587V22.8484C15.7574 22.7752 15.7208 22.7067 15.6614 22.6747L13.9745 21.701C13.9471 21.6827 13.9151 21.6781 13.8831 21.6781H13.8648H13.8602ZM29.0145 21.701C28.978 21.701 28.946 21.7101 28.914 21.7284L27.2271 22.7021C27.1631 22.7387 27.1265 22.8072 27.1265 22.8758V24.8232C27.1265 24.8964 27.1677 24.965 27.2317 24.997L28.9048 25.9478C28.9688 25.9844 29.042 25.9844 29.106 25.9478L30.1208 25.3855C30.1528 25.3672 30.1757 25.3352 30.1757 25.2987C30.1757 25.2621 30.1574 25.2301 30.1254 25.2118L28.4294 24.2381C28.3974 24.2198 28.3745 24.1832 28.3745 24.1467V23.5387C28.3745 23.5021 28.3974 23.4701 28.4294 23.4518L28.9551 23.1455C28.9871 23.1272 29.0237 23.1272 29.0557 23.1455L29.5814 23.4518C29.6134 23.4701 29.6317 23.5021 29.6317 23.5387V24.0187C29.6317 24.0552 29.65 24.0872 29.682 24.1055C29.714 24.1238 29.7505 24.1238 29.7825 24.1055L30.7928 23.5158C30.8568 23.4792 30.8934 23.4107 30.8934 23.3421V22.8712C30.8934 22.7981 30.8568 22.7341 30.7928 22.6975L29.1151 21.7238C29.0831 21.7055 29.0511 21.6964 29.0145 21.6964V21.701ZM23.9722 23.1547C23.9722 23.1547 23.9905 23.1547 23.9997 23.1592L24.5757 23.493C24.5757 23.493 24.6031 23.5204 24.6031 23.5387V24.2061C24.6031 24.2061 24.594 24.2427 24.5757 24.2518L23.9997 24.5855C23.9997 24.5855 23.9631 24.5947 23.9494 24.5855L23.3734 24.2518C23.3734 24.2518 23.346 24.2244 23.346 24.2061V23.5387C23.346 23.5387 23.3551 23.5021 23.3734 23.493L23.9494 23.1592C23.9494 23.1592 23.9631 23.1547 23.9722 23.1547Z" fill="#404137"/>
<path d="M18.9252 21.6914C18.8887 21.6914 18.8567 21.7005 18.8247 21.7188L17.1378 22.688C17.0738 22.7245 17.0372 22.7931 17.0372 22.8663V24.8137C17.0372 24.8868 17.0738 24.9508 17.1378 24.9874L18.8247 25.9611C18.8887 25.9977 18.9664 25.9977 19.0258 25.9611L20.7127 24.9874C20.7767 24.9508 20.8132 24.8823 20.8132 24.8137V22.8663C20.8132 22.7931 20.7767 22.7245 20.7127 22.688L19.0258 21.7188C18.9938 21.7005 18.9618 21.6914 18.9252 21.6914ZM29.0098 23.4285C29.0098 23.4285 28.9961 23.4285 28.9915 23.4285L28.6669 23.616C28.6669 23.616 28.6487 23.6343 28.6487 23.648V24.0183C28.6487 24.0183 28.6578 24.0457 28.6669 24.0503L28.9915 24.2377C28.9915 24.2377 29.0144 24.2468 29.0281 24.2377L29.3527 24.0503C29.3527 24.0503 29.3709 24.032 29.3709 24.0183V23.648C29.3709 23.648 29.3618 23.6205 29.3527 23.616L29.0281 23.4285C29.0281 23.4285 29.0189 23.4285 29.0098 23.4285Z" fill="#83CD29"/>
</g>
<path d="M45.8 31V16.7H48.06L55.02 28.52V16.7H56.68V31H54.68L47.46 18.74V31H45.8ZM64.4927 31.18C63.506 31.18 62.626 30.9533 61.8527 30.5C61.0793 30.0333 60.4727 29.4 60.0327 28.6C59.5927 27.7867 59.3727 26.8733 59.3727 25.86V25.7C59.3727 24.6467 59.5927 23.72 60.0327 22.92C60.486 22.12 61.0993 21.4933 61.8727 21.04C62.646 20.5867 63.526 20.36 64.5127 20.36C65.4993 20.36 66.3793 20.5867 67.1527 21.04C67.926 21.4933 68.5327 22.12 68.9727 22.92C69.426 23.7067 69.6527 24.6267 69.6527 25.68V25.84C69.6527 26.8933 69.426 27.82 68.9727 28.62C68.5327 29.42 67.926 30.0467 67.1527 30.5C66.3793 30.9533 65.4927 31.18 64.4927 31.18ZM64.5127 29.8C65.566 29.8 66.3993 29.44 67.0127 28.72C67.626 27.9867 67.9327 27.0333 67.9327 25.86V25.72C67.9327 24.5067 67.6193 23.54 66.9927 22.82C66.3793 22.1 65.5527 21.74 64.5127 21.74C63.4593 21.74 62.626 22.1 62.0127 22.82C61.3993 23.54 61.0927 24.5 61.0927 25.7V25.86C61.0927 27.0467 61.3993 28 62.0127 28.72C62.626 29.44 63.4593 29.8 64.5127 29.8ZM76.163 31.18C75.2563 31.18 74.443 30.9733 73.723 30.56C73.0163 30.1467 72.4563 29.5533 72.043 28.78C71.643 27.9933 71.443 27.06 71.443 25.98V25.82C71.443 24.7533 71.6496 23.8133 72.063 23C72.4763 22.1733 73.0496 21.5267 73.783 21.06C74.5163 20.5933 75.363 20.36 76.323 20.36C77.1896 20.36 77.903 20.5467 78.463 20.92C79.023 21.28 79.4496 21.7133 79.743 22.22V15.54H81.403V31H79.743V29.2C79.543 29.5333 79.2563 29.8533 78.883 30.16C78.523 30.4667 78.103 30.7133 77.623 30.9C77.1563 31.0867 76.6696 31.18 76.163 31.18ZM76.343 29.8C76.9963 29.8 77.583 29.66 78.103 29.38C78.623 29.0867 79.0363 28.6467 79.343 28.06C79.6496 27.4733 79.803 26.7333 79.803 25.84V25.68C79.803 24.3333 79.503 23.34 78.903 22.7C78.3163 22.06 77.5096 21.74 76.483 21.74C75.443 21.74 74.6296 22.0933 74.043 22.8C73.4563 23.4933 73.163 24.4733 73.163 25.74V25.9C73.163 26.78 73.303 27.5067 73.583 28.08C73.8763 28.6533 74.263 29.0867 74.743 29.38C75.223 29.66 75.7563 29.8 76.343 29.8ZM89.042 31.18C88.0554 31.18 87.182 30.9667 86.422 30.54C85.662 30.1 85.062 29.48 84.622 28.68C84.1954 27.88 83.982 26.9467 83.982 25.88V25.72C83.982 24.6667 84.1887 23.74 84.602 22.94C85.0154 22.1267 85.5887 21.4933 86.322 21.04C87.0687 20.5867 87.922 20.36 88.882 20.36C89.6954 20.36 90.4554 20.5333 91.162 20.88C91.882 21.2267 92.462 21.78 92.902 22.54C93.3554 23.3 93.582 24.3067 93.582 25.56V26.1H85.702C85.742 27.2867 86.042 28.2 86.602 28.84C87.1754 29.48 87.9954 29.8 89.062 29.8C90.702 29.8 91.6287 29.1933 91.842 27.98H93.502C93.3287 29.0333 92.8354 29.8333 92.022 30.38C91.222 30.9133 90.2287 31.18 89.042 31.18ZM85.762 24.76H91.882C91.802 23.68 91.4954 22.9067 90.962 22.44C90.442 21.9733 89.7487 21.74 88.882 21.74C88.0287 21.74 87.3287 22.0133 86.782 22.56C86.2487 23.0933 85.9087 23.8267 85.762 24.76ZM102.502 31.18C101.969 31.18 101.549 31.14 101.242 31.06C100.936 30.98 100.689 30.8933 100.502 30.8V29.36C100.769 29.4667 101.042 29.56 101.322 29.64C101.616 29.72 101.976 29.76 102.402 29.76C103.109 29.76 103.669 29.5467 104.082 29.12C104.509 28.6933 104.722 28 104.722 27.04V16.7H106.462V27.12C106.462 28.0667 106.282 28.84 105.922 29.44C105.562 30.04 105.082 30.48 104.482 30.76C103.896 31.04 103.236 31.18 102.502 31.18ZM114.561 31.18C113.281 31.18 112.254 30.9733 111.481 30.56C110.721 30.1333 110.154 29.58 109.781 28.9C109.421 28.2067 109.194 27.4533 109.101 26.64H110.781C110.861 27.2 111.007 27.72 111.221 28.2C111.447 28.68 111.821 29.0667 112.341 29.36C112.861 29.64 113.601 29.78 114.561 29.78C115.174 29.78 115.727 29.6667 116.221 29.44C116.714 29.2133 117.101 28.9 117.381 28.5C117.674 28.0867 117.821 27.6133 117.821 27.08C117.821 26.5333 117.721 26.0867 117.521 25.74C117.321 25.3933 116.967 25.1133 116.461 24.9C115.967 24.6733 115.267 24.4867 114.361 24.34C113.361 24.18 112.501 23.96 111.781 23.68C111.074 23.3867 110.527 22.98 110.141 22.46C109.767 21.9267 109.581 21.24 109.581 20.4C109.581 19.6667 109.774 19.0067 110.161 18.42C110.561 17.8333 111.107 17.3733 111.801 17.04C112.494 16.6933 113.287 16.52 114.181 16.52C115.607 16.52 116.747 16.86 117.601 17.54C118.467 18.22 118.967 19.1933 119.101 20.46H117.541C117.367 19.5533 117.007 18.9067 116.461 18.52C115.927 18.12 115.167 17.92 114.181 17.92C113.207 17.92 112.467 18.14 111.961 18.58C111.454 19.02 111.201 19.5733 111.201 20.24C111.201 20.7067 111.281 21.1067 111.441 21.44C111.614 21.76 111.947 22.0333 112.441 22.26C112.934 22.4733 113.667 22.6533 114.641 22.8C115.707 22.96 116.601 23.1933 117.321 23.5C118.041 23.8067 118.581 24.2333 118.941 24.78C119.314 25.3267 119.501 26.0533 119.501 26.96C119.501 27.76 119.287 28.48 118.861 29.12C118.434 29.7467 117.847 30.2467 117.101 30.62C116.354 30.9933 115.507 31.18 114.561 31.18Z" fill="white"/>
<rect x="149.5" y="0.5" width="163" height="47" rx="11.5" stroke="white" stroke-opacity="0.1"/>
<g clip-path="url(#clip1_3291_10510)">
<path d="M185 30.4488C184.127 30.6728 183.588 30.4579 183.103 29.7311L179.656 24.9631L179.158 24.3048L175.135 29.7494C174.674 30.4031 174.194 30.6911 173.334 30.4579L178.486 23.5414L173.691 17.2922C174.514 17.1322 175.085 17.2145 175.592 17.9505L179.167 22.7779L182.765 17.9779C183.227 17.3242 183.72 17.0728 184.548 17.3151L182.687 19.7791L180.168 23.0614C179.867 23.4362 179.908 23.6922 180.187 24.0534L185 30.4442V30.4488ZM161.005 23.4225L161.426 21.3516C162.573 17.2511 167.277 15.5459 170.518 18.0785C172.415 19.5688 172.886 21.6808 172.79 24.0396H162.111C161.951 28.2911 165.01 30.8602 168.914 29.5482C170.28 29.0865 171.09 28.0168 171.492 26.6774C171.698 26.0054 172.036 25.9002 172.667 26.0922C172.342 27.7699 171.615 29.1688 170.079 30.0465C167.78 31.3585 164.502 30.9334 162.779 29.1094C161.75 28.0534 161.325 26.7094 161.138 25.2739C161.106 25.0362 161.046 24.8122 161 24.5836C161 24.1951 161.005 23.8065 161.005 23.4179V23.4225ZM162.13 23.1345H171.784C171.72 20.0579 169.805 17.8774 167.19 17.8545C164.319 17.8316 162.253 19.9665 162.13 23.1345Z" fill="white"/>
</g>
<path d="M198.8 31V16.7H207.14V18.12H200.54V22.98H205.86V24.4H200.54V29.58H207.5V31H198.8ZM208.986 31L212.726 25.62L209.226 20.54H211.166L213.726 24.34L216.266 20.54H218.066L214.606 25.5L218.426 31H216.466L213.646 26.78L210.766 31H208.986ZM220.672 34.64V20.54H222.332V22.3C222.532 21.9533 222.812 21.6333 223.172 21.34C223.532 21.0467 223.946 20.8133 224.412 20.64C224.879 20.4533 225.366 20.36 225.872 20.36C226.792 20.36 227.606 20.5733 228.312 21C229.032 21.4267 229.599 22.0333 230.012 22.82C230.426 23.5933 230.632 24.5267 230.632 25.62V25.78C230.632 26.8467 230.432 27.7867 230.032 28.6C229.646 29.4133 229.092 30.0467 228.372 30.5C227.666 30.9533 226.832 31.18 225.872 31.18C225.019 31.18 224.292 30.9933 223.692 30.62C223.092 30.2467 222.639 29.8 222.332 29.28V34.64H220.672ZM225.712 29.8C226.752 29.8 227.546 29.46 228.092 28.78C228.639 28.1 228.912 27.1267 228.912 25.86V25.7C228.912 24.82 228.766 24.0867 228.472 23.5C228.179 22.9133 227.786 22.4733 227.292 22.18C226.812 21.8867 226.279 21.74 225.692 21.74C224.719 21.74 223.906 22.0667 223.252 22.72C222.599 23.36 222.272 24.3533 222.272 25.7V25.86C222.272 27.1933 222.592 28.1867 223.232 28.84C223.872 29.48 224.699 29.8 225.712 29.8ZM233.211 31V20.54H234.871V22.42C235.205 21.8333 235.625 21.3533 236.131 20.98C236.651 20.5933 237.378 20.3867 238.311 20.36V21.92C237.618 21.9467 237.011 22.06 236.491 22.26C235.971 22.46 235.571 22.7933 235.291 23.26C235.011 23.7267 234.871 24.3933 234.871 25.26V31H233.211ZM244.718 31.18C243.731 31.18 242.858 30.9667 242.098 30.54C241.338 30.1 240.738 29.48 240.298 28.68C239.871 27.88 239.658 26.9467 239.658 25.88V25.72C239.658 24.6667 239.864 23.74 240.278 22.94C240.691 22.1267 241.264 21.4933 241.998 21.04C242.744 20.5867 243.598 20.36 244.558 20.36C245.371 20.36 246.131 20.5333 246.838 20.88C247.558 21.2267 248.138 21.78 248.578 22.54C249.031 23.3 249.258 24.3067 249.258 25.56V26.1H241.378C241.418 27.2867 241.718 28.2 242.278 28.84C242.851 29.48 243.671 29.8 244.738 29.8C246.378 29.8 247.304 29.1933 247.518 27.98H249.178C249.004 29.0333 248.511 29.8333 247.698 30.38C246.898 30.9133 245.904 31.18 244.718 31.18ZM241.438 24.76H247.558C247.478 23.68 247.171 22.9067 246.638 22.44C246.118 21.9733 245.424 21.74 244.558 21.74C243.704 21.74 243.004 22.0133 242.458 22.56C241.924 23.0933 241.584 23.8267 241.438 24.76ZM255.143 31.18C253.889 31.18 252.903 30.88 252.183 30.28C251.476 29.68 251.096 28.8467 251.043 27.78H252.663C252.729 28.3933 252.943 28.8867 253.303 29.26C253.676 29.62 254.283 29.8 255.123 29.8C255.909 29.8 256.483 29.6667 256.843 29.4C257.216 29.12 257.403 28.7 257.403 28.14C257.403 27.5933 257.196 27.2 256.783 26.96C256.383 26.72 255.776 26.5267 254.963 26.38C254.056 26.2067 253.336 26 252.803 25.76C252.269 25.5067 251.889 25.1867 251.663 24.8C251.436 24.4 251.323 23.9 251.323 23.3C251.323 22.6467 251.503 22.1067 251.863 21.68C252.223 21.24 252.676 20.9133 253.223 20.7C253.769 20.4733 254.316 20.36 254.863 20.36C255.489 20.36 256.069 20.4533 256.603 20.64C257.149 20.8267 257.603 21.14 257.963 21.58C258.323 22.02 258.549 22.62 258.643 23.38H257.043C256.923 22.8067 256.689 22.3933 256.343 22.14C256.009 21.8733 255.509 21.74 254.843 21.74C254.243 21.74 253.763 21.88 253.403 22.16C253.043 22.4267 252.863 22.7867 252.863 23.24C252.863 23.7067 253.029 24.06 253.363 24.3C253.696 24.5267 254.343 24.7267 255.303 24.9C256.023 25.0333 256.656 25.2 257.203 25.4C257.763 25.6 258.196 25.9 258.503 26.3C258.823 26.6867 258.983 27.2533 258.983 28C258.983 28.9467 258.656 29.7133 258.003 30.3C257.363 30.8867 256.409 31.18 255.143 31.18ZM264.752 31.18C263.499 31.18 262.512 30.88 261.792 30.28C261.085 29.68 260.705 28.8467 260.652 27.78H262.272C262.339 28.3933 262.552 28.8867 262.912 29.26C263.285 29.62 263.892 29.8 264.732 29.8C265.519 29.8 266.092 29.6667 266.452 29.4C266.825 29.12 267.012 28.7 267.012 28.14C267.012 27.5933 266.805 27.2 266.392 26.96C265.992 26.72 265.385 26.5267 264.572 26.38C263.665 26.2067 262.945 26 262.412 25.76C261.879 25.5067 261.499 25.1867 261.272 24.8C261.045 24.4 260.932 23.9 260.932 23.3C260.932 22.6467 261.112 22.1067 261.472 21.68C261.832 21.24 262.285 20.9133 262.832 20.7C263.379 20.4733 263.925 20.36 264.472 20.36C265.099 20.36 265.679 20.4533 266.212 20.64C266.759 20.8267 267.212 21.14 267.572 21.58C267.932 22.02 268.159 22.62 268.252 23.38H266.652C266.532 22.8067 266.299 22.3933 265.952 22.14C265.619 21.8733 265.119 21.74 264.452 21.74C263.852 21.74 263.372 21.88 263.012 22.16C262.652 22.4267 262.472 22.7867 262.472 23.24C262.472 23.7067 262.639 24.06 262.972 24.3C263.305 24.5267 263.952 24.7267 264.912 24.9C265.632 25.0333 266.265 25.2 266.812 25.4C267.372 25.6 267.805 25.9 268.112 26.3C268.432 26.6867 268.592 27.2533 268.592 28C268.592 28.9467 268.265 29.7133 267.612 30.3C266.972 30.8867 266.019 31.18 264.752 31.18ZM277.494 31.18C276.961 31.18 276.541 31.14 276.234 31.06C275.928 30.98 275.681 30.8933 275.494 30.8V29.36C275.761 29.4667 276.034 29.56 276.314 29.64C276.608 29.72 276.968 29.76 277.394 29.76C278.101 29.76 278.661 29.5467 279.074 29.12C279.501 28.6933 279.714 28 279.714 27.04V16.7H281.454V27.12C281.454 28.0667 281.274 28.84 280.914 29.44C280.554 30.04 280.074 30.48 279.474 30.76C278.888 31.04 278.228 31.18 277.494 31.18ZM289.553 31.18C288.273 31.18 287.246 30.9733 286.473 30.56C285.713 30.1333 285.146 29.58 284.773 28.9C284.413 28.2067 284.186 27.4533 284.093 26.64H285.773C285.853 27.2 285.999 27.72 286.213 28.2C286.439 28.68 286.813 29.0667 287.333 29.36C287.853 29.64 288.593 29.78 289.553 29.78C290.166 29.78 290.719 29.6667 291.213 29.44C291.706 29.2133 292.093 28.9 292.373 28.5C292.666 28.0867 292.813 27.6133 292.813 27.08C292.813 26.5333 292.713 26.0867 292.513 25.74C292.313 25.3933 291.959 25.1133 291.453 24.9C290.959 24.6733 290.259 24.4867 289.353 24.34C288.353 24.18 287.493 23.96 286.773 23.68C286.066 23.3867 285.519 22.98 285.133 22.46C284.759 21.9267 284.573 21.24 284.573 20.4C284.573 19.6667 284.766 19.0067 285.153 18.42C285.553 17.8333 286.099 17.3733 286.793 17.04C287.486 16.6933 288.279 16.52 289.173 16.52C290.599 16.52 291.739 16.86 292.593 17.54C293.459 18.22 293.959 19.1933 294.093 20.46H292.533C292.359 19.5533 291.999 18.9067 291.453 18.52C290.919 18.12 290.159 17.92 289.173 17.92C288.199 17.92 287.459 18.14 286.953 18.58C286.446 19.02 286.193 19.5733 286.193 20.24C286.193 20.7067 286.273 21.1067 286.433 21.44C286.606 21.76 286.939 22.0333 287.433 22.26C287.926 22.4733 288.659 22.6533 289.633 22.8C290.699 22.96 291.593 23.1933 292.313 23.5C293.033 23.8067 293.573 24.2333 293.933 24.78C294.306 25.3267 294.493 26.0533 294.493 26.96C294.493 27.76 294.279 28.48 293.853 29.12C293.426 29.7467 292.839 30.2467 292.093 30.62C291.346 30.9933 290.499 31.18 289.553 31.18Z" fill="white"/>
<rect x="329.5" y="0.5" width="127.416" height="47" rx="11.5" stroke="white" stroke-opacity="0.1"/>
<path d="M342.76 29.3499H343.596V26.0447L344.89 28.9247C345.041 29.2721 345.251 29.3956 345.663 29.3956C346.074 29.3956 346.275 29.2721 346.426 28.9247L347.72 26.0447V29.3499H348.556V26.0493C348.556 25.7293 348.428 25.5739 348.163 25.4916C347.528 25.295 347.103 25.4641 346.906 25.8939L345.635 28.7373L344.405 25.8939C344.223 25.4641 343.784 25.295 343.148 25.4916C342.883 25.5739 342.755 25.7293 342.755 26.0493V29.3499H342.76ZM349.26 26.6573H350.097V28.4767C350.088 28.5773 350.129 28.8059 350.586 28.815C350.819 28.815 352.392 28.815 352.405 28.815V26.6481H353.242C353.242 26.6481 353.242 29.6059 353.242 29.6196C353.247 30.351 352.337 30.5064 351.916 30.5201H349.274V29.9579H351.921C352.46 29.8984 352.396 29.6333 352.396 29.5419V29.3224H350.618C349.791 29.3133 349.265 28.9521 349.256 28.5361C349.256 28.4996 349.274 26.6756 349.256 26.6573H349.26Z" fill="#00618A"/>
<path d="M353.891 29.3492H356.296C356.579 29.3492 356.849 29.2898 357.069 29.1892C357.43 29.0246 357.608 28.796 357.608 28.5035V27.8909C357.608 27.6486 357.407 27.4246 357.014 27.2738C356.803 27.1915 356.547 27.1503 356.296 27.1503H355.281C354.943 27.1503 354.783 27.0498 354.742 26.8212C354.732 26.7938 354.733 26.7709 354.733 26.748V26.3686C354.733 26.3686 354.732 26.3275 354.742 26.3C354.783 26.1263 354.87 26.0806 355.167 26.0532C355.19 26.0532 355.222 26.0486 355.249 26.0486H357.64V25.4909H355.29C354.952 25.4909 354.774 25.5138 354.614 25.5595C354.115 25.7149 353.896 25.9618 353.896 26.3915V26.8806C353.896 27.2555 354.321 27.58 355.039 27.6532C355.121 27.6578 355.199 27.6623 355.281 27.6623H356.15C356.182 27.6623 356.214 27.6623 356.237 27.6669C356.502 27.6898 356.616 27.7355 356.694 27.8315C356.744 27.8818 356.758 27.9275 356.758 27.9823V28.4715C356.758 28.5309 356.716 28.604 356.639 28.668C356.566 28.732 356.447 28.7732 356.287 28.7869C356.255 28.7869 356.232 28.7915 356.2 28.7915H353.891V29.3492ZM362.833 28.38C362.833 28.956 363.258 29.276 364.122 29.34C364.205 29.3446 364.282 29.3492 364.365 29.3492H366.545V28.7915H364.346C363.857 28.7915 363.67 28.668 363.67 28.3709V25.4863H362.833V28.38ZM358.147 28.4075V26.4189C358.147 25.9115 358.504 25.6052 359.203 25.5092C359.276 25.5 359.354 25.4909 359.427 25.4909H361.018C361.096 25.4909 361.174 25.4955 361.251 25.5092C361.951 25.6052 362.307 25.9115 362.307 26.4189V28.4075C362.307 28.8189 362.156 29.0383 361.809 29.18L362.632 29.9252H361.658L360.991 29.3218L360.319 29.3629H359.423C359.267 29.3629 359.107 29.34 358.929 29.2943C358.394 29.148 358.138 28.8692 358.138 28.4075H358.147ZM359.053 28.3572C359.053 28.3846 359.062 28.412 359.071 28.444C359.121 28.6772 359.336 28.8052 359.665 28.8052H360.424L359.724 28.1743H360.698L361.306 28.7229C361.42 28.6635 361.494 28.572 361.517 28.4532C361.526 28.4258 361.526 28.3983 361.526 28.3709V26.4646C361.526 26.4646 361.526 26.4143 361.517 26.3915C361.466 26.1766 361.251 26.0532 360.927 26.0532H359.665C359.295 26.0532 359.053 26.2132 359.053 26.4692V28.3618V28.3572Z" fill="#E48E00"/>
<path d="M367.276 24.5631C366.76 24.5494 366.367 24.5951 366.033 24.7368C365.937 24.778 365.786 24.778 365.768 24.8968C365.818 24.9517 365.827 25.034 365.868 25.1026C365.951 25.2306 366.083 25.4043 366.207 25.4957C366.339 25.5963 366.476 25.7014 366.618 25.7883C366.87 25.9437 367.153 26.0306 367.395 26.1814C367.537 26.2728 367.679 26.3871 367.82 26.4877C367.889 26.538 367.935 26.6157 368.026 26.6477V26.634C367.98 26.5746 367.967 26.4923 367.926 26.4283L367.734 26.2363C367.546 25.9894 367.313 25.7746 367.062 25.5917C366.86 25.45 366.412 25.2534 366.33 25.0203L366.316 25.0066C366.458 24.9883 366.623 24.938 366.755 24.906C366.975 24.8466 367.171 24.8603 367.4 24.8054L367.706 24.7186V24.6591C367.592 24.5403 367.51 24.3848 367.386 24.2797C367.057 24.0008 366.7 23.722 366.335 23.4888C366.129 23.3608 365.878 23.274 365.663 23.1688C365.59 23.1323 365.462 23.114 365.416 23.05C365.302 22.9037 365.242 22.7208 365.151 22.5517C364.968 22.1997 364.785 21.8111 364.625 21.4408C364.515 21.1894 364.442 20.938 364.305 20.7094C363.642 19.6168 362.924 18.9586 361.818 18.3094C361.58 18.1723 361.297 18.1174 361 18.0443L360.515 18.0168C360.419 17.9757 360.314 17.8568 360.223 17.7974C359.857 17.5643 358.915 17.0614 358.641 17.7243C358.467 18.1448 358.897 18.5517 359.052 18.762C359.162 18.9128 359.299 19.0774 359.372 19.2466C359.423 19.3563 359.432 19.466 359.473 19.5848C359.578 19.8683 359.674 20.1837 359.811 20.4488C359.88 20.5814 359.958 20.7231 360.044 20.842C360.099 20.9151 360.191 20.9471 360.204 21.0614C360.113 21.1894 360.108 21.386 360.058 21.546C359.83 22.2683 359.916 23.1643 360.25 23.6946C360.351 23.8591 360.593 24.2111 360.922 24.074C361.21 23.9551 361.146 23.5894 361.228 23.2694C361.247 23.1963 361.238 23.1414 361.274 23.0957V23.1094L361.539 23.6351C361.736 23.9506 362.079 24.2751 362.371 24.4991C362.522 24.6134 362.646 24.8146 362.838 24.8786V24.8648H362.824C362.787 24.8054 362.728 24.7826 362.678 24.7323C362.563 24.618 362.435 24.4808 362.339 24.3528C362.074 23.9917 361.836 23.594 361.622 23.1826C361.521 22.986 361.43 22.7666 361.343 22.57C361.311 22.4923 361.311 22.378 361.242 22.3368C361.146 22.4831 361.009 22.602 360.936 22.7757C360.817 23.0546 360.803 23.3928 360.762 23.7403C360.735 23.7494 360.748 23.7403 360.735 23.754C360.529 23.7037 360.46 23.4934 360.383 23.3151C360.191 22.858 360.154 22.1266 360.323 21.6054C360.364 21.4683 360.566 21.0431 360.483 20.9197C360.447 20.7963 360.319 20.7231 360.25 20.6271C360.163 20.5083 360.076 20.3528 360.017 20.2157C359.862 19.8591 359.788 19.4614 359.624 19.1048C359.546 18.9311 359.414 18.762 359.304 18.6066C359.18 18.4374 359.048 18.314 358.952 18.1083C358.92 18.0351 358.874 17.9208 358.924 17.8431C358.934 17.7974 358.97 17.7654 359.011 17.7563C359.098 17.6923 359.331 17.7791 359.423 17.8157C359.656 17.9117 359.852 18.0077 360.054 18.1357C360.15 18.1997 360.246 18.3231 360.36 18.3551H360.492C360.698 18.4008 360.931 18.3688 361.123 18.4283C361.462 18.5334 361.768 18.6934 362.047 18.8671C362.888 19.3974 363.578 20.1563 364.049 21.0614C364.127 21.2077 364.159 21.3448 364.223 21.5003C364.355 21.8111 364.529 22.1311 364.662 22.4374C364.794 22.7391 364.927 23.05 365.114 23.3014C365.215 23.434 365.599 23.5071 365.772 23.5803C365.896 23.6306 366.097 23.6854 366.211 23.754C366.431 23.8866 366.646 24.0466 366.856 24.1928C366.961 24.266 367.281 24.426 367.295 24.5586L367.276 24.5631Z" fill="#00618A"/>
<path fill-rule="evenodd" clip-rule="evenodd" d="M360.739 18.9863C360.634 18.9863 360.556 19 360.474 19.0138V19.0275H360.488C360.538 19.1326 360.629 19.2012 360.693 19.2926L360.84 19.5989L360.853 19.5852C360.945 19.5212 360.986 19.4206 360.986 19.2652C360.949 19.2286 360.945 19.1783 360.913 19.1326C360.872 19.0732 360.789 19.0366 360.739 18.9863Z" fill="#00618A"/>
<path fill-rule="evenodd" clip-rule="evenodd" d="M366.934 28.7793C366.934 29.1495 367.226 29.3964 367.551 29.3964C367.876 29.3964 368.168 29.1495 368.168 28.7793C368.168 28.409 367.876 28.1621 367.551 28.1621C367.226 28.1621 366.934 28.409 366.934 28.7793ZM368.031 28.7793C368.031 29.0581 367.816 29.2684 367.551 29.2684C367.286 29.2684 367.071 29.0581 367.071 28.7793C367.071 28.5004 367.281 28.2901 367.551 28.2901C367.821 28.2901 368.031 28.5004 368.031 28.7793ZM367.72 29.1313H367.857L367.656 28.8204C367.766 28.8067 367.848 28.7564 367.848 28.6284C367.848 28.4867 367.757 28.4273 367.583 28.4273H367.309V29.1313H367.428V28.825H367.537L367.72 29.1313ZM367.428 28.729V28.5278H367.565C367.633 28.5278 367.72 28.5415 367.72 28.6238C367.72 28.7244 367.642 28.729 367.556 28.729H367.428Z" fill="#E48E00"/>
<path d="M379.216 31V16.7H381.636L386.056 27.84L390.336 16.7H392.736V31H390.996V18.96L386.256 31H385.716L380.816 18.96V31H379.216ZM397.165 34.64L399.145 29.92L395.045 20.54H396.825L400.025 28.04L402.925 20.54H404.625L398.845 34.64H397.165ZM411.551 31.18C410.271 31.18 409.244 30.9733 408.471 30.56C407.711 30.1333 407.144 29.58 406.771 28.9C406.411 28.2067 406.184 27.4533 406.091 26.64H407.771C407.851 27.2 407.998 27.72 408.211 28.2C408.438 28.68 408.811 29.0667 409.331 29.36C409.851 29.64 410.591 29.78 411.551 29.78C412.164 29.78 412.718 29.6667 413.211 29.44C413.704 29.2133 414.091 28.9 414.371 28.5C414.664 28.0867 414.811 27.6133 414.811 27.08C414.811 26.5333 414.711 26.0867 414.511 25.74C414.311 25.3933 413.958 25.1133 413.451 24.9C412.958 24.6733 412.258 24.4867 411.351 24.34C410.351 24.18 409.491 23.96 408.771 23.68C408.064 23.3867 407.518 22.98 407.131 22.46C406.758 21.9267 406.571 21.24 406.571 20.4C406.571 19.6667 406.764 19.0067 407.151 18.42C407.551 17.8333 408.098 17.3733 408.791 17.04C409.484 16.6933 410.278 16.52 411.171 16.52C412.598 16.52 413.738 16.86 414.591 17.54C415.458 18.22 415.958 19.1933 416.091 20.46H414.531C414.358 19.5533 413.998 18.9067 413.451 18.52C412.918 18.12 412.158 17.92 411.171 17.92C410.198 17.92 409.458 18.14 408.951 18.58C408.444 19.02 408.191 19.5733 408.191 20.24C408.191 20.7067 408.271 21.1067 408.431 21.44C408.604 21.76 408.938 22.0333 409.431 22.26C409.924 22.4733 410.658 22.6533 411.631 22.8C412.698 22.96 413.591 23.1933 414.311 23.5C415.031 23.8067 415.571 24.2333 415.931 24.78C416.304 25.3267 416.491 26.0533 416.491 26.96C416.491 27.76 416.278 28.48 415.851 29.12C415.424 29.7467 414.838 30.2467 414.091 30.62C413.344 30.9933 412.498 31.18 411.551 31.18ZM425.752 31.18C424.699 31.18 423.739 30.9933 422.872 30.62C422.006 30.2467 421.259 29.7267 420.632 29.06C420.006 28.3933 419.519 27.6267 419.172 26.76C418.839 25.88 418.672 24.94 418.672 23.94V23.78C418.672 22.7667 418.839 21.82 419.172 20.94C419.519 20.06 419.999 19.2933 420.612 18.64C421.239 17.9733 421.979 17.4533 422.832 17.08C423.699 16.7067 424.659 16.52 425.712 16.52C426.766 16.52 427.719 16.7067 428.572 17.08C429.426 17.4533 430.159 17.9733 430.772 18.64C431.386 19.2933 431.859 20.06 432.192 20.94C432.526 21.8067 432.692 22.74 432.692 23.74V23.9C432.692 25.1 432.459 26.2133 431.992 27.24C431.526 28.2533 430.872 29.0933 430.032 29.76L431.812 31.76L430.752 32.78L428.752 30.54C428.312 30.74 427.839 30.8933 427.332 31C426.826 31.12 426.299 31.18 425.752 31.18ZM425.752 29.74C426.459 29.74 427.112 29.62 427.712 29.38L426.112 27.58L427.172 26.56L429.012 28.62C429.612 28.1 430.072 27.4333 430.392 26.62C430.726 25.8067 430.892 24.8933 430.892 23.88V23.72C430.892 22.6533 430.686 21.68 430.272 20.8C429.872 19.92 429.286 19.22 428.512 18.7C427.752 18.18 426.819 17.92 425.712 17.92C424.606 17.92 423.659 18.1733 422.872 18.68C422.099 19.1733 421.506 19.86 421.092 20.74C420.679 21.62 420.472 22.6267 420.472 23.76V23.92C420.472 25.0667 420.706 26.08 421.172 26.96C421.639 27.84 422.266 28.5267 423.052 29.02C423.852 29.5 424.752 29.74 425.752 29.74ZM435.583 31V16.7H437.323V29.58H443.863V31H435.583Z" fill="white"/>
<rect x="473.916" y="0.5" width="132" height="47" rx="11.5" stroke="white" stroke-opacity="0.1"/>
<g clip-path="url(#clip2_3291_10510)">
<path fill-rule="evenodd" clip-rule="evenodd" d="M505.598 15.291L506.106 15.9584C506.238 16.1321 506.206 16.3881 506.028 16.5207L505.493 16.9276C505.589 17.1881 505.653 17.4624 505.681 17.7459L506.293 17.8281C506.513 17.8556 506.664 18.0613 506.636 18.2807L506.522 19.1127C506.494 19.3321 506.289 19.4876 506.069 19.4556L505.402 19.3641C505.283 19.6247 505.132 19.8624 504.949 20.0773L505.324 20.571C505.457 20.7447 505.42 21.0007 505.246 21.1333L504.579 21.6407C504.405 21.7733 504.149 21.7367 504.017 21.563L503.61 21.0281C503.349 21.1241 503.075 21.1881 502.787 21.2156L502.705 21.8281C502.677 22.0476 502.472 22.1984 502.252 22.171L501.42 22.0567C501.201 22.0293 501.05 21.8236 501.077 21.6041L501.169 20.9367C500.913 20.8179 500.67 20.667 500.456 20.4887L499.962 20.8636C499.788 20.9961 499.532 20.9641 499.4 20.7859L498.892 20.1184C498.76 19.9447 498.792 19.6887 498.97 19.5561L499.505 19.1493C499.409 18.8887 499.345 18.6144 499.317 18.331L498.705 18.2487C498.485 18.2213 498.33 18.0156 498.362 17.7961L498.476 16.9641C498.508 16.7447 498.709 16.5939 498.929 16.6213L499.596 16.7127C499.715 16.4567 499.866 16.2144 500.044 15.9996L499.669 15.5059C499.537 15.3321 499.569 15.0807 499.747 14.9481L500.414 14.4407C500.588 14.3081 500.844 14.3401 500.977 14.5184L501.384 15.0533C501.644 14.9573 501.918 14.8933 502.202 14.8659L502.284 14.2533C502.312 14.0339 502.517 13.8784 502.737 13.9104L503.569 14.0247C503.788 14.0521 503.944 14.2579 503.912 14.4773L503.82 15.1447C504.081 15.2636 504.318 15.4144 504.533 15.5973L505.027 15.2224C505.201 15.0899 505.457 15.1219 505.589 15.2956L505.598 15.291ZM491.317 27.0121V23.7893H492.977C493.288 23.7893 493.521 23.8167 493.681 23.8716C493.841 23.9264 493.978 24.0224 494.074 24.1641C494.174 24.3104 494.225 24.4841 494.225 24.6899C494.225 24.8681 494.184 25.0236 494.11 25.1516C494.033 25.2841 493.928 25.3893 493.795 25.467C493.713 25.5173 493.594 25.563 493.448 25.595C493.566 25.6361 493.653 25.6727 493.704 25.7139C493.74 25.7413 493.795 25.7961 493.864 25.883C493.932 25.9699 493.978 26.0384 494.001 26.0841L494.485 27.0167H493.361L492.83 26.0339C492.762 25.9059 492.702 25.8236 492.652 25.787C492.579 25.7367 492.497 25.7139 492.41 25.7139H492.323V27.0167H491.322L491.317 27.0121ZM494.828 32.6213H492.968L492.698 33.4944H491.02L493.018 28.1824H494.814L496.803 33.4944H495.084L494.819 32.6213H494.828ZM494.481 31.4739L493.9 29.563L493.32 31.4739H494.481ZM497.201 28.187H499.93C500.524 28.187 500.972 28.3287 501.265 28.6121C501.562 28.8956 501.708 29.2979 501.708 29.819C501.708 30.3401 501.548 30.7744 501.224 31.0807C500.904 31.3824 500.405 31.5333 499.747 31.5333H498.846V33.499H497.201V28.187ZM498.846 30.4544H499.249C499.569 30.4544 499.793 30.3996 499.921 30.2899C500.049 30.1801 500.113 30.0384 500.113 29.8693C500.113 29.7001 500.058 29.5584 499.944 29.4441C499.829 29.3299 499.624 29.2704 499.313 29.2704H498.842V30.4544H498.846ZM502.371 28.187H504.017V33.499H502.371V28.187ZM492.318 25.0967H492.739C492.785 25.0967 492.872 25.083 493.004 25.051C493.073 25.0373 493.123 25.0053 493.164 24.9504C493.205 24.8956 493.228 24.8316 493.228 24.763C493.228 24.6579 493.196 24.5756 493.128 24.5207C493.059 24.4659 492.94 24.4384 492.757 24.4384H492.318V25.0967ZM494.677 23.7893H497.342V24.475H495.678V24.987H497.224V25.6453H495.678V26.2807H497.393V27.0076H494.677V23.7847V23.7893ZM497.63 25.9424L498.577 25.883C498.595 26.0384 498.641 26.1527 498.7 26.2304C498.805 26.3584 498.952 26.427 499.139 26.427C499.281 26.427 499.39 26.395 499.468 26.3264C499.546 26.2579 499.582 26.1801 499.582 26.0933C499.582 26.0064 499.546 25.9333 499.473 25.8693C499.4 25.8007 499.23 25.7413 498.961 25.6819C498.526 25.5859 498.216 25.4533 498.028 25.2933C497.841 25.1333 497.745 24.923 497.745 24.6716C497.745 24.507 497.795 24.3516 497.891 24.2007C497.987 24.0499 498.133 23.9356 498.325 23.8533C498.517 23.771 498.782 23.7299 499.116 23.7299C499.528 23.7299 499.843 23.8076 500.058 23.9584C500.273 24.1139 500.401 24.3561 500.442 24.6899L499.505 24.7447C499.477 24.5984 499.427 24.4887 499.349 24.4247C499.267 24.3561 499.157 24.3241 499.02 24.3241C498.906 24.3241 498.819 24.3516 498.76 24.3973C498.7 24.4476 498.673 24.507 498.673 24.5756C498.673 24.6259 498.7 24.6716 498.746 24.7127C498.792 24.7539 498.901 24.795 499.08 24.8316C499.514 24.9276 499.829 25.019 500.017 25.115C500.204 25.211 500.341 25.3299 500.428 25.4716C500.515 25.6133 500.556 25.7733 500.556 25.947C500.556 26.1527 500.501 26.3447 500.382 26.5184C500.268 26.6921 500.108 26.8247 499.902 26.9161C499.697 27.0076 499.441 27.0487 499.125 27.0487C498.577 27.0487 498.197 26.9436 497.987 26.7333C497.777 26.5184 497.658 26.2487 497.626 25.9287L497.63 25.9424ZM500.698 23.7893H503.729V24.5847H502.714V27.0121H501.717V24.5847H500.698V23.7893ZM497.347 16.1413C496.99 16.1139 496.629 16.1184 496.273 16.155C495.171 16.2601 494.106 16.6624 493.224 17.3481C492.204 18.139 491.427 19.323 491.13 20.891L491.034 21.3801L490.545 21.467C490.065 21.5493 489.64 21.6681 489.265 21.8144C488.904 21.9561 488.579 22.1299 488.296 22.3356C488.067 22.5001 487.875 22.683 487.706 22.8841C487.194 23.5013 486.956 24.2693 486.961 25.051C486.965 25.8419 487.226 26.6464 487.701 27.3047C487.88 27.547 488.085 27.7756 488.318 27.9676C488.556 28.1641 488.826 28.3287 489.123 28.4521C489.292 28.5207 489.475 28.5801 489.662 28.6259V30.0887C489.274 30.0201 488.913 29.915 488.574 29.7733C488.131 29.5904 487.738 29.3527 487.395 29.0647C487.066 28.7904 486.778 28.4796 486.536 28.1413C485.886 27.2407 485.534 26.1436 485.525 25.051C485.516 23.9447 485.859 22.8476 486.604 21.9561C486.846 21.6681 487.13 21.403 487.45 21.1653C487.825 20.891 488.259 20.6624 488.748 20.4704C489.082 20.3379 489.443 20.2281 489.822 20.1413C490.252 18.4361 491.166 17.1196 492.346 16.2053C493.448 15.3504 494.773 14.8521 496.14 14.7241C496.858 14.6556 497.585 14.6876 498.293 14.8201C498.28 14.8841 498.266 14.9481 498.257 15.0167V15.0304C498.243 15.1401 498.234 15.2544 498.243 15.3641C498.092 15.4236 497.95 15.5013 497.827 15.6019H497.822C497.635 15.7481 497.475 15.931 497.352 16.1413H497.347ZM507.678 19.8899C507.788 19.9904 507.893 20.091 507.998 20.2053C508.209 20.4293 508.405 20.6853 508.588 20.9687C509.214 21.9287 509.534 23.2133 509.521 24.4704C509.507 25.7047 509.173 26.9299 508.497 27.8304C508.053 28.4201 507.486 28.9001 506.805 29.2796C506.339 29.5401 505.813 29.7596 505.242 29.9333V28.4201C505.553 28.3059 505.836 28.1779 506.101 28.0316C506.613 27.7436 507.034 27.3961 507.349 26.9756C507.838 26.3264 508.076 25.403 508.09 24.4613C508.104 23.4693 507.861 22.4773 507.39 21.755C507.258 21.5447 507.107 21.3573 506.952 21.1927C506.892 21.1287 506.833 21.0693 506.769 21.0099C506.778 20.9139 506.782 20.8133 506.778 20.7127C506.929 20.6533 507.07 20.5756 507.194 20.475H507.198C507.4 20.315 507.569 20.123 507.688 19.899L507.678 19.8899ZM502.728 16.4019C503.628 16.5253 504.259 17.3573 504.136 18.2533C504.012 19.1539 503.18 19.7847 502.284 19.6613C501.384 19.5379 500.753 18.7059 500.876 17.8099C501 16.9093 501.832 16.2784 502.728 16.4019Z" fill="white"/>
</g>
<path d="M519.216 31V16.7H523.516C524.436 16.7 525.269 16.8333 526.016 17.1C526.776 17.3667 527.383 17.7933 527.836 18.38C528.289 18.9533 528.516 19.72 528.516 20.68V20.76C528.516 21.5467 528.356 22.2067 528.036 22.74C527.716 23.2733 527.289 23.6933 526.756 24C526.223 24.3067 525.629 24.5267 524.976 24.66L529.356 31H527.416L523.156 24.78H520.956V31H519.216ZM520.956 23.4H523.636C524.663 23.4 525.443 23.18 525.976 22.74C526.509 22.3 526.776 21.64 526.776 20.76V20.68C526.776 19.7067 526.496 19.0333 525.936 18.66C525.376 18.2867 524.609 18.1 523.636 18.1H520.956V23.4ZM535.642 31.18C534.655 31.18 533.782 30.9667 533.022 30.54C532.262 30.1 531.662 29.48 531.222 28.68C530.795 27.88 530.582 26.9467 530.582 25.88V25.72C530.582 24.6667 530.788 23.74 531.202 22.94C531.615 22.1267 532.188 21.4933 532.922 21.04C533.668 20.5867 534.522 20.36 535.482 20.36C536.295 20.36 537.055 20.5333 537.762 20.88C538.482 21.2267 539.062 21.78 539.502 22.54C539.955 23.3 540.182 24.3067 540.182 25.56V26.1H532.302C532.342 27.2867 532.642 28.2 533.202 28.84C533.775 29.48 534.595 29.8 535.662 29.8C537.302 29.8 538.228 29.1933 538.442 27.98H540.102C539.928 29.0333 539.435 29.8333 538.622 30.38C537.822 30.9133 536.828 31.18 535.642 31.18ZM532.362 24.76H538.482C538.402 23.68 538.095 22.9067 537.562 22.44C537.042 21.9733 536.348 21.74 535.482 21.74C534.628 21.74 533.928 22.0133 533.382 22.56C532.848 23.0933 532.508 23.8267 532.362 24.76ZM546.066 31.18C544.813 31.18 543.826 30.88 543.106 30.28C542.4 29.68 542.02 28.8467 541.966 27.78H543.586C543.653 28.3933 543.866 28.8867 544.226 29.26C544.6 29.62 545.206 29.8 546.046 29.8C546.833 29.8 547.406 29.6667 547.766 29.4C548.14 29.12 548.326 28.7 548.326 28.14C548.326 27.5933 548.12 27.2 547.706 26.96C547.306 26.72 546.7 26.5267 545.886 26.38C544.98 26.2067 544.26 26 543.726 25.76C543.193 25.5067 542.813 25.1867 542.586 24.8C542.36 24.4 542.246 23.9 542.246 23.3C542.246 22.6467 542.426 22.1067 542.786 21.68C543.146 21.24 543.6 20.9133 544.146 20.7C544.693 20.4733 545.24 20.36 545.786 20.36C546.413 20.36 546.993 20.4533 547.526 20.64C548.073 20.8267 548.526 21.14 548.886 21.58C549.246 22.02 549.473 22.62 549.566 23.38H547.966C547.846 22.8067 547.613 22.3933 547.266 22.14C546.933 21.8733 546.433 21.74 545.766 21.74C545.166 21.74 544.686 21.88 544.326 22.16C543.966 22.4267 543.786 22.7867 543.786 23.24C543.786 23.7067 543.953 24.06 544.286 24.3C544.62 24.5267 545.266 24.7267 546.226 24.9C546.946 25.0333 547.58 25.2 548.126 25.4C548.686 25.6 549.12 25.9 549.426 26.3C549.746 26.6867 549.906 27.2533 549.906 28C549.906 28.9467 549.58 29.7133 548.926 30.3C548.286 30.8867 547.333 31.18 546.066 31.18ZM555.616 31.14C554.669 31.14 553.963 30.8867 553.496 30.38C553.029 29.86 552.796 29.1933 552.796 28.38V21.94H551.296V20.54H552.796V18.16H554.456V20.54H556.896V21.94H554.456V28.22C554.456 29.2333 554.889 29.74 555.756 29.74C556.023 29.74 556.256 29.72 556.456 29.68C556.669 29.64 556.863 29.5867 557.036 29.52V30.92C556.863 30.9733 556.669 31.02 556.456 31.06C556.243 31.1133 555.963 31.14 555.616 31.14ZM563.878 31L568.798 16.7H571.078L575.918 31H574.198L572.798 26.88H566.898L565.518 31H563.878ZM569.858 18.14L567.378 25.5H572.338L569.858 18.14ZM578.435 31V16.7H582.495C583.415 16.7 584.248 16.84 584.995 17.12C585.755 17.4 586.361 17.8467 586.815 18.46C587.268 19.0733 587.495 19.88 587.495 20.88V20.96C587.495 21.9733 587.268 22.7933 586.815 23.42C586.361 24.0333 585.755 24.48 584.995 24.76C584.235 25.04 583.401 25.18 582.495 25.18H580.175V31H578.435ZM580.175 23.8H582.615C583.641 23.8 584.421 23.56 584.955 23.08C585.488 22.5867 585.755 21.88 585.755 20.96V20.88C585.755 19.8667 585.475 19.1533 584.915 18.74C584.355 18.3133 583.588 18.1 582.615 18.1H580.175V23.8ZM590.156 31V16.7H591.896V31H590.156Z" fill="white"/>
<rect x="622.916" y="0.5" width="121.126" height="47" rx="11.5" stroke="white" stroke-opacity="0.1"/>
<path d="M646.392 12C640.267 12 640.65 14.6561 640.65 14.6561L640.657 17.4077H646.501V18.2339H638.335C638.335 18.2339 634.416 17.7894 634.416 23.9693C634.416 30.1492 637.837 29.93 637.837 29.93H639.878V27.0623C639.878 27.0623 639.768 23.6416 643.244 23.6416H649.041C649.041 23.6416 652.298 23.6942 652.298 20.4939V15.2023C652.298 15.2023 652.793 12 646.392 12ZM643.169 13.8504C643.751 13.8504 644.221 14.3204 644.221 14.9019C644.221 15.4834 643.751 15.9534 643.169 15.9534C642.588 15.9534 642.118 15.4834 642.118 14.9019C642.118 14.3204 642.588 13.8504 643.169 13.8504Z" fill="url(#paint0_linear_3291_10510)"/>
<path d="M646.566 35.9994C652.691 35.9994 652.308 33.3433 652.308 33.3433L652.302 30.5917H646.457V29.7655H654.623C654.623 29.7655 658.542 30.21 658.542 24.0301C658.542 17.8502 655.121 18.0693 655.121 18.0693H653.08V20.937C653.08 20.937 653.19 24.3578 649.714 24.3578H643.917C643.917 24.3578 640.66 24.3052 640.66 27.5055V32.7971C640.66 32.7971 640.165 35.9994 646.566 35.9994ZM649.789 34.149C649.207 34.149 648.737 33.679 648.737 33.0975C648.737 32.516 649.207 32.046 649.789 32.046C650.37 32.046 650.84 32.516 650.84 33.0975C650.84 33.679 650.37 34.149 649.789 34.149Z" fill="url(#paint1_linear_3291_10510)"/>
<path d="M668.342 31V16.7H672.402C673.322 16.7 674.156 16.84 674.902 17.12C675.662 17.4 676.269 17.8467 676.722 18.46C677.176 19.0733 677.402 19.88 677.402 20.88V20.96C677.402 21.9733 677.176 22.7933 676.722 23.42C676.269 24.0333 675.662 24.48 674.902 24.76C674.142 25.04 673.309 25.18 672.402 25.18H670.082V31H668.342ZM670.082 23.8H672.522C673.549 23.8 674.329 23.56 674.862 23.08C675.396 22.5867 675.662 21.88 675.662 20.96V20.88C675.662 19.8667 675.382 19.1533 674.822 18.74C674.262 18.3133 673.496 18.1 672.522 18.1H670.082V23.8ZM680.783 34.64L682.763 29.92L678.663 20.54H680.443L683.643 28.04L686.543 20.54H688.243L682.463 34.64H680.783ZM693.805 31.14C692.858 31.14 692.151 30.8867 691.685 30.38C691.218 29.86 690.985 29.1933 690.985 28.38V21.94H689.485V20.54H690.985V18.16H692.645V20.54H695.085V21.94H692.645V28.22C692.645 29.2333 693.078 29.74 693.945 29.74C694.211 29.74 694.445 29.72 694.645 29.68C694.858 29.64 695.051 29.5867 695.225 29.52V30.92C695.051 30.9733 694.858 31.02 694.645 31.06C694.431 31.1133 694.151 31.14 693.805 31.14ZM697.734 31V15.54H699.394V22.2C699.634 21.7067 700.041 21.28 700.614 20.92C701.187 20.5467 701.901 20.36 702.754 20.36C703.474 20.36 704.107 20.5 704.654 20.78C705.214 21.06 705.647 21.5133 705.954 22.14C706.274 22.7533 706.434 23.5667 706.434 24.58V31H704.774V24.46C704.774 23.54 704.574 22.8667 704.174 22.44C703.774 22.0133 703.154 21.8 702.314 21.8C701.807 21.8 701.327 21.9067 700.874 22.12C700.434 22.3333 700.074 22.6533 699.794 23.08C699.527 23.5067 699.394 24.0333 699.394 24.66V31H697.734ZM714.027 31.18C713.04 31.18 712.16 30.9533 711.387 30.5C710.614 30.0333 710.007 29.4 709.567 28.6C709.127 27.7867 708.907 26.8733 708.907 25.86V25.7C708.907 24.6467 709.127 23.72 709.567 22.92C710.02 22.12 710.634 21.4933 711.407 21.04C712.18 20.5867 713.06 20.36 714.047 20.36C715.034 20.36 715.914 20.5867 716.687 21.04C717.46 21.4933 718.067 22.12 718.507 22.92C718.96 23.7067 719.187 24.6267 719.187 25.68V25.84C719.187 26.8933 718.96 27.82 718.507 28.62C718.067 29.42 717.46 30.0467 716.687 30.5C715.914 30.9533 715.027 31.18 714.027 31.18ZM714.047 29.8C715.1 29.8 715.934 29.44 716.547 28.72C717.16 27.9867 717.467 27.0333 717.467 25.86V25.72C717.467 24.5067 717.154 23.54 716.527 22.82C715.914 22.1 715.087 21.74 714.047 21.74C712.994 21.74 712.16 22.1 711.547 22.82C710.934 23.54 710.627 24.5 710.627 25.7V25.86C710.627 27.0467 710.934 28 711.547 28.72C712.16 29.44 712.994 29.8 714.047 29.8ZM721.757 31V20.54H723.417V22.2C723.657 21.7067 724.064 21.28 724.637 20.92C725.211 20.5467 725.924 20.36 726.777 20.36C727.497 20.36 728.131 20.5 728.677 20.78C729.237 21.06 729.671 21.5133 729.977 22.14C730.297 22.7533 730.457 23.5667 730.457 24.58V31H728.797V24.46C728.797 23.54 728.597 22.8667 728.197 22.44C727.797 22.0133 727.177 21.8 726.337 21.8C725.831 21.8 725.351 21.9067 724.897 22.12C724.457 22.3333 724.097 22.6533 723.817 23.08C723.551 23.5067 723.417 24.0333 723.417 24.66V31H721.757Z" fill="white"/>
<rect x="761.042" y="0.5" width="135.2" height="47" rx="11.5" stroke="white" stroke-opacity="0.1"/>
<g clip-path="url(#clip3_3291_10510)">
<path d="M780.224 14.674C779.216 13.488 778.348 12.2646 778.18 12.0218C778.161 12.0031 778.133 12.0031 778.114 12.0218C777.937 12.274 777.069 13.488 776.061 14.6833C767.418 25.7121 777.424 33.1549 777.424 33.1549L777.508 33.2109C777.582 34.3596 777.769 36.0125 777.769 36.0125H778.142H778.516C778.516 36.0125 778.702 34.3689 778.777 33.2109L778.861 33.1456C778.861 33.1456 788.866 25.7121 780.224 14.674ZM778.142 32.9868C778.142 32.9868 777.694 32.6039 777.573 32.4078V32.3891L778.114 20.3798C778.114 20.3424 778.17 20.3424 778.17 20.3798L778.702 32.3798V32.3985C778.581 32.6039 778.142 32.9868 778.142 32.9868Z" fill="#00ED64"/>
</g>
<path d="M793.542 31V16.7H795.962L800.382 27.84L804.662 16.7H807.062V31H805.322V18.96L800.582 31H800.042L795.142 18.96V31H793.542ZM814.891 31.18C813.904 31.18 813.024 30.9533 812.251 30.5C811.478 30.0333 810.871 29.4 810.431 28.6C809.991 27.7867 809.771 26.8733 809.771 25.86V25.7C809.771 24.6467 809.991 23.72 810.431 22.92C810.884 22.12 811.498 21.4933 812.271 21.04C813.044 20.5867 813.924 20.36 814.911 20.36C815.898 20.36 816.778 20.5867 817.551 21.04C818.324 21.4933 818.931 22.12 819.371 22.92C819.824 23.7067 820.051 24.6267 820.051 25.68V25.84C820.051 26.8933 819.824 27.82 819.371 28.62C818.931 29.42 818.324 30.0467 817.551 30.5C816.778 30.9533 815.891 31.18 814.891 31.18ZM814.911 29.8C815.964 29.8 816.798 29.44 817.411 28.72C818.024 27.9867 818.331 27.0333 818.331 25.86V25.72C818.331 24.5067 818.018 23.54 817.391 22.82C816.778 22.1 815.951 21.74 814.911 21.74C813.858 21.74 813.024 22.1 812.411 22.82C811.798 23.54 811.491 24.5 811.491 25.7V25.86C811.491 27.0467 811.798 28 812.411 28.72C813.024 29.44 813.858 29.8 814.911 29.8ZM822.621 31V20.54H824.281V22.2C824.521 21.7067 824.928 21.28 825.501 20.92C826.075 20.5467 826.788 20.36 827.641 20.36C828.361 20.36 828.995 20.5 829.541 20.78C830.101 21.06 830.535 21.5133 830.841 22.14C831.161 22.7533 831.321 23.5667 831.321 24.58V31H829.661V24.46C829.661 23.54 829.461 22.8667 829.061 22.44C828.661 22.0133 828.041 21.8 827.201 21.8C826.695 21.8 826.215 21.9067 825.761 22.12C825.321 22.3333 824.961 22.6533 824.681 23.08C824.415 23.5067 824.281 24.0333 824.281 24.66V31H822.621ZM838.755 34.82C837.728 34.82 836.881 34.6733 836.215 34.38C835.548 34.0867 835.035 33.6933 834.675 33.2C834.328 32.72 834.108 32.1867 834.015 31.6H835.715C835.955 32.8133 836.961 33.42 838.735 33.42C839.761 33.42 840.575 33.16 841.175 32.64C841.788 32.1333 842.095 31.32 842.095 30.2V28.68C841.895 29.0133 841.615 29.3333 841.255 29.64C840.895 29.9467 840.481 30.1933 840.015 30.38C839.548 30.5667 839.061 30.66 838.555 30.66C837.648 30.66 836.835 30.4467 836.115 30.02C835.395 29.5933 834.828 29.0067 834.415 28.26C834.001 27.5133 833.795 26.66 833.795 25.7V25.56C833.795 24.6133 834.001 23.7467 834.415 22.96C834.828 22.1733 835.401 21.5467 836.135 21.08C836.868 20.6 837.715 20.36 838.675 20.36C839.541 20.36 840.255 20.5467 840.815 20.92C841.375 21.28 841.801 21.7133 842.095 22.22V20.54H843.755V30.3C843.755 31.3133 843.535 32.1533 843.095 32.82C842.668 33.4867 842.081 33.9867 841.335 34.32C840.588 34.6533 839.728 34.82 838.755 34.82ZM838.735 29.28C839.388 29.28 839.968 29.1333 840.475 28.84C840.995 28.5467 841.401 28.1267 841.695 27.58C842.001 27.02 842.155 26.3533 842.155 25.58V25.44C842.155 24.2667 841.855 23.36 841.255 22.72C840.668 22.0667 839.861 21.74 838.835 21.74C837.795 21.74 836.981 22.0867 836.395 22.78C835.808 23.4733 835.515 24.3733 835.515 25.48V25.64C835.515 26.4 835.661 27.0533 835.955 27.6C836.248 28.1333 836.635 28.5467 837.115 28.84C837.608 29.1333 838.148 29.28 838.735 29.28ZM851.454 31.18C850.467 31.18 849.587 30.9533 848.814 30.5C848.04 30.0333 847.434 29.4 846.994 28.6C846.554 27.7867 846.334 26.8733 846.334 25.86V25.7C846.334 24.6467 846.554 23.72 846.994 22.92C847.447 22.12 848.06 21.4933 848.834 21.04C849.607 20.5867 850.487 20.36 851.474 20.36C852.46 20.36 853.34 20.5867 854.114 21.04C854.887 21.4933 855.494 22.12 855.934 22.92C856.387 23.7067 856.614 24.6267 856.614 25.68V25.84C856.614 26.8933 856.387 27.82 855.934 28.62C855.494 29.42 854.887 30.0467 854.114 30.5C853.34 30.9533 852.454 31.18 851.454 31.18ZM851.474 29.8C852.527 29.8 853.36 29.44 853.974 28.72C854.587 27.9867 854.894 27.0333 854.894 25.86V25.72C854.894 24.5067 854.58 23.54 853.954 22.82C853.34 22.1 852.514 21.74 851.474 21.74C850.42 21.74 849.587 22.1 848.974 22.82C848.36 23.54 848.054 24.5 848.054 25.7V25.86C848.054 27.0467 848.36 28 848.974 28.72C849.587 29.44 850.42 29.8 851.474 29.8ZM859.304 31V16.7H863.084C864.724 16.7 866.077 17.0133 867.144 17.64C868.224 18.2533 869.024 19.0867 869.544 20.14C870.064 21.1933 870.324 22.3867 870.324 23.72V23.9C870.324 25.22 870.064 26.42 869.544 27.5C869.024 28.5667 868.224 29.42 867.144 30.06C866.077 30.6867 864.711 31 863.044 31H859.304ZM861.044 29.58H863.004C864.844 29.58 866.224 29.0667 867.144 28.04C868.064 27.0133 868.524 25.6267 868.524 23.88V23.72C868.524 22.6133 868.337 21.64 867.964 20.8C867.591 19.96 866.997 19.3 866.184 18.82C865.371 18.34 864.304 18.1 862.984 18.1H861.044V29.58ZM873.23 31V16.7H877.53C878.423 16.7 879.21 16.8133 879.89 17.04C880.583 17.2667 881.13 17.6467 881.53 18.18C881.93 18.7133 882.13 19.4533 882.13 20.4V20.48C882.13 21.1333 881.976 21.7333 881.67 22.28C881.363 22.8133 880.796 23.22 879.97 23.5C881.01 23.7533 881.743 24.1533 882.17 24.7C882.61 25.2467 882.83 25.9867 882.83 26.92V27C882.83 28.3467 882.403 29.3533 881.55 30.02C880.696 30.6733 879.556 31 878.13 31H873.23ZM874.93 22.94H877.53C878.583 22.94 879.33 22.74 879.77 22.34C880.21 21.94 880.43 21.3 880.43 20.42V20.34C880.43 19.5267 880.19 18.9467 879.71 18.6C879.23 18.24 878.49 18.06 877.49 18.06H874.93V22.94ZM874.93 29.64H878.09C879.13 29.64 879.896 29.4133 880.39 28.96C880.883 28.5067 881.13 27.8467 881.13 26.98V26.9C881.13 26.02 880.87 25.3667 880.35 24.94C879.83 24.5133 878.996 24.3 877.85 24.3H874.93V29.64Z" fill="white"/>
<defs>
<linearGradient id="paint0_linear_3291_10510" x1="866.273" y1="227.879" x2="2061.88" y2="1411.56" gradientUnits="userSpaceOnUse">
<stop stop-color="#387EB8"/>
<stop offset="1" stop-color="#366994"/>
</linearGradient>
<linearGradient id="paint1_linear_3291_10510" x1="982.864" y1="387.074" x2="2266.82" y2="1600.83" gradientUnits="userSpaceOnUse">
<stop stop-color="#FFE052"/>
<stop offset="1" stop-color="#FFC331"/>
</linearGradient>
<clipPath id="clip0_3291_10510">
<rect width="24" height="24" fill="white" transform="translate(12 12)"/>
</clipPath>
<clipPath id="clip1_3291_10510">
<rect width="24" height="24" fill="white" transform="translate(161 12)"/>
</clipPath>
<clipPath id="clip2_3291_10510">
<rect width="24" height="24" fill="white" transform="translate(485.416 12)"/>
</clipPath>
<clipPath id="clip3_3291_10510">
<rect width="11.2" height="24" fill="white" transform="translate(772.542 12)"/>
</clipPath>
</defs>
</svg>
